G04 #@! TF.FileFunction,Legend,Top*
%FSLAX46Y46*%
G04 Gerber Fmt 4.6, Leading zero omitted, Abs format (unit mm)*
G04 Created by KiCad (PCBNEW 4.0.6+dfsg1-1) date Wed May  9 09:06:51 2018*
%MOMM*%
%LPD*%
G01*
G04 APERTURE LIST*
%ADD10C,0.100000*%
%ADD11C,0.300000*%
%ADD12C,0.120000*%
%ADD13C,0.150000*%
%ADD14R,2.200000X2.200000*%
%ADD15C,2.200000*%
%ADD16R,2.100000X2.100000*%
%ADD17O,2.100000X2.100000*%
%ADD18R,1.700000X1.900000*%
G04 APERTURE END LIST*
D10*
D11*
X136826572Y-96944571D02*
X135969429Y-96944571D01*
X136398001Y-96944571D02*
X136398001Y-95444571D01*
X136255144Y-95658857D01*
X136112286Y-95801714D01*
X135969429Y-95873143D01*
X135410714Y-87062571D02*
X136267857Y-87062571D01*
X135839286Y-88562571D02*
X135839286Y-87062571D01*
X136767857Y-88562571D02*
X136767857Y-87062571D01*
X136767857Y-87776857D02*
X137625000Y-87776857D01*
X137625000Y-88562571D02*
X137625000Y-87062571D01*
X138339286Y-88562571D02*
X138339286Y-87062571D01*
X138982143Y-88491143D02*
X139196429Y-88562571D01*
X139553572Y-88562571D01*
X139696429Y-88491143D01*
X139767858Y-88419714D01*
X139839286Y-88276857D01*
X139839286Y-88134000D01*
X139767858Y-87991143D01*
X139696429Y-87919714D01*
X139553572Y-87848286D01*
X139267858Y-87776857D01*
X139125000Y-87705429D01*
X139053572Y-87634000D01*
X138982143Y-87491143D01*
X138982143Y-87348286D01*
X139053572Y-87205429D01*
X139125000Y-87134000D01*
X139267858Y-87062571D01*
X139625000Y-87062571D01*
X139839286Y-87134000D01*
X141553571Y-88491143D02*
X141767857Y-88562571D01*
X142125000Y-88562571D01*
X142267857Y-88491143D01*
X142339286Y-88419714D01*
X142410714Y-88276857D01*
X142410714Y-88134000D01*
X142339286Y-87991143D01*
X142267857Y-87919714D01*
X142125000Y-87848286D01*
X141839286Y-87776857D01*
X141696428Y-87705429D01*
X141625000Y-87634000D01*
X141553571Y-87491143D01*
X141553571Y-87348286D01*
X141625000Y-87205429D01*
X141696428Y-87134000D01*
X141839286Y-87062571D01*
X142196428Y-87062571D01*
X142410714Y-87134000D01*
X143053571Y-88562571D02*
X143053571Y-87062571D01*
X143767857Y-88562571D02*
X143767857Y-87062571D01*
X144125000Y-87062571D01*
X144339285Y-87134000D01*
X144482143Y-87276857D01*
X144553571Y-87419714D01*
X144625000Y-87705429D01*
X144625000Y-87919714D01*
X144553571Y-88205429D01*
X144482143Y-88348286D01*
X144339285Y-88491143D01*
X144125000Y-88562571D01*
X143767857Y-88562571D01*
X145267857Y-87776857D02*
X145767857Y-87776857D01*
X145982143Y-88562571D02*
X145267857Y-88562571D01*
X145267857Y-87062571D01*
X145982143Y-87062571D01*
X147767857Y-87062571D02*
X147767857Y-88276857D01*
X147839285Y-88419714D01*
X147910714Y-88491143D01*
X148053571Y-88562571D01*
X148339285Y-88562571D01*
X148482143Y-88491143D01*
X148553571Y-88419714D01*
X148625000Y-88276857D01*
X148625000Y-87062571D01*
X149339286Y-88562571D02*
X149339286Y-87062571D01*
X149910714Y-87062571D01*
X150053572Y-87134000D01*
X150125000Y-87205429D01*
X150196429Y-87348286D01*
X150196429Y-87562571D01*
X150125000Y-87705429D01*
X150053572Y-87776857D01*
X149910714Y-87848286D01*
X149339286Y-87848286D01*
D12*
X147557000Y-96333000D02*
X147217000Y-96333000D01*
X147217000Y-96333000D02*
X147217000Y-101533000D01*
X147217000Y-101533000D02*
X147557000Y-101533000D01*
X149877000Y-96333000D02*
X150217000Y-96333000D01*
X150217000Y-96333000D02*
X150217000Y-101533000D01*
X150217000Y-101533000D02*
X149877000Y-101533000D01*
X151867000Y-100703000D02*
X151867000Y-101103000D01*
X151867000Y-100703000D02*
X152267000Y-100703000D01*
X151867000Y-100703000D02*
X152667000Y-101503000D01*
X152267000Y-99703000D02*
X153067000Y-100503000D01*
X152267000Y-99703000D02*
X152667000Y-99703000D01*
X152267000Y-99703000D02*
X152267000Y-100103000D01*
X150218736Y-101032917D02*
G75*
G03X150217000Y-96833000I-101736J2099917D01*
G01*
X140905608Y-99970335D02*
G75*
G03X141062516Y-96738000I-1078608J1672335D01*
G01*
X138748392Y-99970335D02*
G75*
G02X138591484Y-96738000I1078608J1672335D01*
G01*
X140906837Y-99339130D02*
G75*
G03X140907000Y-97257039I-1079837J1041130D01*
G01*
X138747163Y-99339130D02*
G75*
G02X138747000Y-97257039I1079837J1041130D01*
G01*
X141063000Y-96738000D02*
X140907000Y-96738000D01*
X138747000Y-96738000D02*
X138591000Y-96738000D01*
X150555000Y-94548000D02*
X150555000Y-89348000D01*
X137795000Y-94548000D02*
X150555000Y-94548000D01*
X135195000Y-89348000D02*
X150555000Y-89348000D01*
X137795000Y-94548000D02*
X137795000Y-91948000D01*
X137795000Y-91948000D02*
X135195000Y-91948000D01*
X135195000Y-91948000D02*
X135195000Y-89348000D01*
X136525000Y-94548000D02*
X135195000Y-94548000D01*
X135195000Y-94548000D02*
X135195000Y-93218000D01*
X143392000Y-98851000D02*
X143392000Y-97651000D01*
X145152000Y-97651000D02*
X145152000Y-98851000D01*
D13*
X150876095Y-95464381D02*
X150876095Y-96273905D01*
X150923714Y-96369143D01*
X150971333Y-96416762D01*
X151066571Y-96464381D01*
X151257048Y-96464381D01*
X151352286Y-96416762D01*
X151399905Y-96369143D01*
X151447524Y-96273905D01*
X151447524Y-95464381D01*
X152447524Y-96464381D02*
X151876095Y-96464381D01*
X152161809Y-96464381D02*
X152161809Y-95464381D01*
X152066571Y-95607238D01*
X151971333Y-95702476D01*
X151876095Y-95750095D01*
X137120405Y-100972881D02*
X137120405Y-99972881D01*
X137358500Y-99972881D01*
X137501358Y-100020500D01*
X137596596Y-100115738D01*
X137644215Y-100210976D01*
X137691834Y-100401452D01*
X137691834Y-100544310D01*
X137644215Y-100734786D01*
X137596596Y-100830024D01*
X137501358Y-100925262D01*
X137358500Y-100972881D01*
X137120405Y-100972881D01*
X138644215Y-100972881D02*
X138072786Y-100972881D01*
X138358500Y-100972881D02*
X138358500Y-99972881D01*
X138263262Y-100115738D01*
X138168024Y-100210976D01*
X138072786Y-100258595D01*
X150899881Y-92408333D02*
X151614167Y-92408333D01*
X151757024Y-92455953D01*
X151852262Y-92551191D01*
X151899881Y-92694048D01*
X151899881Y-92789286D01*
X151899881Y-91408333D02*
X151899881Y-91979762D01*
X151899881Y-91694048D02*
X150899881Y-91694048D01*
X151042738Y-91789286D01*
X151137976Y-91884524D01*
X151185595Y-91979762D01*
X144041834Y-102052381D02*
X143708500Y-101576190D01*
X143470405Y-102052381D02*
X143470405Y-101052381D01*
X143851358Y-101052381D01*
X143946596Y-101100000D01*
X143994215Y-101147619D01*
X144041834Y-101242857D01*
X144041834Y-101385714D01*
X143994215Y-101480952D01*
X143946596Y-101528571D01*
X143851358Y-101576190D01*
X143470405Y-101576190D01*
X144994215Y-102052381D02*
X144422786Y-102052381D01*
X144708500Y-102052381D02*
X144708500Y-101052381D01*
X144613262Y-101195238D01*
X144518024Y-101290476D01*
X144422786Y-101338095D01*
%LPC*%
D14*
X148717000Y-101473000D03*
D15*
X148717000Y-98933000D03*
X148717000Y-96393000D03*
D14*
X139827000Y-97028000D03*
D15*
X139827000Y-99568000D03*
D16*
X136525000Y-93218000D03*
D17*
X136525000Y-90678000D03*
X139065000Y-93218000D03*
X139065000Y-90678000D03*
X141605000Y-93218000D03*
X141605000Y-90678000D03*
X144145000Y-93218000D03*
X144145000Y-90678000D03*
X146685000Y-93218000D03*
X146685000Y-90678000D03*
X149225000Y-93218000D03*
X149225000Y-90678000D03*
D18*
X144272000Y-96901000D03*
X144272000Y-99601000D03*
M02*
