%FSLAX45Y45*%
G04 Gerber Fmt 4.5, Leading zero omitted, Abs format (unit mm)*
G04 Created by KiCad (PCBNEW 4.0.6+dfsg1-1) date Wed May  9 09:07:01 2018*
%MOMM*%
%LPD*%
G01*
G04 APERTURE LIST*
%ADD10C,0.127000*%
%ADD11C,0.150000*%
%ADD12C,0.200000*%
%ADD13C,0.300000*%
G04 APERTURE END LIST*
D10*
D11*
X13462000Y-10287000D02*
X13462000Y-8636000D01*
X15316200Y-10287000D02*
X13462000Y-10287000D01*
X15316200Y-8636000D02*
X15316200Y-10287000D01*
X13462000Y-8636000D02*
X15316200Y-8636000D01*
D12*
X13937700Y-9657800D02*
X14027700Y-9747800D01*
X14027700Y-9657800D02*
X13937700Y-9747800D01*
X13937700Y-9911800D02*
X14027700Y-10001800D01*
X14027700Y-9911800D02*
X13937700Y-10001800D01*
X14826700Y-9594300D02*
X14916700Y-9684300D01*
X14916700Y-9594300D02*
X14826700Y-9684300D01*
X14826700Y-9848300D02*
X14916700Y-9938300D01*
X14916700Y-9848300D02*
X14826700Y-9938300D01*
X14826700Y-10102300D02*
X14916700Y-10192300D01*
X14916700Y-10102300D02*
X14826700Y-10192300D01*
X13702500Y-9067800D02*
G75*
G03X13702500Y-9067800I-50000J0D01*
G01*
X13702500Y-9321800D02*
G75*
G03X13702500Y-9321800I-50000J0D01*
G01*
X13956500Y-9067800D02*
G75*
G03X13956500Y-9067800I-50000J0D01*
G01*
X13956500Y-9321800D02*
G75*
G03X13956500Y-9321800I-50000J0D01*
G01*
X14210500Y-9067800D02*
G75*
G03X14210500Y-9067800I-50000J0D01*
G01*
X14210500Y-9321800D02*
G75*
G03X14210500Y-9321800I-50000J0D01*
G01*
X14464500Y-9067800D02*
G75*
G03X14464500Y-9067800I-50000J0D01*
G01*
X14464500Y-9321800D02*
G75*
G03X14464500Y-9321800I-50000J0D01*
G01*
X14718500Y-9067800D02*
G75*
G03X14718500Y-9067800I-50000J0D01*
G01*
X14718500Y-9321800D02*
G75*
G03X14718500Y-9321800I-50000J0D01*
G01*
X14972500Y-9067800D02*
G75*
G03X14972500Y-9067800I-50000J0D01*
G01*
X14972500Y-9321800D02*
G75*
G03X14972500Y-9321800I-50000J0D01*
G01*
D13*
X13725928Y-10760214D02*
X13725928Y-10460214D01*
X13797357Y-10460214D01*
X13840214Y-10474500D01*
X13868786Y-10503072D01*
X13883071Y-10531643D01*
X13897357Y-10588786D01*
X13897357Y-10631643D01*
X13883071Y-10688786D01*
X13868786Y-10717357D01*
X13840214Y-10745929D01*
X13797357Y-10760214D01*
X13725928Y-10760214D01*
X14025928Y-10760214D02*
X14025928Y-10560214D01*
X14025928Y-10617357D02*
X14040214Y-10588786D01*
X14054500Y-10574500D01*
X14083071Y-10560214D01*
X14111643Y-10560214D01*
X14211643Y-10760214D02*
X14211643Y-10560214D01*
X14211643Y-10460214D02*
X14197357Y-10474500D01*
X14211643Y-10488786D01*
X14225928Y-10474500D01*
X14211643Y-10460214D01*
X14211643Y-10488786D01*
X14397357Y-10760214D02*
X14368786Y-10745929D01*
X14354500Y-10717357D01*
X14354500Y-10460214D01*
X14554500Y-10760214D02*
X14525928Y-10745929D01*
X14511643Y-10717357D01*
X14511643Y-10460214D01*
X14897357Y-10760214D02*
X14897357Y-10460214D01*
X14997357Y-10674500D01*
X15097357Y-10460214D01*
X15097357Y-10760214D01*
X15368786Y-10760214D02*
X15368786Y-10603072D01*
X15354500Y-10574500D01*
X15325928Y-10560214D01*
X15268786Y-10560214D01*
X15240214Y-10574500D01*
X15368786Y-10745929D02*
X15340214Y-10760214D01*
X15268786Y-10760214D01*
X15240214Y-10745929D01*
X15225928Y-10717357D01*
X15225928Y-10688786D01*
X15240214Y-10660214D01*
X15268786Y-10645929D01*
X15340214Y-10645929D01*
X15368786Y-10631643D01*
X15511643Y-10560214D02*
X15511643Y-10860214D01*
X15511643Y-10574500D02*
X15540214Y-10560214D01*
X15597357Y-10560214D01*
X15625928Y-10574500D01*
X15640214Y-10588786D01*
X15654500Y-10617357D01*
X15654500Y-10703072D01*
X15640214Y-10731643D01*
X15625928Y-10745929D01*
X15597357Y-10760214D01*
X15540214Y-10760214D01*
X15511643Y-10745929D01*
X15783071Y-10731643D02*
X15797357Y-10745929D01*
X15783071Y-10760214D01*
X15768786Y-10745929D01*
X15783071Y-10731643D01*
X15783071Y-10760214D01*
X15783071Y-10574500D02*
X15797357Y-10588786D01*
X15783071Y-10603072D01*
X15768786Y-10588786D01*
X15783071Y-10574500D01*
X15783071Y-10603072D01*
X13364500Y-11209500D02*
X13454500Y-11299500D01*
X13454500Y-11209500D02*
X13364500Y-11299500D01*
X13783071Y-11090214D02*
X13811643Y-11090214D01*
X13840214Y-11104500D01*
X13854500Y-11118786D01*
X13868786Y-11147357D01*
X13883071Y-11204500D01*
X13883071Y-11275929D01*
X13868786Y-11333071D01*
X13854500Y-11361643D01*
X13840214Y-11375929D01*
X13811643Y-11390214D01*
X13783071Y-11390214D01*
X13754500Y-11375929D01*
X13740214Y-11361643D01*
X13725928Y-11333071D01*
X13711643Y-11275929D01*
X13711643Y-11204500D01*
X13725928Y-11147357D01*
X13740214Y-11118786D01*
X13754500Y-11104500D01*
X13783071Y-11090214D01*
X14011643Y-11361643D02*
X14025928Y-11375929D01*
X14011643Y-11390214D01*
X13997357Y-11375929D01*
X14011643Y-11361643D01*
X14011643Y-11390214D01*
X14168786Y-11390214D02*
X14225928Y-11390214D01*
X14254500Y-11375929D01*
X14268786Y-11361643D01*
X14297357Y-11318786D01*
X14311643Y-11261643D01*
X14311643Y-11147357D01*
X14297357Y-11118786D01*
X14283071Y-11104500D01*
X14254500Y-11090214D01*
X14197357Y-11090214D01*
X14168786Y-11104500D01*
X14154500Y-11118786D01*
X14140214Y-11147357D01*
X14140214Y-11218786D01*
X14154500Y-11247357D01*
X14168786Y-11261643D01*
X14197357Y-11275929D01*
X14254500Y-11275929D01*
X14283071Y-11261643D01*
X14297357Y-11247357D01*
X14311643Y-11218786D01*
X14497357Y-11090214D02*
X14525928Y-11090214D01*
X14554500Y-11104500D01*
X14568786Y-11118786D01*
X14583071Y-11147357D01*
X14597357Y-11204500D01*
X14597357Y-11275929D01*
X14583071Y-11333071D01*
X14568786Y-11361643D01*
X14554500Y-11375929D01*
X14525928Y-11390214D01*
X14497357Y-11390214D01*
X14468786Y-11375929D01*
X14454500Y-11361643D01*
X14440214Y-11333071D01*
X14425928Y-11275929D01*
X14425928Y-11204500D01*
X14440214Y-11147357D01*
X14454500Y-11118786D01*
X14468786Y-11104500D01*
X14497357Y-11090214D01*
X14725928Y-11390214D02*
X14725928Y-11190214D01*
X14725928Y-11218786D02*
X14740214Y-11204500D01*
X14768786Y-11190214D01*
X14811643Y-11190214D01*
X14840214Y-11204500D01*
X14854500Y-11233071D01*
X14854500Y-11390214D01*
X14854500Y-11233071D02*
X14868786Y-11204500D01*
X14897357Y-11190214D01*
X14940214Y-11190214D01*
X14968786Y-11204500D01*
X14983071Y-11233071D01*
X14983071Y-11390214D01*
X15125928Y-11390214D02*
X15125928Y-11190214D01*
X15125928Y-11218786D02*
X15140214Y-11204500D01*
X15168786Y-11190214D01*
X15211643Y-11190214D01*
X15240214Y-11204500D01*
X15254500Y-11233071D01*
X15254500Y-11390214D01*
X15254500Y-11233071D02*
X15268786Y-11204500D01*
X15297357Y-11190214D01*
X15340214Y-11190214D01*
X15368786Y-11204500D01*
X15383071Y-11233071D01*
X15383071Y-11390214D01*
X15968786Y-11075929D02*
X15711643Y-11461643D01*
X16354500Y-11090214D02*
X16383071Y-11090214D01*
X16411643Y-11104500D01*
X16425928Y-11118786D01*
X16440214Y-11147357D01*
X16454500Y-11204500D01*
X16454500Y-11275929D01*
X16440214Y-11333071D01*
X16425928Y-11361643D01*
X16411643Y-11375929D01*
X16383071Y-11390214D01*
X16354500Y-11390214D01*
X16325928Y-11375929D01*
X16311643Y-11361643D01*
X16297357Y-11333071D01*
X16283071Y-11275929D01*
X16283071Y-11204500D01*
X16297357Y-11147357D01*
X16311643Y-11118786D01*
X16325928Y-11104500D01*
X16354500Y-11090214D01*
X16583071Y-11361643D02*
X16597357Y-11375929D01*
X16583071Y-11390214D01*
X16568786Y-11375929D01*
X16583071Y-11361643D01*
X16583071Y-11390214D01*
X16783071Y-11090214D02*
X16811643Y-11090214D01*
X16840214Y-11104500D01*
X16854500Y-11118786D01*
X16868786Y-11147357D01*
X16883071Y-11204500D01*
X16883071Y-11275929D01*
X16868786Y-11333071D01*
X16854500Y-11361643D01*
X16840214Y-11375929D01*
X16811643Y-11390214D01*
X16783071Y-11390214D01*
X16754500Y-11375929D01*
X16740214Y-11361643D01*
X16725928Y-11333071D01*
X16711643Y-11275929D01*
X16711643Y-11204500D01*
X16725928Y-11147357D01*
X16740214Y-11118786D01*
X16754500Y-11104500D01*
X16783071Y-11090214D01*
X16983071Y-11090214D02*
X17168786Y-11090214D01*
X17068786Y-11204500D01*
X17111643Y-11204500D01*
X17140214Y-11218786D01*
X17154500Y-11233071D01*
X17168786Y-11261643D01*
X17168786Y-11333071D01*
X17154500Y-11361643D01*
X17140214Y-11375929D01*
X17111643Y-11390214D01*
X17025928Y-11390214D01*
X16997357Y-11375929D01*
X16983071Y-11361643D01*
X17440214Y-11090214D02*
X17297357Y-11090214D01*
X17283071Y-11233071D01*
X17297357Y-11218786D01*
X17325928Y-11204500D01*
X17397357Y-11204500D01*
X17425928Y-11218786D01*
X17440214Y-11233071D01*
X17454500Y-11261643D01*
X17454500Y-11333071D01*
X17440214Y-11361643D01*
X17425928Y-11375929D01*
X17397357Y-11390214D01*
X17325928Y-11390214D01*
X17297357Y-11375929D01*
X17283071Y-11361643D01*
X17568786Y-11090214D02*
X17568786Y-11147357D01*
X17683071Y-11090214D02*
X17683071Y-11147357D01*
X18125928Y-11504500D02*
X18111643Y-11490214D01*
X18083071Y-11447357D01*
X18068786Y-11418786D01*
X18054500Y-11375929D01*
X18040214Y-11304500D01*
X18040214Y-11247357D01*
X18054500Y-11175929D01*
X18068786Y-11133072D01*
X18083071Y-11104500D01*
X18111643Y-11061643D01*
X18125928Y-11047357D01*
X18383071Y-11090214D02*
X18240214Y-11090214D01*
X18225928Y-11233071D01*
X18240214Y-11218786D01*
X18268786Y-11204500D01*
X18340214Y-11204500D01*
X18368786Y-11218786D01*
X18383071Y-11233071D01*
X18397357Y-11261643D01*
X18397357Y-11333071D01*
X18383071Y-11361643D01*
X18368786Y-11375929D01*
X18340214Y-11390214D01*
X18268786Y-11390214D01*
X18240214Y-11375929D01*
X18225928Y-11361643D01*
X18754500Y-11390214D02*
X18754500Y-11090214D01*
X18883071Y-11390214D02*
X18883071Y-11233071D01*
X18868786Y-11204500D01*
X18840214Y-11190214D01*
X18797357Y-11190214D01*
X18768786Y-11204500D01*
X18754500Y-11218786D01*
X19068786Y-11390214D02*
X19040214Y-11375929D01*
X19025928Y-11361643D01*
X19011643Y-11333071D01*
X19011643Y-11247357D01*
X19025928Y-11218786D01*
X19040214Y-11204500D01*
X19068786Y-11190214D01*
X19111643Y-11190214D01*
X19140214Y-11204500D01*
X19154500Y-11218786D01*
X19168786Y-11247357D01*
X19168786Y-11333071D01*
X19154500Y-11361643D01*
X19140214Y-11375929D01*
X19111643Y-11390214D01*
X19068786Y-11390214D01*
X19340214Y-11390214D02*
X19311643Y-11375929D01*
X19297357Y-11347357D01*
X19297357Y-11090214D01*
X19568786Y-11375929D02*
X19540214Y-11390214D01*
X19483071Y-11390214D01*
X19454500Y-11375929D01*
X19440214Y-11347357D01*
X19440214Y-11233071D01*
X19454500Y-11204500D01*
X19483071Y-11190214D01*
X19540214Y-11190214D01*
X19568786Y-11204500D01*
X19583071Y-11233071D01*
X19583071Y-11261643D01*
X19440214Y-11290214D01*
X19697357Y-11375929D02*
X19725929Y-11390214D01*
X19783071Y-11390214D01*
X19811643Y-11375929D01*
X19825929Y-11347357D01*
X19825929Y-11333071D01*
X19811643Y-11304500D01*
X19783071Y-11290214D01*
X19740214Y-11290214D01*
X19711643Y-11275929D01*
X19697357Y-11247357D01*
X19697357Y-11233071D01*
X19711643Y-11204500D01*
X19740214Y-11190214D01*
X19783071Y-11190214D01*
X19811643Y-11204500D01*
X19925928Y-11504500D02*
X19940214Y-11490214D01*
X19968786Y-11447357D01*
X19983071Y-11418786D01*
X19997357Y-11375929D01*
X20011643Y-11304500D01*
X20011643Y-11247357D01*
X19997357Y-11175929D01*
X19983071Y-11133072D01*
X19968786Y-11104500D01*
X19940214Y-11061643D01*
X19925928Y-11047357D01*
X13454500Y-11650500D02*
G75*
G03X13454500Y-11650500I-50000J0D01*
G01*
X13883071Y-11786214D02*
X13711643Y-11786214D01*
X13797357Y-11786214D02*
X13797357Y-11486214D01*
X13768786Y-11529071D01*
X13740214Y-11557643D01*
X13711643Y-11571929D01*
X14011643Y-11757643D02*
X14025928Y-11771929D01*
X14011643Y-11786214D01*
X13997357Y-11771929D01*
X14011643Y-11757643D01*
X14011643Y-11786214D01*
X14211643Y-11486214D02*
X14240214Y-11486214D01*
X14268786Y-11500500D01*
X14283071Y-11514786D01*
X14297357Y-11543357D01*
X14311643Y-11600500D01*
X14311643Y-11671929D01*
X14297357Y-11729071D01*
X14283071Y-11757643D01*
X14268786Y-11771929D01*
X14240214Y-11786214D01*
X14211643Y-11786214D01*
X14183071Y-11771929D01*
X14168786Y-11757643D01*
X14154500Y-11729071D01*
X14140214Y-11671929D01*
X14140214Y-11600500D01*
X14154500Y-11543357D01*
X14168786Y-11514786D01*
X14183071Y-11500500D01*
X14211643Y-11486214D01*
X14497357Y-11486214D02*
X14525928Y-11486214D01*
X14554500Y-11500500D01*
X14568786Y-11514786D01*
X14583071Y-11543357D01*
X14597357Y-11600500D01*
X14597357Y-11671929D01*
X14583071Y-11729071D01*
X14568786Y-11757643D01*
X14554500Y-11771929D01*
X14525928Y-11786214D01*
X14497357Y-11786214D01*
X14468786Y-11771929D01*
X14454500Y-11757643D01*
X14440214Y-11729071D01*
X14425928Y-11671929D01*
X14425928Y-11600500D01*
X14440214Y-11543357D01*
X14454500Y-11514786D01*
X14468786Y-11500500D01*
X14497357Y-11486214D01*
X14725928Y-11786214D02*
X14725928Y-11586214D01*
X14725928Y-11614786D02*
X14740214Y-11600500D01*
X14768786Y-11586214D01*
X14811643Y-11586214D01*
X14840214Y-11600500D01*
X14854500Y-11629071D01*
X14854500Y-11786214D01*
X14854500Y-11629071D02*
X14868786Y-11600500D01*
X14897357Y-11586214D01*
X14940214Y-11586214D01*
X14968786Y-11600500D01*
X14983071Y-11629071D01*
X14983071Y-11786214D01*
X15125928Y-11786214D02*
X15125928Y-11586214D01*
X15125928Y-11614786D02*
X15140214Y-11600500D01*
X15168786Y-11586214D01*
X15211643Y-11586214D01*
X15240214Y-11600500D01*
X15254500Y-11629071D01*
X15254500Y-11786214D01*
X15254500Y-11629071D02*
X15268786Y-11600500D01*
X15297357Y-11586214D01*
X15340214Y-11586214D01*
X15368786Y-11600500D01*
X15383071Y-11629071D01*
X15383071Y-11786214D01*
X15968786Y-11471929D02*
X15711643Y-11857643D01*
X16354500Y-11486214D02*
X16383071Y-11486214D01*
X16411643Y-11500500D01*
X16425928Y-11514786D01*
X16440214Y-11543357D01*
X16454500Y-11600500D01*
X16454500Y-11671929D01*
X16440214Y-11729071D01*
X16425928Y-11757643D01*
X16411643Y-11771929D01*
X16383071Y-11786214D01*
X16354500Y-11786214D01*
X16325928Y-11771929D01*
X16311643Y-11757643D01*
X16297357Y-11729071D01*
X16283071Y-11671929D01*
X16283071Y-11600500D01*
X16297357Y-11543357D01*
X16311643Y-11514786D01*
X16325928Y-11500500D01*
X16354500Y-11486214D01*
X16583071Y-11757643D02*
X16597357Y-11771929D01*
X16583071Y-11786214D01*
X16568786Y-11771929D01*
X16583071Y-11757643D01*
X16583071Y-11786214D01*
X16783071Y-11486214D02*
X16811643Y-11486214D01*
X16840214Y-11500500D01*
X16854500Y-11514786D01*
X16868786Y-11543357D01*
X16883071Y-11600500D01*
X16883071Y-11671929D01*
X16868786Y-11729071D01*
X16854500Y-11757643D01*
X16840214Y-11771929D01*
X16811643Y-11786214D01*
X16783071Y-11786214D01*
X16754500Y-11771929D01*
X16740214Y-11757643D01*
X16725928Y-11729071D01*
X16711643Y-11671929D01*
X16711643Y-11600500D01*
X16725928Y-11543357D01*
X16740214Y-11514786D01*
X16754500Y-11500500D01*
X16783071Y-11486214D01*
X16983071Y-11486214D02*
X17168786Y-11486214D01*
X17068786Y-11600500D01*
X17111643Y-11600500D01*
X17140214Y-11614786D01*
X17154500Y-11629071D01*
X17168786Y-11657643D01*
X17168786Y-11729071D01*
X17154500Y-11757643D01*
X17140214Y-11771929D01*
X17111643Y-11786214D01*
X17025928Y-11786214D01*
X16997357Y-11771929D01*
X16983071Y-11757643D01*
X17311643Y-11786214D02*
X17368786Y-11786214D01*
X17397357Y-11771929D01*
X17411643Y-11757643D01*
X17440214Y-11714786D01*
X17454500Y-11657643D01*
X17454500Y-11543357D01*
X17440214Y-11514786D01*
X17425928Y-11500500D01*
X17397357Y-11486214D01*
X17340214Y-11486214D01*
X17311643Y-11500500D01*
X17297357Y-11514786D01*
X17283071Y-11543357D01*
X17283071Y-11614786D01*
X17297357Y-11643357D01*
X17311643Y-11657643D01*
X17340214Y-11671929D01*
X17397357Y-11671929D01*
X17425928Y-11657643D01*
X17440214Y-11643357D01*
X17454500Y-11614786D01*
X17568786Y-11486214D02*
X17568786Y-11543357D01*
X17683071Y-11486214D02*
X17683071Y-11543357D01*
X18125928Y-11900500D02*
X18111643Y-11886214D01*
X18083071Y-11843357D01*
X18068786Y-11814786D01*
X18054500Y-11771929D01*
X18040214Y-11700500D01*
X18040214Y-11643357D01*
X18054500Y-11571929D01*
X18068786Y-11529071D01*
X18083071Y-11500500D01*
X18111643Y-11457643D01*
X18125928Y-11443357D01*
X18397357Y-11786214D02*
X18225928Y-11786214D01*
X18311643Y-11786214D02*
X18311643Y-11486214D01*
X18283071Y-11529071D01*
X18254500Y-11557643D01*
X18225928Y-11571929D01*
X18511643Y-11514786D02*
X18525928Y-11500500D01*
X18554500Y-11486214D01*
X18625928Y-11486214D01*
X18654500Y-11500500D01*
X18668786Y-11514786D01*
X18683071Y-11543357D01*
X18683071Y-11571929D01*
X18668786Y-11614786D01*
X18497357Y-11786214D01*
X18683071Y-11786214D01*
X19040214Y-11786214D02*
X19040214Y-11486214D01*
X19168786Y-11786214D02*
X19168786Y-11629071D01*
X19154500Y-11600500D01*
X19125928Y-11586214D01*
X19083071Y-11586214D01*
X19054500Y-11600500D01*
X19040214Y-11614786D01*
X19354500Y-11786214D02*
X19325928Y-11771929D01*
X19311643Y-11757643D01*
X19297357Y-11729071D01*
X19297357Y-11643357D01*
X19311643Y-11614786D01*
X19325928Y-11600500D01*
X19354500Y-11586214D01*
X19397357Y-11586214D01*
X19425928Y-11600500D01*
X19440214Y-11614786D01*
X19454500Y-11643357D01*
X19454500Y-11729071D01*
X19440214Y-11757643D01*
X19425928Y-11771929D01*
X19397357Y-11786214D01*
X19354500Y-11786214D01*
X19625928Y-11786214D02*
X19597357Y-11771929D01*
X19583071Y-11743357D01*
X19583071Y-11486214D01*
X19854500Y-11771929D02*
X19825929Y-11786214D01*
X19768786Y-11786214D01*
X19740214Y-11771929D01*
X19725929Y-11743357D01*
X19725929Y-11629071D01*
X19740214Y-11600500D01*
X19768786Y-11586214D01*
X19825929Y-11586214D01*
X19854500Y-11600500D01*
X19868786Y-11629071D01*
X19868786Y-11657643D01*
X19725929Y-11686214D01*
X19983071Y-11771929D02*
X20011643Y-11786214D01*
X20068786Y-11786214D01*
X20097357Y-11771929D01*
X20111643Y-11743357D01*
X20111643Y-11729071D01*
X20097357Y-11700500D01*
X20068786Y-11686214D01*
X20025929Y-11686214D01*
X19997357Y-11671929D01*
X19983071Y-11643357D01*
X19983071Y-11629071D01*
X19997357Y-11600500D01*
X20025929Y-11586214D01*
X20068786Y-11586214D01*
X20097357Y-11600500D01*
X20211643Y-11900500D02*
X20225929Y-11886214D01*
X20254500Y-11843357D01*
X20268786Y-11814786D01*
X20283071Y-11771929D01*
X20297357Y-11700500D01*
X20297357Y-11643357D01*
X20283071Y-11571929D01*
X20268786Y-11529071D01*
X20254500Y-11500500D01*
X20225929Y-11457643D01*
X20211643Y-11443357D01*
M02*
