G04 #@! TF.FileFunction,Soldermask,Bot*
%FSLAX46Y46*%
G04 Gerber Fmt 4.6, Leading zero omitted, Abs format (unit mm)*
G04 Created by KiCad (PCBNEW 4.0.7) date Wednesday, July 11, 2018 'PMt' 04:07:28 PM*
%MOMM*%
%LPD*%
G01*
G04 APERTURE LIST*
%ADD10C,0.100000*%
%ADD11R,1.650000X1.900000*%
%ADD12R,2.400000X2.400000*%
%ADD13C,2.400000*%
%ADD14R,2.432000X2.432000*%
%ADD15O,2.432000X2.432000*%
%ADD16R,2.127200X2.432000*%
%ADD17O,2.127200X2.432000*%
%ADD18R,1.900000X1.700000*%
%ADD19R,1.700000X1.900000*%
%ADD20C,6.000000*%
G04 APERTURE END LIST*
D10*
D11*
X67310000Y-101326000D03*
X67310000Y-98826000D03*
X61722000Y-101326000D03*
X61722000Y-98826000D03*
D12*
X41656000Y-116332000D03*
D13*
X44196000Y-116332000D03*
D12*
X66209333Y-116332000D03*
D13*
X68749333Y-116332000D03*
D12*
X90762666Y-116332000D03*
D13*
X93302666Y-116332000D03*
D12*
X115315999Y-116332000D03*
D13*
X117855999Y-116332000D03*
D14*
X41656000Y-99060000D03*
D15*
X41656000Y-101600000D03*
D16*
X86360000Y-85090000D03*
D17*
X88900000Y-85090000D03*
X91440000Y-85090000D03*
X93980000Y-85090000D03*
X96520000Y-85090000D03*
D14*
X117602000Y-99060000D03*
D15*
X117602000Y-101600000D03*
D18*
X89234000Y-79756000D03*
X86534000Y-79756000D03*
D19*
X44196000Y-112602000D03*
X44196000Y-109902000D03*
X68834000Y-112602000D03*
X68834000Y-109902000D03*
X93472000Y-112602000D03*
X93472000Y-109902000D03*
X117856000Y-109902000D03*
X117856000Y-112602000D03*
D18*
X93298000Y-90424000D03*
X90598000Y-90424000D03*
X68914000Y-90424000D03*
X66214000Y-90424000D03*
D19*
X115062000Y-84248000D03*
X115062000Y-86948000D03*
D20*
X40500000Y-78000000D03*
X40500000Y-122000000D03*
X119500000Y-78000000D03*
X119500000Y-122000000D03*
M02*
