M48
;DRILL file {KiCad 4.0.7} date Wednesday, July 11, 2018 'PMt' 04:07:50 PM
;FORMAT={-:-/ absolute / inch / decimal}
FMAT,2
INCH,TZ
T1C0.016
T2C0.039
T3C0.040
T4C0.126
%
G90
G05
M72
T1
X1.55Y-4.25
X1.85Y-4.2
X1.85Y-4.3
X2.Y-3.56
X2.43Y-4.32
X2.49Y-4.25
X2.54Y-3.62
X2.82Y-3.99
X2.83Y-4.38
X2.92Y-3.56
X2.95Y-3.65
X3.Y-4.05
X3.1Y-3.99
X3.36Y-4.33
X3.43Y-4.2526
X3.5Y-3.21
X3.5Y-3.62
X3.68Y-3.65
X3.78Y-4.33
X3.86Y-3.27
X3.9Y-3.99
X4.43Y-4.25
X4.44Y-3.83
X4.53Y-3.49
T2
X1.64Y-4.58
X1.74Y-4.58
X2.6067Y-4.58
X2.7067Y-4.58
X3.5733Y-4.58
X3.6733Y-4.58
X4.54Y-4.58
X4.64Y-4.58
T3
X1.64Y-3.9
X1.64Y-4.
X3.4Y-3.35
X3.5Y-3.35
X3.6Y-3.35
X3.7Y-3.35
X3.8Y-3.35
X4.63Y-3.9
X4.63Y-4.
T4
X1.5945Y-3.0709
X1.5945Y-4.8031
X4.7047Y-3.0709
X4.7047Y-4.8031
T0
M30
