G04 #@! TF.FileFunction,Legend,Top*
%FSLAX46Y46*%
G04 Gerber Fmt 4.6, Leading zero omitted, Abs format (unit mm)*
G04 Created by KiCad (PCBNEW 4.0.7) date Wednesday, July 11, 2018 'PMt' 04:07:28 PM*
%MOMM*%
%LPD*%
G01*
G04 APERTURE LIST*
%ADD10C,0.100000*%
%ADD11C,0.150000*%
%ADD12C,0.120000*%
G04 APERTURE END LIST*
D10*
D11*
X67318000Y-80606000D02*
X68318000Y-80606000D01*
X68318000Y-78906000D02*
X67318000Y-78906000D01*
X91686000Y-78906000D02*
X90686000Y-78906000D01*
X90686000Y-80606000D02*
X91686000Y-80606000D01*
X41457000Y-117646000D02*
X41457000Y-117446000D01*
X41457000Y-115052000D02*
X41457000Y-115232000D01*
X44684744Y-115362357D02*
G75*
G03X41457000Y-115046000I-1727744J-1003643D01*
G01*
X44009006Y-115232932D02*
G75*
G03X41906000Y-115232000I-1052006J-1133068D01*
G01*
X41469780Y-117672726D02*
G75*
G03X44707000Y-117326000I1497220J1306726D01*
G01*
X41943111Y-117445253D02*
G75*
G03X43991000Y-117426000I1013889J1079253D01*
G01*
X66010333Y-117646000D02*
X66010333Y-117446000D01*
X66010333Y-115052000D02*
X66010333Y-115232000D01*
X69238077Y-115362357D02*
G75*
G03X66010333Y-115046000I-1727744J-1003643D01*
G01*
X68562339Y-115232932D02*
G75*
G03X66459333Y-115232000I-1052006J-1133068D01*
G01*
X66023113Y-117672726D02*
G75*
G03X69260333Y-117326000I1497220J1306726D01*
G01*
X66496444Y-117445253D02*
G75*
G03X68544333Y-117426000I1013889J1079253D01*
G01*
X90563666Y-117646000D02*
X90563666Y-117446000D01*
X90563666Y-115052000D02*
X90563666Y-115232000D01*
X93791410Y-115362357D02*
G75*
G03X90563666Y-115046000I-1727744J-1003643D01*
G01*
X93115672Y-115232932D02*
G75*
G03X91012666Y-115232000I-1052006J-1133068D01*
G01*
X90576446Y-117672726D02*
G75*
G03X93813666Y-117326000I1497220J1306726D01*
G01*
X91049777Y-117445253D02*
G75*
G03X93097666Y-117426000I1013889J1079253D01*
G01*
X115116999Y-117646000D02*
X115116999Y-117446000D01*
X115116999Y-115052000D02*
X115116999Y-115232000D01*
X118344743Y-115362357D02*
G75*
G03X115116999Y-115046000I-1727744J-1003643D01*
G01*
X117669005Y-115232932D02*
G75*
G03X115565999Y-115232000I-1052006J-1133068D01*
G01*
X115129779Y-117672726D02*
G75*
G03X118366999Y-117326000I1497220J1306726D01*
G01*
X115603110Y-117445253D02*
G75*
G03X117650999Y-117426000I1013889J1079253D01*
G01*
D12*
X44260000Y-91174000D02*
X41060000Y-91174000D01*
X41060000Y-89674000D02*
X44260000Y-89674000D01*
X41060000Y-89674000D02*
X41060000Y-91174000D01*
X68617333Y-91174000D02*
X65417333Y-91174000D01*
X65417333Y-89674000D02*
X68617333Y-89674000D01*
X65417333Y-89674000D02*
X65417333Y-91174000D01*
X92974666Y-91174000D02*
X89774666Y-91174000D01*
X89774666Y-89674000D02*
X92974666Y-89674000D01*
X89774666Y-89674000D02*
X89774666Y-91174000D01*
X117331999Y-91174000D02*
X114131999Y-91174000D01*
X114131999Y-89674000D02*
X117331999Y-89674000D01*
X114131999Y-89674000D02*
X114131999Y-91174000D01*
D11*
X42926000Y-100330000D02*
X42926000Y-102870000D01*
X43206000Y-97510000D02*
X43206000Y-99060000D01*
X42926000Y-100330000D02*
X40386000Y-100330000D01*
X40106000Y-99060000D02*
X40106000Y-97510000D01*
X40106000Y-97510000D02*
X43206000Y-97510000D01*
X40386000Y-100330000D02*
X40386000Y-102870000D01*
X40386000Y-102870000D02*
X42926000Y-102870000D01*
X86360000Y-86640000D02*
X84810000Y-86640000D01*
X84810000Y-86640000D02*
X84810000Y-83540000D01*
X84810000Y-83540000D02*
X86360000Y-83540000D01*
X87630000Y-83820000D02*
X97790000Y-83820000D01*
X97790000Y-83820000D02*
X97790000Y-86360000D01*
X97790000Y-86360000D02*
X87630000Y-86360000D01*
X87630000Y-83820000D02*
X87630000Y-86360000D01*
X118872000Y-100330000D02*
X118872000Y-102870000D01*
X119152000Y-97510000D02*
X119152000Y-99060000D01*
X118872000Y-100330000D02*
X116332000Y-100330000D01*
X116052000Y-99060000D02*
X116052000Y-97510000D01*
X116052000Y-97510000D02*
X119152000Y-97510000D01*
X116332000Y-100330000D02*
X116332000Y-102870000D01*
X116332000Y-102870000D02*
X118872000Y-102870000D01*
D12*
X43940000Y-110546000D02*
X43940000Y-109616000D01*
X43940000Y-107386000D02*
X43940000Y-108316000D01*
X43940000Y-107386000D02*
X40780000Y-107386000D01*
X43940000Y-110546000D02*
X42480000Y-110546000D01*
X68324000Y-110546000D02*
X68324000Y-109616000D01*
X68324000Y-107386000D02*
X68324000Y-108316000D01*
X68324000Y-107386000D02*
X65164000Y-107386000D01*
X68324000Y-110546000D02*
X66864000Y-110546000D01*
X92708000Y-110546000D02*
X92708000Y-109616000D01*
X92708000Y-107386000D02*
X92708000Y-108316000D01*
X92708000Y-107386000D02*
X89548000Y-107386000D01*
X92708000Y-110546000D02*
X91248000Y-110546000D01*
X117092000Y-110546000D02*
X117092000Y-109616000D01*
X117092000Y-107386000D02*
X117092000Y-108316000D01*
X117092000Y-107386000D02*
X113932000Y-107386000D01*
X117092000Y-110546000D02*
X115632000Y-110546000D01*
D11*
X43575000Y-86198000D02*
X43575000Y-84998000D01*
X45325000Y-84998000D02*
X45325000Y-86198000D01*
X74050000Y-103875000D02*
X74300000Y-103875000D01*
X74050000Y-96125000D02*
X74395000Y-96125000D01*
X85950000Y-96125000D02*
X85605000Y-96125000D01*
X85950000Y-103875000D02*
X85605000Y-103875000D01*
X74050000Y-103875000D02*
X74050000Y-96125000D01*
X85950000Y-103875000D02*
X85950000Y-96125000D01*
X74300000Y-103875000D02*
X74300000Y-105700000D01*
X89824000Y-103265000D02*
X91024000Y-103265000D01*
X91024000Y-105015000D02*
X89824000Y-105015000D01*
X111365000Y-111668000D02*
X111365000Y-112868000D01*
X109615000Y-112868000D02*
X109615000Y-111668000D01*
X67651334Y-81891143D02*
X67603715Y-81938762D01*
X67460858Y-81986381D01*
X67365620Y-81986381D01*
X67222762Y-81938762D01*
X67127524Y-81843524D01*
X67079905Y-81748286D01*
X67032286Y-81557810D01*
X67032286Y-81414952D01*
X67079905Y-81224476D01*
X67127524Y-81129238D01*
X67222762Y-81034000D01*
X67365620Y-80986381D01*
X67460858Y-80986381D01*
X67603715Y-81034000D01*
X67651334Y-81081619D01*
X67984667Y-80986381D02*
X68603715Y-80986381D01*
X68270381Y-81367333D01*
X68413239Y-81367333D01*
X68508477Y-81414952D01*
X68556096Y-81462571D01*
X68603715Y-81557810D01*
X68603715Y-81795905D01*
X68556096Y-81891143D01*
X68508477Y-81938762D01*
X68413239Y-81986381D01*
X68127524Y-81986381D01*
X68032286Y-81938762D01*
X67984667Y-81891143D01*
X91019334Y-81891143D02*
X90971715Y-81938762D01*
X90828858Y-81986381D01*
X90733620Y-81986381D01*
X90590762Y-81938762D01*
X90495524Y-81843524D01*
X90447905Y-81748286D01*
X90400286Y-81557810D01*
X90400286Y-81414952D01*
X90447905Y-81224476D01*
X90495524Y-81129238D01*
X90590762Y-81034000D01*
X90733620Y-80986381D01*
X90828858Y-80986381D01*
X90971715Y-81034000D01*
X91019334Y-81081619D01*
X91876477Y-81319714D02*
X91876477Y-81986381D01*
X91638381Y-80938762D02*
X91400286Y-81653048D01*
X92019334Y-81653048D01*
X39704095Y-118524381D02*
X39704095Y-117524381D01*
X40275524Y-118524381D02*
X39846952Y-117952952D01*
X40275524Y-117524381D02*
X39704095Y-118095810D01*
X64257428Y-118524381D02*
X64257428Y-117524381D01*
X64828857Y-118524381D02*
X64400285Y-117952952D01*
X64828857Y-117524381D02*
X64257428Y-118095810D01*
X88810761Y-118524381D02*
X88810761Y-117524381D01*
X89382190Y-118524381D02*
X88953618Y-117952952D01*
X89382190Y-117524381D02*
X88810761Y-118095810D01*
X113364094Y-118524381D02*
X113364094Y-117524381D01*
X113935523Y-118524381D02*
X113506951Y-117952952D01*
X113935523Y-117524381D02*
X113364094Y-118095810D01*
X42521905Y-89176381D02*
X42521905Y-88176381D01*
X42760000Y-88176381D01*
X42902858Y-88224000D01*
X42998096Y-88319238D01*
X43045715Y-88414476D01*
X43093334Y-88604952D01*
X43093334Y-88747810D01*
X43045715Y-88938286D01*
X42998096Y-89033524D01*
X42902858Y-89128762D01*
X42760000Y-89176381D01*
X42521905Y-89176381D01*
X43998096Y-88176381D02*
X43521905Y-88176381D01*
X43474286Y-88652571D01*
X43521905Y-88604952D01*
X43617143Y-88557333D01*
X43855239Y-88557333D01*
X43950477Y-88604952D01*
X43998096Y-88652571D01*
X44045715Y-88747810D01*
X44045715Y-88985905D01*
X43998096Y-89081143D01*
X43950477Y-89128762D01*
X43855239Y-89176381D01*
X43617143Y-89176381D01*
X43521905Y-89128762D01*
X43474286Y-89081143D01*
X66879238Y-89176381D02*
X66879238Y-88176381D01*
X67117333Y-88176381D01*
X67260191Y-88224000D01*
X67355429Y-88319238D01*
X67403048Y-88414476D01*
X67450667Y-88604952D01*
X67450667Y-88747810D01*
X67403048Y-88938286D01*
X67355429Y-89033524D01*
X67260191Y-89128762D01*
X67117333Y-89176381D01*
X66879238Y-89176381D01*
X68307810Y-88176381D02*
X68117333Y-88176381D01*
X68022095Y-88224000D01*
X67974476Y-88271619D01*
X67879238Y-88414476D01*
X67831619Y-88604952D01*
X67831619Y-88985905D01*
X67879238Y-89081143D01*
X67926857Y-89128762D01*
X68022095Y-89176381D01*
X68212572Y-89176381D01*
X68307810Y-89128762D01*
X68355429Y-89081143D01*
X68403048Y-88985905D01*
X68403048Y-88747810D01*
X68355429Y-88652571D01*
X68307810Y-88604952D01*
X68212572Y-88557333D01*
X68022095Y-88557333D01*
X67926857Y-88604952D01*
X67879238Y-88652571D01*
X67831619Y-88747810D01*
X91236571Y-89176381D02*
X91236571Y-88176381D01*
X91474666Y-88176381D01*
X91617524Y-88224000D01*
X91712762Y-88319238D01*
X91760381Y-88414476D01*
X91808000Y-88604952D01*
X91808000Y-88747810D01*
X91760381Y-88938286D01*
X91712762Y-89033524D01*
X91617524Y-89128762D01*
X91474666Y-89176381D01*
X91236571Y-89176381D01*
X92141333Y-88176381D02*
X92808000Y-88176381D01*
X92379428Y-89176381D01*
X115593905Y-89352381D02*
X115593905Y-88352381D01*
X115832000Y-88352381D01*
X115974858Y-88400000D01*
X116070096Y-88495238D01*
X116117715Y-88590476D01*
X116165334Y-88780952D01*
X116165334Y-88923810D01*
X116117715Y-89114286D01*
X116070096Y-89209524D01*
X115974858Y-89304762D01*
X115832000Y-89352381D01*
X115593905Y-89352381D01*
X116736762Y-88780952D02*
X116641524Y-88733333D01*
X116593905Y-88685714D01*
X116546286Y-88590476D01*
X116546286Y-88542857D01*
X116593905Y-88447619D01*
X116641524Y-88400000D01*
X116736762Y-88352381D01*
X116927239Y-88352381D01*
X117022477Y-88400000D01*
X117070096Y-88447619D01*
X117117715Y-88542857D01*
X117117715Y-88590476D01*
X117070096Y-88685714D01*
X117022477Y-88733333D01*
X116927239Y-88780952D01*
X116736762Y-88780952D01*
X116641524Y-88828571D01*
X116593905Y-88876190D01*
X116546286Y-88971429D01*
X116546286Y-89161905D01*
X116593905Y-89257143D01*
X116641524Y-89304762D01*
X116736762Y-89352381D01*
X116927239Y-89352381D01*
X117022477Y-89304762D01*
X117070096Y-89257143D01*
X117117715Y-89161905D01*
X117117715Y-88971429D01*
X117070096Y-88876190D01*
X117022477Y-88828571D01*
X116927239Y-88780952D01*
X41322667Y-95464381D02*
X41322667Y-96178667D01*
X41275047Y-96321524D01*
X41179809Y-96416762D01*
X41036952Y-96464381D01*
X40941714Y-96464381D01*
X42322667Y-96464381D02*
X41751238Y-96464381D01*
X42036952Y-96464381D02*
X42036952Y-95464381D01*
X41941714Y-95607238D01*
X41846476Y-95702476D01*
X41751238Y-95750095D01*
X83232667Y-84542381D02*
X83232667Y-85256667D01*
X83185047Y-85399524D01*
X83089809Y-85494762D01*
X82946952Y-85542381D01*
X82851714Y-85542381D01*
X83661238Y-84637619D02*
X83708857Y-84590000D01*
X83804095Y-84542381D01*
X84042191Y-84542381D01*
X84137429Y-84590000D01*
X84185048Y-84637619D01*
X84232667Y-84732857D01*
X84232667Y-84828095D01*
X84185048Y-84970952D01*
X83613619Y-85542381D01*
X84232667Y-85542381D01*
X117268667Y-95464381D02*
X117268667Y-96178667D01*
X117221047Y-96321524D01*
X117125809Y-96416762D01*
X116982952Y-96464381D01*
X116887714Y-96464381D01*
X117649619Y-95464381D02*
X118268667Y-95464381D01*
X117935333Y-95845333D01*
X118078191Y-95845333D01*
X118173429Y-95892952D01*
X118221048Y-95940571D01*
X118268667Y-96035810D01*
X118268667Y-96273905D01*
X118221048Y-96369143D01*
X118173429Y-96416762D01*
X118078191Y-96464381D01*
X117792476Y-96464381D01*
X117697238Y-96416762D01*
X117649619Y-96369143D01*
X43084762Y-107013619D02*
X42989524Y-106966000D01*
X42894286Y-106870762D01*
X42751429Y-106727905D01*
X42656190Y-106680286D01*
X42560952Y-106680286D01*
X42608571Y-106918381D02*
X42513333Y-106870762D01*
X42418095Y-106775524D01*
X42370476Y-106585048D01*
X42370476Y-106251714D01*
X42418095Y-106061238D01*
X42513333Y-105966000D01*
X42608571Y-105918381D01*
X42799048Y-105918381D01*
X42894286Y-105966000D01*
X42989524Y-106061238D01*
X43037143Y-106251714D01*
X43037143Y-106585048D01*
X42989524Y-106775524D01*
X42894286Y-106870762D01*
X42799048Y-106918381D01*
X42608571Y-106918381D01*
X43989524Y-106918381D02*
X43418095Y-106918381D01*
X43703809Y-106918381D02*
X43703809Y-105918381D01*
X43608571Y-106061238D01*
X43513333Y-106156476D01*
X43418095Y-106204095D01*
X67468762Y-107013619D02*
X67373524Y-106966000D01*
X67278286Y-106870762D01*
X67135429Y-106727905D01*
X67040190Y-106680286D01*
X66944952Y-106680286D01*
X66992571Y-106918381D02*
X66897333Y-106870762D01*
X66802095Y-106775524D01*
X66754476Y-106585048D01*
X66754476Y-106251714D01*
X66802095Y-106061238D01*
X66897333Y-105966000D01*
X66992571Y-105918381D01*
X67183048Y-105918381D01*
X67278286Y-105966000D01*
X67373524Y-106061238D01*
X67421143Y-106251714D01*
X67421143Y-106585048D01*
X67373524Y-106775524D01*
X67278286Y-106870762D01*
X67183048Y-106918381D01*
X66992571Y-106918381D01*
X67802095Y-106013619D02*
X67849714Y-105966000D01*
X67944952Y-105918381D01*
X68183048Y-105918381D01*
X68278286Y-105966000D01*
X68325905Y-106013619D01*
X68373524Y-106108857D01*
X68373524Y-106204095D01*
X68325905Y-106346952D01*
X67754476Y-106918381D01*
X68373524Y-106918381D01*
X91852762Y-107013619D02*
X91757524Y-106966000D01*
X91662286Y-106870762D01*
X91519429Y-106727905D01*
X91424190Y-106680286D01*
X91328952Y-106680286D01*
X91376571Y-106918381D02*
X91281333Y-106870762D01*
X91186095Y-106775524D01*
X91138476Y-106585048D01*
X91138476Y-106251714D01*
X91186095Y-106061238D01*
X91281333Y-105966000D01*
X91376571Y-105918381D01*
X91567048Y-105918381D01*
X91662286Y-105966000D01*
X91757524Y-106061238D01*
X91805143Y-106251714D01*
X91805143Y-106585048D01*
X91757524Y-106775524D01*
X91662286Y-106870762D01*
X91567048Y-106918381D01*
X91376571Y-106918381D01*
X92138476Y-105918381D02*
X92757524Y-105918381D01*
X92424190Y-106299333D01*
X92567048Y-106299333D01*
X92662286Y-106346952D01*
X92709905Y-106394571D01*
X92757524Y-106489810D01*
X92757524Y-106727905D01*
X92709905Y-106823143D01*
X92662286Y-106870762D01*
X92567048Y-106918381D01*
X92281333Y-106918381D01*
X92186095Y-106870762D01*
X92138476Y-106823143D01*
X116236762Y-107013619D02*
X116141524Y-106966000D01*
X116046286Y-106870762D01*
X115903429Y-106727905D01*
X115808190Y-106680286D01*
X115712952Y-106680286D01*
X115760571Y-106918381D02*
X115665333Y-106870762D01*
X115570095Y-106775524D01*
X115522476Y-106585048D01*
X115522476Y-106251714D01*
X115570095Y-106061238D01*
X115665333Y-105966000D01*
X115760571Y-105918381D01*
X115951048Y-105918381D01*
X116046286Y-105966000D01*
X116141524Y-106061238D01*
X116189143Y-106251714D01*
X116189143Y-106585048D01*
X116141524Y-106775524D01*
X116046286Y-106870762D01*
X115951048Y-106918381D01*
X115760571Y-106918381D01*
X117046286Y-106251714D02*
X117046286Y-106918381D01*
X116808190Y-105870762D02*
X116570095Y-106585048D01*
X117189143Y-106585048D01*
X46383334Y-86050381D02*
X46050000Y-85574190D01*
X45811905Y-86050381D02*
X45811905Y-85050381D01*
X46192858Y-85050381D01*
X46288096Y-85098000D01*
X46335715Y-85145619D01*
X46383334Y-85240857D01*
X46383334Y-85383714D01*
X46335715Y-85478952D01*
X46288096Y-85526571D01*
X46192858Y-85574190D01*
X45811905Y-85574190D01*
X47240477Y-85050381D02*
X47050000Y-85050381D01*
X46954762Y-85098000D01*
X46907143Y-85145619D01*
X46811905Y-85288476D01*
X46764286Y-85478952D01*
X46764286Y-85859905D01*
X46811905Y-85955143D01*
X46859524Y-86002762D01*
X46954762Y-86050381D01*
X47145239Y-86050381D01*
X47240477Y-86002762D01*
X47288096Y-85955143D01*
X47335715Y-85859905D01*
X47335715Y-85621810D01*
X47288096Y-85526571D01*
X47240477Y-85478952D01*
X47145239Y-85431333D01*
X46954762Y-85431333D01*
X46859524Y-85478952D01*
X46811905Y-85526571D01*
X46764286Y-85621810D01*
X74676095Y-99528381D02*
X74676095Y-100337905D01*
X74723714Y-100433143D01*
X74771333Y-100480762D01*
X74866571Y-100528381D01*
X75057048Y-100528381D01*
X75152286Y-100480762D01*
X75199905Y-100433143D01*
X75247524Y-100337905D01*
X75247524Y-99528381D01*
X76247524Y-100528381D02*
X75676095Y-100528381D01*
X75961809Y-100528381D02*
X75961809Y-99528381D01*
X75866571Y-99671238D01*
X75771333Y-99766476D01*
X75676095Y-99814095D01*
X79025809Y-83034190D02*
X79025809Y-83510381D01*
X78692476Y-82510381D02*
X79025809Y-83034190D01*
X79359143Y-82510381D01*
X80216286Y-83510381D02*
X79644857Y-83510381D01*
X79930571Y-83510381D02*
X79930571Y-82510381D01*
X79835333Y-82653238D01*
X79740095Y-82748476D01*
X79644857Y-82796095D01*
X89781143Y-102560381D02*
X89447809Y-102084190D01*
X89209714Y-102560381D02*
X89209714Y-101560381D01*
X89590667Y-101560381D01*
X89685905Y-101608000D01*
X89733524Y-101655619D01*
X89781143Y-101750857D01*
X89781143Y-101893714D01*
X89733524Y-101988952D01*
X89685905Y-102036571D01*
X89590667Y-102084190D01*
X89209714Y-102084190D01*
X90733524Y-102560381D02*
X90162095Y-102560381D01*
X90447809Y-102560381D02*
X90447809Y-101560381D01*
X90352571Y-101703238D01*
X90257333Y-101798476D01*
X90162095Y-101846095D01*
X91352571Y-101560381D02*
X91447810Y-101560381D01*
X91543048Y-101608000D01*
X91590667Y-101655619D01*
X91638286Y-101750857D01*
X91685905Y-101941333D01*
X91685905Y-102179429D01*
X91638286Y-102369905D01*
X91590667Y-102465143D01*
X91543048Y-102512762D01*
X91447810Y-102560381D01*
X91352571Y-102560381D01*
X91257333Y-102512762D01*
X91209714Y-102465143D01*
X91162095Y-102369905D01*
X91114476Y-102179429D01*
X91114476Y-101941333D01*
X91162095Y-101750857D01*
X91209714Y-101655619D01*
X91257333Y-101608000D01*
X91352571Y-101560381D01*
X107307143Y-112720381D02*
X106973809Y-112244190D01*
X106735714Y-112720381D02*
X106735714Y-111720381D01*
X107116667Y-111720381D01*
X107211905Y-111768000D01*
X107259524Y-111815619D01*
X107307143Y-111910857D01*
X107307143Y-112053714D01*
X107259524Y-112148952D01*
X107211905Y-112196571D01*
X107116667Y-112244190D01*
X106735714Y-112244190D01*
X108259524Y-112720381D02*
X107688095Y-112720381D01*
X107973809Y-112720381D02*
X107973809Y-111720381D01*
X107878571Y-111863238D01*
X107783333Y-111958476D01*
X107688095Y-112006095D01*
X109211905Y-112720381D02*
X108640476Y-112720381D01*
X108926190Y-112720381D02*
X108926190Y-111720381D01*
X108830952Y-111863238D01*
X108735714Y-111958476D01*
X108640476Y-112006095D01*
M02*
