G04 #@! TF.FileFunction,Profile,NP*
%FSLAX46Y46*%
G04 Gerber Fmt 4.6, Leading zero omitted, Abs format (unit mm)*
G04 Created by KiCad (PCBNEW 4.0.7) date Wednesday, July 11, 2018 'PMt' 04:07:28 PM*
%MOMM*%
%LPD*%
G01*
G04 APERTURE LIST*
%ADD10C,0.100000*%
%ADD11C,0.150000*%
G04 APERTURE END LIST*
D10*
D11*
X40500000Y-75000000D02*
X119500000Y-75000000D01*
X40500000Y-125000000D02*
X119500000Y-125000000D01*
X37500000Y-78000000D02*
X37500000Y-122000000D01*
X122500000Y-78000000D02*
X122500000Y-122000000D01*
X119500000Y-75000000D02*
X119735377Y-75009248D01*
X119735377Y-75009248D02*
X119969303Y-75036935D01*
X119969303Y-75036935D02*
X120200336Y-75082890D01*
X120200336Y-75082890D02*
X120427051Y-75146830D01*
X120427051Y-75146830D02*
X120648050Y-75228361D01*
X120648050Y-75228361D02*
X120861971Y-75326980D01*
X120861971Y-75326980D02*
X121067496Y-75442080D01*
X121067496Y-75442080D02*
X121263356Y-75572949D01*
X121263356Y-75572949D02*
X121448344Y-75718782D01*
X121448344Y-75718782D02*
X121621320Y-75878680D01*
X121621320Y-75878680D02*
X121781218Y-76051656D01*
X121781218Y-76051656D02*
X121927051Y-76236644D01*
X121927051Y-76236644D02*
X122057920Y-76432504D01*
X122057920Y-76432504D02*
X122173020Y-76638029D01*
X122173020Y-76638029D02*
X122271639Y-76851950D01*
X122271639Y-76851950D02*
X122353170Y-77072949D01*
X122353170Y-77072949D02*
X122417110Y-77299664D01*
X122417110Y-77299664D02*
X122463065Y-77530697D01*
X122463065Y-77530697D02*
X122490752Y-77764623D01*
X122490752Y-77764623D02*
X122500000Y-78000000D01*
X122500000Y-122000000D02*
X122490752Y-122235377D01*
X122490752Y-122235377D02*
X122463065Y-122469303D01*
X122463065Y-122469303D02*
X122417110Y-122700336D01*
X122417110Y-122700336D02*
X122353170Y-122927051D01*
X122353170Y-122927051D02*
X122271639Y-123148050D01*
X122271639Y-123148050D02*
X122173020Y-123361971D01*
X122173020Y-123361971D02*
X122057920Y-123567496D01*
X122057920Y-123567496D02*
X121927051Y-123763356D01*
X121927051Y-123763356D02*
X121781218Y-123948344D01*
X121781218Y-123948344D02*
X121621320Y-124121320D01*
X121621320Y-124121320D02*
X121448344Y-124281218D01*
X121448344Y-124281218D02*
X121263356Y-124427051D01*
X121263356Y-124427051D02*
X121067496Y-124557920D01*
X121067496Y-124557920D02*
X120861971Y-124673020D01*
X120861971Y-124673020D02*
X120648050Y-124771639D01*
X120648050Y-124771639D02*
X120427051Y-124853170D01*
X120427051Y-124853170D02*
X120200336Y-124917110D01*
X120200336Y-124917110D02*
X119969303Y-124963065D01*
X119969303Y-124963065D02*
X119735377Y-124990752D01*
X119735377Y-124990752D02*
X119500000Y-125000000D01*
X40500000Y-125000000D02*
X40264623Y-124990752D01*
X40264623Y-124990752D02*
X40030697Y-124963065D01*
X40030697Y-124963065D02*
X39799664Y-124917110D01*
X39799664Y-124917110D02*
X39572949Y-124853170D01*
X39572949Y-124853170D02*
X39351950Y-124771639D01*
X39351950Y-124771639D02*
X39138029Y-124673020D01*
X39138029Y-124673020D02*
X38932504Y-124557920D01*
X38932504Y-124557920D02*
X38736644Y-124427051D01*
X38736644Y-124427051D02*
X38551656Y-124281218D01*
X38551656Y-124281218D02*
X38378680Y-124121320D01*
X38378680Y-124121320D02*
X38218782Y-123948344D01*
X38218782Y-123948344D02*
X38072949Y-123763356D01*
X38072949Y-123763356D02*
X37942080Y-123567496D01*
X37942080Y-123567496D02*
X37826980Y-123361971D01*
X37826980Y-123361971D02*
X37728361Y-123148050D01*
X37728361Y-123148050D02*
X37646830Y-122927051D01*
X37646830Y-122927051D02*
X37582890Y-122700336D01*
X37582890Y-122700336D02*
X37536935Y-122469303D01*
X37536935Y-122469303D02*
X37509248Y-122235377D01*
X37509248Y-122235377D02*
X37500000Y-122000000D01*
X37500000Y-78000000D02*
X37509248Y-77764623D01*
X37509248Y-77764623D02*
X37536935Y-77530697D01*
X37536935Y-77530697D02*
X37582890Y-77299664D01*
X37582890Y-77299664D02*
X37646830Y-77072949D01*
X37646830Y-77072949D02*
X37728361Y-76851950D01*
X37728361Y-76851950D02*
X37826980Y-76638029D01*
X37826980Y-76638029D02*
X37942080Y-76432504D01*
X37942080Y-76432504D02*
X38072949Y-76236644D01*
X38072949Y-76236644D02*
X38218782Y-76051656D01*
X38218782Y-76051656D02*
X38378680Y-75878680D01*
X38378680Y-75878680D02*
X38551656Y-75718782D01*
X38551656Y-75718782D02*
X38736644Y-75572949D01*
X38736644Y-75572949D02*
X38932504Y-75442080D01*
X38932504Y-75442080D02*
X39138029Y-75326980D01*
X39138029Y-75326980D02*
X39351950Y-75228361D01*
X39351950Y-75228361D02*
X39572949Y-75146830D01*
X39572949Y-75146830D02*
X39799664Y-75082890D01*
X39799664Y-75082890D02*
X40030697Y-75036935D01*
X40030697Y-75036935D02*
X40264623Y-75009248D01*
X40264623Y-75009248D02*
X40500000Y-75000000D01*
M02*
