G04 #@! TF.FileFunction,Legend,Top*
%FSLAX46Y46*%
G04 Gerber Fmt 4.6, Leading zero omitted, Abs format (unit mm)*
G04 Created by KiCad (PCBNEW 4.0.7) date Thursday, April 26, 2018 'PMt' 01:22:00 PM*
%MOMM*%
%LPD*%
G01*
G04 APERTURE LIST*
%ADD10C,0.100000*%
%ADD11C,1.200000*%
%ADD12C,0.150000*%
%ADD13C,0.120000*%
%ADD14C,0.010000*%
G04 APERTURE END LIST*
D10*
D11*
X90000000Y-96166667D02*
X90666667Y-96166667D01*
X91333333Y-96500000D01*
X91666667Y-96833333D01*
X92000000Y-97500000D01*
X92333333Y-98833333D01*
X92333333Y-100500000D01*
X92000000Y-101833333D01*
X91666667Y-102500000D01*
X91333333Y-102833333D01*
X90666667Y-103166667D01*
X90000000Y-103166667D01*
X89333333Y-102833333D01*
X89000000Y-102500000D01*
X88666667Y-101833333D01*
X88333333Y-100500000D01*
X88333333Y-98833333D01*
X88666667Y-97500000D01*
X89000000Y-96833333D01*
X89333333Y-96500000D01*
X90000000Y-96166667D01*
X94666667Y-103166667D02*
X98333334Y-98500000D01*
X94666667Y-98500000D02*
X98333334Y-103166667D01*
X102333334Y-96166667D02*
X103000001Y-96166667D01*
X103666667Y-96500000D01*
X104000001Y-96833333D01*
X104333334Y-97500000D01*
X104666667Y-98833333D01*
X104666667Y-100500000D01*
X104333334Y-101833333D01*
X104000001Y-102500000D01*
X103666667Y-102833333D01*
X103000001Y-103166667D01*
X102333334Y-103166667D01*
X101666667Y-102833333D01*
X101333334Y-102500000D01*
X101000001Y-101833333D01*
X100666667Y-100500000D01*
X100666667Y-98833333D01*
X101000001Y-97500000D01*
X101333334Y-96833333D01*
X101666667Y-96500000D01*
X102333334Y-96166667D01*
X111333334Y-96500000D02*
X110666668Y-96166667D01*
X109666668Y-96166667D01*
X108666668Y-96500000D01*
X108000001Y-97166667D01*
X107666668Y-97833333D01*
X107333334Y-99166667D01*
X107333334Y-100166667D01*
X107666668Y-101500000D01*
X108000001Y-102166667D01*
X108666668Y-102833333D01*
X109666668Y-103166667D01*
X110333334Y-103166667D01*
X111333334Y-102833333D01*
X111666668Y-102500000D01*
X111666668Y-100166667D01*
X110333334Y-100166667D01*
D12*
X92500000Y-111700000D02*
X92500000Y-112700000D01*
X94200000Y-112700000D02*
X94200000Y-111700000D01*
X91055220Y-125789384D02*
X88560745Y-124756139D01*
X90481195Y-127175203D02*
X87986720Y-126141958D01*
X89439790Y-125769686D02*
X89344120Y-126000656D01*
X89344120Y-126000656D02*
X89540104Y-125919477D01*
X89479419Y-126327297D02*
X89747297Y-125680581D01*
X89290000Y-125870000D02*
X88966642Y-125736061D01*
X89613358Y-126003939D02*
X89156061Y-126193358D01*
X89156061Y-126193358D02*
X89423939Y-125546642D01*
X89423939Y-125546642D02*
X89613358Y-126003939D01*
X74210616Y-91055220D02*
X75243861Y-88560745D01*
X72824797Y-90481195D02*
X73858042Y-87986720D01*
X74230314Y-89439790D02*
X73999344Y-89344120D01*
X73999344Y-89344120D02*
X74080523Y-89540104D01*
X73672703Y-89479419D02*
X74319419Y-89747297D01*
X74130000Y-89290000D02*
X74263939Y-88966642D01*
X73996061Y-89613358D02*
X73806642Y-89156061D01*
X73806642Y-89156061D02*
X74453358Y-89423939D01*
X74453358Y-89423939D02*
X73996061Y-89613358D01*
X112485220Y-74049384D02*
X109990745Y-73016139D01*
X111911195Y-75435203D02*
X109416720Y-74401958D01*
X110869790Y-74029686D02*
X110774120Y-74260656D01*
X110774120Y-74260656D02*
X110970104Y-74179477D01*
X110909419Y-74587297D02*
X111177297Y-73940581D01*
X110720000Y-74130000D02*
X110396642Y-73996061D01*
X111043358Y-74263939D02*
X110586061Y-74453358D01*
X110586061Y-74453358D02*
X110853939Y-73806642D01*
X110853939Y-73806642D02*
X111043358Y-74263939D01*
X88088805Y-75435203D02*
X90583280Y-74401958D01*
X87514780Y-74049384D02*
X90009255Y-73016139D01*
X89245015Y-74306850D02*
X89149344Y-74075880D01*
X89149344Y-74075880D02*
X89068164Y-74271865D01*
X88822703Y-73940581D02*
X89090581Y-74587297D01*
X89280000Y-74130000D02*
X89603358Y-73996061D01*
X88956642Y-74263939D02*
X89146061Y-73806642D01*
X89146061Y-73806642D02*
X89413939Y-74453358D01*
X89413939Y-74453358D02*
X88956642Y-74263939D01*
X75435203Y-111911195D02*
X74401958Y-109416720D01*
X74049384Y-112485220D02*
X73016139Y-109990745D01*
X74306850Y-110754985D02*
X74075880Y-110850656D01*
X74075880Y-110850656D02*
X74271865Y-110931836D01*
X73940581Y-111177297D02*
X74587297Y-110909419D01*
X74130000Y-110720000D02*
X73996061Y-110396642D01*
X74263939Y-111043358D02*
X73806642Y-110853939D01*
X73806642Y-110853939D02*
X74453358Y-110586061D01*
X74453358Y-110586061D02*
X74263939Y-111043358D01*
X125950616Y-112475220D02*
X126983861Y-109980745D01*
X124564797Y-111901195D02*
X125598042Y-109406720D01*
X125970314Y-110859790D02*
X125739344Y-110764120D01*
X125739344Y-110764120D02*
X125820523Y-110960104D01*
X125412703Y-110899419D02*
X126059419Y-111167297D01*
X125870000Y-110710000D02*
X126003939Y-110386642D01*
X125736061Y-111033358D02*
X125546642Y-110576061D01*
X125546642Y-110576061D02*
X126193358Y-110843939D01*
X126193358Y-110843939D02*
X125736061Y-111033358D01*
X127175203Y-90471195D02*
X126141958Y-87976720D01*
X125789384Y-91045220D02*
X124756139Y-88550745D01*
X126046850Y-89314985D02*
X125815880Y-89410656D01*
X125815880Y-89410656D02*
X126011865Y-89491836D01*
X125680581Y-89737297D02*
X126327297Y-89469419D01*
X125870000Y-89280000D02*
X125736061Y-88956642D01*
X126003939Y-89603358D02*
X125546642Y-89413939D01*
X125546642Y-89413939D02*
X126193358Y-89146061D01*
X126193358Y-89146061D02*
X126003939Y-89603358D01*
X109518805Y-127175203D02*
X112013280Y-126141958D01*
X108944780Y-125789384D02*
X111439255Y-124756139D01*
X110675015Y-126046850D02*
X110579344Y-125815880D01*
X110579344Y-125815880D02*
X110498164Y-126011865D01*
X110252703Y-125680581D02*
X110520581Y-126327297D01*
X110710000Y-125870000D02*
X111033358Y-125736061D01*
X110386642Y-126003939D02*
X110576061Y-125546642D01*
X110576061Y-125546642D02*
X110843939Y-126193358D01*
X110843939Y-126193358D02*
X110386642Y-126003939D01*
D13*
X83942335Y-98921392D02*
G75*
G03X80710000Y-98764484I-1672335J-1078608D01*
G01*
X83942335Y-101078608D02*
G75*
G02X80710000Y-101235516I-1672335J1078608D01*
G01*
X83311130Y-98920163D02*
G75*
G03X81229039Y-98920000I-1041130J-1079837D01*
G01*
X83311130Y-101079837D02*
G75*
G02X81229039Y-101080000I-1041130J1079837D01*
G01*
X80710000Y-98764000D02*
X80710000Y-98920000D01*
X80710000Y-101080000D02*
X80710000Y-101236000D01*
X106430000Y-83080000D02*
X106430000Y-80420000D01*
X96210000Y-83080000D02*
X106430000Y-83080000D01*
X96210000Y-80420000D02*
X106430000Y-80420000D01*
X96210000Y-83080000D02*
X96210000Y-80420000D01*
X94940000Y-83080000D02*
X93610000Y-83080000D01*
X93610000Y-83080000D02*
X93610000Y-81750000D01*
D12*
X101750714Y-112200000D02*
G75*
G03X101750714Y-112200000I-1750714J0D01*
G01*
X103225000Y-108975000D02*
X103225000Y-109000000D01*
X103225000Y-115425000D02*
X103225000Y-115400000D01*
X96775000Y-115425000D02*
X96775000Y-115400000D01*
X96775000Y-109000000D02*
X96775000Y-108975000D01*
X103225000Y-110900000D02*
X103225000Y-113500000D01*
X96775000Y-108975000D02*
X103225000Y-108975000D01*
X96775000Y-110900000D02*
X96775000Y-113500000D01*
X96775000Y-115425000D02*
X103225000Y-115425000D01*
G36*
X116667107Y-75055912D02*
X116862501Y-75187583D01*
X117056856Y-75320784D01*
X117250158Y-75455508D01*
X117442396Y-75591747D01*
X117633558Y-75729490D01*
X117823632Y-75868731D01*
X118012607Y-76009460D01*
X118200471Y-76151669D01*
X118387212Y-76295350D01*
X118572818Y-76440492D01*
X118757280Y-76587088D01*
X118940584Y-76735128D01*
X119122720Y-76884603D01*
X119303676Y-77035504D01*
X119483441Y-77187821D01*
X119662005Y-77341546D01*
X119839356Y-77496668D01*
X120015483Y-77653178D01*
X120190375Y-77811067D01*
X120364022Y-77970325D01*
X120536413Y-78130941D01*
X120707537Y-78292907D01*
X120877384Y-78456211D01*
X121045943Y-78620844D01*
X121213203Y-78786797D01*
X121379156Y-78954057D01*
X121543789Y-79122616D01*
X121707093Y-79292463D01*
X121869059Y-79463587D01*
X122029675Y-79635978D01*
X122188933Y-79809625D01*
X122346822Y-79984517D01*
X122503332Y-80160644D01*
X122658454Y-80337995D01*
X122812179Y-80516559D01*
X122964496Y-80696324D01*
X123115397Y-80877280D01*
X123264872Y-81059416D01*
X123412912Y-81242720D01*
X123559508Y-81427182D01*
X123704650Y-81612788D01*
X123848331Y-81799529D01*
X123990540Y-81987393D01*
X124131269Y-82176368D01*
X124270510Y-82366442D01*
X124408253Y-82557604D01*
X124544492Y-82749842D01*
X124679216Y-82943144D01*
X124812417Y-83137499D01*
X119849934Y-86509999D01*
X119743372Y-86354516D01*
X119635593Y-86199874D01*
X119526603Y-86046084D01*
X119416408Y-85893154D01*
X119305015Y-85741094D01*
X119192432Y-85589915D01*
X119078664Y-85439624D01*
X118963720Y-85290231D01*
X118847606Y-85141745D01*
X118730330Y-84994176D01*
X118611898Y-84847533D01*
X118492318Y-84701824D01*
X118371597Y-84557059D01*
X118249743Y-84413247D01*
X118126763Y-84270396D01*
X118002666Y-84128515D01*
X117877457Y-83987614D01*
X117751146Y-83847700D01*
X117623740Y-83708782D01*
X117495247Y-83570869D01*
X117365675Y-83433970D01*
X117235031Y-83298093D01*
X117103324Y-83163246D01*
X116970563Y-83029437D01*
X116836754Y-82896676D01*
X116701907Y-82764969D01*
X116566030Y-82634325D01*
X116429131Y-82504753D01*
X116291218Y-82376260D01*
X116152300Y-82248854D01*
X116012386Y-82122543D01*
X115871485Y-81997334D01*
X115729604Y-81873237D01*
X115586753Y-81750257D01*
X115442941Y-81628403D01*
X115298176Y-81507682D01*
X115152467Y-81388102D01*
X115005824Y-81269670D01*
X114858255Y-81152394D01*
X114709769Y-81036280D01*
X114560376Y-80921336D01*
X114410085Y-80807568D01*
X114258906Y-80694985D01*
X114106846Y-80583592D01*
X113953916Y-80473397D01*
X113800126Y-80364407D01*
X113645484Y-80256628D01*
X113490001Y-80150066D01*
X113333686Y-80044729D01*
X116667107Y-75055912D01*
G37*
X116667107Y-75055912D02*
X116862501Y-75187583D01*
X117056856Y-75320784D01*
X117250158Y-75455508D01*
X117442396Y-75591747D01*
X117633558Y-75729490D01*
X117823632Y-75868731D01*
X118012607Y-76009460D01*
X118200471Y-76151669D01*
X118387212Y-76295350D01*
X118572818Y-76440492D01*
X118757280Y-76587088D01*
X118940584Y-76735128D01*
X119122720Y-76884603D01*
X119303676Y-77035504D01*
X119483441Y-77187821D01*
X119662005Y-77341546D01*
X119839356Y-77496668D01*
X120015483Y-77653178D01*
X120190375Y-77811067D01*
X120364022Y-77970325D01*
X120536413Y-78130941D01*
X120707537Y-78292907D01*
X120877384Y-78456211D01*
X121045943Y-78620844D01*
X121213203Y-78786797D01*
X121379156Y-78954057D01*
X121543789Y-79122616D01*
X121707093Y-79292463D01*
X121869059Y-79463587D01*
X122029675Y-79635978D01*
X122188933Y-79809625D01*
X122346822Y-79984517D01*
X122503332Y-80160644D01*
X122658454Y-80337995D01*
X122812179Y-80516559D01*
X122964496Y-80696324D01*
X123115397Y-80877280D01*
X123264872Y-81059416D01*
X123412912Y-81242720D01*
X123559508Y-81427182D01*
X123704650Y-81612788D01*
X123848331Y-81799529D01*
X123990540Y-81987393D01*
X124131269Y-82176368D01*
X124270510Y-82366442D01*
X124408253Y-82557604D01*
X124544492Y-82749842D01*
X124679216Y-82943144D01*
X124812417Y-83137499D01*
X119849934Y-86509999D01*
X119743372Y-86354516D01*
X119635593Y-86199874D01*
X119526603Y-86046084D01*
X119416408Y-85893154D01*
X119305015Y-85741094D01*
X119192432Y-85589915D01*
X119078664Y-85439624D01*
X118963720Y-85290231D01*
X118847606Y-85141745D01*
X118730330Y-84994176D01*
X118611898Y-84847533D01*
X118492318Y-84701824D01*
X118371597Y-84557059D01*
X118249743Y-84413247D01*
X118126763Y-84270396D01*
X118002666Y-84128515D01*
X117877457Y-83987614D01*
X117751146Y-83847700D01*
X117623740Y-83708782D01*
X117495247Y-83570869D01*
X117365675Y-83433970D01*
X117235031Y-83298093D01*
X117103324Y-83163246D01*
X116970563Y-83029437D01*
X116836754Y-82896676D01*
X116701907Y-82764969D01*
X116566030Y-82634325D01*
X116429131Y-82504753D01*
X116291218Y-82376260D01*
X116152300Y-82248854D01*
X116012386Y-82122543D01*
X115871485Y-81997334D01*
X115729604Y-81873237D01*
X115586753Y-81750257D01*
X115442941Y-81628403D01*
X115298176Y-81507682D01*
X115152467Y-81388102D01*
X115005824Y-81269670D01*
X114858255Y-81152394D01*
X114709769Y-81036280D01*
X114560376Y-80921336D01*
X114410085Y-80807568D01*
X114258906Y-80694985D01*
X114106846Y-80583592D01*
X113953916Y-80473397D01*
X113800126Y-80364407D01*
X113645484Y-80256628D01*
X113490001Y-80150066D01*
X113333686Y-80044729D01*
X116667107Y-75055912D01*
G36*
X129423558Y-94147290D02*
X129468618Y-94378561D01*
X129511859Y-94610178D01*
X129553280Y-94842127D01*
X129592878Y-95074395D01*
X129630650Y-95306966D01*
X129666595Y-95539827D01*
X129700710Y-95772963D01*
X129732992Y-96006360D01*
X129763441Y-96240003D01*
X129792054Y-96473878D01*
X129818829Y-96707971D01*
X129843764Y-96942266D01*
X129866859Y-97176751D01*
X129888111Y-97411409D01*
X129907520Y-97646227D01*
X129925084Y-97881190D01*
X129940802Y-98116284D01*
X129954673Y-98351495D01*
X129966696Y-98586806D01*
X129976871Y-98822206D01*
X129985197Y-99057677D01*
X129991673Y-99293207D01*
X129996299Y-99528780D01*
X129999075Y-99764383D01*
X130000000Y-100000000D01*
X129999075Y-100235617D01*
X129996299Y-100471220D01*
X129991673Y-100706793D01*
X129985197Y-100942323D01*
X129976871Y-101177794D01*
X129966696Y-101413194D01*
X129954673Y-101648505D01*
X129940802Y-101883716D01*
X129925084Y-102118810D01*
X129907520Y-102353773D01*
X129888111Y-102588591D01*
X129866859Y-102823249D01*
X129843764Y-103057734D01*
X129818829Y-103292029D01*
X129792054Y-103526122D01*
X129763441Y-103759997D01*
X129732992Y-103993640D01*
X129700710Y-104227037D01*
X129666595Y-104460173D01*
X129630650Y-104693034D01*
X129592878Y-104925605D01*
X129553280Y-105157873D01*
X129511859Y-105389822D01*
X129468618Y-105621439D01*
X123574894Y-104497152D01*
X123609487Y-104311858D01*
X123642624Y-104126298D01*
X123674302Y-103940484D01*
X123704520Y-103754427D01*
X123733276Y-103568138D01*
X123760568Y-103381630D01*
X123786394Y-103194912D01*
X123810753Y-103007998D01*
X123833643Y-102820898D01*
X123855063Y-102633623D01*
X123875011Y-102446187D01*
X123893487Y-102258600D01*
X123910489Y-102070873D01*
X123926016Y-101883018D01*
X123940067Y-101695048D01*
X123952641Y-101506972D01*
X123963738Y-101318804D01*
X123973357Y-101130555D01*
X123981497Y-100942236D01*
X123988157Y-100753858D01*
X123993338Y-100565434D01*
X123997039Y-100376976D01*
X123999260Y-100188494D01*
X124000000Y-100000000D01*
X123999260Y-99811506D01*
X123997039Y-99623024D01*
X123993338Y-99434566D01*
X123988157Y-99246142D01*
X123981497Y-99057764D01*
X123973357Y-98869445D01*
X123963738Y-98681196D01*
X123952641Y-98493028D01*
X123940067Y-98304952D01*
X123926016Y-98116982D01*
X123910489Y-97929127D01*
X123893487Y-97741400D01*
X123875011Y-97553813D01*
X123855063Y-97366377D01*
X123833643Y-97179102D01*
X123810753Y-96992002D01*
X123786394Y-96805088D01*
X123760568Y-96618370D01*
X123733276Y-96431862D01*
X123704520Y-96245573D01*
X123674302Y-96059516D01*
X123642624Y-95873702D01*
X123609487Y-95688142D01*
X123574894Y-95502848D01*
X123538847Y-95317832D01*
X129423558Y-94147290D01*
G37*
X129423558Y-94147290D02*
X129468618Y-94378561D01*
X129511859Y-94610178D01*
X129553280Y-94842127D01*
X129592878Y-95074395D01*
X129630650Y-95306966D01*
X129666595Y-95539827D01*
X129700710Y-95772963D01*
X129732992Y-96006360D01*
X129763441Y-96240003D01*
X129792054Y-96473878D01*
X129818829Y-96707971D01*
X129843764Y-96942266D01*
X129866859Y-97176751D01*
X129888111Y-97411409D01*
X129907520Y-97646227D01*
X129925084Y-97881190D01*
X129940802Y-98116284D01*
X129954673Y-98351495D01*
X129966696Y-98586806D01*
X129976871Y-98822206D01*
X129985197Y-99057677D01*
X129991673Y-99293207D01*
X129996299Y-99528780D01*
X129999075Y-99764383D01*
X130000000Y-100000000D01*
X129999075Y-100235617D01*
X129996299Y-100471220D01*
X129991673Y-100706793D01*
X129985197Y-100942323D01*
X129976871Y-101177794D01*
X129966696Y-101413194D01*
X129954673Y-101648505D01*
X129940802Y-101883716D01*
X129925084Y-102118810D01*
X129907520Y-102353773D01*
X129888111Y-102588591D01*
X129866859Y-102823249D01*
X129843764Y-103057734D01*
X129818829Y-103292029D01*
X129792054Y-103526122D01*
X129763441Y-103759997D01*
X129732992Y-103993640D01*
X129700710Y-104227037D01*
X129666595Y-104460173D01*
X129630650Y-104693034D01*
X129592878Y-104925605D01*
X129553280Y-105157873D01*
X129511859Y-105389822D01*
X129468618Y-105621439D01*
X123574894Y-104497152D01*
X123609487Y-104311858D01*
X123642624Y-104126298D01*
X123674302Y-103940484D01*
X123704520Y-103754427D01*
X123733276Y-103568138D01*
X123760568Y-103381630D01*
X123786394Y-103194912D01*
X123810753Y-103007998D01*
X123833643Y-102820898D01*
X123855063Y-102633623D01*
X123875011Y-102446187D01*
X123893487Y-102258600D01*
X123910489Y-102070873D01*
X123926016Y-101883018D01*
X123940067Y-101695048D01*
X123952641Y-101506972D01*
X123963738Y-101318804D01*
X123973357Y-101130555D01*
X123981497Y-100942236D01*
X123988157Y-100753858D01*
X123993338Y-100565434D01*
X123997039Y-100376976D01*
X123999260Y-100188494D01*
X124000000Y-100000000D01*
X123999260Y-99811506D01*
X123997039Y-99623024D01*
X123993338Y-99434566D01*
X123988157Y-99246142D01*
X123981497Y-99057764D01*
X123973357Y-98869445D01*
X123963738Y-98681196D01*
X123952641Y-98493028D01*
X123940067Y-98304952D01*
X123926016Y-98116982D01*
X123910489Y-97929127D01*
X123893487Y-97741400D01*
X123875011Y-97553813D01*
X123855063Y-97366377D01*
X123833643Y-97179102D01*
X123810753Y-96992002D01*
X123786394Y-96805088D01*
X123760568Y-96618370D01*
X123733276Y-96431862D01*
X123704520Y-96245573D01*
X123674302Y-96059516D01*
X123642624Y-95873702D01*
X123609487Y-95688142D01*
X123574894Y-95502848D01*
X123538847Y-95317832D01*
X129423558Y-94147290D01*
G36*
X124944088Y-116667107D02*
X124812417Y-116862501D01*
X124679216Y-117056856D01*
X124544492Y-117250158D01*
X124408253Y-117442396D01*
X124270510Y-117633558D01*
X124131269Y-117823632D01*
X123990540Y-118012607D01*
X123848331Y-118200471D01*
X123704650Y-118387212D01*
X123559508Y-118572818D01*
X123412912Y-118757280D01*
X123264872Y-118940584D01*
X123115397Y-119122720D01*
X122964496Y-119303676D01*
X122812179Y-119483441D01*
X122658454Y-119662005D01*
X122503332Y-119839356D01*
X122346822Y-120015483D01*
X122188933Y-120190375D01*
X122029675Y-120364022D01*
X121869059Y-120536413D01*
X121707093Y-120707537D01*
X121543789Y-120877384D01*
X121379156Y-121045943D01*
X121213203Y-121213203D01*
X121045943Y-121379156D01*
X120877384Y-121543789D01*
X120707537Y-121707093D01*
X120536413Y-121869059D01*
X120364022Y-122029675D01*
X120190375Y-122188933D01*
X120015483Y-122346822D01*
X119839356Y-122503332D01*
X119662005Y-122658454D01*
X119483441Y-122812179D01*
X119303676Y-122964496D01*
X119122720Y-123115397D01*
X118940584Y-123264872D01*
X118757280Y-123412912D01*
X118572818Y-123559508D01*
X118387212Y-123704650D01*
X118200471Y-123848331D01*
X118012607Y-123990540D01*
X117823632Y-124131269D01*
X117633558Y-124270510D01*
X117442396Y-124408253D01*
X117250158Y-124544492D01*
X117056856Y-124679216D01*
X116862501Y-124812417D01*
X113490001Y-119849934D01*
X113645484Y-119743372D01*
X113800126Y-119635593D01*
X113953916Y-119526603D01*
X114106846Y-119416408D01*
X114258906Y-119305015D01*
X114410085Y-119192432D01*
X114560376Y-119078664D01*
X114709769Y-118963720D01*
X114858255Y-118847606D01*
X115005824Y-118730330D01*
X115152467Y-118611898D01*
X115298176Y-118492318D01*
X115442941Y-118371597D01*
X115586753Y-118249743D01*
X115729604Y-118126763D01*
X115871485Y-118002666D01*
X116012386Y-117877457D01*
X116152300Y-117751146D01*
X116291218Y-117623740D01*
X116429131Y-117495247D01*
X116566030Y-117365675D01*
X116701907Y-117235031D01*
X116836754Y-117103324D01*
X116970563Y-116970563D01*
X117103324Y-116836754D01*
X117235031Y-116701907D01*
X117365675Y-116566030D01*
X117495247Y-116429131D01*
X117623740Y-116291218D01*
X117751146Y-116152300D01*
X117877457Y-116012386D01*
X118002666Y-115871485D01*
X118126763Y-115729604D01*
X118249743Y-115586753D01*
X118371597Y-115442941D01*
X118492318Y-115298176D01*
X118611898Y-115152467D01*
X118730330Y-115005824D01*
X118847606Y-114858255D01*
X118963720Y-114709769D01*
X119078664Y-114560376D01*
X119192432Y-114410085D01*
X119305015Y-114258906D01*
X119416408Y-114106846D01*
X119526603Y-113953916D01*
X119635593Y-113800126D01*
X119743372Y-113645484D01*
X119849934Y-113490001D01*
X119955271Y-113333686D01*
X124944088Y-116667107D01*
G37*
X124944088Y-116667107D02*
X124812417Y-116862501D01*
X124679216Y-117056856D01*
X124544492Y-117250158D01*
X124408253Y-117442396D01*
X124270510Y-117633558D01*
X124131269Y-117823632D01*
X123990540Y-118012607D01*
X123848331Y-118200471D01*
X123704650Y-118387212D01*
X123559508Y-118572818D01*
X123412912Y-118757280D01*
X123264872Y-118940584D01*
X123115397Y-119122720D01*
X122964496Y-119303676D01*
X122812179Y-119483441D01*
X122658454Y-119662005D01*
X122503332Y-119839356D01*
X122346822Y-120015483D01*
X122188933Y-120190375D01*
X122029675Y-120364022D01*
X121869059Y-120536413D01*
X121707093Y-120707537D01*
X121543789Y-120877384D01*
X121379156Y-121045943D01*
X121213203Y-121213203D01*
X121045943Y-121379156D01*
X120877384Y-121543789D01*
X120707537Y-121707093D01*
X120536413Y-121869059D01*
X120364022Y-122029675D01*
X120190375Y-122188933D01*
X120015483Y-122346822D01*
X119839356Y-122503332D01*
X119662005Y-122658454D01*
X119483441Y-122812179D01*
X119303676Y-122964496D01*
X119122720Y-123115397D01*
X118940584Y-123264872D01*
X118757280Y-123412912D01*
X118572818Y-123559508D01*
X118387212Y-123704650D01*
X118200471Y-123848331D01*
X118012607Y-123990540D01*
X117823632Y-124131269D01*
X117633558Y-124270510D01*
X117442396Y-124408253D01*
X117250158Y-124544492D01*
X117056856Y-124679216D01*
X116862501Y-124812417D01*
X113490001Y-119849934D01*
X113645484Y-119743372D01*
X113800126Y-119635593D01*
X113953916Y-119526603D01*
X114106846Y-119416408D01*
X114258906Y-119305015D01*
X114410085Y-119192432D01*
X114560376Y-119078664D01*
X114709769Y-118963720D01*
X114858255Y-118847606D01*
X115005824Y-118730330D01*
X115152467Y-118611898D01*
X115298176Y-118492318D01*
X115442941Y-118371597D01*
X115586753Y-118249743D01*
X115729604Y-118126763D01*
X115871485Y-118002666D01*
X116012386Y-117877457D01*
X116152300Y-117751146D01*
X116291218Y-117623740D01*
X116429131Y-117495247D01*
X116566030Y-117365675D01*
X116701907Y-117235031D01*
X116836754Y-117103324D01*
X116970563Y-116970563D01*
X117103324Y-116836754D01*
X117235031Y-116701907D01*
X117365675Y-116566030D01*
X117495247Y-116429131D01*
X117623740Y-116291218D01*
X117751146Y-116152300D01*
X117877457Y-116012386D01*
X118002666Y-115871485D01*
X118126763Y-115729604D01*
X118249743Y-115586753D01*
X118371597Y-115442941D01*
X118492318Y-115298176D01*
X118611898Y-115152467D01*
X118730330Y-115005824D01*
X118847606Y-114858255D01*
X118963720Y-114709769D01*
X119078664Y-114560376D01*
X119192432Y-114410085D01*
X119305015Y-114258906D01*
X119416408Y-114106846D01*
X119526603Y-113953916D01*
X119635593Y-113800126D01*
X119743372Y-113645484D01*
X119849934Y-113490001D01*
X119955271Y-113333686D01*
X124944088Y-116667107D01*
G36*
X105852710Y-129423558D02*
X105621439Y-129468618D01*
X105389822Y-129511859D01*
X105157873Y-129553280D01*
X104925605Y-129592878D01*
X104693034Y-129630650D01*
X104460173Y-129666595D01*
X104227037Y-129700710D01*
X103993640Y-129732992D01*
X103759997Y-129763441D01*
X103526122Y-129792054D01*
X103292029Y-129818829D01*
X103057734Y-129843764D01*
X102823249Y-129866859D01*
X102588591Y-129888111D01*
X102353773Y-129907520D01*
X102118810Y-129925084D01*
X101883716Y-129940802D01*
X101648505Y-129954673D01*
X101413194Y-129966696D01*
X101177794Y-129976871D01*
X100942323Y-129985197D01*
X100706793Y-129991673D01*
X100471220Y-129996299D01*
X100235617Y-129999075D01*
X100000000Y-130000000D01*
X99764383Y-129999075D01*
X99528780Y-129996299D01*
X99293207Y-129991673D01*
X99057677Y-129985197D01*
X98822206Y-129976871D01*
X98586806Y-129966696D01*
X98351495Y-129954673D01*
X98116284Y-129940802D01*
X97881190Y-129925084D01*
X97646227Y-129907520D01*
X97411409Y-129888111D01*
X97176751Y-129866859D01*
X96942266Y-129843764D01*
X96707971Y-129818829D01*
X96473878Y-129792054D01*
X96240003Y-129763441D01*
X96006360Y-129732992D01*
X95772963Y-129700710D01*
X95539827Y-129666595D01*
X95306966Y-129630650D01*
X95074395Y-129592878D01*
X94842127Y-129553280D01*
X94610178Y-129511859D01*
X94378561Y-129468618D01*
X95502848Y-123574894D01*
X95688142Y-123609487D01*
X95873702Y-123642624D01*
X96059516Y-123674302D01*
X96245573Y-123704520D01*
X96431862Y-123733276D01*
X96618370Y-123760568D01*
X96805088Y-123786394D01*
X96992002Y-123810753D01*
X97179102Y-123833643D01*
X97366377Y-123855063D01*
X97553813Y-123875011D01*
X97741400Y-123893487D01*
X97929127Y-123910489D01*
X98116982Y-123926016D01*
X98304952Y-123940067D01*
X98493028Y-123952641D01*
X98681196Y-123963738D01*
X98869445Y-123973357D01*
X99057764Y-123981497D01*
X99246142Y-123988157D01*
X99434566Y-123993338D01*
X99623024Y-123997039D01*
X99811506Y-123999260D01*
X100000000Y-124000000D01*
X100188494Y-123999260D01*
X100376976Y-123997039D01*
X100565434Y-123993338D01*
X100753858Y-123988157D01*
X100942236Y-123981497D01*
X101130555Y-123973357D01*
X101318804Y-123963738D01*
X101506972Y-123952641D01*
X101695048Y-123940067D01*
X101883018Y-123926016D01*
X102070873Y-123910489D01*
X102258600Y-123893487D01*
X102446187Y-123875011D01*
X102633623Y-123855063D01*
X102820898Y-123833643D01*
X103007998Y-123810753D01*
X103194912Y-123786394D01*
X103381630Y-123760568D01*
X103568138Y-123733276D01*
X103754427Y-123704520D01*
X103940484Y-123674302D01*
X104126298Y-123642624D01*
X104311858Y-123609487D01*
X104497152Y-123574894D01*
X104682168Y-123538847D01*
X105852710Y-129423558D01*
G37*
X105852710Y-129423558D02*
X105621439Y-129468618D01*
X105389822Y-129511859D01*
X105157873Y-129553280D01*
X104925605Y-129592878D01*
X104693034Y-129630650D01*
X104460173Y-129666595D01*
X104227037Y-129700710D01*
X103993640Y-129732992D01*
X103759997Y-129763441D01*
X103526122Y-129792054D01*
X103292029Y-129818829D01*
X103057734Y-129843764D01*
X102823249Y-129866859D01*
X102588591Y-129888111D01*
X102353773Y-129907520D01*
X102118810Y-129925084D01*
X101883716Y-129940802D01*
X101648505Y-129954673D01*
X101413194Y-129966696D01*
X101177794Y-129976871D01*
X100942323Y-129985197D01*
X100706793Y-129991673D01*
X100471220Y-129996299D01*
X100235617Y-129999075D01*
X100000000Y-130000000D01*
X99764383Y-129999075D01*
X99528780Y-129996299D01*
X99293207Y-129991673D01*
X99057677Y-129985197D01*
X98822206Y-129976871D01*
X98586806Y-129966696D01*
X98351495Y-129954673D01*
X98116284Y-129940802D01*
X97881190Y-129925084D01*
X97646227Y-129907520D01*
X97411409Y-129888111D01*
X97176751Y-129866859D01*
X96942266Y-129843764D01*
X96707971Y-129818829D01*
X96473878Y-129792054D01*
X96240003Y-129763441D01*
X96006360Y-129732992D01*
X95772963Y-129700710D01*
X95539827Y-129666595D01*
X95306966Y-129630650D01*
X95074395Y-129592878D01*
X94842127Y-129553280D01*
X94610178Y-129511859D01*
X94378561Y-129468618D01*
X95502848Y-123574894D01*
X95688142Y-123609487D01*
X95873702Y-123642624D01*
X96059516Y-123674302D01*
X96245573Y-123704520D01*
X96431862Y-123733276D01*
X96618370Y-123760568D01*
X96805088Y-123786394D01*
X96992002Y-123810753D01*
X97179102Y-123833643D01*
X97366377Y-123855063D01*
X97553813Y-123875011D01*
X97741400Y-123893487D01*
X97929127Y-123910489D01*
X98116982Y-123926016D01*
X98304952Y-123940067D01*
X98493028Y-123952641D01*
X98681196Y-123963738D01*
X98869445Y-123973357D01*
X99057764Y-123981497D01*
X99246142Y-123988157D01*
X99434566Y-123993338D01*
X99623024Y-123997039D01*
X99811506Y-123999260D01*
X100000000Y-124000000D01*
X100188494Y-123999260D01*
X100376976Y-123997039D01*
X100565434Y-123993338D01*
X100753858Y-123988157D01*
X100942236Y-123981497D01*
X101130555Y-123973357D01*
X101318804Y-123963738D01*
X101506972Y-123952641D01*
X101695048Y-123940067D01*
X101883018Y-123926016D01*
X102070873Y-123910489D01*
X102258600Y-123893487D01*
X102446187Y-123875011D01*
X102633623Y-123855063D01*
X102820898Y-123833643D01*
X103007998Y-123810753D01*
X103194912Y-123786394D01*
X103381630Y-123760568D01*
X103568138Y-123733276D01*
X103754427Y-123704520D01*
X103940484Y-123674302D01*
X104126298Y-123642624D01*
X104311858Y-123609487D01*
X104497152Y-123574894D01*
X104682168Y-123538847D01*
X105852710Y-129423558D01*
G36*
X83332893Y-124944088D02*
X83137499Y-124812417D01*
X82943144Y-124679216D01*
X82749842Y-124544492D01*
X82557604Y-124408253D01*
X82366442Y-124270510D01*
X82176368Y-124131269D01*
X81987393Y-123990540D01*
X81799529Y-123848331D01*
X81612788Y-123704650D01*
X81427182Y-123559508D01*
X81242720Y-123412912D01*
X81059416Y-123264872D01*
X80877280Y-123115397D01*
X80696324Y-122964496D01*
X80516559Y-122812179D01*
X80337995Y-122658454D01*
X80160644Y-122503332D01*
X79984517Y-122346822D01*
X79809625Y-122188933D01*
X79635978Y-122029675D01*
X79463587Y-121869059D01*
X79292463Y-121707093D01*
X79122616Y-121543789D01*
X78954057Y-121379156D01*
X78786797Y-121213203D01*
X78620844Y-121045943D01*
X78456211Y-120877384D01*
X78292907Y-120707537D01*
X78130941Y-120536413D01*
X77970325Y-120364022D01*
X77811067Y-120190375D01*
X77653178Y-120015483D01*
X77496668Y-119839356D01*
X77341546Y-119662005D01*
X77187821Y-119483441D01*
X77035504Y-119303676D01*
X76884603Y-119122720D01*
X76735128Y-118940584D01*
X76587088Y-118757280D01*
X76440492Y-118572818D01*
X76295350Y-118387212D01*
X76151669Y-118200471D01*
X76009460Y-118012607D01*
X75868731Y-117823632D01*
X75729490Y-117633558D01*
X75591747Y-117442396D01*
X75455508Y-117250158D01*
X75320784Y-117056856D01*
X75187583Y-116862501D01*
X80150066Y-113490001D01*
X80256628Y-113645484D01*
X80364407Y-113800126D01*
X80473397Y-113953916D01*
X80583592Y-114106846D01*
X80694985Y-114258906D01*
X80807568Y-114410085D01*
X80921336Y-114560376D01*
X81036280Y-114709769D01*
X81152394Y-114858255D01*
X81269670Y-115005824D01*
X81388102Y-115152467D01*
X81507682Y-115298176D01*
X81628403Y-115442941D01*
X81750257Y-115586753D01*
X81873237Y-115729604D01*
X81997334Y-115871485D01*
X82122543Y-116012386D01*
X82248854Y-116152300D01*
X82376260Y-116291218D01*
X82504753Y-116429131D01*
X82634325Y-116566030D01*
X82764969Y-116701907D01*
X82896676Y-116836754D01*
X83029437Y-116970563D01*
X83163246Y-117103324D01*
X83298093Y-117235031D01*
X83433970Y-117365675D01*
X83570869Y-117495247D01*
X83708782Y-117623740D01*
X83847700Y-117751146D01*
X83987614Y-117877457D01*
X84128515Y-118002666D01*
X84270396Y-118126763D01*
X84413247Y-118249743D01*
X84557059Y-118371597D01*
X84701824Y-118492318D01*
X84847533Y-118611898D01*
X84994176Y-118730330D01*
X85141745Y-118847606D01*
X85290231Y-118963720D01*
X85439624Y-119078664D01*
X85589915Y-119192432D01*
X85741094Y-119305015D01*
X85893154Y-119416408D01*
X86046084Y-119526603D01*
X86199874Y-119635593D01*
X86354516Y-119743372D01*
X86509999Y-119849934D01*
X86666314Y-119955271D01*
X83332893Y-124944088D01*
G37*
X83332893Y-124944088D02*
X83137499Y-124812417D01*
X82943144Y-124679216D01*
X82749842Y-124544492D01*
X82557604Y-124408253D01*
X82366442Y-124270510D01*
X82176368Y-124131269D01*
X81987393Y-123990540D01*
X81799529Y-123848331D01*
X81612788Y-123704650D01*
X81427182Y-123559508D01*
X81242720Y-123412912D01*
X81059416Y-123264872D01*
X80877280Y-123115397D01*
X80696324Y-122964496D01*
X80516559Y-122812179D01*
X80337995Y-122658454D01*
X80160644Y-122503332D01*
X79984517Y-122346822D01*
X79809625Y-122188933D01*
X79635978Y-122029675D01*
X79463587Y-121869059D01*
X79292463Y-121707093D01*
X79122616Y-121543789D01*
X78954057Y-121379156D01*
X78786797Y-121213203D01*
X78620844Y-121045943D01*
X78456211Y-120877384D01*
X78292907Y-120707537D01*
X78130941Y-120536413D01*
X77970325Y-120364022D01*
X77811067Y-120190375D01*
X77653178Y-120015483D01*
X77496668Y-119839356D01*
X77341546Y-119662005D01*
X77187821Y-119483441D01*
X77035504Y-119303676D01*
X76884603Y-119122720D01*
X76735128Y-118940584D01*
X76587088Y-118757280D01*
X76440492Y-118572818D01*
X76295350Y-118387212D01*
X76151669Y-118200471D01*
X76009460Y-118012607D01*
X75868731Y-117823632D01*
X75729490Y-117633558D01*
X75591747Y-117442396D01*
X75455508Y-117250158D01*
X75320784Y-117056856D01*
X75187583Y-116862501D01*
X80150066Y-113490001D01*
X80256628Y-113645484D01*
X80364407Y-113800126D01*
X80473397Y-113953916D01*
X80583592Y-114106846D01*
X80694985Y-114258906D01*
X80807568Y-114410085D01*
X80921336Y-114560376D01*
X81036280Y-114709769D01*
X81152394Y-114858255D01*
X81269670Y-115005824D01*
X81388102Y-115152467D01*
X81507682Y-115298176D01*
X81628403Y-115442941D01*
X81750257Y-115586753D01*
X81873237Y-115729604D01*
X81997334Y-115871485D01*
X82122543Y-116012386D01*
X82248854Y-116152300D01*
X82376260Y-116291218D01*
X82504753Y-116429131D01*
X82634325Y-116566030D01*
X82764969Y-116701907D01*
X82896676Y-116836754D01*
X83029437Y-116970563D01*
X83163246Y-117103324D01*
X83298093Y-117235031D01*
X83433970Y-117365675D01*
X83570869Y-117495247D01*
X83708782Y-117623740D01*
X83847700Y-117751146D01*
X83987614Y-117877457D01*
X84128515Y-118002666D01*
X84270396Y-118126763D01*
X84413247Y-118249743D01*
X84557059Y-118371597D01*
X84701824Y-118492318D01*
X84847533Y-118611898D01*
X84994176Y-118730330D01*
X85141745Y-118847606D01*
X85290231Y-118963720D01*
X85439624Y-119078664D01*
X85589915Y-119192432D01*
X85741094Y-119305015D01*
X85893154Y-119416408D01*
X86046084Y-119526603D01*
X86199874Y-119635593D01*
X86354516Y-119743372D01*
X86509999Y-119849934D01*
X86666314Y-119955271D01*
X83332893Y-124944088D01*
G36*
X70576442Y-105852710D02*
X70531382Y-105621439D01*
X70488141Y-105389822D01*
X70446720Y-105157873D01*
X70407122Y-104925605D01*
X70369350Y-104693034D01*
X70333405Y-104460173D01*
X70299290Y-104227037D01*
X70267008Y-103993640D01*
X70236559Y-103759997D01*
X70207946Y-103526122D01*
X70181171Y-103292029D01*
X70156236Y-103057734D01*
X70133141Y-102823249D01*
X70111889Y-102588591D01*
X70092480Y-102353773D01*
X70074916Y-102118810D01*
X70059198Y-101883716D01*
X70045327Y-101648505D01*
X70033304Y-101413194D01*
X70023129Y-101177794D01*
X70014803Y-100942323D01*
X70008327Y-100706793D01*
X70003701Y-100471220D01*
X70000925Y-100235617D01*
X70000000Y-100000000D01*
X70000925Y-99764383D01*
X70003701Y-99528780D01*
X70008327Y-99293207D01*
X70014803Y-99057677D01*
X70023129Y-98822206D01*
X70033304Y-98586806D01*
X70045327Y-98351495D01*
X70059198Y-98116284D01*
X70074916Y-97881190D01*
X70092480Y-97646227D01*
X70111889Y-97411409D01*
X70133141Y-97176751D01*
X70156236Y-96942266D01*
X70181171Y-96707971D01*
X70207946Y-96473878D01*
X70236559Y-96240003D01*
X70267008Y-96006360D01*
X70299290Y-95772963D01*
X70333405Y-95539827D01*
X70369350Y-95306966D01*
X70407122Y-95074395D01*
X70446720Y-94842127D01*
X70488141Y-94610178D01*
X70531382Y-94378561D01*
X76425106Y-95502848D01*
X76390513Y-95688142D01*
X76357376Y-95873702D01*
X76325698Y-96059516D01*
X76295480Y-96245573D01*
X76266724Y-96431862D01*
X76239432Y-96618370D01*
X76213606Y-96805088D01*
X76189247Y-96992002D01*
X76166357Y-97179102D01*
X76144937Y-97366377D01*
X76124989Y-97553813D01*
X76106513Y-97741400D01*
X76089511Y-97929127D01*
X76073984Y-98116982D01*
X76059933Y-98304952D01*
X76047359Y-98493028D01*
X76036262Y-98681196D01*
X76026643Y-98869445D01*
X76018503Y-99057764D01*
X76011843Y-99246142D01*
X76006662Y-99434566D01*
X76002961Y-99623024D01*
X76000740Y-99811506D01*
X76000000Y-100000000D01*
X76000740Y-100188494D01*
X76002961Y-100376976D01*
X76006662Y-100565434D01*
X76011843Y-100753858D01*
X76018503Y-100942236D01*
X76026643Y-101130555D01*
X76036262Y-101318804D01*
X76047359Y-101506972D01*
X76059933Y-101695048D01*
X76073984Y-101883018D01*
X76089511Y-102070873D01*
X76106513Y-102258600D01*
X76124989Y-102446187D01*
X76144937Y-102633623D01*
X76166357Y-102820898D01*
X76189247Y-103007998D01*
X76213606Y-103194912D01*
X76239432Y-103381630D01*
X76266724Y-103568138D01*
X76295480Y-103754427D01*
X76325698Y-103940484D01*
X76357376Y-104126298D01*
X76390513Y-104311858D01*
X76425106Y-104497152D01*
X76461153Y-104682168D01*
X70576442Y-105852710D01*
G37*
X70576442Y-105852710D02*
X70531382Y-105621439D01*
X70488141Y-105389822D01*
X70446720Y-105157873D01*
X70407122Y-104925605D01*
X70369350Y-104693034D01*
X70333405Y-104460173D01*
X70299290Y-104227037D01*
X70267008Y-103993640D01*
X70236559Y-103759997D01*
X70207946Y-103526122D01*
X70181171Y-103292029D01*
X70156236Y-103057734D01*
X70133141Y-102823249D01*
X70111889Y-102588591D01*
X70092480Y-102353773D01*
X70074916Y-102118810D01*
X70059198Y-101883716D01*
X70045327Y-101648505D01*
X70033304Y-101413194D01*
X70023129Y-101177794D01*
X70014803Y-100942323D01*
X70008327Y-100706793D01*
X70003701Y-100471220D01*
X70000925Y-100235617D01*
X70000000Y-100000000D01*
X70000925Y-99764383D01*
X70003701Y-99528780D01*
X70008327Y-99293207D01*
X70014803Y-99057677D01*
X70023129Y-98822206D01*
X70033304Y-98586806D01*
X70045327Y-98351495D01*
X70059198Y-98116284D01*
X70074916Y-97881190D01*
X70092480Y-97646227D01*
X70111889Y-97411409D01*
X70133141Y-97176751D01*
X70156236Y-96942266D01*
X70181171Y-96707971D01*
X70207946Y-96473878D01*
X70236559Y-96240003D01*
X70267008Y-96006360D01*
X70299290Y-95772963D01*
X70333405Y-95539827D01*
X70369350Y-95306966D01*
X70407122Y-95074395D01*
X70446720Y-94842127D01*
X70488141Y-94610178D01*
X70531382Y-94378561D01*
X76425106Y-95502848D01*
X76390513Y-95688142D01*
X76357376Y-95873702D01*
X76325698Y-96059516D01*
X76295480Y-96245573D01*
X76266724Y-96431862D01*
X76239432Y-96618370D01*
X76213606Y-96805088D01*
X76189247Y-96992002D01*
X76166357Y-97179102D01*
X76144937Y-97366377D01*
X76124989Y-97553813D01*
X76106513Y-97741400D01*
X76089511Y-97929127D01*
X76073984Y-98116982D01*
X76059933Y-98304952D01*
X76047359Y-98493028D01*
X76036262Y-98681196D01*
X76026643Y-98869445D01*
X76018503Y-99057764D01*
X76011843Y-99246142D01*
X76006662Y-99434566D01*
X76002961Y-99623024D01*
X76000740Y-99811506D01*
X76000000Y-100000000D01*
X76000740Y-100188494D01*
X76002961Y-100376976D01*
X76006662Y-100565434D01*
X76011843Y-100753858D01*
X76018503Y-100942236D01*
X76026643Y-101130555D01*
X76036262Y-101318804D01*
X76047359Y-101506972D01*
X76059933Y-101695048D01*
X76073984Y-101883018D01*
X76089511Y-102070873D01*
X76106513Y-102258600D01*
X76124989Y-102446187D01*
X76144937Y-102633623D01*
X76166357Y-102820898D01*
X76189247Y-103007998D01*
X76213606Y-103194912D01*
X76239432Y-103381630D01*
X76266724Y-103568138D01*
X76295480Y-103754427D01*
X76325698Y-103940484D01*
X76357376Y-104126298D01*
X76390513Y-104311858D01*
X76425106Y-104497152D01*
X76461153Y-104682168D01*
X70576442Y-105852710D01*
G36*
X75055912Y-83332893D02*
X75187583Y-83137499D01*
X75320784Y-82943144D01*
X75455508Y-82749842D01*
X75591747Y-82557604D01*
X75729490Y-82366442D01*
X75868731Y-82176368D01*
X76009460Y-81987393D01*
X76151669Y-81799529D01*
X76295350Y-81612788D01*
X76440492Y-81427182D01*
X76587088Y-81242720D01*
X76735128Y-81059416D01*
X76884603Y-80877280D01*
X77035504Y-80696324D01*
X77187821Y-80516559D01*
X77341546Y-80337995D01*
X77496668Y-80160644D01*
X77653178Y-79984517D01*
X77811067Y-79809625D01*
X77970325Y-79635978D01*
X78130941Y-79463587D01*
X78292907Y-79292463D01*
X78456211Y-79122616D01*
X78620844Y-78954057D01*
X78786797Y-78786797D01*
X78954057Y-78620844D01*
X79122616Y-78456211D01*
X79292463Y-78292907D01*
X79463587Y-78130941D01*
X79635978Y-77970325D01*
X79809625Y-77811067D01*
X79984517Y-77653178D01*
X80160644Y-77496668D01*
X80337995Y-77341546D01*
X80516559Y-77187821D01*
X80696324Y-77035504D01*
X80877280Y-76884603D01*
X81059416Y-76735128D01*
X81242720Y-76587088D01*
X81427182Y-76440492D01*
X81612788Y-76295350D01*
X81799529Y-76151669D01*
X81987393Y-76009460D01*
X82176368Y-75868731D01*
X82366442Y-75729490D01*
X82557604Y-75591747D01*
X82749842Y-75455508D01*
X82943144Y-75320784D01*
X83137499Y-75187583D01*
X86509999Y-80150066D01*
X86354516Y-80256628D01*
X86199874Y-80364407D01*
X86046084Y-80473397D01*
X85893154Y-80583592D01*
X85741094Y-80694985D01*
X85589915Y-80807568D01*
X85439624Y-80921336D01*
X85290231Y-81036280D01*
X85141745Y-81152394D01*
X84994176Y-81269670D01*
X84847533Y-81388102D01*
X84701824Y-81507682D01*
X84557059Y-81628403D01*
X84413247Y-81750257D01*
X84270396Y-81873237D01*
X84128515Y-81997334D01*
X83987614Y-82122543D01*
X83847700Y-82248854D01*
X83708782Y-82376260D01*
X83570869Y-82504753D01*
X83433970Y-82634325D01*
X83298093Y-82764969D01*
X83163246Y-82896676D01*
X83029437Y-83029437D01*
X82896676Y-83163246D01*
X82764969Y-83298093D01*
X82634325Y-83433970D01*
X82504753Y-83570869D01*
X82376260Y-83708782D01*
X82248854Y-83847700D01*
X82122543Y-83987614D01*
X81997334Y-84128515D01*
X81873237Y-84270396D01*
X81750257Y-84413247D01*
X81628403Y-84557059D01*
X81507682Y-84701824D01*
X81388102Y-84847533D01*
X81269670Y-84994176D01*
X81152394Y-85141745D01*
X81036280Y-85290231D01*
X80921336Y-85439624D01*
X80807568Y-85589915D01*
X80694985Y-85741094D01*
X80583592Y-85893154D01*
X80473397Y-86046084D01*
X80364407Y-86199874D01*
X80256628Y-86354516D01*
X80150066Y-86509999D01*
X80044729Y-86666314D01*
X75055912Y-83332893D01*
G37*
X75055912Y-83332893D02*
X75187583Y-83137499D01*
X75320784Y-82943144D01*
X75455508Y-82749842D01*
X75591747Y-82557604D01*
X75729490Y-82366442D01*
X75868731Y-82176368D01*
X76009460Y-81987393D01*
X76151669Y-81799529D01*
X76295350Y-81612788D01*
X76440492Y-81427182D01*
X76587088Y-81242720D01*
X76735128Y-81059416D01*
X76884603Y-80877280D01*
X77035504Y-80696324D01*
X77187821Y-80516559D01*
X77341546Y-80337995D01*
X77496668Y-80160644D01*
X77653178Y-79984517D01*
X77811067Y-79809625D01*
X77970325Y-79635978D01*
X78130941Y-79463587D01*
X78292907Y-79292463D01*
X78456211Y-79122616D01*
X78620844Y-78954057D01*
X78786797Y-78786797D01*
X78954057Y-78620844D01*
X79122616Y-78456211D01*
X79292463Y-78292907D01*
X79463587Y-78130941D01*
X79635978Y-77970325D01*
X79809625Y-77811067D01*
X79984517Y-77653178D01*
X80160644Y-77496668D01*
X80337995Y-77341546D01*
X80516559Y-77187821D01*
X80696324Y-77035504D01*
X80877280Y-76884603D01*
X81059416Y-76735128D01*
X81242720Y-76587088D01*
X81427182Y-76440492D01*
X81612788Y-76295350D01*
X81799529Y-76151669D01*
X81987393Y-76009460D01*
X82176368Y-75868731D01*
X82366442Y-75729490D01*
X82557604Y-75591747D01*
X82749842Y-75455508D01*
X82943144Y-75320784D01*
X83137499Y-75187583D01*
X86509999Y-80150066D01*
X86354516Y-80256628D01*
X86199874Y-80364407D01*
X86046084Y-80473397D01*
X85893154Y-80583592D01*
X85741094Y-80694985D01*
X85589915Y-80807568D01*
X85439624Y-80921336D01*
X85290231Y-81036280D01*
X85141745Y-81152394D01*
X84994176Y-81269670D01*
X84847533Y-81388102D01*
X84701824Y-81507682D01*
X84557059Y-81628403D01*
X84413247Y-81750257D01*
X84270396Y-81873237D01*
X84128515Y-81997334D01*
X83987614Y-82122543D01*
X83847700Y-82248854D01*
X83708782Y-82376260D01*
X83570869Y-82504753D01*
X83433970Y-82634325D01*
X83298093Y-82764969D01*
X83163246Y-82896676D01*
X83029437Y-83029437D01*
X82896676Y-83163246D01*
X82764969Y-83298093D01*
X82634325Y-83433970D01*
X82504753Y-83570869D01*
X82376260Y-83708782D01*
X82248854Y-83847700D01*
X82122543Y-83987614D01*
X81997334Y-84128515D01*
X81873237Y-84270396D01*
X81750257Y-84413247D01*
X81628403Y-84557059D01*
X81507682Y-84701824D01*
X81388102Y-84847533D01*
X81269670Y-84994176D01*
X81152394Y-85141745D01*
X81036280Y-85290231D01*
X80921336Y-85439624D01*
X80807568Y-85589915D01*
X80694985Y-85741094D01*
X80583592Y-85893154D01*
X80473397Y-86046084D01*
X80364407Y-86199874D01*
X80256628Y-86354516D01*
X80150066Y-86509999D01*
X80044729Y-86666314D01*
X75055912Y-83332893D01*
G36*
X94147290Y-70576442D02*
X94378561Y-70531382D01*
X94610178Y-70488141D01*
X94842127Y-70446720D01*
X95074395Y-70407122D01*
X95306966Y-70369350D01*
X95539827Y-70333405D01*
X95772963Y-70299290D01*
X96006360Y-70267008D01*
X96240003Y-70236559D01*
X96473878Y-70207946D01*
X96707971Y-70181171D01*
X96942266Y-70156236D01*
X97176751Y-70133141D01*
X97411409Y-70111889D01*
X97646227Y-70092480D01*
X97881190Y-70074916D01*
X98116284Y-70059198D01*
X98351495Y-70045327D01*
X98586806Y-70033304D01*
X98822206Y-70023129D01*
X99057677Y-70014803D01*
X99293207Y-70008327D01*
X99528780Y-70003701D01*
X99764383Y-70000925D01*
X100000000Y-70000000D01*
X100235617Y-70000925D01*
X100471220Y-70003701D01*
X100706793Y-70008327D01*
X100942323Y-70014803D01*
X101177794Y-70023129D01*
X101413194Y-70033304D01*
X101648505Y-70045327D01*
X101883716Y-70059198D01*
X102118810Y-70074916D01*
X102353773Y-70092480D01*
X102588591Y-70111889D01*
X102823249Y-70133141D01*
X103057734Y-70156236D01*
X103292029Y-70181171D01*
X103526122Y-70207946D01*
X103759997Y-70236559D01*
X103993640Y-70267008D01*
X104227037Y-70299290D01*
X104460173Y-70333405D01*
X104693034Y-70369350D01*
X104925605Y-70407122D01*
X105157873Y-70446720D01*
X105389822Y-70488141D01*
X105621439Y-70531382D01*
X104497152Y-76425106D01*
X104311858Y-76390513D01*
X104126298Y-76357376D01*
X103940484Y-76325698D01*
X103754427Y-76295480D01*
X103568138Y-76266724D01*
X103381630Y-76239432D01*
X103194912Y-76213606D01*
X103007998Y-76189247D01*
X102820898Y-76166357D01*
X102633623Y-76144937D01*
X102446187Y-76124989D01*
X102258600Y-76106513D01*
X102070873Y-76089511D01*
X101883018Y-76073984D01*
X101695048Y-76059933D01*
X101506972Y-76047359D01*
X101318804Y-76036262D01*
X101130555Y-76026643D01*
X100942236Y-76018503D01*
X100753858Y-76011843D01*
X100565434Y-76006662D01*
X100376976Y-76002961D01*
X100188494Y-76000740D01*
X100000000Y-76000000D01*
X99811506Y-76000740D01*
X99623024Y-76002961D01*
X99434566Y-76006662D01*
X99246142Y-76011843D01*
X99057764Y-76018503D01*
X98869445Y-76026643D01*
X98681196Y-76036262D01*
X98493028Y-76047359D01*
X98304952Y-76059933D01*
X98116982Y-76073984D01*
X97929127Y-76089511D01*
X97741400Y-76106513D01*
X97553813Y-76124989D01*
X97366377Y-76144937D01*
X97179102Y-76166357D01*
X96992002Y-76189247D01*
X96805088Y-76213606D01*
X96618370Y-76239432D01*
X96431862Y-76266724D01*
X96245573Y-76295480D01*
X96059516Y-76325698D01*
X95873702Y-76357376D01*
X95688142Y-76390513D01*
X95502848Y-76425106D01*
X95317832Y-76461153D01*
X94147290Y-70576442D01*
G37*
X94147290Y-70576442D02*
X94378561Y-70531382D01*
X94610178Y-70488141D01*
X94842127Y-70446720D01*
X95074395Y-70407122D01*
X95306966Y-70369350D01*
X95539827Y-70333405D01*
X95772963Y-70299290D01*
X96006360Y-70267008D01*
X96240003Y-70236559D01*
X96473878Y-70207946D01*
X96707971Y-70181171D01*
X96942266Y-70156236D01*
X97176751Y-70133141D01*
X97411409Y-70111889D01*
X97646227Y-70092480D01*
X97881190Y-70074916D01*
X98116284Y-70059198D01*
X98351495Y-70045327D01*
X98586806Y-70033304D01*
X98822206Y-70023129D01*
X99057677Y-70014803D01*
X99293207Y-70008327D01*
X99528780Y-70003701D01*
X99764383Y-70000925D01*
X100000000Y-70000000D01*
X100235617Y-70000925D01*
X100471220Y-70003701D01*
X100706793Y-70008327D01*
X100942323Y-70014803D01*
X101177794Y-70023129D01*
X101413194Y-70033304D01*
X101648505Y-70045327D01*
X101883716Y-70059198D01*
X102118810Y-70074916D01*
X102353773Y-70092480D01*
X102588591Y-70111889D01*
X102823249Y-70133141D01*
X103057734Y-70156236D01*
X103292029Y-70181171D01*
X103526122Y-70207946D01*
X103759997Y-70236559D01*
X103993640Y-70267008D01*
X104227037Y-70299290D01*
X104460173Y-70333405D01*
X104693034Y-70369350D01*
X104925605Y-70407122D01*
X105157873Y-70446720D01*
X105389822Y-70488141D01*
X105621439Y-70531382D01*
X104497152Y-76425106D01*
X104311858Y-76390513D01*
X104126298Y-76357376D01*
X103940484Y-76325698D01*
X103754427Y-76295480D01*
X103568138Y-76266724D01*
X103381630Y-76239432D01*
X103194912Y-76213606D01*
X103007998Y-76189247D01*
X102820898Y-76166357D01*
X102633623Y-76144937D01*
X102446187Y-76124989D01*
X102258600Y-76106513D01*
X102070873Y-76089511D01*
X101883018Y-76073984D01*
X101695048Y-76059933D01*
X101506972Y-76047359D01*
X101318804Y-76036262D01*
X101130555Y-76026643D01*
X100942236Y-76018503D01*
X100753858Y-76011843D01*
X100565434Y-76006662D01*
X100376976Y-76002961D01*
X100188494Y-76000740D01*
X100000000Y-76000000D01*
X99811506Y-76000740D01*
X99623024Y-76002961D01*
X99434566Y-76006662D01*
X99246142Y-76011843D01*
X99057764Y-76018503D01*
X98869445Y-76026643D01*
X98681196Y-76036262D01*
X98493028Y-76047359D01*
X98304952Y-76059933D01*
X98116982Y-76073984D01*
X97929127Y-76089511D01*
X97741400Y-76106513D01*
X97553813Y-76124989D01*
X97366377Y-76144937D01*
X97179102Y-76166357D01*
X96992002Y-76189247D01*
X96805088Y-76213606D01*
X96618370Y-76239432D01*
X96431862Y-76266724D01*
X96245573Y-76295480D01*
X96059516Y-76325698D01*
X95873702Y-76357376D01*
X95688142Y-76390513D01*
X95502848Y-76425106D01*
X95317832Y-76461153D01*
X94147290Y-70576442D01*
X123000000Y-100000000D02*
X122999927Y-100057805D01*
X122999927Y-100057805D02*
X122999709Y-100115610D01*
X122999709Y-100115610D02*
X122999346Y-100173414D01*
X122999346Y-100173414D02*
X122998838Y-100231217D01*
X122998838Y-100231217D02*
X122998184Y-100289019D01*
X122998184Y-100289019D02*
X122997385Y-100346819D01*
X122997385Y-100346819D02*
X122996441Y-100404616D01*
X122996441Y-100404616D02*
X122995351Y-100462411D01*
X122995351Y-100462411D02*
X122994116Y-100520203D01*
X122994116Y-100520203D02*
X122992736Y-100577992D01*
X122992736Y-100577992D02*
X122991211Y-100635777D01*
X122991211Y-100635777D02*
X122989541Y-100693559D01*
X122989541Y-100693559D02*
X122987725Y-100751335D01*
X122987725Y-100751335D02*
X122985764Y-100809107D01*
X122985764Y-100809107D02*
X122983658Y-100866874D01*
X122983658Y-100866874D02*
X122981407Y-100924636D01*
X122981407Y-100924636D02*
X122979010Y-100982391D01*
X122979010Y-100982391D02*
X122976469Y-101040141D01*
X122976469Y-101040141D02*
X122973782Y-101097883D01*
X122973782Y-101097883D02*
X122970950Y-101155619D01*
X122970950Y-101155619D02*
X122967973Y-101213348D01*
X122967973Y-101213348D02*
X122964851Y-101271069D01*
X122964851Y-101271069D02*
X122961584Y-101328782D01*
X122961584Y-101328782D02*
X122958172Y-101386486D01*
X122958172Y-101386486D02*
X122954615Y-101444182D01*
X122954615Y-101444182D02*
X122950913Y-101501869D01*
X122950913Y-101501869D02*
X122947066Y-101559546D01*
X122947066Y-101559546D02*
X122943074Y-101617213D01*
X122943074Y-101617213D02*
X122938937Y-101674870D01*
X122938937Y-101674870D02*
X122934655Y-101732517D01*
X122934655Y-101732517D02*
X122930228Y-101790152D01*
X122930228Y-101790152D02*
X122925656Y-101847776D01*
X122925656Y-101847776D02*
X122920940Y-101905389D01*
X122920940Y-101905389D02*
X122916079Y-101962989D01*
X122916079Y-101962989D02*
X122911073Y-102020578D01*
X122911073Y-102020578D02*
X122905922Y-102078153D01*
X122905922Y-102078153D02*
X122900627Y-102135715D01*
X122900627Y-102135715D02*
X122895187Y-102193264D01*
X122895187Y-102193264D02*
X122889603Y-102250799D01*
X122889603Y-102250799D02*
X122883873Y-102308319D01*
X122883873Y-102308319D02*
X122878000Y-102365826D01*
X122878000Y-102365826D02*
X122871981Y-102423317D01*
X122871981Y-102423317D02*
X122865819Y-102480793D01*
X122865819Y-102480793D02*
X122859512Y-102538253D01*
X122859512Y-102538253D02*
X122853060Y-102595697D01*
X122853060Y-102595697D02*
X122846464Y-102653125D01*
X122846464Y-102653125D02*
X122839724Y-102710536D01*
X122839724Y-102710536D02*
X122832840Y-102767929D01*
X122832840Y-102767929D02*
X122825811Y-102825306D01*
X122277413Y-105719867D02*
X122262967Y-105775839D01*
X122262967Y-105775839D02*
X122248380Y-105831773D01*
X122248380Y-105831773D02*
X122233653Y-105887671D01*
X122233653Y-105887671D02*
X122218786Y-105943532D01*
X122218786Y-105943532D02*
X122203778Y-105999355D01*
X122203778Y-105999355D02*
X122188630Y-106055140D01*
X122188630Y-106055140D02*
X122173341Y-106110887D01*
X122173341Y-106110887D02*
X122157913Y-106166595D01*
X122157913Y-106166595D02*
X122142345Y-106222264D01*
X122142345Y-106222264D02*
X122126636Y-106277895D01*
X122126636Y-106277895D02*
X122110789Y-106333485D01*
X122110789Y-106333485D02*
X122094801Y-106389035D01*
X122094801Y-106389035D02*
X122078674Y-106444545D01*
X122078674Y-106444545D02*
X122062407Y-106500015D01*
X122062407Y-106500015D02*
X122046001Y-106555443D01*
X122046001Y-106555443D02*
X122029456Y-106610830D01*
X122029456Y-106610830D02*
X122012772Y-106666175D01*
X122012772Y-106666175D02*
X121995948Y-106721478D01*
X121995948Y-106721478D02*
X121978986Y-106776739D01*
X121978986Y-106776739D02*
X121961885Y-106831956D01*
X121961885Y-106831956D02*
X121944645Y-106887131D01*
X121944645Y-106887131D02*
X121927266Y-106942262D01*
X121927266Y-106942262D02*
X121909749Y-106997349D01*
X121909749Y-106997349D02*
X121892094Y-107052392D01*
X121892094Y-107052392D02*
X121874300Y-107107391D01*
X121874300Y-107107391D02*
X121856368Y-107162344D01*
X121856368Y-107162344D02*
X121838298Y-107217253D01*
X121838298Y-107217253D02*
X121820090Y-107272116D01*
X121820090Y-107272116D02*
X121801744Y-107326932D01*
X121801744Y-107326932D02*
X121783261Y-107381703D01*
X121783261Y-107381703D02*
X121764640Y-107436427D01*
X121764640Y-107436427D02*
X121745881Y-107491104D01*
X121745881Y-107491104D02*
X121726986Y-107545734D01*
X121726986Y-107545734D02*
X121707953Y-107600316D01*
X121707953Y-107600316D02*
X121688782Y-107654850D01*
X121688782Y-107654850D02*
X121669475Y-107709335D01*
X121669475Y-107709335D02*
X121650031Y-107763772D01*
X121650031Y-107763772D02*
X121630450Y-107818160D01*
X121630450Y-107818160D02*
X121610733Y-107872498D01*
X121610733Y-107872498D02*
X121590879Y-107926787D01*
X121590879Y-107926787D02*
X121570888Y-107981026D01*
X121570888Y-107981026D02*
X121550762Y-108035214D01*
X121550762Y-108035214D02*
X121530499Y-108089352D01*
X121530499Y-108089352D02*
X121510100Y-108143438D01*
X121510100Y-108143438D02*
X121489566Y-108197473D01*
X121489566Y-108197473D02*
X121468895Y-108251456D01*
X121468895Y-108251456D02*
X121448089Y-108305388D01*
X121448089Y-108305388D02*
X121427148Y-108359266D01*
X121427148Y-108359266D02*
X121406071Y-108413092D01*
X120155054Y-111080335D02*
X120127142Y-111130955D01*
X120127142Y-111130955D02*
X120099103Y-111181504D01*
X120099103Y-111181504D02*
X120070938Y-111231984D01*
X120070938Y-111231984D02*
X120042645Y-111282392D01*
X120042645Y-111282392D02*
X120014226Y-111332729D01*
X120014226Y-111332729D02*
X119985681Y-111382994D01*
X119985681Y-111382994D02*
X119957009Y-111433188D01*
X119957009Y-111433188D02*
X119928212Y-111483309D01*
X119928212Y-111483309D02*
X119899288Y-111533358D01*
X119899288Y-111533358D02*
X119870239Y-111583334D01*
X119870239Y-111583334D02*
X119841064Y-111633236D01*
X119841064Y-111633236D02*
X119811764Y-111683066D01*
X119811764Y-111683066D02*
X119782338Y-111732821D01*
X119782338Y-111732821D02*
X119752788Y-111782502D01*
X119752788Y-111782502D02*
X119723113Y-111832109D01*
X119723113Y-111832109D02*
X119693313Y-111881641D01*
X119693313Y-111881641D02*
X119663390Y-111931099D01*
X119663390Y-111931099D02*
X119633341Y-111980480D01*
X119633341Y-111980480D02*
X119603169Y-112029786D01*
X119603169Y-112029786D02*
X119572873Y-112079016D01*
X119572873Y-112079016D02*
X119542453Y-112128170D01*
X119542453Y-112128170D02*
X119511910Y-112177247D01*
X119511910Y-112177247D02*
X119481244Y-112226248D01*
X119481244Y-112226248D02*
X119450455Y-112275171D01*
X119450455Y-112275171D02*
X119419542Y-112324016D01*
X119419542Y-112324016D02*
X119388507Y-112372784D01*
X119388507Y-112372784D02*
X119357350Y-112421473D01*
X119357350Y-112421473D02*
X119326070Y-112470084D01*
X119326070Y-112470084D02*
X119294669Y-112518617D01*
X119294669Y-112518617D02*
X119263145Y-112567070D01*
X119263145Y-112567070D02*
X119231500Y-112615444D01*
X119231500Y-112615444D02*
X119199733Y-112663738D01*
X119199733Y-112663738D02*
X119167845Y-112711952D01*
X119167845Y-112711952D02*
X119135836Y-112760086D01*
X119135836Y-112760086D02*
X119103706Y-112808139D01*
X119103706Y-112808139D02*
X119071455Y-112856112D01*
X119071455Y-112856112D02*
X119039084Y-112904003D01*
X119039084Y-112904003D02*
X119006592Y-112951812D01*
X119006592Y-112951812D02*
X118973981Y-112999540D01*
X118973981Y-112999540D02*
X118941250Y-113047186D01*
X118941250Y-113047186D02*
X118908399Y-113094749D01*
X118908399Y-113094749D02*
X118875428Y-113142230D01*
X118875428Y-113142230D02*
X118842339Y-113189627D01*
X118842339Y-113189627D02*
X118809130Y-113236942D01*
X118809130Y-113236942D02*
X118775803Y-113284172D01*
X118775803Y-113284172D02*
X118742357Y-113331319D01*
X118742357Y-113331319D02*
X118708792Y-113378381D01*
X118708792Y-113378381D02*
X118675110Y-113425359D01*
X118675110Y-113425359D02*
X118641309Y-113472253D01*
X116766278Y-115744583D02*
X116726655Y-115786672D01*
X116726655Y-115786672D02*
X116686926Y-115828661D01*
X116686926Y-115828661D02*
X116647092Y-115870549D01*
X116647092Y-115870549D02*
X116607152Y-115912338D01*
X116607152Y-115912338D02*
X116567108Y-115954026D01*
X116567108Y-115954026D02*
X116526958Y-115995613D01*
X116526958Y-115995613D02*
X116486705Y-116037100D01*
X116486705Y-116037100D02*
X116446347Y-116078484D01*
X116446347Y-116078484D02*
X116405886Y-116119768D01*
X116405886Y-116119768D02*
X116365321Y-116160949D01*
X116365321Y-116160949D02*
X116324652Y-116202029D01*
X116324652Y-116202029D02*
X116283880Y-116243006D01*
X116283880Y-116243006D02*
X116243006Y-116283880D01*
X116243006Y-116283880D02*
X116202029Y-116324652D01*
X116202029Y-116324652D02*
X116160949Y-116365321D01*
X116160949Y-116365321D02*
X116119768Y-116405886D01*
X116119768Y-116405886D02*
X116078484Y-116446347D01*
X116078484Y-116446347D02*
X116037100Y-116486705D01*
X116037100Y-116486705D02*
X115995613Y-116526958D01*
X115995613Y-116526958D02*
X115954026Y-116567108D01*
X115954026Y-116567108D02*
X115912338Y-116607152D01*
X115912338Y-116607152D02*
X115870549Y-116647092D01*
X115870549Y-116647092D02*
X115828661Y-116686926D01*
X115828661Y-116686926D02*
X115786672Y-116726655D01*
X115786672Y-116726655D02*
X115744583Y-116766278D01*
X115744583Y-116766278D02*
X115702396Y-116805796D01*
X115702396Y-116805796D02*
X115660108Y-116845207D01*
X115660108Y-116845207D02*
X115617722Y-116884512D01*
X115617722Y-116884512D02*
X115575238Y-116923710D01*
X115575238Y-116923710D02*
X115532655Y-116962802D01*
X115532655Y-116962802D02*
X115489973Y-117001786D01*
X115489973Y-117001786D02*
X115447194Y-117040663D01*
X115447194Y-117040663D02*
X115404318Y-117079432D01*
X115404318Y-117079432D02*
X115361344Y-117118093D01*
X115361344Y-117118093D02*
X115318273Y-117156646D01*
X115318273Y-117156646D02*
X115275105Y-117195091D01*
X115275105Y-117195091D02*
X115231841Y-117233427D01*
X115231841Y-117233427D02*
X115188481Y-117271655D01*
X115188481Y-117271655D02*
X115145024Y-117309773D01*
X115145024Y-117309773D02*
X115101472Y-117347782D01*
X115101472Y-117347782D02*
X115057825Y-117385681D01*
X115057825Y-117385681D02*
X115014083Y-117423471D01*
X115014083Y-117423471D02*
X114970245Y-117461150D01*
X114970245Y-117461150D02*
X114926313Y-117498719D01*
X114926313Y-117498719D02*
X114882287Y-117536178D01*
X114882287Y-117536178D02*
X114838167Y-117573526D01*
X114838167Y-117573526D02*
X114793953Y-117610762D01*
X114793953Y-117610762D02*
X114749646Y-117647888D01*
X114749646Y-117647888D02*
X114705245Y-117684902D01*
X112324016Y-119419542D02*
X112275171Y-119450455D01*
X112275171Y-119450455D02*
X112226248Y-119481244D01*
X112226248Y-119481244D02*
X112177247Y-119511910D01*
X112177247Y-119511910D02*
X112128170Y-119542453D01*
X112128170Y-119542453D02*
X112079016Y-119572873D01*
X112079016Y-119572873D02*
X112029786Y-119603169D01*
X112029786Y-119603169D02*
X111980480Y-119633341D01*
X111980480Y-119633341D02*
X111931099Y-119663390D01*
X111931099Y-119663390D02*
X111881641Y-119693313D01*
X111881641Y-119693313D02*
X111832109Y-119723113D01*
X111832109Y-119723113D02*
X111782502Y-119752788D01*
X111782502Y-119752788D02*
X111732821Y-119782338D01*
X111732821Y-119782338D02*
X111683066Y-119811764D01*
X111683066Y-119811764D02*
X111633236Y-119841064D01*
X111633236Y-119841064D02*
X111583334Y-119870239D01*
X111583334Y-119870239D02*
X111533358Y-119899288D01*
X111533358Y-119899288D02*
X111483309Y-119928212D01*
X111483309Y-119928212D02*
X111433188Y-119957009D01*
X111433188Y-119957009D02*
X111382994Y-119985681D01*
X111382994Y-119985681D02*
X111332729Y-120014226D01*
X111332729Y-120014226D02*
X111282392Y-120042645D01*
X111282392Y-120042645D02*
X111231984Y-120070938D01*
X111231984Y-120070938D02*
X111181504Y-120099103D01*
X111181504Y-120099103D02*
X111130955Y-120127142D01*
X111130955Y-120127142D02*
X111080335Y-120155054D01*
X111080335Y-120155054D02*
X111029644Y-120182838D01*
X111029644Y-120182838D02*
X110978885Y-120210495D01*
X110978885Y-120210495D02*
X110928055Y-120238024D01*
X110928055Y-120238024D02*
X110877157Y-120265425D01*
X110877157Y-120265425D02*
X110826190Y-120292698D01*
X110826190Y-120292698D02*
X110775155Y-120319843D01*
X110775155Y-120319843D02*
X110724052Y-120346860D01*
X110724052Y-120346860D02*
X110672881Y-120373748D01*
X110672881Y-120373748D02*
X110621642Y-120400508D01*
X110621642Y-120400508D02*
X110570337Y-120427138D01*
X110570337Y-120427138D02*
X110518964Y-120453640D01*
X110518964Y-120453640D02*
X110467526Y-120480012D01*
X110467526Y-120480012D02*
X110416021Y-120506255D01*
X110416021Y-120506255D02*
X110364450Y-120532369D01*
X110364450Y-120532369D02*
X110312814Y-120558353D01*
X110312814Y-120558353D02*
X110261113Y-120584207D01*
X110261113Y-120584207D02*
X110209347Y-120609931D01*
X110209347Y-120609931D02*
X110157516Y-120635524D01*
X110157516Y-120635524D02*
X110105621Y-120660988D01*
X110105621Y-120660988D02*
X110053663Y-120686321D01*
X110053663Y-120686321D02*
X110001641Y-120711523D01*
X110001641Y-120711523D02*
X109949555Y-120736594D01*
X109949555Y-120736594D02*
X109897407Y-120761535D01*
X109897407Y-120761535D02*
X109845197Y-120786344D01*
X107107391Y-121874300D02*
X107052392Y-121892094D01*
X107052392Y-121892094D02*
X106997349Y-121909749D01*
X106997349Y-121909749D02*
X106942262Y-121927266D01*
X106942262Y-121927266D02*
X106887131Y-121944645D01*
X106887131Y-121944645D02*
X106831956Y-121961885D01*
X106831956Y-121961885D02*
X106776739Y-121978986D01*
X106776739Y-121978986D02*
X106721478Y-121995948D01*
X106721478Y-121995948D02*
X106666175Y-122012772D01*
X106666175Y-122012772D02*
X106610830Y-122029456D01*
X106610830Y-122029456D02*
X106555443Y-122046001D01*
X106555443Y-122046001D02*
X106500015Y-122062407D01*
X106500015Y-122062407D02*
X106444545Y-122078674D01*
X106444545Y-122078674D02*
X106389035Y-122094801D01*
X106389035Y-122094801D02*
X106333485Y-122110789D01*
X106333485Y-122110789D02*
X106277895Y-122126636D01*
X106277895Y-122126636D02*
X106222264Y-122142345D01*
X106222264Y-122142345D02*
X106166595Y-122157913D01*
X106166595Y-122157913D02*
X106110887Y-122173341D01*
X106110887Y-122173341D02*
X106055140Y-122188630D01*
X106055140Y-122188630D02*
X105999355Y-122203778D01*
X105999355Y-122203778D02*
X105943532Y-122218786D01*
X105943532Y-122218786D02*
X105887671Y-122233653D01*
X105887671Y-122233653D02*
X105831773Y-122248380D01*
X105831773Y-122248380D02*
X105775839Y-122262967D01*
X105775839Y-122262967D02*
X105719867Y-122277413D01*
X105719867Y-122277413D02*
X105663860Y-122291718D01*
X105663860Y-122291718D02*
X105607817Y-122305882D01*
X105607817Y-122305882D02*
X105551739Y-122319906D01*
X105551739Y-122319906D02*
X105495625Y-122333788D01*
X105495625Y-122333788D02*
X105439477Y-122347530D01*
X105439477Y-122347530D02*
X105383294Y-122361130D01*
X105383294Y-122361130D02*
X105327078Y-122374589D01*
X105327078Y-122374589D02*
X105270828Y-122387907D01*
X105270828Y-122387907D02*
X105214544Y-122401083D01*
X105214544Y-122401083D02*
X105158228Y-122414118D01*
X105158228Y-122414118D02*
X105101878Y-122427011D01*
X105101878Y-122427011D02*
X105045497Y-122439763D01*
X105045497Y-122439763D02*
X104989084Y-122452373D01*
X104989084Y-122452373D02*
X104932639Y-122464841D01*
X104932639Y-122464841D02*
X104876164Y-122477167D01*
X104876164Y-122477167D02*
X104819657Y-122489351D01*
X104819657Y-122489351D02*
X104763120Y-122501393D01*
X104763120Y-122501393D02*
X104706553Y-122513293D01*
X104706553Y-122513293D02*
X104649956Y-122525051D01*
X104649956Y-122525051D02*
X104593330Y-122536666D01*
X104593330Y-122536666D02*
X104536674Y-122548139D01*
X104536674Y-122548139D02*
X104479990Y-122559470D01*
X104479990Y-122559470D02*
X104423278Y-122570658D01*
X104423278Y-122570658D02*
X104366538Y-122581704D01*
X101444182Y-122954615D02*
X101386486Y-122958172D01*
X101386486Y-122958172D02*
X101328782Y-122961584D01*
X101328782Y-122961584D02*
X101271069Y-122964851D01*
X101271069Y-122964851D02*
X101213348Y-122967973D01*
X101213348Y-122967973D02*
X101155619Y-122970950D01*
X101155619Y-122970950D02*
X101097883Y-122973782D01*
X101097883Y-122973782D02*
X101040141Y-122976469D01*
X101040141Y-122976469D02*
X100982391Y-122979010D01*
X100982391Y-122979010D02*
X100924636Y-122981407D01*
X100924636Y-122981407D02*
X100866874Y-122983658D01*
X100866874Y-122983658D02*
X100809107Y-122985764D01*
X100809107Y-122985764D02*
X100751335Y-122987725D01*
X100751335Y-122987725D02*
X100693559Y-122989541D01*
X100693559Y-122989541D02*
X100635777Y-122991211D01*
X100635777Y-122991211D02*
X100577992Y-122992736D01*
X100577992Y-122992736D02*
X100520203Y-122994116D01*
X100520203Y-122994116D02*
X100462411Y-122995351D01*
X100462411Y-122995351D02*
X100404616Y-122996441D01*
X100404616Y-122996441D02*
X100346819Y-122997385D01*
X100346819Y-122997385D02*
X100289019Y-122998184D01*
X100289019Y-122998184D02*
X100231217Y-122998838D01*
X100231217Y-122998838D02*
X100173414Y-122999346D01*
X100173414Y-122999346D02*
X100115610Y-122999709D01*
X100115610Y-122999709D02*
X100057805Y-122999927D01*
X100057805Y-122999927D02*
X100000000Y-123000000D01*
X100000000Y-123000000D02*
X99942195Y-122999927D01*
X99942195Y-122999927D02*
X99884390Y-122999709D01*
X99884390Y-122999709D02*
X99826586Y-122999346D01*
X99826586Y-122999346D02*
X99768783Y-122998838D01*
X99768783Y-122998838D02*
X99710981Y-122998184D01*
X99710981Y-122998184D02*
X99653181Y-122997385D01*
X99653181Y-122997385D02*
X99595384Y-122996441D01*
X99595384Y-122996441D02*
X99537589Y-122995351D01*
X99537589Y-122995351D02*
X99479797Y-122994116D01*
X99479797Y-122994116D02*
X99422008Y-122992736D01*
X99422008Y-122992736D02*
X99364223Y-122991211D01*
X99364223Y-122991211D02*
X99306441Y-122989541D01*
X99306441Y-122989541D02*
X99248665Y-122987725D01*
X99248665Y-122987725D02*
X99190893Y-122985764D01*
X99190893Y-122985764D02*
X99133126Y-122983658D01*
X99133126Y-122983658D02*
X99075364Y-122981407D01*
X99075364Y-122981407D02*
X99017609Y-122979010D01*
X99017609Y-122979010D02*
X98959859Y-122976469D01*
X98959859Y-122976469D02*
X98902117Y-122973782D01*
X98902117Y-122973782D02*
X98844381Y-122970950D01*
X98844381Y-122970950D02*
X98786652Y-122967973D01*
X98786652Y-122967973D02*
X98728931Y-122964851D01*
X98728931Y-122964851D02*
X98671218Y-122961584D01*
X98671218Y-122961584D02*
X98613514Y-122958172D01*
X95690230Y-122592607D02*
X95633462Y-122581704D01*
X95633462Y-122581704D02*
X95576722Y-122570658D01*
X95576722Y-122570658D02*
X95520010Y-122559470D01*
X95520010Y-122559470D02*
X95463326Y-122548139D01*
X95463326Y-122548139D02*
X95406670Y-122536666D01*
X95406670Y-122536666D02*
X95350044Y-122525051D01*
X95350044Y-122525051D02*
X95293447Y-122513293D01*
X95293447Y-122513293D02*
X95236880Y-122501393D01*
X95236880Y-122501393D02*
X95180343Y-122489351D01*
X95180343Y-122489351D02*
X95123836Y-122477167D01*
X95123836Y-122477167D02*
X95067361Y-122464841D01*
X95067361Y-122464841D02*
X95010916Y-122452373D01*
X95010916Y-122452373D02*
X94954503Y-122439763D01*
X94954503Y-122439763D02*
X94898122Y-122427011D01*
X94898122Y-122427011D02*
X94841772Y-122414118D01*
X94841772Y-122414118D02*
X94785456Y-122401083D01*
X94785456Y-122401083D02*
X94729172Y-122387907D01*
X94729172Y-122387907D02*
X94672922Y-122374589D01*
X94672922Y-122374589D02*
X94616706Y-122361130D01*
X94616706Y-122361130D02*
X94560523Y-122347530D01*
X94560523Y-122347530D02*
X94504375Y-122333788D01*
X94504375Y-122333788D02*
X94448261Y-122319906D01*
X94448261Y-122319906D02*
X94392183Y-122305882D01*
X94392183Y-122305882D02*
X94336140Y-122291718D01*
X94336140Y-122291718D02*
X94280133Y-122277413D01*
X94280133Y-122277413D02*
X94224161Y-122262967D01*
X94224161Y-122262967D02*
X94168227Y-122248380D01*
X94168227Y-122248380D02*
X94112329Y-122233653D01*
X94112329Y-122233653D02*
X94056468Y-122218786D01*
X94056468Y-122218786D02*
X94000645Y-122203778D01*
X94000645Y-122203778D02*
X93944860Y-122188630D01*
X93944860Y-122188630D02*
X93889113Y-122173341D01*
X93889113Y-122173341D02*
X93833405Y-122157913D01*
X93833405Y-122157913D02*
X93777736Y-122142345D01*
X93777736Y-122142345D02*
X93722105Y-122126636D01*
X93722105Y-122126636D02*
X93666515Y-122110789D01*
X93666515Y-122110789D02*
X93610965Y-122094801D01*
X93610965Y-122094801D02*
X93555455Y-122078674D01*
X93555455Y-122078674D02*
X93499985Y-122062407D01*
X93499985Y-122062407D02*
X93444557Y-122046001D01*
X93444557Y-122046001D02*
X93389170Y-122029456D01*
X93389170Y-122029456D02*
X93333825Y-122012772D01*
X93333825Y-122012772D02*
X93278522Y-121995948D01*
X93278522Y-121995948D02*
X93223261Y-121978986D01*
X93223261Y-121978986D02*
X93168044Y-121961885D01*
X93168044Y-121961885D02*
X93112869Y-121944645D01*
X93112869Y-121944645D02*
X93057738Y-121927266D01*
X93057738Y-121927266D02*
X93002651Y-121909749D01*
X93002651Y-121909749D02*
X92947608Y-121892094D01*
X90207076Y-120811022D02*
X90154803Y-120786344D01*
X90154803Y-120786344D02*
X90102593Y-120761535D01*
X90102593Y-120761535D02*
X90050445Y-120736594D01*
X90050445Y-120736594D02*
X89998359Y-120711523D01*
X89998359Y-120711523D02*
X89946337Y-120686321D01*
X89946337Y-120686321D02*
X89894379Y-120660988D01*
X89894379Y-120660988D02*
X89842484Y-120635524D01*
X89842484Y-120635524D02*
X89790653Y-120609931D01*
X89790653Y-120609931D02*
X89738887Y-120584207D01*
X89738887Y-120584207D02*
X89687186Y-120558353D01*
X89687186Y-120558353D02*
X89635550Y-120532369D01*
X89635550Y-120532369D02*
X89583979Y-120506255D01*
X89583979Y-120506255D02*
X89532474Y-120480012D01*
X89532474Y-120480012D02*
X89481036Y-120453640D01*
X89481036Y-120453640D02*
X89429663Y-120427138D01*
X89429663Y-120427138D02*
X89378358Y-120400508D01*
X89378358Y-120400508D02*
X89327119Y-120373748D01*
X89327119Y-120373748D02*
X89275948Y-120346860D01*
X89275948Y-120346860D02*
X89224845Y-120319843D01*
X89224845Y-120319843D02*
X89173810Y-120292698D01*
X89173810Y-120292698D02*
X89122843Y-120265425D01*
X89122843Y-120265425D02*
X89071945Y-120238024D01*
X89071945Y-120238024D02*
X89021115Y-120210495D01*
X89021115Y-120210495D02*
X88970356Y-120182838D01*
X88970356Y-120182838D02*
X88919665Y-120155054D01*
X88919665Y-120155054D02*
X88869045Y-120127142D01*
X88869045Y-120127142D02*
X88818496Y-120099103D01*
X88818496Y-120099103D02*
X88768016Y-120070938D01*
X88768016Y-120070938D02*
X88717608Y-120042645D01*
X88717608Y-120042645D02*
X88667271Y-120014226D01*
X88667271Y-120014226D02*
X88617006Y-119985681D01*
X88617006Y-119985681D02*
X88566812Y-119957009D01*
X88566812Y-119957009D02*
X88516691Y-119928212D01*
X88516691Y-119928212D02*
X88466642Y-119899288D01*
X88466642Y-119899288D02*
X88416666Y-119870239D01*
X88416666Y-119870239D02*
X88366764Y-119841064D01*
X88366764Y-119841064D02*
X88316934Y-119811764D01*
X88316934Y-119811764D02*
X88267179Y-119782338D01*
X88267179Y-119782338D02*
X88217498Y-119752788D01*
X88217498Y-119752788D02*
X88167891Y-119723113D01*
X88167891Y-119723113D02*
X88118359Y-119693313D01*
X88118359Y-119693313D02*
X88068901Y-119663390D01*
X88068901Y-119663390D02*
X88019520Y-119633341D01*
X88019520Y-119633341D02*
X87970214Y-119603169D01*
X87970214Y-119603169D02*
X87920984Y-119572873D01*
X87920984Y-119572873D02*
X87871830Y-119542453D01*
X87871830Y-119542453D02*
X87822753Y-119511910D01*
X87822753Y-119511910D02*
X87773752Y-119481244D01*
X87773752Y-119481244D02*
X87724829Y-119450455D01*
X85339248Y-117721805D02*
X85294755Y-117684902D01*
X85294755Y-117684902D02*
X85250354Y-117647888D01*
X85250354Y-117647888D02*
X85206047Y-117610762D01*
X85206047Y-117610762D02*
X85161833Y-117573526D01*
X85161833Y-117573526D02*
X85117713Y-117536178D01*
X85117713Y-117536178D02*
X85073687Y-117498719D01*
X85073687Y-117498719D02*
X85029755Y-117461150D01*
X85029755Y-117461150D02*
X84985917Y-117423471D01*
X84985917Y-117423471D02*
X84942175Y-117385681D01*
X84942175Y-117385681D02*
X84898528Y-117347782D01*
X84898528Y-117347782D02*
X84854976Y-117309773D01*
X84854976Y-117309773D02*
X84811519Y-117271655D01*
X84811519Y-117271655D02*
X84768159Y-117233427D01*
X84768159Y-117233427D02*
X84724895Y-117195091D01*
X84724895Y-117195091D02*
X84681727Y-117156646D01*
X84681727Y-117156646D02*
X84638656Y-117118093D01*
X84638656Y-117118093D02*
X84595682Y-117079432D01*
X84595682Y-117079432D02*
X84552806Y-117040663D01*
X84552806Y-117040663D02*
X84510027Y-117001786D01*
X84510027Y-117001786D02*
X84467345Y-116962802D01*
X84467345Y-116962802D02*
X84424762Y-116923710D01*
X84424762Y-116923710D02*
X84382278Y-116884512D01*
X84382278Y-116884512D02*
X84339892Y-116845207D01*
X84339892Y-116845207D02*
X84297604Y-116805796D01*
X84297604Y-116805796D02*
X84255417Y-116766278D01*
X84255417Y-116766278D02*
X84213328Y-116726655D01*
X84213328Y-116726655D02*
X84171339Y-116686926D01*
X84171339Y-116686926D02*
X84129451Y-116647092D01*
X84129451Y-116647092D02*
X84087662Y-116607152D01*
X84087662Y-116607152D02*
X84045974Y-116567108D01*
X84045974Y-116567108D02*
X84004387Y-116526958D01*
X84004387Y-116526958D02*
X83962900Y-116486705D01*
X83962900Y-116486705D02*
X83921516Y-116446347D01*
X83921516Y-116446347D02*
X83880232Y-116405886D01*
X83880232Y-116405886D02*
X83839051Y-116365321D01*
X83839051Y-116365321D02*
X83797971Y-116324652D01*
X83797971Y-116324652D02*
X83756994Y-116283880D01*
X83756994Y-116283880D02*
X83716120Y-116243006D01*
X83716120Y-116243006D02*
X83675348Y-116202029D01*
X83675348Y-116202029D02*
X83634679Y-116160949D01*
X83634679Y-116160949D02*
X83594114Y-116119768D01*
X83594114Y-116119768D02*
X83553653Y-116078484D01*
X83553653Y-116078484D02*
X83513295Y-116037100D01*
X83513295Y-116037100D02*
X83473042Y-115995613D01*
X83473042Y-115995613D02*
X83432892Y-115954026D01*
X83432892Y-115954026D02*
X83392848Y-115912338D01*
X83392848Y-115912338D02*
X83352908Y-115870549D01*
X83352908Y-115870549D02*
X83313074Y-115828661D01*
X83313074Y-115828661D02*
X83273345Y-115786672D01*
X81392609Y-113519061D02*
X81358691Y-113472253D01*
X81358691Y-113472253D02*
X81324890Y-113425359D01*
X81324890Y-113425359D02*
X81291208Y-113378381D01*
X81291208Y-113378381D02*
X81257643Y-113331319D01*
X81257643Y-113331319D02*
X81224197Y-113284172D01*
X81224197Y-113284172D02*
X81190870Y-113236942D01*
X81190870Y-113236942D02*
X81157661Y-113189627D01*
X81157661Y-113189627D02*
X81124572Y-113142230D01*
X81124572Y-113142230D02*
X81091601Y-113094749D01*
X81091601Y-113094749D02*
X81058750Y-113047186D01*
X81058750Y-113047186D02*
X81026019Y-112999540D01*
X81026019Y-112999540D02*
X80993408Y-112951812D01*
X80993408Y-112951812D02*
X80960916Y-112904003D01*
X80960916Y-112904003D02*
X80928545Y-112856112D01*
X80928545Y-112856112D02*
X80896294Y-112808139D01*
X80896294Y-112808139D02*
X80864164Y-112760086D01*
X80864164Y-112760086D02*
X80832155Y-112711952D01*
X80832155Y-112711952D02*
X80800267Y-112663738D01*
X80800267Y-112663738D02*
X80768500Y-112615444D01*
X80768500Y-112615444D02*
X80736855Y-112567070D01*
X80736855Y-112567070D02*
X80705331Y-112518617D01*
X80705331Y-112518617D02*
X80673930Y-112470084D01*
X80673930Y-112470084D02*
X80642650Y-112421473D01*
X80642650Y-112421473D02*
X80611493Y-112372784D01*
X80611493Y-112372784D02*
X80580458Y-112324016D01*
X80580458Y-112324016D02*
X80549545Y-112275171D01*
X80549545Y-112275171D02*
X80518756Y-112226248D01*
X80518756Y-112226248D02*
X80488090Y-112177247D01*
X80488090Y-112177247D02*
X80457547Y-112128170D01*
X80457547Y-112128170D02*
X80427127Y-112079016D01*
X80427127Y-112079016D02*
X80396831Y-112029786D01*
X80396831Y-112029786D02*
X80366659Y-111980480D01*
X80366659Y-111980480D02*
X80336610Y-111931099D01*
X80336610Y-111931099D02*
X80306687Y-111881641D01*
X80306687Y-111881641D02*
X80276887Y-111832109D01*
X80276887Y-111832109D02*
X80247212Y-111782502D01*
X80247212Y-111782502D02*
X80217662Y-111732821D01*
X80217662Y-111732821D02*
X80188236Y-111683066D01*
X80188236Y-111683066D02*
X80158936Y-111633236D01*
X80158936Y-111633236D02*
X80129761Y-111583334D01*
X80129761Y-111583334D02*
X80100712Y-111533358D01*
X80100712Y-111533358D02*
X80071788Y-111483309D01*
X80071788Y-111483309D02*
X80042991Y-111433188D01*
X80042991Y-111433188D02*
X80014319Y-111382994D01*
X80014319Y-111382994D02*
X79985774Y-111332729D01*
X79985774Y-111332729D02*
X79957355Y-111282392D01*
X79957355Y-111282392D02*
X79929062Y-111231984D01*
X79929062Y-111231984D02*
X79900897Y-111181504D01*
X79900897Y-111181504D02*
X79872858Y-111130955D01*
X78615141Y-108466865D02*
X78593929Y-108413092D01*
X78593929Y-108413092D02*
X78572852Y-108359266D01*
X78572852Y-108359266D02*
X78551911Y-108305388D01*
X78551911Y-108305388D02*
X78531105Y-108251456D01*
X78531105Y-108251456D02*
X78510434Y-108197473D01*
X78510434Y-108197473D02*
X78489900Y-108143438D01*
X78489900Y-108143438D02*
X78469501Y-108089352D01*
X78469501Y-108089352D02*
X78449238Y-108035214D01*
X78449238Y-108035214D02*
X78429112Y-107981026D01*
X78429112Y-107981026D02*
X78409121Y-107926787D01*
X78409121Y-107926787D02*
X78389267Y-107872498D01*
X78389267Y-107872498D02*
X78369550Y-107818160D01*
X78369550Y-107818160D02*
X78349969Y-107763772D01*
X78349969Y-107763772D02*
X78330525Y-107709335D01*
X78330525Y-107709335D02*
X78311218Y-107654850D01*
X78311218Y-107654850D02*
X78292047Y-107600316D01*
X78292047Y-107600316D02*
X78273014Y-107545734D01*
X78273014Y-107545734D02*
X78254119Y-107491104D01*
X78254119Y-107491104D02*
X78235360Y-107436427D01*
X78235360Y-107436427D02*
X78216739Y-107381703D01*
X78216739Y-107381703D02*
X78198256Y-107326932D01*
X78198256Y-107326932D02*
X78179910Y-107272116D01*
X78179910Y-107272116D02*
X78161702Y-107217253D01*
X78161702Y-107217253D02*
X78143632Y-107162344D01*
X78143632Y-107162344D02*
X78125700Y-107107391D01*
X78125700Y-107107391D02*
X78107906Y-107052392D01*
X78107906Y-107052392D02*
X78090251Y-106997349D01*
X78090251Y-106997349D02*
X78072734Y-106942262D01*
X78072734Y-106942262D02*
X78055355Y-106887131D01*
X78055355Y-106887131D02*
X78038115Y-106831956D01*
X78038115Y-106831956D02*
X78021014Y-106776739D01*
X78021014Y-106776739D02*
X78004052Y-106721478D01*
X78004052Y-106721478D02*
X77987228Y-106666175D01*
X77987228Y-106666175D02*
X77970544Y-106610830D01*
X77970544Y-106610830D02*
X77953999Y-106555443D01*
X77953999Y-106555443D02*
X77937593Y-106500015D01*
X77937593Y-106500015D02*
X77921326Y-106444545D01*
X77921326Y-106444545D02*
X77905199Y-106389035D01*
X77905199Y-106389035D02*
X77889211Y-106333485D01*
X77889211Y-106333485D02*
X77873364Y-106277895D01*
X77873364Y-106277895D02*
X77857655Y-106222264D01*
X77857655Y-106222264D02*
X77842087Y-106166595D01*
X77842087Y-106166595D02*
X77826659Y-106110887D01*
X77826659Y-106110887D02*
X77811370Y-106055140D01*
X77811370Y-106055140D02*
X77796222Y-105999355D01*
X77796222Y-105999355D02*
X77781214Y-105943532D01*
X77781214Y-105943532D02*
X77766347Y-105887671D01*
X77766347Y-105887671D02*
X77751620Y-105831773D01*
X77751620Y-105831773D02*
X77737033Y-105775839D01*
X77181362Y-102882664D02*
X77174189Y-102825306D01*
X77174189Y-102825306D02*
X77167160Y-102767929D01*
X77167160Y-102767929D02*
X77160276Y-102710536D01*
X77160276Y-102710536D02*
X77153536Y-102653125D01*
X77153536Y-102653125D02*
X77146940Y-102595697D01*
X77146940Y-102595697D02*
X77140488Y-102538253D01*
X77140488Y-102538253D02*
X77134181Y-102480793D01*
X77134181Y-102480793D02*
X77128019Y-102423317D01*
X77128019Y-102423317D02*
X77122000Y-102365826D01*
X77122000Y-102365826D02*
X77116127Y-102308319D01*
X77116127Y-102308319D02*
X77110397Y-102250799D01*
X77110397Y-102250799D02*
X77104813Y-102193264D01*
X77104813Y-102193264D02*
X77099373Y-102135715D01*
X77099373Y-102135715D02*
X77094078Y-102078153D01*
X77094078Y-102078153D02*
X77088927Y-102020578D01*
X77088927Y-102020578D02*
X77083921Y-101962989D01*
X77083921Y-101962989D02*
X77079060Y-101905389D01*
X77079060Y-101905389D02*
X77074344Y-101847776D01*
X77074344Y-101847776D02*
X77069772Y-101790152D01*
X77069772Y-101790152D02*
X77065345Y-101732517D01*
X77065345Y-101732517D02*
X77061063Y-101674870D01*
X77061063Y-101674870D02*
X77056926Y-101617213D01*
X77056926Y-101617213D02*
X77052934Y-101559546D01*
X77052934Y-101559546D02*
X77049087Y-101501869D01*
X77049087Y-101501869D02*
X77045385Y-101444182D01*
X77045385Y-101444182D02*
X77041828Y-101386486D01*
X77041828Y-101386486D02*
X77038416Y-101328782D01*
X77038416Y-101328782D02*
X77035149Y-101271069D01*
X77035149Y-101271069D02*
X77032027Y-101213348D01*
X77032027Y-101213348D02*
X77029050Y-101155619D01*
X77029050Y-101155619D02*
X77026218Y-101097883D01*
X77026218Y-101097883D02*
X77023531Y-101040141D01*
X77023531Y-101040141D02*
X77020990Y-100982391D01*
X77020990Y-100982391D02*
X77018593Y-100924636D01*
X77018593Y-100924636D02*
X77016342Y-100866874D01*
X77016342Y-100866874D02*
X77014236Y-100809107D01*
X77014236Y-100809107D02*
X77012275Y-100751335D01*
X77012275Y-100751335D02*
X77010459Y-100693559D01*
X77010459Y-100693559D02*
X77008789Y-100635777D01*
X77008789Y-100635777D02*
X77007264Y-100577992D01*
X77007264Y-100577992D02*
X77005884Y-100520203D01*
X77005884Y-100520203D02*
X77004649Y-100462411D01*
X77004649Y-100462411D02*
X77003559Y-100404616D01*
X77003559Y-100404616D02*
X77002615Y-100346819D01*
X77002615Y-100346819D02*
X77001816Y-100289019D01*
X77001816Y-100289019D02*
X77001162Y-100231217D01*
X77001162Y-100231217D02*
X77000654Y-100173414D01*
X77000654Y-100173414D02*
X77000291Y-100115610D01*
X77000291Y-100115610D02*
X77000073Y-100057805D01*
X77181362Y-97117336D02*
X77188679Y-97059995D01*
X77188679Y-97059995D02*
X77196140Y-97002674D01*
X77196140Y-97002674D02*
X77203745Y-96945371D01*
X77203745Y-96945371D02*
X77211494Y-96888087D01*
X77211494Y-96888087D02*
X77219387Y-96830823D01*
X77219387Y-96830823D02*
X77227424Y-96773579D01*
X77227424Y-96773579D02*
X77235605Y-96716356D01*
X77235605Y-96716356D02*
X77243930Y-96659153D01*
X77243930Y-96659153D02*
X77252398Y-96601972D01*
X77252398Y-96601972D02*
X77261010Y-96544811D01*
X77261010Y-96544811D02*
X77269766Y-96487673D01*
X77269766Y-96487673D02*
X77278665Y-96430557D01*
X77278665Y-96430557D02*
X77287707Y-96373463D01*
X77287707Y-96373463D02*
X77296894Y-96316393D01*
X77296894Y-96316393D02*
X77306223Y-96259345D01*
X77306223Y-96259345D02*
X77315696Y-96202321D01*
X77315696Y-96202321D02*
X77325312Y-96145322D01*
X77325312Y-96145322D02*
X77335072Y-96088346D01*
X77335072Y-96088346D02*
X77344975Y-96031395D01*
X77344975Y-96031395D02*
X77355020Y-95974470D01*
X77355020Y-95974470D02*
X77365209Y-95917569D01*
X77365209Y-95917569D02*
X77375541Y-95860695D01*
X77375541Y-95860695D02*
X77386015Y-95803847D01*
X77386015Y-95803847D02*
X77396633Y-95747025D01*
X77396633Y-95747025D02*
X77407393Y-95690230D01*
X77407393Y-95690230D02*
X77418296Y-95633462D01*
X77418296Y-95633462D02*
X77429342Y-95576722D01*
X77429342Y-95576722D02*
X77440530Y-95520010D01*
X77440530Y-95520010D02*
X77451861Y-95463326D01*
X77451861Y-95463326D02*
X77463334Y-95406670D01*
X77463334Y-95406670D02*
X77474949Y-95350044D01*
X77474949Y-95350044D02*
X77486707Y-95293447D01*
X77486707Y-95293447D02*
X77498607Y-95236880D01*
X77498607Y-95236880D02*
X77510649Y-95180343D01*
X77510649Y-95180343D02*
X77522833Y-95123836D01*
X77522833Y-95123836D02*
X77535159Y-95067361D01*
X77535159Y-95067361D02*
X77547627Y-95010916D01*
X77547627Y-95010916D02*
X77560237Y-94954503D01*
X77560237Y-94954503D02*
X77572989Y-94898122D01*
X77572989Y-94898122D02*
X77585882Y-94841772D01*
X77585882Y-94841772D02*
X77598917Y-94785456D01*
X77598917Y-94785456D02*
X77612093Y-94729172D01*
X77612093Y-94729172D02*
X77625411Y-94672922D01*
X77625411Y-94672922D02*
X77638870Y-94616706D01*
X77638870Y-94616706D02*
X77652470Y-94560523D01*
X77652470Y-94560523D02*
X77666212Y-94504375D01*
X77666212Y-94504375D02*
X77680094Y-94448261D01*
X77680094Y-94448261D02*
X77694118Y-94392183D01*
X77694118Y-94392183D02*
X77708282Y-94336140D01*
X78615141Y-91533135D02*
X78636488Y-91479416D01*
X78636488Y-91479416D02*
X78657970Y-91425751D01*
X78657970Y-91425751D02*
X78679587Y-91372139D01*
X78679587Y-91372139D02*
X78701338Y-91318583D01*
X78701338Y-91318583D02*
X78723224Y-91265081D01*
X78723224Y-91265081D02*
X78745245Y-91211634D01*
X78745245Y-91211634D02*
X78767399Y-91158243D01*
X78767399Y-91158243D02*
X78789688Y-91104907D01*
X78789688Y-91104907D02*
X78812111Y-91051628D01*
X78812111Y-91051628D02*
X78834668Y-90998406D01*
X78834668Y-90998406D02*
X78857358Y-90945240D01*
X78857358Y-90945240D02*
X78880182Y-90892131D01*
X78880182Y-90892131D02*
X78903139Y-90839080D01*
X78903139Y-90839080D02*
X78926229Y-90786087D01*
X78926229Y-90786087D02*
X78949453Y-90733152D01*
X78949453Y-90733152D02*
X78972810Y-90680276D01*
X78972810Y-90680276D02*
X78996299Y-90627458D01*
X78996299Y-90627458D02*
X79019921Y-90574700D01*
X79019921Y-90574700D02*
X79043676Y-90522001D01*
X79043676Y-90522001D02*
X79067563Y-90469362D01*
X79067563Y-90469362D02*
X79091582Y-90416783D01*
X79091582Y-90416783D02*
X79115733Y-90364265D01*
X79115733Y-90364265D02*
X79140016Y-90311807D01*
X79140016Y-90311807D02*
X79164431Y-90259411D01*
X79164431Y-90259411D02*
X79188978Y-90207076D01*
X79188978Y-90207076D02*
X79213656Y-90154803D01*
X79213656Y-90154803D02*
X79238465Y-90102593D01*
X79238465Y-90102593D02*
X79263406Y-90050445D01*
X79263406Y-90050445D02*
X79288477Y-89998359D01*
X79288477Y-89998359D02*
X79313679Y-89946337D01*
X79313679Y-89946337D02*
X79339012Y-89894379D01*
X79339012Y-89894379D02*
X79364476Y-89842484D01*
X79364476Y-89842484D02*
X79390069Y-89790653D01*
X79390069Y-89790653D02*
X79415793Y-89738887D01*
X79415793Y-89738887D02*
X79441647Y-89687186D01*
X79441647Y-89687186D02*
X79467631Y-89635550D01*
X79467631Y-89635550D02*
X79493745Y-89583979D01*
X79493745Y-89583979D02*
X79519988Y-89532474D01*
X79519988Y-89532474D02*
X79546360Y-89481036D01*
X79546360Y-89481036D02*
X79572862Y-89429663D01*
X79572862Y-89429663D02*
X79599492Y-89378358D01*
X79599492Y-89378358D02*
X79626252Y-89327119D01*
X79626252Y-89327119D02*
X79653140Y-89275948D01*
X79653140Y-89275948D02*
X79680157Y-89224845D01*
X79680157Y-89224845D02*
X79707302Y-89173810D01*
X79707302Y-89173810D02*
X79734575Y-89122843D01*
X79734575Y-89122843D02*
X79761976Y-89071945D01*
X79761976Y-89071945D02*
X79789505Y-89021115D01*
X79789505Y-89021115D02*
X79817162Y-88970356D01*
X81392609Y-86480939D02*
X81426645Y-86434216D01*
X81426645Y-86434216D02*
X81460798Y-86387579D01*
X81460798Y-86387579D02*
X81495068Y-86341028D01*
X81495068Y-86341028D02*
X81529456Y-86294564D01*
X81529456Y-86294564D02*
X81563959Y-86248185D01*
X81563959Y-86248185D02*
X81598580Y-86201894D01*
X81598580Y-86201894D02*
X81633316Y-86155690D01*
X81633316Y-86155690D02*
X81668169Y-86109573D01*
X81668169Y-86109573D02*
X81703137Y-86063544D01*
X81703137Y-86063544D02*
X81738221Y-86017603D01*
X81738221Y-86017603D02*
X81773420Y-85971751D01*
X81773420Y-85971751D02*
X81808734Y-85925986D01*
X81808734Y-85925986D02*
X81844164Y-85880311D01*
X81844164Y-85880311D02*
X81879708Y-85834725D01*
X81879708Y-85834725D02*
X81915366Y-85789229D01*
X81915366Y-85789229D02*
X81951139Y-85743822D01*
X81951139Y-85743822D02*
X81987025Y-85698506D01*
X81987025Y-85698506D02*
X82023026Y-85653279D01*
X82023026Y-85653279D02*
X82059140Y-85608143D01*
X82059140Y-85608143D02*
X82095367Y-85563099D01*
X82095367Y-85563099D02*
X82131707Y-85518145D01*
X82131707Y-85518145D02*
X82168161Y-85473283D01*
X82168161Y-85473283D02*
X82204727Y-85428513D01*
X82204727Y-85428513D02*
X82241405Y-85383834D01*
X82241405Y-85383834D02*
X82278195Y-85339248D01*
X82278195Y-85339248D02*
X82315098Y-85294755D01*
X82315098Y-85294755D02*
X82352112Y-85250354D01*
X82352112Y-85250354D02*
X82389238Y-85206047D01*
X82389238Y-85206047D02*
X82426474Y-85161833D01*
X82426474Y-85161833D02*
X82463822Y-85117713D01*
X82463822Y-85117713D02*
X82501281Y-85073687D01*
X82501281Y-85073687D02*
X82538850Y-85029755D01*
X82538850Y-85029755D02*
X82576529Y-84985917D01*
X82576529Y-84985917D02*
X82614319Y-84942175D01*
X82614319Y-84942175D02*
X82652218Y-84898528D01*
X82652218Y-84898528D02*
X82690227Y-84854976D01*
X82690227Y-84854976D02*
X82728345Y-84811519D01*
X82728345Y-84811519D02*
X82766573Y-84768159D01*
X82766573Y-84768159D02*
X82804909Y-84724895D01*
X82804909Y-84724895D02*
X82843354Y-84681727D01*
X82843354Y-84681727D02*
X82881907Y-84638656D01*
X82881907Y-84638656D02*
X82920568Y-84595682D01*
X82920568Y-84595682D02*
X82959337Y-84552806D01*
X82959337Y-84552806D02*
X82998214Y-84510027D01*
X82998214Y-84510027D02*
X83037198Y-84467345D01*
X83037198Y-84467345D02*
X83076290Y-84424762D01*
X83076290Y-84424762D02*
X83115488Y-84382278D01*
X83115488Y-84382278D02*
X83154793Y-84339892D01*
X83154793Y-84339892D02*
X83194204Y-84297604D01*
X85339248Y-82278195D02*
X85383834Y-82241405D01*
X85383834Y-82241405D02*
X85428513Y-82204727D01*
X85428513Y-82204727D02*
X85473283Y-82168161D01*
X85473283Y-82168161D02*
X85518145Y-82131707D01*
X85518145Y-82131707D02*
X85563099Y-82095367D01*
X85563099Y-82095367D02*
X85608143Y-82059140D01*
X85608143Y-82059140D02*
X85653279Y-82023026D01*
X85653279Y-82023026D02*
X85698506Y-81987025D01*
X85698506Y-81987025D02*
X85743822Y-81951139D01*
X85743822Y-81951139D02*
X85789229Y-81915366D01*
X85789229Y-81915366D02*
X85834725Y-81879708D01*
X85834725Y-81879708D02*
X85880311Y-81844164D01*
X85880311Y-81844164D02*
X85925986Y-81808734D01*
X85925986Y-81808734D02*
X85971751Y-81773420D01*
X85971751Y-81773420D02*
X86017603Y-81738221D01*
X86017603Y-81738221D02*
X86063544Y-81703137D01*
X86063544Y-81703137D02*
X86109573Y-81668169D01*
X86109573Y-81668169D02*
X86155690Y-81633316D01*
X86155690Y-81633316D02*
X86201894Y-81598580D01*
X86201894Y-81598580D02*
X86248185Y-81563959D01*
X86248185Y-81563959D02*
X86294564Y-81529456D01*
X86294564Y-81529456D02*
X86341028Y-81495068D01*
X86341028Y-81495068D02*
X86387579Y-81460798D01*
X86387579Y-81460798D02*
X86434216Y-81426645D01*
X86434216Y-81426645D02*
X86480939Y-81392609D01*
X86480939Y-81392609D02*
X86527747Y-81358691D01*
X86527747Y-81358691D02*
X86574641Y-81324890D01*
X86574641Y-81324890D02*
X86621619Y-81291208D01*
X86621619Y-81291208D02*
X86668681Y-81257643D01*
X86668681Y-81257643D02*
X86715828Y-81224197D01*
X86715828Y-81224197D02*
X86763058Y-81190870D01*
X86763058Y-81190870D02*
X86810373Y-81157661D01*
X86810373Y-81157661D02*
X86857770Y-81124572D01*
X86857770Y-81124572D02*
X86905251Y-81091601D01*
X86905251Y-81091601D02*
X86952814Y-81058750D01*
X86952814Y-81058750D02*
X87000460Y-81026019D01*
X87000460Y-81026019D02*
X87048188Y-80993408D01*
X87048188Y-80993408D02*
X87095997Y-80960916D01*
X87095997Y-80960916D02*
X87143888Y-80928545D01*
X87143888Y-80928545D02*
X87191861Y-80896294D01*
X87191861Y-80896294D02*
X87239914Y-80864164D01*
X87239914Y-80864164D02*
X87288048Y-80832155D01*
X87288048Y-80832155D02*
X87336262Y-80800267D01*
X87336262Y-80800267D02*
X87384556Y-80768500D01*
X87384556Y-80768500D02*
X87432930Y-80736855D01*
X87432930Y-80736855D02*
X87481383Y-80705331D01*
X87481383Y-80705331D02*
X87529916Y-80673930D01*
X87529916Y-80673930D02*
X87578527Y-80642650D01*
X87578527Y-80642650D02*
X87627216Y-80611493D01*
X90207076Y-79188978D02*
X90259411Y-79164431D01*
X90259411Y-79164431D02*
X90311807Y-79140016D01*
X90311807Y-79140016D02*
X90364265Y-79115733D01*
X90364265Y-79115733D02*
X90416783Y-79091582D01*
X90416783Y-79091582D02*
X90469362Y-79067563D01*
X90469362Y-79067563D02*
X90522001Y-79043676D01*
X90522001Y-79043676D02*
X90574700Y-79019921D01*
X90574700Y-79019921D02*
X90627458Y-78996299D01*
X90627458Y-78996299D02*
X90680276Y-78972810D01*
X90680276Y-78972810D02*
X90733152Y-78949453D01*
X90733152Y-78949453D02*
X90786087Y-78926229D01*
X90786087Y-78926229D02*
X90839080Y-78903139D01*
X90839080Y-78903139D02*
X90892131Y-78880182D01*
X90892131Y-78880182D02*
X90945240Y-78857358D01*
X90945240Y-78857358D02*
X90998406Y-78834668D01*
X90998406Y-78834668D02*
X91051628Y-78812111D01*
X91051628Y-78812111D02*
X91104907Y-78789688D01*
X91104907Y-78789688D02*
X91158243Y-78767399D01*
X91158243Y-78767399D02*
X91211634Y-78745245D01*
X91211634Y-78745245D02*
X91265081Y-78723224D01*
X91265081Y-78723224D02*
X91318583Y-78701338D01*
X91318583Y-78701338D02*
X91372139Y-78679587D01*
X91372139Y-78679587D02*
X91425751Y-78657970D01*
X91425751Y-78657970D02*
X91479416Y-78636488D01*
X91479416Y-78636488D02*
X91533135Y-78615141D01*
X91533135Y-78615141D02*
X91586908Y-78593929D01*
X91586908Y-78593929D02*
X91640734Y-78572852D01*
X91640734Y-78572852D02*
X91694612Y-78551911D01*
X91694612Y-78551911D02*
X91748544Y-78531105D01*
X91748544Y-78531105D02*
X91802527Y-78510434D01*
X91802527Y-78510434D02*
X91856562Y-78489900D01*
X91856562Y-78489900D02*
X91910648Y-78469501D01*
X91910648Y-78469501D02*
X91964786Y-78449238D01*
X91964786Y-78449238D02*
X92018974Y-78429112D01*
X92018974Y-78429112D02*
X92073213Y-78409121D01*
X92073213Y-78409121D02*
X92127502Y-78389267D01*
X92127502Y-78389267D02*
X92181840Y-78369550D01*
X92181840Y-78369550D02*
X92236228Y-78349969D01*
X92236228Y-78349969D02*
X92290665Y-78330525D01*
X92290665Y-78330525D02*
X92345150Y-78311218D01*
X92345150Y-78311218D02*
X92399684Y-78292047D01*
X92399684Y-78292047D02*
X92454266Y-78273014D01*
X92454266Y-78273014D02*
X92508896Y-78254119D01*
X92508896Y-78254119D02*
X92563573Y-78235360D01*
X92563573Y-78235360D02*
X92618297Y-78216739D01*
X92618297Y-78216739D02*
X92673068Y-78198256D01*
X92673068Y-78198256D02*
X92727884Y-78179910D01*
X92727884Y-78179910D02*
X92782747Y-78161702D01*
X92782747Y-78161702D02*
X92837656Y-78143632D01*
X95690230Y-77407393D02*
X95747025Y-77396633D01*
X95747025Y-77396633D02*
X95803847Y-77386015D01*
X95803847Y-77386015D02*
X95860695Y-77375541D01*
X95860695Y-77375541D02*
X95917569Y-77365209D01*
X95917569Y-77365209D02*
X95974470Y-77355020D01*
X95974470Y-77355020D02*
X96031395Y-77344975D01*
X96031395Y-77344975D02*
X96088346Y-77335072D01*
X96088346Y-77335072D02*
X96145322Y-77325312D01*
X96145322Y-77325312D02*
X96202321Y-77315696D01*
X96202321Y-77315696D02*
X96259345Y-77306223D01*
X96259345Y-77306223D02*
X96316393Y-77296894D01*
X96316393Y-77296894D02*
X96373463Y-77287707D01*
X96373463Y-77287707D02*
X96430557Y-77278665D01*
X96430557Y-77278665D02*
X96487673Y-77269766D01*
X96487673Y-77269766D02*
X96544811Y-77261010D01*
X96544811Y-77261010D02*
X96601972Y-77252398D01*
X96601972Y-77252398D02*
X96659153Y-77243930D01*
X96659153Y-77243930D02*
X96716356Y-77235605D01*
X96716356Y-77235605D02*
X96773579Y-77227424D01*
X96773579Y-77227424D02*
X96830823Y-77219387D01*
X96830823Y-77219387D02*
X96888087Y-77211494D01*
X96888087Y-77211494D02*
X96945371Y-77203745D01*
X96945371Y-77203745D02*
X97002674Y-77196140D01*
X97002674Y-77196140D02*
X97059995Y-77188679D01*
X97059995Y-77188679D02*
X97117336Y-77181362D01*
X97117336Y-77181362D02*
X97174694Y-77174189D01*
X97174694Y-77174189D02*
X97232071Y-77167160D01*
X97232071Y-77167160D02*
X97289464Y-77160276D01*
X97289464Y-77160276D02*
X97346875Y-77153536D01*
X97346875Y-77153536D02*
X97404303Y-77146940D01*
X97404303Y-77146940D02*
X97461747Y-77140488D01*
X97461747Y-77140488D02*
X97519207Y-77134181D01*
X97519207Y-77134181D02*
X97576683Y-77128019D01*
X97576683Y-77128019D02*
X97634174Y-77122000D01*
X97634174Y-77122000D02*
X97691681Y-77116127D01*
X97691681Y-77116127D02*
X97749201Y-77110397D01*
X97749201Y-77110397D02*
X97806736Y-77104813D01*
X97806736Y-77104813D02*
X97864285Y-77099373D01*
X97864285Y-77099373D02*
X97921847Y-77094078D01*
X97921847Y-77094078D02*
X97979422Y-77088927D01*
X97979422Y-77088927D02*
X98037011Y-77083921D01*
X98037011Y-77083921D02*
X98094611Y-77079060D01*
X98094611Y-77079060D02*
X98152224Y-77074344D01*
X98152224Y-77074344D02*
X98209848Y-77069772D01*
X98209848Y-77069772D02*
X98267483Y-77065345D01*
X98267483Y-77065345D02*
X98325130Y-77061063D01*
X98325130Y-77061063D02*
X98382787Y-77056926D01*
X98382787Y-77056926D02*
X98440454Y-77052934D01*
X98440454Y-77052934D02*
X98498131Y-77049087D01*
X101444182Y-77045385D02*
X101501869Y-77049087D01*
X101501869Y-77049087D02*
X101559546Y-77052934D01*
X101559546Y-77052934D02*
X101617213Y-77056926D01*
X101617213Y-77056926D02*
X101674870Y-77061063D01*
X101674870Y-77061063D02*
X101732517Y-77065345D01*
X101732517Y-77065345D02*
X101790152Y-77069772D01*
X101790152Y-77069772D02*
X101847776Y-77074344D01*
X101847776Y-77074344D02*
X101905389Y-77079060D01*
X101905389Y-77079060D02*
X101962989Y-77083921D01*
X101962989Y-77083921D02*
X102020578Y-77088927D01*
X102020578Y-77088927D02*
X102078153Y-77094078D01*
X102078153Y-77094078D02*
X102135715Y-77099373D01*
X102135715Y-77099373D02*
X102193264Y-77104813D01*
X102193264Y-77104813D02*
X102250799Y-77110397D01*
X102250799Y-77110397D02*
X102308319Y-77116127D01*
X102308319Y-77116127D02*
X102365826Y-77122000D01*
X102365826Y-77122000D02*
X102423317Y-77128019D01*
X102423317Y-77128019D02*
X102480793Y-77134181D01*
X102480793Y-77134181D02*
X102538253Y-77140488D01*
X102538253Y-77140488D02*
X102595697Y-77146940D01*
X102595697Y-77146940D02*
X102653125Y-77153536D01*
X102653125Y-77153536D02*
X102710536Y-77160276D01*
X102710536Y-77160276D02*
X102767929Y-77167160D01*
X102767929Y-77167160D02*
X102825306Y-77174189D01*
X102825306Y-77174189D02*
X102882664Y-77181362D01*
X102882664Y-77181362D02*
X102940005Y-77188679D01*
X102940005Y-77188679D02*
X102997326Y-77196140D01*
X102997326Y-77196140D02*
X103054629Y-77203745D01*
X103054629Y-77203745D02*
X103111913Y-77211494D01*
X103111913Y-77211494D02*
X103169177Y-77219387D01*
X103169177Y-77219387D02*
X103226421Y-77227424D01*
X103226421Y-77227424D02*
X103283644Y-77235605D01*
X103283644Y-77235605D02*
X103340847Y-77243930D01*
X103340847Y-77243930D02*
X103398028Y-77252398D01*
X103398028Y-77252398D02*
X103455189Y-77261010D01*
X103455189Y-77261010D02*
X103512327Y-77269766D01*
X103512327Y-77269766D02*
X103569443Y-77278665D01*
X103569443Y-77278665D02*
X103626537Y-77287707D01*
X103626537Y-77287707D02*
X103683607Y-77296894D01*
X103683607Y-77296894D02*
X103740655Y-77306223D01*
X103740655Y-77306223D02*
X103797679Y-77315696D01*
X103797679Y-77315696D02*
X103854678Y-77325312D01*
X103854678Y-77325312D02*
X103911654Y-77335072D01*
X103911654Y-77335072D02*
X103968605Y-77344975D01*
X103968605Y-77344975D02*
X104025530Y-77355020D01*
X104025530Y-77355020D02*
X104082431Y-77365209D01*
X104082431Y-77365209D02*
X104139305Y-77375541D01*
X104139305Y-77375541D02*
X104196153Y-77386015D01*
X104196153Y-77386015D02*
X104252975Y-77396633D01*
X107107391Y-78125700D02*
X107162344Y-78143632D01*
X107162344Y-78143632D02*
X107217253Y-78161702D01*
X107217253Y-78161702D02*
X107272116Y-78179910D01*
X107272116Y-78179910D02*
X107326932Y-78198256D01*
X107326932Y-78198256D02*
X107381703Y-78216739D01*
X107381703Y-78216739D02*
X107436427Y-78235360D01*
X107436427Y-78235360D02*
X107491104Y-78254119D01*
X107491104Y-78254119D02*
X107545734Y-78273014D01*
X107545734Y-78273014D02*
X107600316Y-78292047D01*
X107600316Y-78292047D02*
X107654850Y-78311218D01*
X107654850Y-78311218D02*
X107709335Y-78330525D01*
X107709335Y-78330525D02*
X107763772Y-78349969D01*
X107763772Y-78349969D02*
X107818160Y-78369550D01*
X107818160Y-78369550D02*
X107872498Y-78389267D01*
X107872498Y-78389267D02*
X107926787Y-78409121D01*
X107926787Y-78409121D02*
X107981026Y-78429112D01*
X107981026Y-78429112D02*
X108035214Y-78449238D01*
X108035214Y-78449238D02*
X108089352Y-78469501D01*
X108089352Y-78469501D02*
X108143438Y-78489900D01*
X108143438Y-78489900D02*
X108197473Y-78510434D01*
X108197473Y-78510434D02*
X108251456Y-78531105D01*
X108251456Y-78531105D02*
X108305388Y-78551911D01*
X108305388Y-78551911D02*
X108359266Y-78572852D01*
X108359266Y-78572852D02*
X108413092Y-78593929D01*
X108413092Y-78593929D02*
X108466865Y-78615141D01*
X108466865Y-78615141D02*
X108520584Y-78636488D01*
X108520584Y-78636488D02*
X108574249Y-78657970D01*
X108574249Y-78657970D02*
X108627861Y-78679587D01*
X108627861Y-78679587D02*
X108681417Y-78701338D01*
X108681417Y-78701338D02*
X108734919Y-78723224D01*
X108734919Y-78723224D02*
X108788366Y-78745245D01*
X108788366Y-78745245D02*
X108841757Y-78767399D01*
X108841757Y-78767399D02*
X108895093Y-78789688D01*
X108895093Y-78789688D02*
X108948372Y-78812111D01*
X108948372Y-78812111D02*
X109001594Y-78834668D01*
X109001594Y-78834668D02*
X109054760Y-78857358D01*
X109054760Y-78857358D02*
X109107869Y-78880182D01*
X109107869Y-78880182D02*
X109160920Y-78903139D01*
X109160920Y-78903139D02*
X109213913Y-78926229D01*
X109213913Y-78926229D02*
X109266848Y-78949453D01*
X109266848Y-78949453D02*
X109319724Y-78972810D01*
X109319724Y-78972810D02*
X109372542Y-78996299D01*
X109372542Y-78996299D02*
X109425300Y-79019921D01*
X109425300Y-79019921D02*
X109477999Y-79043676D01*
X109477999Y-79043676D02*
X109530638Y-79067563D01*
X109530638Y-79067563D02*
X109583217Y-79091582D01*
X109583217Y-79091582D02*
X109635735Y-79115733D01*
X109635735Y-79115733D02*
X109688193Y-79140016D01*
X109688193Y-79140016D02*
X109740589Y-79164431D01*
X112324016Y-80580458D02*
X112372784Y-80611493D01*
X112372784Y-80611493D02*
X112421473Y-80642650D01*
X112421473Y-80642650D02*
X112470084Y-80673930D01*
X112470084Y-80673930D02*
X112518617Y-80705331D01*
X112518617Y-80705331D02*
X112567070Y-80736855D01*
X112567070Y-80736855D02*
X112615444Y-80768500D01*
X112615444Y-80768500D02*
X112663738Y-80800267D01*
X112663738Y-80800267D02*
X112711952Y-80832155D01*
X112711952Y-80832155D02*
X112760086Y-80864164D01*
X112760086Y-80864164D02*
X112808139Y-80896294D01*
X112808139Y-80896294D02*
X112856112Y-80928545D01*
X112856112Y-80928545D02*
X112904003Y-80960916D01*
X112904003Y-80960916D02*
X112951812Y-80993408D01*
X112951812Y-80993408D02*
X112999540Y-81026019D01*
X112999540Y-81026019D02*
X113047186Y-81058750D01*
X113047186Y-81058750D02*
X113094749Y-81091601D01*
X113094749Y-81091601D02*
X113142230Y-81124572D01*
X113142230Y-81124572D02*
X113189627Y-81157661D01*
X113189627Y-81157661D02*
X113236942Y-81190870D01*
X113236942Y-81190870D02*
X113284172Y-81224197D01*
X113284172Y-81224197D02*
X113331319Y-81257643D01*
X113331319Y-81257643D02*
X113378381Y-81291208D01*
X113378381Y-81291208D02*
X113425359Y-81324890D01*
X113425359Y-81324890D02*
X113472253Y-81358691D01*
X113472253Y-81358691D02*
X113519061Y-81392609D01*
X113519061Y-81392609D02*
X113565784Y-81426645D01*
X113565784Y-81426645D02*
X113612421Y-81460798D01*
X113612421Y-81460798D02*
X113658972Y-81495068D01*
X113658972Y-81495068D02*
X113705436Y-81529456D01*
X113705436Y-81529456D02*
X113751815Y-81563959D01*
X113751815Y-81563959D02*
X113798106Y-81598580D01*
X113798106Y-81598580D02*
X113844310Y-81633316D01*
X113844310Y-81633316D02*
X113890427Y-81668169D01*
X113890427Y-81668169D02*
X113936456Y-81703137D01*
X113936456Y-81703137D02*
X113982397Y-81738221D01*
X113982397Y-81738221D02*
X114028249Y-81773420D01*
X114028249Y-81773420D02*
X114074014Y-81808734D01*
X114074014Y-81808734D02*
X114119689Y-81844164D01*
X114119689Y-81844164D02*
X114165275Y-81879708D01*
X114165275Y-81879708D02*
X114210771Y-81915366D01*
X114210771Y-81915366D02*
X114256178Y-81951139D01*
X114256178Y-81951139D02*
X114301494Y-81987025D01*
X114301494Y-81987025D02*
X114346721Y-82023026D01*
X114346721Y-82023026D02*
X114391857Y-82059140D01*
X114391857Y-82059140D02*
X114436901Y-82095367D01*
X114436901Y-82095367D02*
X114481855Y-82131707D01*
X114481855Y-82131707D02*
X114526717Y-82168161D01*
X114526717Y-82168161D02*
X114571487Y-82204727D01*
X114571487Y-82204727D02*
X114616166Y-82241405D01*
X116766278Y-84255417D02*
X116805796Y-84297604D01*
X116805796Y-84297604D02*
X116845207Y-84339892D01*
X116845207Y-84339892D02*
X116884512Y-84382278D01*
X116884512Y-84382278D02*
X116923710Y-84424762D01*
X116923710Y-84424762D02*
X116962802Y-84467345D01*
X116962802Y-84467345D02*
X117001786Y-84510027D01*
X117001786Y-84510027D02*
X117040663Y-84552806D01*
X117040663Y-84552806D02*
X117079432Y-84595682D01*
X117079432Y-84595682D02*
X117118093Y-84638656D01*
X117118093Y-84638656D02*
X117156646Y-84681727D01*
X117156646Y-84681727D02*
X117195091Y-84724895D01*
X117195091Y-84724895D02*
X117233427Y-84768159D01*
X117233427Y-84768159D02*
X117271655Y-84811519D01*
X117271655Y-84811519D02*
X117309773Y-84854976D01*
X117309773Y-84854976D02*
X117347782Y-84898528D01*
X117347782Y-84898528D02*
X117385681Y-84942175D01*
X117385681Y-84942175D02*
X117423471Y-84985917D01*
X117423471Y-84985917D02*
X117461150Y-85029755D01*
X117461150Y-85029755D02*
X117498719Y-85073687D01*
X117498719Y-85073687D02*
X117536178Y-85117713D01*
X117536178Y-85117713D02*
X117573526Y-85161833D01*
X117573526Y-85161833D02*
X117610762Y-85206047D01*
X117610762Y-85206047D02*
X117647888Y-85250354D01*
X117647888Y-85250354D02*
X117684902Y-85294755D01*
X117684902Y-85294755D02*
X117721805Y-85339248D01*
X117721805Y-85339248D02*
X117758595Y-85383834D01*
X117758595Y-85383834D02*
X117795273Y-85428513D01*
X117795273Y-85428513D02*
X117831839Y-85473283D01*
X117831839Y-85473283D02*
X117868293Y-85518145D01*
X117868293Y-85518145D02*
X117904633Y-85563099D01*
X117904633Y-85563099D02*
X117940860Y-85608143D01*
X117940860Y-85608143D02*
X117976974Y-85653279D01*
X117976974Y-85653279D02*
X118012975Y-85698506D01*
X118012975Y-85698506D02*
X118048861Y-85743822D01*
X118048861Y-85743822D02*
X118084634Y-85789229D01*
X118084634Y-85789229D02*
X118120292Y-85834725D01*
X118120292Y-85834725D02*
X118155836Y-85880311D01*
X118155836Y-85880311D02*
X118191266Y-85925986D01*
X118191266Y-85925986D02*
X118226580Y-85971751D01*
X118226580Y-85971751D02*
X118261779Y-86017603D01*
X118261779Y-86017603D02*
X118296863Y-86063544D01*
X118296863Y-86063544D02*
X118331831Y-86109573D01*
X118331831Y-86109573D02*
X118366684Y-86155690D01*
X118366684Y-86155690D02*
X118401420Y-86201894D01*
X118401420Y-86201894D02*
X118436041Y-86248185D01*
X118436041Y-86248185D02*
X118470544Y-86294564D01*
X118470544Y-86294564D02*
X118504932Y-86341028D01*
X118504932Y-86341028D02*
X118539202Y-86387579D01*
X118539202Y-86387579D02*
X118573355Y-86434216D01*
X120155054Y-88919665D02*
X120182838Y-88970356D01*
X120182838Y-88970356D02*
X120210495Y-89021115D01*
X120210495Y-89021115D02*
X120238024Y-89071945D01*
X120238024Y-89071945D02*
X120265425Y-89122843D01*
X120265425Y-89122843D02*
X120292698Y-89173810D01*
X120292698Y-89173810D02*
X120319843Y-89224845D01*
X120319843Y-89224845D02*
X120346860Y-89275948D01*
X120346860Y-89275948D02*
X120373748Y-89327119D01*
X120373748Y-89327119D02*
X120400508Y-89378358D01*
X120400508Y-89378358D02*
X120427138Y-89429663D01*
X120427138Y-89429663D02*
X120453640Y-89481036D01*
X120453640Y-89481036D02*
X120480012Y-89532474D01*
X120480012Y-89532474D02*
X120506255Y-89583979D01*
X120506255Y-89583979D02*
X120532369Y-89635550D01*
X120532369Y-89635550D02*
X120558353Y-89687186D01*
X120558353Y-89687186D02*
X120584207Y-89738887D01*
X120584207Y-89738887D02*
X120609931Y-89790653D01*
X120609931Y-89790653D02*
X120635524Y-89842484D01*
X120635524Y-89842484D02*
X120660988Y-89894379D01*
X120660988Y-89894379D02*
X120686321Y-89946337D01*
X120686321Y-89946337D02*
X120711523Y-89998359D01*
X120711523Y-89998359D02*
X120736594Y-90050445D01*
X120736594Y-90050445D02*
X120761535Y-90102593D01*
X120761535Y-90102593D02*
X120786344Y-90154803D01*
X120786344Y-90154803D02*
X120811022Y-90207076D01*
X120811022Y-90207076D02*
X120835569Y-90259411D01*
X120835569Y-90259411D02*
X120859984Y-90311807D01*
X120859984Y-90311807D02*
X120884267Y-90364265D01*
X120884267Y-90364265D02*
X120908418Y-90416783D01*
X120908418Y-90416783D02*
X120932437Y-90469362D01*
X120932437Y-90469362D02*
X120956324Y-90522001D01*
X120956324Y-90522001D02*
X120980079Y-90574700D01*
X120980079Y-90574700D02*
X121003701Y-90627458D01*
X121003701Y-90627458D02*
X121027190Y-90680276D01*
X121027190Y-90680276D02*
X121050547Y-90733152D01*
X121050547Y-90733152D02*
X121073771Y-90786087D01*
X121073771Y-90786087D02*
X121096861Y-90839080D01*
X121096861Y-90839080D02*
X121119818Y-90892131D01*
X121119818Y-90892131D02*
X121142642Y-90945240D01*
X121142642Y-90945240D02*
X121165332Y-90998406D01*
X121165332Y-90998406D02*
X121187889Y-91051628D01*
X121187889Y-91051628D02*
X121210312Y-91104907D01*
X121210312Y-91104907D02*
X121232601Y-91158243D01*
X121232601Y-91158243D02*
X121254755Y-91211634D01*
X121254755Y-91211634D02*
X121276776Y-91265081D01*
X121276776Y-91265081D02*
X121298662Y-91318583D01*
X121298662Y-91318583D02*
X121320413Y-91372139D01*
X121320413Y-91372139D02*
X121342030Y-91425751D01*
X121342030Y-91425751D02*
X121363512Y-91479416D01*
X122277413Y-94280133D02*
X122291718Y-94336140D01*
X122291718Y-94336140D02*
X122305882Y-94392183D01*
X122305882Y-94392183D02*
X122319906Y-94448261D01*
X122319906Y-94448261D02*
X122333788Y-94504375D01*
X122333788Y-94504375D02*
X122347530Y-94560523D01*
X122347530Y-94560523D02*
X122361130Y-94616706D01*
X122361130Y-94616706D02*
X122374589Y-94672922D01*
X122374589Y-94672922D02*
X122387907Y-94729172D01*
X122387907Y-94729172D02*
X122401083Y-94785456D01*
X122401083Y-94785456D02*
X122414118Y-94841772D01*
X122414118Y-94841772D02*
X122427011Y-94898122D01*
X122427011Y-94898122D02*
X122439763Y-94954503D01*
X122439763Y-94954503D02*
X122452373Y-95010916D01*
X122452373Y-95010916D02*
X122464841Y-95067361D01*
X122464841Y-95067361D02*
X122477167Y-95123836D01*
X122477167Y-95123836D02*
X122489351Y-95180343D01*
X122489351Y-95180343D02*
X122501393Y-95236880D01*
X122501393Y-95236880D02*
X122513293Y-95293447D01*
X122513293Y-95293447D02*
X122525051Y-95350044D01*
X122525051Y-95350044D02*
X122536666Y-95406670D01*
X122536666Y-95406670D02*
X122548139Y-95463326D01*
X122548139Y-95463326D02*
X122559470Y-95520010D01*
X122559470Y-95520010D02*
X122570658Y-95576722D01*
X122570658Y-95576722D02*
X122581704Y-95633462D01*
X122581704Y-95633462D02*
X122592607Y-95690230D01*
X122592607Y-95690230D02*
X122603367Y-95747025D01*
X122603367Y-95747025D02*
X122613985Y-95803847D01*
X122613985Y-95803847D02*
X122624459Y-95860695D01*
X122624459Y-95860695D02*
X122634791Y-95917569D01*
X122634791Y-95917569D02*
X122644980Y-95974470D01*
X122644980Y-95974470D02*
X122655025Y-96031395D01*
X122655025Y-96031395D02*
X122664928Y-96088346D01*
X122664928Y-96088346D02*
X122674688Y-96145322D01*
X122674688Y-96145322D02*
X122684304Y-96202321D01*
X122684304Y-96202321D02*
X122693777Y-96259345D01*
X122693777Y-96259345D02*
X122703106Y-96316393D01*
X122703106Y-96316393D02*
X122712293Y-96373463D01*
X122712293Y-96373463D02*
X122721335Y-96430557D01*
X122721335Y-96430557D02*
X122730234Y-96487673D01*
X122730234Y-96487673D02*
X122738990Y-96544811D01*
X122738990Y-96544811D02*
X122747602Y-96601972D01*
X122747602Y-96601972D02*
X122756070Y-96659153D01*
X122756070Y-96659153D02*
X122764395Y-96716356D01*
X122764395Y-96716356D02*
X122772576Y-96773579D01*
X122772576Y-96773579D02*
X122780613Y-96830823D01*
X122780613Y-96830823D02*
X122788506Y-96888087D01*
X122788506Y-96888087D02*
X122796255Y-96945371D01*
X122796255Y-96945371D02*
X122803860Y-97002674D01*
X122803860Y-97002674D02*
X122811321Y-97059995D01*
X119340000Y-99800000D02*
G75*
G03X119340000Y-99800000I-2000000J0D01*
G01*
D13*
X119880000Y-103884000D02*
X119880000Y-103684000D01*
X114800000Y-103884000D02*
X114800000Y-103684000D01*
X120040000Y-106150000D02*
X114640000Y-106150000D01*
X120040000Y-103900000D02*
X114640000Y-103900000D01*
D14*
G36*
X116933333Y-93217333D02*
X83066667Y-93217333D01*
X83066667Y-91744135D01*
X87799533Y-91744135D01*
X88637733Y-91744133D01*
X88637733Y-90355600D01*
X88921939Y-90355600D01*
X89086475Y-90656166D01*
X89143631Y-90760668D01*
X89212038Y-90885880D01*
X89286760Y-91022765D01*
X89362866Y-91162282D01*
X89435420Y-91295394D01*
X89465071Y-91349831D01*
X89679133Y-91742928D01*
X90175844Y-91743531D01*
X90301285Y-91743238D01*
X90414712Y-91742117D01*
X90512004Y-91740277D01*
X90589038Y-91737827D01*
X90641691Y-91734879D01*
X90665841Y-91731540D01*
X90666911Y-91730476D01*
X90657210Y-91713739D01*
X90631538Y-91670943D01*
X90591611Y-91604911D01*
X90539143Y-91518465D01*
X90475851Y-91414426D01*
X90403450Y-91295618D01*
X90323655Y-91164864D01*
X90238181Y-91024984D01*
X90225317Y-91003947D01*
X90138909Y-90862452D01*
X90057778Y-90729214D01*
X89983667Y-90607124D01*
X89918319Y-90499070D01*
X89863478Y-90407945D01*
X89820888Y-90336637D01*
X89792292Y-90288037D01*
X89779433Y-90265036D01*
X89779006Y-90264071D01*
X89780296Y-90241091D01*
X89793894Y-90237066D01*
X89833889Y-90227481D01*
X89893315Y-90201611D01*
X89964730Y-90163783D01*
X90040693Y-90118323D01*
X90093975Y-90082764D01*
X91131780Y-90082764D01*
X91159434Y-90342320D01*
X91216224Y-90584667D01*
X91302232Y-90809999D01*
X91417540Y-91018513D01*
X91562233Y-91210405D01*
X91650580Y-91305153D01*
X91830826Y-91461599D01*
X92032796Y-91592723D01*
X92254920Y-91697786D01*
X92495628Y-91776049D01*
X92753350Y-91826773D01*
X92761000Y-91827817D01*
X92852414Y-91835604D01*
X92966860Y-91838582D01*
X93093895Y-91837094D01*
X93223078Y-91831483D01*
X93343968Y-91822091D01*
X93446123Y-91809263D01*
X93473593Y-91804403D01*
X93722253Y-91739880D01*
X93957033Y-91646348D01*
X94174493Y-91525324D01*
X94290002Y-91444143D01*
X94458720Y-91294558D01*
X94604937Y-91122019D01*
X94727691Y-90929709D01*
X94826020Y-90720808D01*
X94898962Y-90498498D01*
X94945554Y-90265961D01*
X94964836Y-90026378D01*
X94955844Y-89782931D01*
X94917617Y-89538801D01*
X94894680Y-89444478D01*
X94816601Y-89215600D01*
X94710792Y-89005445D01*
X94578510Y-88815220D01*
X94421008Y-88646130D01*
X94239542Y-88499381D01*
X94035367Y-88376178D01*
X93809738Y-88277726D01*
X93711685Y-88247400D01*
X95233267Y-88247400D01*
X95233267Y-88958600D01*
X95728567Y-88963089D01*
X96223866Y-88967578D01*
X96223866Y-91744133D01*
X97070533Y-91744133D01*
X97070533Y-89956419D01*
X98339789Y-89956419D01*
X98351172Y-90191826D01*
X98390045Y-90425496D01*
X98456676Y-90654016D01*
X98551331Y-90873972D01*
X98650046Y-91045550D01*
X98786710Y-91225541D01*
X98949350Y-91385825D01*
X99135353Y-91524856D01*
X99342109Y-91641088D01*
X99567006Y-91732973D01*
X99807434Y-91798965D01*
X99969583Y-91827078D01*
X100058165Y-91834658D01*
X100170061Y-91837731D01*
X100295065Y-91836628D01*
X100422972Y-91831679D01*
X100543576Y-91823215D01*
X100646671Y-91811568D01*
X100693846Y-91803600D01*
X100943258Y-91738158D01*
X101173919Y-91646006D01*
X101384474Y-91528144D01*
X101573568Y-91385568D01*
X101739845Y-91219279D01*
X101881950Y-91030274D01*
X101981424Y-90855133D01*
X102073703Y-90631123D01*
X102137164Y-90393246D01*
X102171400Y-90146075D01*
X102176002Y-89894177D01*
X102150563Y-89642124D01*
X102107711Y-89441200D01*
X102030530Y-89214275D01*
X101925311Y-89005465D01*
X101892673Y-88958600D01*
X102452624Y-88958600D01*
X102945045Y-88963089D01*
X103437467Y-88967578D01*
X103437467Y-91744133D01*
X103865033Y-91744131D01*
X104292600Y-91744129D01*
X104292600Y-88975533D01*
X104789259Y-88967067D01*
X105285919Y-88958600D01*
X105284186Y-88247809D01*
X105757333Y-88247809D01*
X105762566Y-88258397D01*
X105778797Y-88285462D01*
X105806822Y-88330236D01*
X105847438Y-88393950D01*
X105901444Y-88477837D01*
X105969635Y-88583128D01*
X106052809Y-88711056D01*
X106151763Y-88862853D01*
X106267294Y-89039751D01*
X106400199Y-89242981D01*
X106485598Y-89373467D01*
X106567601Y-89498761D01*
X106649991Y-89624700D01*
X106729301Y-89745979D01*
X106802064Y-89857294D01*
X106864811Y-89953343D01*
X106914077Y-90028820D01*
X106931362Y-90055333D01*
X107061200Y-90254599D01*
X107061200Y-91744133D01*
X107488767Y-91744138D01*
X107916333Y-91744144D01*
X107916333Y-91744133D01*
X109736666Y-91744133D01*
X110583333Y-91744133D01*
X113106242Y-91744133D01*
X115561733Y-91744133D01*
X115561733Y-91016000D01*
X113936133Y-91016000D01*
X113936133Y-90304800D01*
X115393101Y-90304800D01*
X115383933Y-89619000D01*
X113936133Y-89610170D01*
X113936133Y-88967067D01*
X115477066Y-88967067D01*
X115477066Y-88238703D01*
X114295966Y-88243051D01*
X113114866Y-88247400D01*
X113110554Y-89995767D01*
X113106242Y-91744133D01*
X110583333Y-91744133D01*
X110583333Y-90423333D01*
X110881727Y-90423333D01*
X111128222Y-90416970D01*
X111346104Y-90397306D01*
X111538257Y-90363480D01*
X111707568Y-90314629D01*
X111856921Y-90249892D01*
X111989203Y-90168407D01*
X112107298Y-90069313D01*
X112124719Y-90052120D01*
X112226239Y-89934734D01*
X112302274Y-89810636D01*
X112354825Y-89674414D01*
X112385895Y-89520656D01*
X112397485Y-89343950D01*
X112397667Y-89314411D01*
X112395914Y-89228476D01*
X112391297Y-89146078D01*
X112384596Y-89078585D01*
X112379356Y-89047482D01*
X112324426Y-88875278D01*
X112242229Y-88722755D01*
X112133387Y-88590382D01*
X111998521Y-88478627D01*
X111838253Y-88387957D01*
X111653204Y-88318841D01*
X111443995Y-88271747D01*
X111328400Y-88256380D01*
X111276178Y-88252702D01*
X111194703Y-88249286D01*
X111088589Y-88246223D01*
X110962448Y-88243603D01*
X110820895Y-88241517D01*
X110668542Y-88240053D01*
X110510003Y-88239304D01*
X110452100Y-88239227D01*
X109736666Y-88238933D01*
X109736666Y-91744133D01*
X107916333Y-91744133D01*
X107911743Y-91014024D01*
X107907152Y-90283905D01*
X108584843Y-89270508D01*
X108696000Y-89104164D01*
X108801480Y-88946077D01*
X108899794Y-88798492D01*
X108989454Y-88663656D01*
X109068971Y-88543814D01*
X109136857Y-88441212D01*
X109191624Y-88358094D01*
X109231783Y-88296707D01*
X109255846Y-88259296D01*
X109262533Y-88248023D01*
X109246302Y-88245708D01*
X109200416Y-88243610D01*
X109129086Y-88241807D01*
X109036524Y-88240379D01*
X108926941Y-88239401D01*
X108804550Y-88238953D01*
X108771857Y-88238933D01*
X108281181Y-88238933D01*
X108253292Y-88281497D01*
X108238890Y-88305210D01*
X108209586Y-88354882D01*
X108167355Y-88427113D01*
X108114176Y-88518501D01*
X108052026Y-88625647D01*
X107982883Y-88745150D01*
X107908725Y-88873609D01*
X107884601Y-88915457D01*
X107810079Y-89044210D01*
X107740451Y-89163418D01*
X107677587Y-89269961D01*
X107623358Y-89360718D01*
X107579632Y-89432569D01*
X107548280Y-89482394D01*
X107531172Y-89507071D01*
X107528841Y-89509201D01*
X107517481Y-89495518D01*
X107491078Y-89455438D01*
X107451437Y-89391947D01*
X107400364Y-89308027D01*
X107339664Y-89206661D01*
X107271142Y-89090832D01*
X107196603Y-88963524D01*
X107147775Y-88879475D01*
X106781668Y-88247400D01*
X106269501Y-88242918D01*
X106141706Y-88242097D01*
X106025559Y-88241922D01*
X105925180Y-88242355D01*
X105844691Y-88243354D01*
X105788214Y-88244882D01*
X105759871Y-88246898D01*
X105757333Y-88247809D01*
X105284186Y-88247809D01*
X105284185Y-88247400D01*
X102454348Y-88247400D01*
X102452624Y-88958600D01*
X101892673Y-88958600D01*
X101793415Y-88816077D01*
X101636206Y-88647416D01*
X101455045Y-88500788D01*
X101251295Y-88377498D01*
X101026317Y-88278853D01*
X100832353Y-88218658D01*
X100752082Y-88198914D01*
X100681499Y-88184503D01*
X100611588Y-88174335D01*
X100533331Y-88167322D01*
X100437711Y-88162375D01*
X100338667Y-88159057D01*
X100168482Y-88157064D01*
X100021630Y-88162619D01*
X99888183Y-88176903D01*
X99758210Y-88201096D01*
X99621783Y-88236378D01*
X99577192Y-88249580D01*
X99367686Y-88329212D01*
X99165297Y-88437185D01*
X98978274Y-88568517D01*
X98833822Y-88698573D01*
X98685875Y-88872747D01*
X98563815Y-89065658D01*
X98467909Y-89273893D01*
X98398425Y-89494040D01*
X98355629Y-89722686D01*
X98339789Y-89956419D01*
X97070533Y-89956419D01*
X97070533Y-88967067D01*
X98069600Y-88967067D01*
X98069600Y-88238740D01*
X96651433Y-88243070D01*
X95233267Y-88247400D01*
X93711685Y-88247400D01*
X93618753Y-88218658D01*
X93538482Y-88198914D01*
X93467899Y-88184503D01*
X93397988Y-88174335D01*
X93319731Y-88167322D01*
X93224111Y-88162375D01*
X93125067Y-88159057D01*
X92995337Y-88156368D01*
X92891020Y-88156962D01*
X92803791Y-88161189D01*
X92725323Y-88169398D01*
X92667867Y-88178267D01*
X92407501Y-88237763D01*
X92169665Y-88322263D01*
X91954565Y-88431619D01*
X91762407Y-88565681D01*
X91593399Y-88724301D01*
X91447747Y-88907331D01*
X91325659Y-89114622D01*
X91305564Y-89155847D01*
X91218449Y-89374041D01*
X91161047Y-89598980D01*
X91132510Y-89835171D01*
X91131780Y-90082764D01*
X90093975Y-90082764D01*
X90113762Y-90069559D01*
X90176497Y-90021818D01*
X90200918Y-90000383D01*
X90311899Y-89878574D01*
X90394415Y-89745937D01*
X90449983Y-89598693D01*
X90480122Y-89433064D01*
X90486957Y-89288800D01*
X90472557Y-89095596D01*
X90429965Y-88921098D01*
X90359338Y-88765482D01*
X90260831Y-88628926D01*
X90134602Y-88511608D01*
X89980808Y-88413707D01*
X89799606Y-88335398D01*
X89594466Y-88277590D01*
X89559662Y-88271249D01*
X89515176Y-88265810D01*
X89458060Y-88261168D01*
X89385364Y-88257220D01*
X89294138Y-88253859D01*
X89181433Y-88250982D01*
X89044300Y-88248484D01*
X88879788Y-88246261D01*
X88684948Y-88244207D01*
X88642123Y-88243808D01*
X87808313Y-88236175D01*
X87799533Y-91744135D01*
X83066667Y-91744135D01*
X83066667Y-91744133D01*
X84421333Y-91744133D01*
X85267602Y-91744133D01*
X85272034Y-91087967D01*
X85276467Y-90431800D01*
X85649000Y-90421348D01*
X85816670Y-90415146D01*
X85956693Y-90406298D01*
X86075241Y-90393991D01*
X86178485Y-90377414D01*
X86272595Y-90355755D01*
X86363743Y-90328203D01*
X86368075Y-90326743D01*
X86538464Y-90253975D01*
X86691830Y-90158162D01*
X86824687Y-90042625D01*
X86933546Y-89910688D01*
X87014920Y-89765674D01*
X87047342Y-89679488D01*
X87066687Y-89598909D01*
X87082173Y-89498238D01*
X87091694Y-89391207D01*
X87091755Y-89390095D01*
X87089044Y-89188326D01*
X87058150Y-89004601D01*
X86999364Y-88839447D01*
X86912971Y-88693390D01*
X86799261Y-88566955D01*
X86658520Y-88460670D01*
X86551178Y-88401917D01*
X86477848Y-88368177D01*
X86407285Y-88339393D01*
X86336133Y-88315180D01*
X86261036Y-88295151D01*
X86178637Y-88278920D01*
X86085580Y-88266101D01*
X85978508Y-88256308D01*
X85854065Y-88249155D01*
X85708894Y-88244256D01*
X85539639Y-88241225D01*
X85342943Y-88239675D01*
X85136766Y-88239227D01*
X84421333Y-88238933D01*
X84421333Y-91744133D01*
X83066667Y-91744133D01*
X83066667Y-86782667D01*
X116933333Y-86782667D01*
X116933333Y-93217333D01*
X116933333Y-93217333D01*
G37*
X116933333Y-93217333D02*
X83066667Y-93217333D01*
X83066667Y-91744135D01*
X87799533Y-91744135D01*
X88637733Y-91744133D01*
X88637733Y-90355600D01*
X88921939Y-90355600D01*
X89086475Y-90656166D01*
X89143631Y-90760668D01*
X89212038Y-90885880D01*
X89286760Y-91022765D01*
X89362866Y-91162282D01*
X89435420Y-91295394D01*
X89465071Y-91349831D01*
X89679133Y-91742928D01*
X90175844Y-91743531D01*
X90301285Y-91743238D01*
X90414712Y-91742117D01*
X90512004Y-91740277D01*
X90589038Y-91737827D01*
X90641691Y-91734879D01*
X90665841Y-91731540D01*
X90666911Y-91730476D01*
X90657210Y-91713739D01*
X90631538Y-91670943D01*
X90591611Y-91604911D01*
X90539143Y-91518465D01*
X90475851Y-91414426D01*
X90403450Y-91295618D01*
X90323655Y-91164864D01*
X90238181Y-91024984D01*
X90225317Y-91003947D01*
X90138909Y-90862452D01*
X90057778Y-90729214D01*
X89983667Y-90607124D01*
X89918319Y-90499070D01*
X89863478Y-90407945D01*
X89820888Y-90336637D01*
X89792292Y-90288037D01*
X89779433Y-90265036D01*
X89779006Y-90264071D01*
X89780296Y-90241091D01*
X89793894Y-90237066D01*
X89833889Y-90227481D01*
X89893315Y-90201611D01*
X89964730Y-90163783D01*
X90040693Y-90118323D01*
X90093975Y-90082764D01*
X91131780Y-90082764D01*
X91159434Y-90342320D01*
X91216224Y-90584667D01*
X91302232Y-90809999D01*
X91417540Y-91018513D01*
X91562233Y-91210405D01*
X91650580Y-91305153D01*
X91830826Y-91461599D01*
X92032796Y-91592723D01*
X92254920Y-91697786D01*
X92495628Y-91776049D01*
X92753350Y-91826773D01*
X92761000Y-91827817D01*
X92852414Y-91835604D01*
X92966860Y-91838582D01*
X93093895Y-91837094D01*
X93223078Y-91831483D01*
X93343968Y-91822091D01*
X93446123Y-91809263D01*
X93473593Y-91804403D01*
X93722253Y-91739880D01*
X93957033Y-91646348D01*
X94174493Y-91525324D01*
X94290002Y-91444143D01*
X94458720Y-91294558D01*
X94604937Y-91122019D01*
X94727691Y-90929709D01*
X94826020Y-90720808D01*
X94898962Y-90498498D01*
X94945554Y-90265961D01*
X94964836Y-90026378D01*
X94955844Y-89782931D01*
X94917617Y-89538801D01*
X94894680Y-89444478D01*
X94816601Y-89215600D01*
X94710792Y-89005445D01*
X94578510Y-88815220D01*
X94421008Y-88646130D01*
X94239542Y-88499381D01*
X94035367Y-88376178D01*
X93809738Y-88277726D01*
X93711685Y-88247400D01*
X95233267Y-88247400D01*
X95233267Y-88958600D01*
X95728567Y-88963089D01*
X96223866Y-88967578D01*
X96223866Y-91744133D01*
X97070533Y-91744133D01*
X97070533Y-89956419D01*
X98339789Y-89956419D01*
X98351172Y-90191826D01*
X98390045Y-90425496D01*
X98456676Y-90654016D01*
X98551331Y-90873972D01*
X98650046Y-91045550D01*
X98786710Y-91225541D01*
X98949350Y-91385825D01*
X99135353Y-91524856D01*
X99342109Y-91641088D01*
X99567006Y-91732973D01*
X99807434Y-91798965D01*
X99969583Y-91827078D01*
X100058165Y-91834658D01*
X100170061Y-91837731D01*
X100295065Y-91836628D01*
X100422972Y-91831679D01*
X100543576Y-91823215D01*
X100646671Y-91811568D01*
X100693846Y-91803600D01*
X100943258Y-91738158D01*
X101173919Y-91646006D01*
X101384474Y-91528144D01*
X101573568Y-91385568D01*
X101739845Y-91219279D01*
X101881950Y-91030274D01*
X101981424Y-90855133D01*
X102073703Y-90631123D01*
X102137164Y-90393246D01*
X102171400Y-90146075D01*
X102176002Y-89894177D01*
X102150563Y-89642124D01*
X102107711Y-89441200D01*
X102030530Y-89214275D01*
X101925311Y-89005465D01*
X101892673Y-88958600D01*
X102452624Y-88958600D01*
X102945045Y-88963089D01*
X103437467Y-88967578D01*
X103437467Y-91744133D01*
X103865033Y-91744131D01*
X104292600Y-91744129D01*
X104292600Y-88975533D01*
X104789259Y-88967067D01*
X105285919Y-88958600D01*
X105284186Y-88247809D01*
X105757333Y-88247809D01*
X105762566Y-88258397D01*
X105778797Y-88285462D01*
X105806822Y-88330236D01*
X105847438Y-88393950D01*
X105901444Y-88477837D01*
X105969635Y-88583128D01*
X106052809Y-88711056D01*
X106151763Y-88862853D01*
X106267294Y-89039751D01*
X106400199Y-89242981D01*
X106485598Y-89373467D01*
X106567601Y-89498761D01*
X106649991Y-89624700D01*
X106729301Y-89745979D01*
X106802064Y-89857294D01*
X106864811Y-89953343D01*
X106914077Y-90028820D01*
X106931362Y-90055333D01*
X107061200Y-90254599D01*
X107061200Y-91744133D01*
X107488767Y-91744138D01*
X107916333Y-91744144D01*
X107916333Y-91744133D01*
X109736666Y-91744133D01*
X110583333Y-91744133D01*
X113106242Y-91744133D01*
X115561733Y-91744133D01*
X115561733Y-91016000D01*
X113936133Y-91016000D01*
X113936133Y-90304800D01*
X115393101Y-90304800D01*
X115383933Y-89619000D01*
X113936133Y-89610170D01*
X113936133Y-88967067D01*
X115477066Y-88967067D01*
X115477066Y-88238703D01*
X114295966Y-88243051D01*
X113114866Y-88247400D01*
X113110554Y-89995767D01*
X113106242Y-91744133D01*
X110583333Y-91744133D01*
X110583333Y-90423333D01*
X110881727Y-90423333D01*
X111128222Y-90416970D01*
X111346104Y-90397306D01*
X111538257Y-90363480D01*
X111707568Y-90314629D01*
X111856921Y-90249892D01*
X111989203Y-90168407D01*
X112107298Y-90069313D01*
X112124719Y-90052120D01*
X112226239Y-89934734D01*
X112302274Y-89810636D01*
X112354825Y-89674414D01*
X112385895Y-89520656D01*
X112397485Y-89343950D01*
X112397667Y-89314411D01*
X112395914Y-89228476D01*
X112391297Y-89146078D01*
X112384596Y-89078585D01*
X112379356Y-89047482D01*
X112324426Y-88875278D01*
X112242229Y-88722755D01*
X112133387Y-88590382D01*
X111998521Y-88478627D01*
X111838253Y-88387957D01*
X111653204Y-88318841D01*
X111443995Y-88271747D01*
X111328400Y-88256380D01*
X111276178Y-88252702D01*
X111194703Y-88249286D01*
X111088589Y-88246223D01*
X110962448Y-88243603D01*
X110820895Y-88241517D01*
X110668542Y-88240053D01*
X110510003Y-88239304D01*
X110452100Y-88239227D01*
X109736666Y-88238933D01*
X109736666Y-91744133D01*
X107916333Y-91744133D01*
X107911743Y-91014024D01*
X107907152Y-90283905D01*
X108584843Y-89270508D01*
X108696000Y-89104164D01*
X108801480Y-88946077D01*
X108899794Y-88798492D01*
X108989454Y-88663656D01*
X109068971Y-88543814D01*
X109136857Y-88441212D01*
X109191624Y-88358094D01*
X109231783Y-88296707D01*
X109255846Y-88259296D01*
X109262533Y-88248023D01*
X109246302Y-88245708D01*
X109200416Y-88243610D01*
X109129086Y-88241807D01*
X109036524Y-88240379D01*
X108926941Y-88239401D01*
X108804550Y-88238953D01*
X108771857Y-88238933D01*
X108281181Y-88238933D01*
X108253292Y-88281497D01*
X108238890Y-88305210D01*
X108209586Y-88354882D01*
X108167355Y-88427113D01*
X108114176Y-88518501D01*
X108052026Y-88625647D01*
X107982883Y-88745150D01*
X107908725Y-88873609D01*
X107884601Y-88915457D01*
X107810079Y-89044210D01*
X107740451Y-89163418D01*
X107677587Y-89269961D01*
X107623358Y-89360718D01*
X107579632Y-89432569D01*
X107548280Y-89482394D01*
X107531172Y-89507071D01*
X107528841Y-89509201D01*
X107517481Y-89495518D01*
X107491078Y-89455438D01*
X107451437Y-89391947D01*
X107400364Y-89308027D01*
X107339664Y-89206661D01*
X107271142Y-89090832D01*
X107196603Y-88963524D01*
X107147775Y-88879475D01*
X106781668Y-88247400D01*
X106269501Y-88242918D01*
X106141706Y-88242097D01*
X106025559Y-88241922D01*
X105925180Y-88242355D01*
X105844691Y-88243354D01*
X105788214Y-88244882D01*
X105759871Y-88246898D01*
X105757333Y-88247809D01*
X105284186Y-88247809D01*
X105284185Y-88247400D01*
X102454348Y-88247400D01*
X102452624Y-88958600D01*
X101892673Y-88958600D01*
X101793415Y-88816077D01*
X101636206Y-88647416D01*
X101455045Y-88500788D01*
X101251295Y-88377498D01*
X101026317Y-88278853D01*
X100832353Y-88218658D01*
X100752082Y-88198914D01*
X100681499Y-88184503D01*
X100611588Y-88174335D01*
X100533331Y-88167322D01*
X100437711Y-88162375D01*
X100338667Y-88159057D01*
X100168482Y-88157064D01*
X100021630Y-88162619D01*
X99888183Y-88176903D01*
X99758210Y-88201096D01*
X99621783Y-88236378D01*
X99577192Y-88249580D01*
X99367686Y-88329212D01*
X99165297Y-88437185D01*
X98978274Y-88568517D01*
X98833822Y-88698573D01*
X98685875Y-88872747D01*
X98563815Y-89065658D01*
X98467909Y-89273893D01*
X98398425Y-89494040D01*
X98355629Y-89722686D01*
X98339789Y-89956419D01*
X97070533Y-89956419D01*
X97070533Y-88967067D01*
X98069600Y-88967067D01*
X98069600Y-88238740D01*
X96651433Y-88243070D01*
X95233267Y-88247400D01*
X93711685Y-88247400D01*
X93618753Y-88218658D01*
X93538482Y-88198914D01*
X93467899Y-88184503D01*
X93397988Y-88174335D01*
X93319731Y-88167322D01*
X93224111Y-88162375D01*
X93125067Y-88159057D01*
X92995337Y-88156368D01*
X92891020Y-88156962D01*
X92803791Y-88161189D01*
X92725323Y-88169398D01*
X92667867Y-88178267D01*
X92407501Y-88237763D01*
X92169665Y-88322263D01*
X91954565Y-88431619D01*
X91762407Y-88565681D01*
X91593399Y-88724301D01*
X91447747Y-88907331D01*
X91325659Y-89114622D01*
X91305564Y-89155847D01*
X91218449Y-89374041D01*
X91161047Y-89598980D01*
X91132510Y-89835171D01*
X91131780Y-90082764D01*
X90093975Y-90082764D01*
X90113762Y-90069559D01*
X90176497Y-90021818D01*
X90200918Y-90000383D01*
X90311899Y-89878574D01*
X90394415Y-89745937D01*
X90449983Y-89598693D01*
X90480122Y-89433064D01*
X90486957Y-89288800D01*
X90472557Y-89095596D01*
X90429965Y-88921098D01*
X90359338Y-88765482D01*
X90260831Y-88628926D01*
X90134602Y-88511608D01*
X89980808Y-88413707D01*
X89799606Y-88335398D01*
X89594466Y-88277590D01*
X89559662Y-88271249D01*
X89515176Y-88265810D01*
X89458060Y-88261168D01*
X89385364Y-88257220D01*
X89294138Y-88253859D01*
X89181433Y-88250982D01*
X89044300Y-88248484D01*
X88879788Y-88246261D01*
X88684948Y-88244207D01*
X88642123Y-88243808D01*
X87808313Y-88236175D01*
X87799533Y-91744135D01*
X83066667Y-91744135D01*
X83066667Y-91744133D01*
X84421333Y-91744133D01*
X85267602Y-91744133D01*
X85272034Y-91087967D01*
X85276467Y-90431800D01*
X85649000Y-90421348D01*
X85816670Y-90415146D01*
X85956693Y-90406298D01*
X86075241Y-90393991D01*
X86178485Y-90377414D01*
X86272595Y-90355755D01*
X86363743Y-90328203D01*
X86368075Y-90326743D01*
X86538464Y-90253975D01*
X86691830Y-90158162D01*
X86824687Y-90042625D01*
X86933546Y-89910688D01*
X87014920Y-89765674D01*
X87047342Y-89679488D01*
X87066687Y-89598909D01*
X87082173Y-89498238D01*
X87091694Y-89391207D01*
X87091755Y-89390095D01*
X87089044Y-89188326D01*
X87058150Y-89004601D01*
X86999364Y-88839447D01*
X86912971Y-88693390D01*
X86799261Y-88566955D01*
X86658520Y-88460670D01*
X86551178Y-88401917D01*
X86477848Y-88368177D01*
X86407285Y-88339393D01*
X86336133Y-88315180D01*
X86261036Y-88295151D01*
X86178637Y-88278920D01*
X86085580Y-88266101D01*
X85978508Y-88256308D01*
X85854065Y-88249155D01*
X85708894Y-88244256D01*
X85539639Y-88241225D01*
X85342943Y-88239675D01*
X85136766Y-88239227D01*
X84421333Y-88238933D01*
X84421333Y-91744133D01*
X83066667Y-91744133D01*
X83066667Y-86782667D01*
X116933333Y-86782667D01*
X116933333Y-93217333D01*
G36*
X93185214Y-88924430D02*
X93281426Y-88939675D01*
X93440100Y-88992505D01*
X93589413Y-89072237D01*
X93723450Y-89174427D01*
X93836300Y-89294631D01*
X93915841Y-89416394D01*
X93983378Y-89576918D01*
X94027639Y-89754110D01*
X94047726Y-89939217D01*
X94042741Y-90123487D01*
X94011784Y-90298167D01*
X94007866Y-90312503D01*
X93941958Y-90491756D01*
X93851848Y-90650589D01*
X93739505Y-90786848D01*
X93606897Y-90898378D01*
X93455990Y-90983026D01*
X93363355Y-91018161D01*
X93258874Y-91042404D01*
X93135419Y-91056966D01*
X93006493Y-91061262D01*
X92885602Y-91054706D01*
X92808002Y-91042240D01*
X92651849Y-90990163D01*
X92504283Y-90909040D01*
X92371223Y-90803562D01*
X92258593Y-90678426D01*
X92172313Y-90538324D01*
X92172310Y-90538319D01*
X92123660Y-90431306D01*
X92089406Y-90335666D01*
X92067353Y-90241037D01*
X92055303Y-90137060D01*
X92051061Y-90013372D01*
X92051001Y-89966133D01*
X92052155Y-89868253D01*
X92055405Y-89794862D01*
X92061979Y-89736594D01*
X92073106Y-89684084D01*
X92090015Y-89627966D01*
X92098734Y-89602229D01*
X92175440Y-89426102D01*
X92275423Y-89273360D01*
X92397505Y-89145238D01*
X92540507Y-89042968D01*
X92703250Y-88967784D01*
X92706427Y-88966660D01*
X92809041Y-88940380D01*
X92931491Y-88924185D01*
X93061107Y-88918670D01*
X93185214Y-88924430D01*
X93185214Y-88924430D01*
G37*
X93185214Y-88924430D02*
X93281426Y-88939675D01*
X93440100Y-88992505D01*
X93589413Y-89072237D01*
X93723450Y-89174427D01*
X93836300Y-89294631D01*
X93915841Y-89416394D01*
X93983378Y-89576918D01*
X94027639Y-89754110D01*
X94047726Y-89939217D01*
X94042741Y-90123487D01*
X94011784Y-90298167D01*
X94007866Y-90312503D01*
X93941958Y-90491756D01*
X93851848Y-90650589D01*
X93739505Y-90786848D01*
X93606897Y-90898378D01*
X93455990Y-90983026D01*
X93363355Y-91018161D01*
X93258874Y-91042404D01*
X93135419Y-91056966D01*
X93006493Y-91061262D01*
X92885602Y-91054706D01*
X92808002Y-91042240D01*
X92651849Y-90990163D01*
X92504283Y-90909040D01*
X92371223Y-90803562D01*
X92258593Y-90678426D01*
X92172313Y-90538324D01*
X92172310Y-90538319D01*
X92123660Y-90431306D01*
X92089406Y-90335666D01*
X92067353Y-90241037D01*
X92055303Y-90137060D01*
X92051061Y-90013372D01*
X92051001Y-89966133D01*
X92052155Y-89868253D01*
X92055405Y-89794862D01*
X92061979Y-89736594D01*
X92073106Y-89684084D01*
X92090015Y-89627966D01*
X92098734Y-89602229D01*
X92175440Y-89426102D01*
X92275423Y-89273360D01*
X92397505Y-89145238D01*
X92540507Y-89042968D01*
X92703250Y-88967784D01*
X92706427Y-88966660D01*
X92809041Y-88940380D01*
X92931491Y-88924185D01*
X93061107Y-88918670D01*
X93185214Y-88924430D01*
G36*
X100443490Y-88930184D02*
X100610633Y-88972694D01*
X100763597Y-89044930D01*
X100905206Y-89148026D01*
X100958021Y-89196897D01*
X101069273Y-89327971D01*
X101158862Y-89478400D01*
X101221737Y-89639048D01*
X101238178Y-89703667D01*
X101251042Y-89793694D01*
X101257405Y-89904971D01*
X101257429Y-90025541D01*
X101251277Y-90143450D01*
X101239111Y-90246741D01*
X101230195Y-90291826D01*
X101172475Y-90464006D01*
X101086577Y-90622614D01*
X100975798Y-90763394D01*
X100843437Y-90882093D01*
X100705960Y-90967873D01*
X100599615Y-91009963D01*
X100472290Y-91041299D01*
X100335622Y-91060246D01*
X100201247Y-91065171D01*
X100084667Y-91055101D01*
X100010176Y-91037271D01*
X99920874Y-91008004D01*
X99831498Y-90972409D01*
X99788333Y-90952328D01*
X99651068Y-90865694D01*
X99531337Y-90752675D01*
X99430938Y-90616874D01*
X99351669Y-90461895D01*
X99295327Y-90291340D01*
X99263712Y-90108814D01*
X99258621Y-89917920D01*
X99259954Y-89893421D01*
X99283922Y-89707150D01*
X99331937Y-89541983D01*
X99405985Y-89393327D01*
X99508052Y-89256589D01*
X99558689Y-89202675D01*
X99692837Y-89086847D01*
X99834876Y-89002255D01*
X99988960Y-88947200D01*
X100159245Y-88919985D01*
X100259347Y-88916266D01*
X100443490Y-88930184D01*
X100443490Y-88930184D01*
G37*
X100443490Y-88930184D02*
X100610633Y-88972694D01*
X100763597Y-89044930D01*
X100905206Y-89148026D01*
X100958021Y-89196897D01*
X101069273Y-89327971D01*
X101158862Y-89478400D01*
X101221737Y-89639048D01*
X101238178Y-89703667D01*
X101251042Y-89793694D01*
X101257405Y-89904971D01*
X101257429Y-90025541D01*
X101251277Y-90143450D01*
X101239111Y-90246741D01*
X101230195Y-90291826D01*
X101172475Y-90464006D01*
X101086577Y-90622614D01*
X100975798Y-90763394D01*
X100843437Y-90882093D01*
X100705960Y-90967873D01*
X100599615Y-91009963D01*
X100472290Y-91041299D01*
X100335622Y-91060246D01*
X100201247Y-91065171D01*
X100084667Y-91055101D01*
X100010176Y-91037271D01*
X99920874Y-91008004D01*
X99831498Y-90972409D01*
X99788333Y-90952328D01*
X99651068Y-90865694D01*
X99531337Y-90752675D01*
X99430938Y-90616874D01*
X99351669Y-90461895D01*
X99295327Y-90291340D01*
X99263712Y-90108814D01*
X99258621Y-89917920D01*
X99259954Y-89893421D01*
X99283922Y-89707150D01*
X99331937Y-89541983D01*
X99405985Y-89393327D01*
X99508052Y-89256589D01*
X99558689Y-89202675D01*
X99692837Y-89086847D01*
X99834876Y-89002255D01*
X99988960Y-88947200D01*
X100159245Y-88919985D01*
X100259347Y-88916266D01*
X100443490Y-88930184D01*
G36*
X85593967Y-88937109D02*
X85729524Y-88941044D01*
X85836386Y-88947083D01*
X85919713Y-88956379D01*
X85984663Y-88970086D01*
X86036395Y-88989357D01*
X86080067Y-89015346D01*
X86120839Y-89049206D01*
X86128748Y-89056687D01*
X86187444Y-89123107D01*
X86222673Y-89192195D01*
X86241705Y-89274687D01*
X86242247Y-89383350D01*
X86212810Y-89485661D01*
X86156005Y-89574216D01*
X86125299Y-89604925D01*
X86074115Y-89646585D01*
X86023838Y-89678483D01*
X85968727Y-89702055D01*
X85903043Y-89718735D01*
X85821043Y-89729958D01*
X85716988Y-89737160D01*
X85585137Y-89741776D01*
X85577033Y-89741982D01*
X85268000Y-89749713D01*
X85268000Y-88930083D01*
X85593967Y-88937109D01*
X85593967Y-88937109D01*
G37*
X85593967Y-88937109D02*
X85729524Y-88941044D01*
X85836386Y-88947083D01*
X85919713Y-88956379D01*
X85984663Y-88970086D01*
X86036395Y-88989357D01*
X86080067Y-89015346D01*
X86120839Y-89049206D01*
X86128748Y-89056687D01*
X86187444Y-89123107D01*
X86222673Y-89192195D01*
X86241705Y-89274687D01*
X86242247Y-89383350D01*
X86212810Y-89485661D01*
X86156005Y-89574216D01*
X86125299Y-89604925D01*
X86074115Y-89646585D01*
X86023838Y-89678483D01*
X85968727Y-89702055D01*
X85903043Y-89718735D01*
X85821043Y-89729958D01*
X85716988Y-89737160D01*
X85585137Y-89741776D01*
X85577033Y-89741982D01*
X85268000Y-89749713D01*
X85268000Y-88930083D01*
X85593967Y-88937109D01*
G36*
X89096171Y-88935015D02*
X89214335Y-88941069D01*
X89309170Y-88952275D01*
X89385862Y-88969546D01*
X89449599Y-88993795D01*
X89505568Y-89025935D01*
X89515519Y-89032844D01*
X89584838Y-89102182D01*
X89628686Y-89191464D01*
X89645884Y-89297037D01*
X89636626Y-89408249D01*
X89606179Y-89502629D01*
X89552508Y-89579248D01*
X89472901Y-89640562D01*
X89364646Y-89689026D01*
X89306600Y-89707091D01*
X89263907Y-89715171D01*
X89198766Y-89722841D01*
X89117684Y-89729806D01*
X89027169Y-89735773D01*
X88933730Y-89740447D01*
X88843874Y-89743534D01*
X88764111Y-89744741D01*
X88700948Y-89743772D01*
X88660893Y-89740333D01*
X88650433Y-89736746D01*
X88646833Y-89716699D01*
X88643629Y-89667693D01*
X88640973Y-89594633D01*
X88639020Y-89502427D01*
X88637920Y-89395981D01*
X88637733Y-89328311D01*
X88637733Y-88933200D01*
X88949491Y-88933200D01*
X89096171Y-88935015D01*
X89096171Y-88935015D01*
G37*
X89096171Y-88935015D02*
X89214335Y-88941069D01*
X89309170Y-88952275D01*
X89385862Y-88969546D01*
X89449599Y-88993795D01*
X89505568Y-89025935D01*
X89515519Y-89032844D01*
X89584838Y-89102182D01*
X89628686Y-89191464D01*
X89645884Y-89297037D01*
X89636626Y-89408249D01*
X89606179Y-89502629D01*
X89552508Y-89579248D01*
X89472901Y-89640562D01*
X89364646Y-89689026D01*
X89306600Y-89707091D01*
X89263907Y-89715171D01*
X89198766Y-89722841D01*
X89117684Y-89729806D01*
X89027169Y-89735773D01*
X88933730Y-89740447D01*
X88843874Y-89743534D01*
X88764111Y-89744741D01*
X88700948Y-89743772D01*
X88660893Y-89740333D01*
X88650433Y-89736746D01*
X88646833Y-89716699D01*
X88643629Y-89667693D01*
X88640973Y-89594633D01*
X88639020Y-89502427D01*
X88637920Y-89395981D01*
X88637733Y-89328311D01*
X88637733Y-88933200D01*
X88949491Y-88933200D01*
X89096171Y-88935015D01*
G36*
X110909300Y-88935875D02*
X111022191Y-88938014D01*
X111107076Y-88940371D01*
X111169813Y-88943723D01*
X111216257Y-88948845D01*
X111252266Y-88956515D01*
X111283696Y-88967509D01*
X111316403Y-88982603D01*
X111336131Y-88992467D01*
X111426873Y-89047137D01*
X111488511Y-89107986D01*
X111525806Y-89181760D01*
X111543515Y-89275206D01*
X111544539Y-89287906D01*
X111541946Y-89407973D01*
X111514100Y-89506846D01*
X111459157Y-89587412D01*
X111375271Y-89652557D01*
X111283221Y-89696639D01*
X111242873Y-89711084D01*
X111201891Y-89721784D01*
X111153821Y-89729478D01*
X111092206Y-89734905D01*
X111010591Y-89738805D01*
X110902520Y-89741915D01*
X110883900Y-89742353D01*
X110583333Y-89749289D01*
X110583333Y-88930083D01*
X110909300Y-88935875D01*
X110909300Y-88935875D01*
G37*
X110909300Y-88935875D02*
X111022191Y-88938014D01*
X111107076Y-88940371D01*
X111169813Y-88943723D01*
X111216257Y-88948845D01*
X111252266Y-88956515D01*
X111283696Y-88967509D01*
X111316403Y-88982603D01*
X111336131Y-88992467D01*
X111426873Y-89047137D01*
X111488511Y-89107986D01*
X111525806Y-89181760D01*
X111543515Y-89275206D01*
X111544539Y-89287906D01*
X111541946Y-89407973D01*
X111514100Y-89506846D01*
X111459157Y-89587412D01*
X111375271Y-89652557D01*
X111283221Y-89696639D01*
X111242873Y-89711084D01*
X111201891Y-89721784D01*
X111153821Y-89729478D01*
X111092206Y-89734905D01*
X111010591Y-89738805D01*
X110902520Y-89741915D01*
X110883900Y-89742353D01*
X110583333Y-89749289D01*
X110583333Y-88930083D01*
X110909300Y-88935875D01*
D12*
X91083334Y-112557143D02*
X91035715Y-112604762D01*
X90892858Y-112652381D01*
X90797620Y-112652381D01*
X90654762Y-112604762D01*
X90559524Y-112509524D01*
X90511905Y-112414286D01*
X90464286Y-112223810D01*
X90464286Y-112080952D01*
X90511905Y-111890476D01*
X90559524Y-111795238D01*
X90654762Y-111700000D01*
X90797620Y-111652381D01*
X90892858Y-111652381D01*
X91035715Y-111700000D01*
X91083334Y-111747619D01*
X91416667Y-111652381D02*
X92035715Y-111652381D01*
X91702381Y-112033333D01*
X91845239Y-112033333D01*
X91940477Y-112080952D01*
X91988096Y-112128571D01*
X92035715Y-112223810D01*
X92035715Y-112461905D01*
X91988096Y-112557143D01*
X91940477Y-112604762D01*
X91845239Y-112652381D01*
X91559524Y-112652381D01*
X91464286Y-112604762D01*
X91416667Y-112557143D01*
X92276667Y-81202381D02*
X92276667Y-81916667D01*
X92229047Y-82059524D01*
X92133809Y-82154762D01*
X91990952Y-82202381D01*
X91895714Y-82202381D01*
X93276667Y-82202381D02*
X92705238Y-82202381D01*
X92990952Y-82202381D02*
X92990952Y-81202381D01*
X92895714Y-81345238D01*
X92800476Y-81440476D01*
X92705238Y-81488095D01*
X99314095Y-112672762D02*
X99456952Y-112720381D01*
X99695048Y-112720381D01*
X99790286Y-112672762D01*
X99837905Y-112625143D01*
X99885524Y-112529905D01*
X99885524Y-112434667D01*
X99837905Y-112339429D01*
X99790286Y-112291810D01*
X99695048Y-112244190D01*
X99504571Y-112196571D01*
X99409333Y-112148952D01*
X99361714Y-112101333D01*
X99314095Y-112006095D01*
X99314095Y-111910857D01*
X99361714Y-111815619D01*
X99409333Y-111768000D01*
X99504571Y-111720381D01*
X99742667Y-111720381D01*
X99885524Y-111768000D01*
X100837905Y-112720381D02*
X100266476Y-112720381D01*
X100552190Y-112720381D02*
X100552190Y-111720381D01*
X100456952Y-111863238D01*
X100361714Y-111958476D01*
X100266476Y-112006095D01*
M02*
