G04 #@! TF.FileFunction,Legend,Bot*
%FSLAX46Y46*%
G04 Gerber Fmt 4.6, Leading zero omitted, Abs format (unit mm)*
G04 Created by KiCad (PCBNEW 4.0.7) date Thursday, April 26, 2018 'PMt' 01:22:00 PM*
%MOMM*%
%LPD*%
G01*
G04 APERTURE LIST*
%ADD10C,0.100000*%
%ADD11C,0.150000*%
G04 APERTURE END LIST*
D10*
D11*
X97500000Y-78850000D02*
X96500000Y-78850000D01*
X96500000Y-77150000D02*
X97500000Y-77150000D01*
X103500000Y-78850000D02*
X102500000Y-78850000D01*
X102500000Y-77150000D02*
X103500000Y-77150000D01*
X122460000Y-94070000D02*
X122460000Y-95070000D01*
X120760000Y-95070000D02*
X120760000Y-94070000D01*
X122460000Y-84560000D02*
X122460000Y-85560000D01*
X120760000Y-85560000D02*
X120760000Y-84560000D01*
X107225000Y-75650000D02*
X107225000Y-74450000D01*
X105475000Y-74450000D02*
X105475000Y-75650000D01*
X80650000Y-112625000D02*
X79450000Y-112625000D01*
X79450000Y-114375000D02*
X80650000Y-114375000D01*
X80650000Y-85765000D02*
X79450000Y-85765000D01*
X79450000Y-87515000D02*
X80650000Y-87515000D01*
X119310000Y-114195000D02*
X120510000Y-114195000D01*
X120510000Y-112445000D02*
X119310000Y-112445000D01*
X80650000Y-105155000D02*
X79450000Y-105155000D01*
X79450000Y-106905000D02*
X80650000Y-106905000D01*
X84485000Y-95860000D02*
X84485000Y-94660000D01*
X82735000Y-94660000D02*
X82735000Y-95860000D01*
X96125000Y-97950000D02*
X96125000Y-97700000D01*
X103875000Y-97950000D02*
X103875000Y-97605000D01*
X103875000Y-86050000D02*
X103875000Y-86395000D01*
X96125000Y-86050000D02*
X96125000Y-86395000D01*
X96125000Y-97950000D02*
X103875000Y-97950000D01*
X96125000Y-86050000D02*
X103875000Y-86050000D01*
X96125000Y-97700000D02*
X94300000Y-97700000D01*
X100785714Y-110828571D02*
X100642857Y-110876190D01*
X100595238Y-110923810D01*
X100547619Y-111019048D01*
X100547619Y-111161905D01*
X100595238Y-111257143D01*
X100642857Y-111304762D01*
X100738095Y-111352381D01*
X101119048Y-111352381D01*
X101119048Y-110352381D01*
X100785714Y-110352381D01*
X100690476Y-110400000D01*
X100642857Y-110447619D01*
X100595238Y-110542857D01*
X100595238Y-110638095D01*
X100642857Y-110733333D01*
X100690476Y-110780952D01*
X100785714Y-110828571D01*
X101119048Y-110828571D01*
X100261905Y-110352381D02*
X99690476Y-110352381D01*
X99976191Y-111352381D02*
X99976191Y-110352381D01*
X98833333Y-111352381D02*
X99404762Y-111352381D01*
X99119048Y-111352381D02*
X99119048Y-110352381D01*
X99214286Y-110495238D01*
X99309524Y-110590476D01*
X99404762Y-110638095D01*
X97156666Y-76747143D02*
X97204285Y-76794762D01*
X97347142Y-76842381D01*
X97442380Y-76842381D01*
X97585238Y-76794762D01*
X97680476Y-76699524D01*
X97728095Y-76604286D01*
X97775714Y-76413810D01*
X97775714Y-76270952D01*
X97728095Y-76080476D01*
X97680476Y-75985238D01*
X97585238Y-75890000D01*
X97442380Y-75842381D01*
X97347142Y-75842381D01*
X97204285Y-75890000D01*
X97156666Y-75937619D01*
X96204285Y-76842381D02*
X96775714Y-76842381D01*
X96490000Y-76842381D02*
X96490000Y-75842381D01*
X96585238Y-75985238D01*
X96680476Y-76080476D01*
X96775714Y-76128095D01*
X103166666Y-76747143D02*
X103214285Y-76794762D01*
X103357142Y-76842381D01*
X103452380Y-76842381D01*
X103595238Y-76794762D01*
X103690476Y-76699524D01*
X103738095Y-76604286D01*
X103785714Y-76413810D01*
X103785714Y-76270952D01*
X103738095Y-76080476D01*
X103690476Y-75985238D01*
X103595238Y-75890000D01*
X103452380Y-75842381D01*
X103357142Y-75842381D01*
X103214285Y-75890000D01*
X103166666Y-75937619D01*
X102785714Y-75937619D02*
X102738095Y-75890000D01*
X102642857Y-75842381D01*
X102404761Y-75842381D01*
X102309523Y-75890000D01*
X102261904Y-75937619D01*
X102214285Y-76032857D01*
X102214285Y-76128095D01*
X102261904Y-76270952D01*
X102833333Y-76842381D01*
X102214285Y-76842381D01*
X123876666Y-94927143D02*
X123924285Y-94974762D01*
X124067142Y-95022381D01*
X124162380Y-95022381D01*
X124305238Y-94974762D01*
X124400476Y-94879524D01*
X124448095Y-94784286D01*
X124495714Y-94593810D01*
X124495714Y-94450952D01*
X124448095Y-94260476D01*
X124400476Y-94165238D01*
X124305238Y-94070000D01*
X124162380Y-94022381D01*
X124067142Y-94022381D01*
X123924285Y-94070000D01*
X123876666Y-94117619D01*
X123019523Y-94355714D02*
X123019523Y-95022381D01*
X123257619Y-93974762D02*
X123495714Y-94689048D01*
X122876666Y-94689048D01*
X123876666Y-85417143D02*
X123924285Y-85464762D01*
X124067142Y-85512381D01*
X124162380Y-85512381D01*
X124305238Y-85464762D01*
X124400476Y-85369524D01*
X124448095Y-85274286D01*
X124495714Y-85083810D01*
X124495714Y-84940952D01*
X124448095Y-84750476D01*
X124400476Y-84655238D01*
X124305238Y-84560000D01*
X124162380Y-84512381D01*
X124067142Y-84512381D01*
X123924285Y-84560000D01*
X123876666Y-84607619D01*
X122971904Y-84512381D02*
X123448095Y-84512381D01*
X123495714Y-84988571D01*
X123448095Y-84940952D01*
X123352857Y-84893333D01*
X123114761Y-84893333D01*
X123019523Y-84940952D01*
X122971904Y-84988571D01*
X122924285Y-85083810D01*
X122924285Y-85321905D01*
X122971904Y-85417143D01*
X123019523Y-85464762D01*
X123114761Y-85512381D01*
X123352857Y-85512381D01*
X123448095Y-85464762D01*
X123495714Y-85417143D01*
X104416666Y-75502381D02*
X104750000Y-75026190D01*
X104988095Y-75502381D02*
X104988095Y-74502381D01*
X104607142Y-74502381D01*
X104511904Y-74550000D01*
X104464285Y-74597619D01*
X104416666Y-74692857D01*
X104416666Y-74835714D01*
X104464285Y-74930952D01*
X104511904Y-74978571D01*
X104607142Y-75026190D01*
X104988095Y-75026190D01*
X103464285Y-75502381D02*
X104035714Y-75502381D01*
X103750000Y-75502381D02*
X103750000Y-74502381D01*
X103845238Y-74645238D01*
X103940476Y-74740476D01*
X104035714Y-74788095D01*
X80216666Y-116052381D02*
X80550000Y-115576190D01*
X80788095Y-116052381D02*
X80788095Y-115052381D01*
X80407142Y-115052381D01*
X80311904Y-115100000D01*
X80264285Y-115147619D01*
X80216666Y-115242857D01*
X80216666Y-115385714D01*
X80264285Y-115480952D01*
X80311904Y-115528571D01*
X80407142Y-115576190D01*
X80788095Y-115576190D01*
X79835714Y-115147619D02*
X79788095Y-115100000D01*
X79692857Y-115052381D01*
X79454761Y-115052381D01*
X79359523Y-115100000D01*
X79311904Y-115147619D01*
X79264285Y-115242857D01*
X79264285Y-115338095D01*
X79311904Y-115480952D01*
X79883333Y-116052381D01*
X79264285Y-116052381D01*
X80216666Y-89192381D02*
X80550000Y-88716190D01*
X80788095Y-89192381D02*
X80788095Y-88192381D01*
X80407142Y-88192381D01*
X80311904Y-88240000D01*
X80264285Y-88287619D01*
X80216666Y-88382857D01*
X80216666Y-88525714D01*
X80264285Y-88620952D01*
X80311904Y-88668571D01*
X80407142Y-88716190D01*
X80788095Y-88716190D01*
X79883333Y-88192381D02*
X79264285Y-88192381D01*
X79597619Y-88573333D01*
X79454761Y-88573333D01*
X79359523Y-88620952D01*
X79311904Y-88668571D01*
X79264285Y-88763810D01*
X79264285Y-89001905D01*
X79311904Y-89097143D01*
X79359523Y-89144762D01*
X79454761Y-89192381D01*
X79740476Y-89192381D01*
X79835714Y-89144762D01*
X79883333Y-89097143D01*
X120076666Y-115768381D02*
X120410000Y-115292190D01*
X120648095Y-115768381D02*
X120648095Y-114768381D01*
X120267142Y-114768381D01*
X120171904Y-114816000D01*
X120124285Y-114863619D01*
X120076666Y-114958857D01*
X120076666Y-115101714D01*
X120124285Y-115196952D01*
X120171904Y-115244571D01*
X120267142Y-115292190D01*
X120648095Y-115292190D01*
X119219523Y-115101714D02*
X119219523Y-115768381D01*
X119457619Y-114720762D02*
X119695714Y-115435048D01*
X119076666Y-115435048D01*
X80216666Y-108582381D02*
X80550000Y-108106190D01*
X80788095Y-108582381D02*
X80788095Y-107582381D01*
X80407142Y-107582381D01*
X80311904Y-107630000D01*
X80264285Y-107677619D01*
X80216666Y-107772857D01*
X80216666Y-107915714D01*
X80264285Y-108010952D01*
X80311904Y-108058571D01*
X80407142Y-108106190D01*
X80788095Y-108106190D01*
X79883333Y-107582381D02*
X79216666Y-107582381D01*
X79645238Y-108582381D01*
X81676666Y-95712381D02*
X82010000Y-95236190D01*
X82248095Y-95712381D02*
X82248095Y-94712381D01*
X81867142Y-94712381D01*
X81771904Y-94760000D01*
X81724285Y-94807619D01*
X81676666Y-94902857D01*
X81676666Y-95045714D01*
X81724285Y-95140952D01*
X81771904Y-95188571D01*
X81867142Y-95236190D01*
X82248095Y-95236190D01*
X81105238Y-95140952D02*
X81200476Y-95093333D01*
X81248095Y-95045714D01*
X81295714Y-94950476D01*
X81295714Y-94902857D01*
X81248095Y-94807619D01*
X81200476Y-94760000D01*
X81105238Y-94712381D01*
X80914761Y-94712381D01*
X80819523Y-94760000D01*
X80771904Y-94807619D01*
X80724285Y-94902857D01*
X80724285Y-94950476D01*
X80771904Y-95045714D01*
X80819523Y-95093333D01*
X80914761Y-95140952D01*
X81105238Y-95140952D01*
X81200476Y-95188571D01*
X81248095Y-95236190D01*
X81295714Y-95331429D01*
X81295714Y-95521905D01*
X81248095Y-95617143D01*
X81200476Y-95664762D01*
X81105238Y-95712381D01*
X80914761Y-95712381D01*
X80819523Y-95664762D01*
X80771904Y-95617143D01*
X80724285Y-95521905D01*
X80724285Y-95331429D01*
X80771904Y-95236190D01*
X80819523Y-95188571D01*
X80914761Y-95140952D01*
X100761905Y-98327381D02*
X100761905Y-99136905D01*
X100714286Y-99232143D01*
X100666667Y-99279762D01*
X100571429Y-99327381D01*
X100380952Y-99327381D01*
X100285714Y-99279762D01*
X100238095Y-99232143D01*
X100190476Y-99136905D01*
X100190476Y-98327381D01*
X99190476Y-99327381D02*
X99761905Y-99327381D01*
X99476191Y-99327381D02*
X99476191Y-98327381D01*
X99571429Y-98470238D01*
X99666667Y-98565476D01*
X99761905Y-98613095D01*
X117476191Y-90976190D02*
X117476191Y-91452381D01*
X117809524Y-90452381D02*
X117476191Y-90976190D01*
X117142857Y-90452381D01*
X116285714Y-91452381D02*
X116857143Y-91452381D01*
X116571429Y-91452381D02*
X116571429Y-90452381D01*
X116666667Y-90595238D01*
X116761905Y-90690476D01*
X116857143Y-90738095D01*
M02*
