G04 #@! TF.FileFunction,Copper,L1,Top,Signal*
%FSLAX46Y46*%
G04 Gerber Fmt 4.6, Leading zero omitted, Abs format (unit mm)*
G04 Created by KiCad (PCBNEW 4.0.6+dfsg1-1) date Wed May  9 15:43:23 2018*
%MOMM*%
%LPD*%
G01*
G04 APERTURE LIST*
%ADD10C,0.100000*%
%ADD11R,1.600000X2.000000*%
%ADD12R,1.300000X1.500000*%
%ADD13R,2.000000X1.700000*%
%ADD14C,1.400000*%
%ADD15R,1.700000X1.700000*%
%ADD16O,1.700000X1.700000*%
%ADD17R,2.000000X1.350000*%
%ADD18R,0.700000X1.825000*%
%ADD19R,1.500000X2.000000*%
%ADD20R,1.650000X0.400000*%
%ADD21O,1.500000X1.100000*%
%ADD22O,1.700000X1.350000*%
%ADD23R,2.500000X1.430000*%
%ADD24C,2.000000*%
%ADD25C,2.000000*%
%ADD26C,0.400000*%
%ADD27C,0.500000*%
%ADD28C,0.250000*%
%ADD29C,1.000000*%
%ADD30C,0.254000*%
G04 APERTURE END LIST*
D10*
D11*
X148844000Y-107220000D03*
X148844000Y-111220000D03*
X153162000Y-107188000D03*
X153162000Y-111188000D03*
X157734000Y-107188000D03*
X157734000Y-111188000D03*
D12*
X144526000Y-109888000D03*
X144526000Y-107188000D03*
D13*
X140398000Y-107315000D03*
X136398000Y-107315000D03*
X140398000Y-111379000D03*
X136398000Y-111379000D03*
D12*
X144526000Y-113411000D03*
X144526000Y-116111000D03*
D14*
X136652000Y-102743000D03*
X139192000Y-102743000D03*
D15*
X136652000Y-98044000D03*
D16*
X139192000Y-98044000D03*
D15*
X145796000Y-98044000D03*
D16*
X148336000Y-98044000D03*
X150876000Y-98044000D03*
X153416000Y-98044000D03*
X155956000Y-98044000D03*
X158496000Y-98044000D03*
D15*
X175666400Y-114199000D03*
D16*
X175666400Y-111659000D03*
X175666400Y-109119000D03*
X175666400Y-106579000D03*
X175666400Y-104039000D03*
D17*
X130772000Y-111088000D03*
X130772000Y-105608000D03*
D18*
X131522000Y-105388000D03*
X131522000Y-111338000D03*
D19*
X132822000Y-105488000D03*
X132842000Y-111238000D03*
D20*
X132722000Y-107038000D03*
X132722000Y-107688000D03*
X132722000Y-108338000D03*
X132722000Y-108988000D03*
X132722000Y-109638000D03*
D21*
X132842000Y-105918000D03*
X132842000Y-110758000D03*
D22*
X129842000Y-105608000D03*
X129842000Y-111068000D03*
D23*
X129572000Y-107378000D03*
X129572000Y-109298000D03*
D24*
X171323000Y-109093000D03*
X157734000Y-116459000D03*
X138303000Y-114173000D03*
X139192000Y-100203000D03*
X139192000Y-100203000D03*
D25*
X157734000Y-107188000D02*
X153162000Y-107188000D01*
X160909000Y-107188000D02*
X157734000Y-107188000D01*
X160909000Y-110998000D02*
X160909000Y-107188000D01*
X163957000Y-114046000D02*
X160909000Y-110998000D01*
X168910000Y-114046000D02*
X163957000Y-114046000D01*
X171297600Y-111658400D02*
X168910000Y-114046000D01*
X175666400Y-111658400D02*
X171297600Y-111658400D01*
X148844000Y-107220000D02*
X153130000Y-107220000D01*
X153130000Y-107220000D02*
X153162000Y-107188000D01*
X148336000Y-98044000D02*
X148336000Y-106712000D01*
X148336000Y-106712000D02*
X148844000Y-107220000D01*
X144526000Y-107188000D02*
X148812000Y-107188000D01*
X148812000Y-107188000D02*
X148844000Y-107220000D01*
X140398000Y-107315000D02*
X144399000Y-107315000D01*
X144399000Y-107315000D02*
X144526000Y-107188000D01*
X140398000Y-107315000D02*
X136652000Y-103569000D01*
X136652000Y-103569000D02*
X136652000Y-102743000D01*
X136652000Y-98044000D02*
X136652000Y-102743000D01*
X140398000Y-107315000D02*
X140398000Y-111379000D01*
D26*
X134047000Y-109638000D02*
X132722000Y-109638000D01*
D25*
X175666400Y-109118400D02*
X171348400Y-109118400D01*
X171348400Y-109118400D02*
X171323000Y-109093000D01*
D27*
X134493000Y-113601500D02*
X135064500Y-114173000D01*
X135064500Y-114173000D02*
X138303000Y-114173000D01*
X134493000Y-110084000D02*
X134493000Y-113601500D01*
X134047000Y-109638000D02*
X134493000Y-110084000D01*
D25*
X157734000Y-111188000D02*
X157734000Y-116459000D01*
X153162000Y-111188000D02*
X157734000Y-111188000D01*
X148844000Y-111220000D02*
X153130000Y-111220000D01*
X153130000Y-111220000D02*
X153162000Y-111188000D01*
X144526000Y-116111000D02*
X147176000Y-116111000D01*
X147176000Y-116111000D02*
X148844000Y-114443000D01*
X148844000Y-114443000D02*
X148844000Y-114220000D01*
X148844000Y-114220000D02*
X148844000Y-111220000D01*
X144526000Y-116111000D02*
X140241000Y-116111000D01*
X140241000Y-116111000D02*
X138303000Y-114173000D01*
X138301000Y-114171000D02*
X138303000Y-114173000D01*
X139192000Y-102743000D02*
X139192000Y-100203000D01*
X139192000Y-98044000D02*
X139192000Y-100203000D01*
D28*
X144526000Y-109888000D02*
X144526000Y-113411000D01*
D26*
X132722000Y-107038000D02*
X136121000Y-107038000D01*
X136121000Y-107038000D02*
X136398000Y-107315000D01*
D29*
X136144000Y-107061000D02*
X136398000Y-107315000D01*
D25*
X136398000Y-107315000D02*
X136398000Y-111379000D01*
D28*
X145796000Y-98044000D02*
X145796000Y-96520000D01*
X145796000Y-96520000D02*
X146304000Y-96012000D01*
X146304000Y-96012000D02*
X162814000Y-96012000D01*
X162814000Y-96012000D02*
X164465000Y-97663000D01*
X178155600Y-114198400D02*
X175666400Y-114198400D01*
X164465000Y-97663000D02*
X176022000Y-97663000D01*
X176022000Y-97663000D02*
X178308000Y-99949000D01*
X178308000Y-114046000D02*
X178155600Y-114198400D01*
X178308000Y-99949000D02*
X178308000Y-114046000D01*
X153416000Y-98044000D02*
X153416000Y-101092000D01*
X173634400Y-106578400D02*
X175666400Y-106578400D01*
X153416000Y-101092000D02*
X156845000Y-104521000D01*
X156845000Y-104521000D02*
X171577000Y-104521000D01*
X171577000Y-104521000D02*
X173634400Y-106578400D01*
X155956000Y-98044000D02*
X155956000Y-99246081D01*
X155956000Y-99246081D02*
X157293919Y-100584000D01*
X157293919Y-100584000D02*
X173736000Y-100584000D01*
X173736000Y-100584000D02*
X175666400Y-102514400D01*
X175666400Y-102514400D02*
X175666400Y-104038400D01*
X132842000Y-110758000D02*
X130152000Y-110758000D01*
X130152000Y-110758000D02*
X129842000Y-111068000D01*
X132842000Y-105918000D02*
X130152000Y-105918000D01*
X130152000Y-105918000D02*
X129842000Y-105608000D01*
X129572000Y-109298000D02*
X129572000Y-107378000D01*
X129572000Y-109298000D02*
X129572000Y-110798000D01*
X129572000Y-110798000D02*
X129842000Y-111068000D01*
X129842000Y-105608000D02*
X129842000Y-107108000D01*
X129842000Y-107108000D02*
X129572000Y-107378000D01*
D30*
G36*
X179197000Y-127381000D02*
X128651000Y-127381000D01*
X128651000Y-124598316D01*
X129844657Y-124598316D01*
X130145611Y-125326680D01*
X130702389Y-125884431D01*
X131430226Y-126186655D01*
X132218316Y-126187343D01*
X132946680Y-125886389D01*
X133504431Y-125329611D01*
X133806655Y-124601774D01*
X133806663Y-124592316D01*
X164083857Y-124592316D01*
X164384811Y-125320680D01*
X164941589Y-125878431D01*
X165669426Y-126180655D01*
X166457516Y-126181343D01*
X167185880Y-125880389D01*
X167743631Y-125323611D01*
X168044799Y-124598316D01*
X174040657Y-124598316D01*
X174341611Y-125326680D01*
X174898389Y-125884431D01*
X175626226Y-126186655D01*
X176414316Y-126187343D01*
X177142680Y-125886389D01*
X177700431Y-125329611D01*
X178002655Y-124601774D01*
X178003343Y-123813684D01*
X177702389Y-123085320D01*
X177145611Y-122527569D01*
X176417774Y-122225345D01*
X175629684Y-122224657D01*
X174901320Y-122525611D01*
X174343569Y-123082389D01*
X174041345Y-123810226D01*
X174040657Y-124598316D01*
X168044799Y-124598316D01*
X168045855Y-124595774D01*
X168046543Y-123807684D01*
X167745589Y-123079320D01*
X167188811Y-122521569D01*
X166460974Y-122219345D01*
X165672884Y-122218657D01*
X164944520Y-122519611D01*
X164386769Y-123076389D01*
X164084545Y-123804226D01*
X164083857Y-124592316D01*
X133806663Y-124592316D01*
X133807343Y-123813684D01*
X133506389Y-123085320D01*
X132949611Y-122527569D01*
X132221774Y-122225345D01*
X131433684Y-122224657D01*
X130705320Y-122525611D01*
X130147569Y-123082389D01*
X129845345Y-123810226D01*
X129844657Y-124598316D01*
X128651000Y-124598316D01*
X128651000Y-111390339D01*
X128667266Y-111472114D01*
X128896178Y-111814705D01*
X129238769Y-112043617D01*
X129618309Y-112119112D01*
X129620866Y-112120859D01*
X129772000Y-112151464D01*
X130783536Y-112151464D01*
X130783536Y-112250500D01*
X130810103Y-112391690D01*
X130893546Y-112521365D01*
X131020866Y-112608359D01*
X131172000Y-112638964D01*
X131872000Y-112638964D01*
X132013190Y-112612397D01*
X132015427Y-112610958D01*
X132092000Y-112626464D01*
X133592000Y-112626464D01*
X133733190Y-112599897D01*
X133862000Y-112517011D01*
X133862000Y-113601500D01*
X133909561Y-113840604D01*
X133910032Y-113842973D01*
X134046816Y-114047684D01*
X134618316Y-114619184D01*
X134823027Y-114755968D01*
X135064500Y-114804000D01*
X137069480Y-114804000D01*
X137131563Y-114954251D01*
X137324481Y-115147506D01*
X137324486Y-115147514D01*
X137326485Y-115149514D01*
X137519705Y-115343072D01*
X137520285Y-115343313D01*
X139264486Y-117087515D01*
X139506860Y-117249464D01*
X139712514Y-117386878D01*
X140241000Y-117492000D01*
X147176000Y-117492000D01*
X147704486Y-117386878D01*
X148152514Y-117087514D01*
X149820514Y-115419515D01*
X150119878Y-114971486D01*
X150167912Y-114730000D01*
X150225000Y-114443000D01*
X150225000Y-112601000D01*
X153130000Y-112601000D01*
X153253351Y-112576464D01*
X153962000Y-112576464D01*
X154001667Y-112569000D01*
X156353000Y-112569000D01*
X156353000Y-116458940D01*
X156352761Y-116732493D01*
X156562563Y-117240251D01*
X156950705Y-117629072D01*
X157205513Y-117734877D01*
X157205514Y-117734878D01*
X157205516Y-117734878D01*
X157458097Y-117839759D01*
X158007493Y-117840239D01*
X158262485Y-117734878D01*
X158262486Y-117734878D01*
X158262487Y-117734877D01*
X158515251Y-117630437D01*
X158904072Y-117242295D01*
X159114759Y-116734903D01*
X159115239Y-116185507D01*
X159115000Y-116184929D01*
X159115000Y-111975980D01*
X174476911Y-111975980D01*
X174601155Y-112275964D01*
X174918344Y-112636652D01*
X175349418Y-112848501D01*
X175539400Y-112788193D01*
X175539400Y-111786000D01*
X175793400Y-111786000D01*
X175793400Y-112788193D01*
X175983382Y-112848501D01*
X176414456Y-112636652D01*
X176731645Y-112275964D01*
X176855889Y-111975980D01*
X176795027Y-111786000D01*
X175793400Y-111786000D01*
X175539400Y-111786000D01*
X174537773Y-111786000D01*
X174476911Y-111975980D01*
X159115000Y-111975980D01*
X159115000Y-111188000D01*
X159009878Y-110659514D01*
X158922464Y-110528690D01*
X158922464Y-110188000D01*
X158895897Y-110046810D01*
X158812454Y-109917135D01*
X158685134Y-109830141D01*
X158534000Y-109799536D01*
X156934000Y-109799536D01*
X156894333Y-109807000D01*
X153998859Y-109807000D01*
X153962000Y-109799536D01*
X152362000Y-109799536D01*
X152220810Y-109826103D01*
X152200767Y-109839000D01*
X149680859Y-109839000D01*
X149644000Y-109831536D01*
X148044000Y-109831536D01*
X147902810Y-109858103D01*
X147773135Y-109941546D01*
X147686141Y-110068866D01*
X147655536Y-110220000D01*
X147655536Y-110560690D01*
X147568122Y-110691514D01*
X147463000Y-111220000D01*
X147463000Y-113870971D01*
X146603972Y-114730000D01*
X140813029Y-114730000D01*
X139280080Y-113197052D01*
X139086295Y-113002928D01*
X138834111Y-112898212D01*
X138829486Y-112895122D01*
X138824078Y-112894046D01*
X138578903Y-112792241D01*
X138311085Y-112792007D01*
X138301000Y-112790001D01*
X138291003Y-112791989D01*
X138029507Y-112791761D01*
X137785705Y-112892498D01*
X137772514Y-112895122D01*
X137761428Y-112902529D01*
X137521749Y-113001563D01*
X137336591Y-113186398D01*
X137324486Y-113194486D01*
X137316468Y-113206485D01*
X137132928Y-113389705D01*
X137069690Y-113542000D01*
X135325868Y-113542000D01*
X135124000Y-113340132D01*
X135124000Y-112502908D01*
X135246866Y-112586859D01*
X135398000Y-112617464D01*
X135813520Y-112617464D01*
X135869514Y-112654878D01*
X136398000Y-112760000D01*
X136926486Y-112654878D01*
X136982480Y-112617464D01*
X137398000Y-112617464D01*
X137539190Y-112590897D01*
X137668865Y-112507454D01*
X137755859Y-112380134D01*
X137786464Y-112229000D01*
X137786464Y-111601250D01*
X139017000Y-111601250D01*
X139017000Y-112304785D01*
X139075004Y-112444819D01*
X139182180Y-112551996D01*
X139322214Y-112610000D01*
X140175750Y-112610000D01*
X140271000Y-112514750D01*
X140271000Y-111506000D01*
X140525000Y-111506000D01*
X140525000Y-112514750D01*
X140620250Y-112610000D01*
X141473786Y-112610000D01*
X141613820Y-112551996D01*
X141720996Y-112444819D01*
X141779000Y-112304785D01*
X141779000Y-111601250D01*
X141683750Y-111506000D01*
X140525000Y-111506000D01*
X140271000Y-111506000D01*
X139112250Y-111506000D01*
X139017000Y-111601250D01*
X137786464Y-111601250D01*
X137786464Y-110529000D01*
X137779000Y-110489333D01*
X137779000Y-110453215D01*
X139017000Y-110453215D01*
X139017000Y-111156750D01*
X139112250Y-111252000D01*
X140271000Y-111252000D01*
X140271000Y-110243250D01*
X140525000Y-110243250D01*
X140525000Y-111252000D01*
X141683750Y-111252000D01*
X141779000Y-111156750D01*
X141779000Y-110453215D01*
X141720996Y-110313181D01*
X141613820Y-110206004D01*
X141473786Y-110148000D01*
X140620250Y-110148000D01*
X140525000Y-110243250D01*
X140271000Y-110243250D01*
X140175750Y-110148000D01*
X139322214Y-110148000D01*
X139182180Y-110206004D01*
X139075004Y-110313181D01*
X139017000Y-110453215D01*
X137779000Y-110453215D01*
X137779000Y-109138000D01*
X143487536Y-109138000D01*
X143487536Y-110638000D01*
X143514103Y-110779190D01*
X143597546Y-110908865D01*
X143724866Y-110995859D01*
X143876000Y-111026464D01*
X144020000Y-111026464D01*
X144020000Y-112272536D01*
X143876000Y-112272536D01*
X143734810Y-112299103D01*
X143605135Y-112382546D01*
X143518141Y-112509866D01*
X143487536Y-112661000D01*
X143487536Y-114161000D01*
X143514103Y-114302190D01*
X143597546Y-114431865D01*
X143724866Y-114518859D01*
X143876000Y-114549464D01*
X145176000Y-114549464D01*
X145317190Y-114522897D01*
X145446865Y-114439454D01*
X145533859Y-114312134D01*
X145564464Y-114161000D01*
X145564464Y-112661000D01*
X145537897Y-112519810D01*
X145454454Y-112390135D01*
X145327134Y-112303141D01*
X145176000Y-112272536D01*
X145032000Y-112272536D01*
X145032000Y-111026464D01*
X145176000Y-111026464D01*
X145317190Y-110999897D01*
X145446865Y-110916454D01*
X145533859Y-110789134D01*
X145564464Y-110638000D01*
X145564464Y-109510716D01*
X164134657Y-109510716D01*
X164435611Y-110239080D01*
X164992389Y-110796831D01*
X165720226Y-111099055D01*
X166508316Y-111099743D01*
X167236680Y-110798789D01*
X167794431Y-110242011D01*
X168096655Y-109514174D01*
X168097343Y-108726084D01*
X167796389Y-107997720D01*
X167239611Y-107439969D01*
X166511774Y-107137745D01*
X165723684Y-107137057D01*
X164995320Y-107438011D01*
X164437569Y-107994789D01*
X164135345Y-108722626D01*
X164134657Y-109510716D01*
X145564464Y-109510716D01*
X145564464Y-109138000D01*
X145537897Y-108996810D01*
X145454454Y-108867135D01*
X145327134Y-108780141D01*
X145176000Y-108749536D01*
X143876000Y-108749536D01*
X143734810Y-108776103D01*
X143605135Y-108859546D01*
X143518141Y-108986866D01*
X143487536Y-109138000D01*
X137779000Y-109138000D01*
X137779000Y-108201859D01*
X137786464Y-108165000D01*
X137786464Y-107537250D01*
X139017000Y-107537250D01*
X139017000Y-108240785D01*
X139075004Y-108380819D01*
X139182180Y-108487996D01*
X139322214Y-108546000D01*
X140175750Y-108546000D01*
X140271000Y-108450750D01*
X140271000Y-107442000D01*
X140525000Y-107442000D01*
X140525000Y-108450750D01*
X140620250Y-108546000D01*
X141473786Y-108546000D01*
X141613820Y-108487996D01*
X141720996Y-108380819D01*
X141779000Y-108240785D01*
X141779000Y-107537250D01*
X141683750Y-107442000D01*
X140525000Y-107442000D01*
X140271000Y-107442000D01*
X139112250Y-107442000D01*
X139017000Y-107537250D01*
X137786464Y-107537250D01*
X137786464Y-107410250D01*
X143495000Y-107410250D01*
X143495000Y-108013786D01*
X143553004Y-108153820D01*
X143660181Y-108260996D01*
X143800215Y-108319000D01*
X144303750Y-108319000D01*
X144399000Y-108223750D01*
X144399000Y-107315000D01*
X144653000Y-107315000D01*
X144653000Y-108223750D01*
X144748250Y-108319000D01*
X145251785Y-108319000D01*
X145391819Y-108260996D01*
X145498996Y-108153820D01*
X145557000Y-108013786D01*
X145557000Y-107442250D01*
X147663000Y-107442250D01*
X147663000Y-108295786D01*
X147721004Y-108435820D01*
X147828181Y-108542996D01*
X147968215Y-108601000D01*
X148621750Y-108601000D01*
X148717000Y-108505750D01*
X148717000Y-107347000D01*
X148971000Y-107347000D01*
X148971000Y-108505750D01*
X149066250Y-108601000D01*
X149719785Y-108601000D01*
X149859819Y-108542996D01*
X149966996Y-108435820D01*
X150025000Y-108295786D01*
X150025000Y-107442250D01*
X149993000Y-107410250D01*
X151981000Y-107410250D01*
X151981000Y-108263786D01*
X152039004Y-108403820D01*
X152146181Y-108510996D01*
X152286215Y-108569000D01*
X152939750Y-108569000D01*
X153035000Y-108473750D01*
X153035000Y-107315000D01*
X153289000Y-107315000D01*
X153289000Y-108473750D01*
X153384250Y-108569000D01*
X154037785Y-108569000D01*
X154177819Y-108510996D01*
X154284996Y-108403820D01*
X154343000Y-108263786D01*
X154343000Y-107410250D01*
X156553000Y-107410250D01*
X156553000Y-108263786D01*
X156611004Y-108403820D01*
X156718181Y-108510996D01*
X156858215Y-108569000D01*
X157511750Y-108569000D01*
X157607000Y-108473750D01*
X157607000Y-107315000D01*
X157861000Y-107315000D01*
X157861000Y-108473750D01*
X157956250Y-108569000D01*
X158609785Y-108569000D01*
X158749819Y-108510996D01*
X158856996Y-108403820D01*
X158915000Y-108263786D01*
X158915000Y-107410250D01*
X158819750Y-107315000D01*
X157861000Y-107315000D01*
X157607000Y-107315000D01*
X156648250Y-107315000D01*
X156553000Y-107410250D01*
X154343000Y-107410250D01*
X154247750Y-107315000D01*
X153289000Y-107315000D01*
X153035000Y-107315000D01*
X152076250Y-107315000D01*
X151981000Y-107410250D01*
X149993000Y-107410250D01*
X149929750Y-107347000D01*
X148971000Y-107347000D01*
X148717000Y-107347000D01*
X147758250Y-107347000D01*
X147663000Y-107442250D01*
X145557000Y-107442250D01*
X145557000Y-107410250D01*
X145461750Y-107315000D01*
X144653000Y-107315000D01*
X144399000Y-107315000D01*
X143590250Y-107315000D01*
X143495000Y-107410250D01*
X137786464Y-107410250D01*
X137786464Y-106465000D01*
X137772204Y-106389215D01*
X139017000Y-106389215D01*
X139017000Y-107092750D01*
X139112250Y-107188000D01*
X140271000Y-107188000D01*
X140271000Y-106179250D01*
X140525000Y-106179250D01*
X140525000Y-107188000D01*
X141683750Y-107188000D01*
X141779000Y-107092750D01*
X141779000Y-106389215D01*
X141767816Y-106362214D01*
X143495000Y-106362214D01*
X143495000Y-106965750D01*
X143590250Y-107061000D01*
X144399000Y-107061000D01*
X144399000Y-106152250D01*
X144653000Y-106152250D01*
X144653000Y-107061000D01*
X145461750Y-107061000D01*
X145557000Y-106965750D01*
X145557000Y-106362214D01*
X145498996Y-106222180D01*
X145421030Y-106144214D01*
X147663000Y-106144214D01*
X147663000Y-106997750D01*
X147758250Y-107093000D01*
X148717000Y-107093000D01*
X148717000Y-105934250D01*
X148971000Y-105934250D01*
X148971000Y-107093000D01*
X149929750Y-107093000D01*
X150025000Y-106997750D01*
X150025000Y-106144214D01*
X150011746Y-106112214D01*
X151981000Y-106112214D01*
X151981000Y-106965750D01*
X152076250Y-107061000D01*
X153035000Y-107061000D01*
X153035000Y-105902250D01*
X153289000Y-105902250D01*
X153289000Y-107061000D01*
X154247750Y-107061000D01*
X154343000Y-106965750D01*
X154343000Y-106112214D01*
X156553000Y-106112214D01*
X156553000Y-106965750D01*
X156648250Y-107061000D01*
X157607000Y-107061000D01*
X157607000Y-105902250D01*
X157861000Y-105902250D01*
X157861000Y-107061000D01*
X158819750Y-107061000D01*
X158915000Y-106965750D01*
X158915000Y-106112214D01*
X158856996Y-105972180D01*
X158749819Y-105865004D01*
X158609785Y-105807000D01*
X157956250Y-105807000D01*
X157861000Y-105902250D01*
X157607000Y-105902250D01*
X157511750Y-105807000D01*
X156858215Y-105807000D01*
X156718181Y-105865004D01*
X156611004Y-105972180D01*
X156553000Y-106112214D01*
X154343000Y-106112214D01*
X154284996Y-105972180D01*
X154177819Y-105865004D01*
X154037785Y-105807000D01*
X153384250Y-105807000D01*
X153289000Y-105902250D01*
X153035000Y-105902250D01*
X152939750Y-105807000D01*
X152286215Y-105807000D01*
X152146181Y-105865004D01*
X152039004Y-105972180D01*
X151981000Y-106112214D01*
X150011746Y-106112214D01*
X149966996Y-106004180D01*
X149859819Y-105897004D01*
X149719785Y-105839000D01*
X149066250Y-105839000D01*
X148971000Y-105934250D01*
X148717000Y-105934250D01*
X148621750Y-105839000D01*
X147968215Y-105839000D01*
X147828181Y-105897004D01*
X147721004Y-106004180D01*
X147663000Y-106144214D01*
X145421030Y-106144214D01*
X145391819Y-106115004D01*
X145251785Y-106057000D01*
X144748250Y-106057000D01*
X144653000Y-106152250D01*
X144399000Y-106152250D01*
X144303750Y-106057000D01*
X143800215Y-106057000D01*
X143660181Y-106115004D01*
X143553004Y-106222180D01*
X143495000Y-106362214D01*
X141767816Y-106362214D01*
X141720996Y-106249181D01*
X141613820Y-106142004D01*
X141473786Y-106084000D01*
X140620250Y-106084000D01*
X140525000Y-106179250D01*
X140271000Y-106179250D01*
X140175750Y-106084000D01*
X139322214Y-106084000D01*
X139182180Y-106142004D01*
X139075004Y-106249181D01*
X139017000Y-106389215D01*
X137772204Y-106389215D01*
X137759897Y-106323810D01*
X137676454Y-106194135D01*
X137549134Y-106107141D01*
X137398000Y-106076536D01*
X136982480Y-106076536D01*
X136926486Y-106039122D01*
X136398000Y-105934000D01*
X135869514Y-106039122D01*
X135813520Y-106076536D01*
X135398000Y-106076536D01*
X135256810Y-106103103D01*
X135127135Y-106186546D01*
X135040141Y-106313866D01*
X135011156Y-106457000D01*
X133960464Y-106457000D01*
X133960464Y-106092419D01*
X133995158Y-105918000D01*
X133960464Y-105743581D01*
X133960464Y-104488000D01*
X133933897Y-104346810D01*
X133850454Y-104217135D01*
X133723134Y-104130141D01*
X133572000Y-104099536D01*
X132072000Y-104099536D01*
X132000327Y-104113022D01*
X131872000Y-104087036D01*
X131172000Y-104087036D01*
X131030810Y-104113603D01*
X130901135Y-104197046D01*
X130814141Y-104324366D01*
X130783536Y-104475500D01*
X130783536Y-104544536D01*
X129772000Y-104544536D01*
X129732333Y-104552000D01*
X129642883Y-104552000D01*
X129238769Y-104632383D01*
X128896178Y-104861295D01*
X128667266Y-105203886D01*
X128651000Y-105285661D01*
X128651000Y-103539122D01*
X136035483Y-103539122D01*
X136111216Y-103703391D01*
X136519907Y-103837235D01*
X136948707Y-103804491D01*
X137192784Y-103703391D01*
X137268517Y-103539122D01*
X136652000Y-102922605D01*
X136035483Y-103539122D01*
X128651000Y-103539122D01*
X128651000Y-102610907D01*
X135557765Y-102610907D01*
X135590509Y-103039707D01*
X135691609Y-103283784D01*
X135855878Y-103359517D01*
X136472395Y-102743000D01*
X136831605Y-102743000D01*
X137448122Y-103359517D01*
X137612391Y-103283784D01*
X137746235Y-102875093D01*
X137713491Y-102446293D01*
X137612391Y-102202216D01*
X137448122Y-102126483D01*
X136831605Y-102743000D01*
X136472395Y-102743000D01*
X135855878Y-102126483D01*
X135691609Y-102202216D01*
X135557765Y-102610907D01*
X128651000Y-102610907D01*
X128651000Y-101946878D01*
X136035483Y-101946878D01*
X136652000Y-102563395D01*
X137268517Y-101946878D01*
X137192784Y-101782609D01*
X136784093Y-101648765D01*
X136355293Y-101681509D01*
X136111216Y-101782609D01*
X136035483Y-101946878D01*
X128651000Y-101946878D01*
X128651000Y-98266250D01*
X135421000Y-98266250D01*
X135421000Y-98969786D01*
X135479004Y-99109820D01*
X135586181Y-99216996D01*
X135726215Y-99275000D01*
X136429750Y-99275000D01*
X136525000Y-99179750D01*
X136525000Y-98171000D01*
X135516250Y-98171000D01*
X135421000Y-98266250D01*
X128651000Y-98266250D01*
X128651000Y-97118214D01*
X135421000Y-97118214D01*
X135421000Y-97821750D01*
X135516250Y-97917000D01*
X136525000Y-97917000D01*
X136525000Y-96908250D01*
X136779000Y-96908250D01*
X136779000Y-97917000D01*
X136799000Y-97917000D01*
X136799000Y-98171000D01*
X136779000Y-98171000D01*
X136779000Y-99179750D01*
X136874250Y-99275000D01*
X137577785Y-99275000D01*
X137717819Y-99216996D01*
X137811000Y-99123816D01*
X137811000Y-100202940D01*
X137810761Y-100476493D01*
X137811000Y-100477071D01*
X137811000Y-102743000D01*
X137916122Y-103271486D01*
X138215486Y-103719514D01*
X138663514Y-104018878D01*
X139192000Y-104124000D01*
X139720486Y-104018878D01*
X140168514Y-103719514D01*
X140467878Y-103271486D01*
X140573000Y-102743000D01*
X140573000Y-100203000D01*
X140573239Y-99929507D01*
X140573000Y-99928929D01*
X140573000Y-98044000D01*
X140467878Y-97515514D01*
X140253049Y-97194000D01*
X144557536Y-97194000D01*
X144557536Y-98894000D01*
X144584103Y-99035190D01*
X144667546Y-99164865D01*
X144794866Y-99251859D01*
X144946000Y-99282464D01*
X146646000Y-99282464D01*
X146787190Y-99255897D01*
X146916865Y-99172454D01*
X147003859Y-99045134D01*
X147034464Y-98894000D01*
X147034464Y-98360982D01*
X147146499Y-98360982D01*
X147358348Y-98792056D01*
X147719036Y-99109245D01*
X148019020Y-99233489D01*
X148209000Y-99172627D01*
X148209000Y-98171000D01*
X148463000Y-98171000D01*
X148463000Y-99172627D01*
X148652980Y-99233489D01*
X148952964Y-99109245D01*
X149313652Y-98792056D01*
X149525501Y-98360982D01*
X149465193Y-98171000D01*
X148463000Y-98171000D01*
X148209000Y-98171000D01*
X147206807Y-98171000D01*
X147146499Y-98360982D01*
X147034464Y-98360982D01*
X147034464Y-98019883D01*
X149645000Y-98019883D01*
X149645000Y-98068117D01*
X149738704Y-98539200D01*
X150005552Y-98938565D01*
X150404917Y-99205413D01*
X150876000Y-99299117D01*
X151347083Y-99205413D01*
X151746448Y-98938565D01*
X152013296Y-98539200D01*
X152107000Y-98068117D01*
X152107000Y-98019883D01*
X152185000Y-98019883D01*
X152185000Y-98068117D01*
X152278704Y-98539200D01*
X152545552Y-98938565D01*
X152910000Y-99182082D01*
X152910000Y-101092000D01*
X152948517Y-101285638D01*
X153058204Y-101449796D01*
X156487204Y-104878796D01*
X156651362Y-104988483D01*
X156845000Y-105027000D01*
X171367408Y-105027000D01*
X173276604Y-106936196D01*
X173440762Y-107045883D01*
X173634400Y-107084400D01*
X174527917Y-107084400D01*
X174771835Y-107449448D01*
X175171200Y-107716296D01*
X175277297Y-107737400D01*
X171659493Y-107737400D01*
X171598903Y-107712241D01*
X171049507Y-107711761D01*
X170794515Y-107817122D01*
X170794514Y-107817122D01*
X170794513Y-107817123D01*
X170541749Y-107921563D01*
X170152928Y-108309705D01*
X169942241Y-108817097D01*
X169941761Y-109366493D01*
X170151563Y-109874251D01*
X170539705Y-110263072D01*
X170761193Y-110355041D01*
X170819914Y-110394278D01*
X170888577Y-110407936D01*
X171047097Y-110473759D01*
X171220254Y-110473910D01*
X171348400Y-110499400D01*
X175288575Y-110499400D01*
X174918344Y-110681348D01*
X174601155Y-111042036D01*
X174476911Y-111342020D01*
X174537773Y-111532000D01*
X175539400Y-111532000D01*
X175539400Y-111512000D01*
X175793400Y-111512000D01*
X175793400Y-111532000D01*
X176795027Y-111532000D01*
X176855889Y-111342020D01*
X176731645Y-111042036D01*
X176414456Y-110681348D01*
X175983382Y-110469499D01*
X175793402Y-110529806D01*
X175793402Y-110474138D01*
X176194886Y-110394278D01*
X176642914Y-110094914D01*
X176942278Y-109646886D01*
X177047400Y-109118400D01*
X176942278Y-108589914D01*
X176642914Y-108141886D01*
X176194886Y-107842522D01*
X175860952Y-107776099D01*
X176161600Y-107716296D01*
X176560965Y-107449448D01*
X176827813Y-107050083D01*
X176921517Y-106579000D01*
X176827813Y-106107917D01*
X176560965Y-105708552D01*
X176161600Y-105441704D01*
X175690517Y-105348000D01*
X175642283Y-105348000D01*
X175171200Y-105441704D01*
X174771835Y-105708552D01*
X174528719Y-106072400D01*
X173843992Y-106072400D01*
X171934796Y-104163204D01*
X171770638Y-104053517D01*
X171577000Y-104015000D01*
X157054592Y-104015000D01*
X153922000Y-100882408D01*
X153922000Y-99182082D01*
X154286448Y-98938565D01*
X154553296Y-98539200D01*
X154647000Y-98068117D01*
X154647000Y-98019883D01*
X154725000Y-98019883D01*
X154725000Y-98068117D01*
X154818704Y-98539200D01*
X155085552Y-98938565D01*
X155450000Y-99182082D01*
X155450000Y-99246081D01*
X155488517Y-99439719D01*
X155598204Y-99603877D01*
X156936123Y-100941796D01*
X157100281Y-101051483D01*
X157293919Y-101090000D01*
X173526408Y-101090000D01*
X175160400Y-102723992D01*
X175160400Y-102908920D01*
X174771835Y-103168552D01*
X174504987Y-103567917D01*
X174411283Y-104039000D01*
X174504987Y-104510083D01*
X174771835Y-104909448D01*
X175171200Y-105176296D01*
X175642283Y-105270000D01*
X175690517Y-105270000D01*
X176161600Y-105176296D01*
X176560965Y-104909448D01*
X176827813Y-104510083D01*
X176921517Y-104039000D01*
X176827813Y-103567917D01*
X176560965Y-103168552D01*
X176172400Y-102908920D01*
X176172400Y-102514400D01*
X176133883Y-102320762D01*
X176024196Y-102156604D01*
X174093796Y-100226204D01*
X173929638Y-100116517D01*
X173736000Y-100078000D01*
X157503511Y-100078000D01*
X156549277Y-99123766D01*
X156826448Y-98938565D01*
X157093296Y-98539200D01*
X157187000Y-98068117D01*
X157187000Y-98019883D01*
X157265000Y-98019883D01*
X157265000Y-98068117D01*
X157358704Y-98539200D01*
X157625552Y-98938565D01*
X158024917Y-99205413D01*
X158496000Y-99299117D01*
X158967083Y-99205413D01*
X159366448Y-98938565D01*
X159633296Y-98539200D01*
X159727000Y-98068117D01*
X159727000Y-98019883D01*
X159633296Y-97548800D01*
X159366448Y-97149435D01*
X158967083Y-96882587D01*
X158496000Y-96788883D01*
X158024917Y-96882587D01*
X157625552Y-97149435D01*
X157358704Y-97548800D01*
X157265000Y-98019883D01*
X157187000Y-98019883D01*
X157093296Y-97548800D01*
X156826448Y-97149435D01*
X156427083Y-96882587D01*
X155956000Y-96788883D01*
X155484917Y-96882587D01*
X155085552Y-97149435D01*
X154818704Y-97548800D01*
X154725000Y-98019883D01*
X154647000Y-98019883D01*
X154553296Y-97548800D01*
X154286448Y-97149435D01*
X153887083Y-96882587D01*
X153416000Y-96788883D01*
X152944917Y-96882587D01*
X152545552Y-97149435D01*
X152278704Y-97548800D01*
X152185000Y-98019883D01*
X152107000Y-98019883D01*
X152013296Y-97548800D01*
X151746448Y-97149435D01*
X151347083Y-96882587D01*
X150876000Y-96788883D01*
X150404917Y-96882587D01*
X150005552Y-97149435D01*
X149738704Y-97548800D01*
X149645000Y-98019883D01*
X147034464Y-98019883D01*
X147034464Y-97727018D01*
X147146499Y-97727018D01*
X147206807Y-97917000D01*
X148209000Y-97917000D01*
X148209000Y-96915373D01*
X148463000Y-96915373D01*
X148463000Y-97917000D01*
X149465193Y-97917000D01*
X149525501Y-97727018D01*
X149313652Y-97295944D01*
X148952964Y-96978755D01*
X148652980Y-96854511D01*
X148463000Y-96915373D01*
X148209000Y-96915373D01*
X148019020Y-96854511D01*
X147719036Y-96978755D01*
X147358348Y-97295944D01*
X147146499Y-97727018D01*
X147034464Y-97727018D01*
X147034464Y-97194000D01*
X147007897Y-97052810D01*
X146924454Y-96923135D01*
X146797134Y-96836141D01*
X146646000Y-96805536D01*
X146302000Y-96805536D01*
X146302000Y-96729592D01*
X146513592Y-96518000D01*
X162604408Y-96518000D01*
X164107204Y-98020796D01*
X164271362Y-98130483D01*
X164465000Y-98169000D01*
X175812408Y-98169000D01*
X177802000Y-100158592D01*
X177802000Y-113692400D01*
X176904864Y-113692400D01*
X176904864Y-113349000D01*
X176878297Y-113207810D01*
X176794854Y-113078135D01*
X176667534Y-112991141D01*
X176516400Y-112960536D01*
X174816400Y-112960536D01*
X174675210Y-112987103D01*
X174545535Y-113070546D01*
X174458541Y-113197866D01*
X174427936Y-113349000D01*
X174427936Y-115049000D01*
X174454503Y-115190190D01*
X174537946Y-115319865D01*
X174665266Y-115406859D01*
X174816400Y-115437464D01*
X176516400Y-115437464D01*
X176657590Y-115410897D01*
X176787265Y-115327454D01*
X176874259Y-115200134D01*
X176904864Y-115049000D01*
X176904864Y-114704400D01*
X178155600Y-114704400D01*
X178349238Y-114665883D01*
X178513396Y-114556196D01*
X178665796Y-114403796D01*
X178775483Y-114239638D01*
X178814000Y-114046000D01*
X178814000Y-99949000D01*
X178775483Y-99755362D01*
X178665796Y-99591204D01*
X176379796Y-97305204D01*
X176215638Y-97195517D01*
X176022000Y-97157000D01*
X164674592Y-97157000D01*
X163171796Y-95654204D01*
X163007638Y-95544517D01*
X162814000Y-95506000D01*
X146304000Y-95506000D01*
X146110362Y-95544517D01*
X145946204Y-95654204D01*
X145438204Y-96162204D01*
X145328517Y-96326362D01*
X145290000Y-96520000D01*
X145290000Y-96805536D01*
X144946000Y-96805536D01*
X144804810Y-96832103D01*
X144675135Y-96915546D01*
X144588141Y-97042866D01*
X144557536Y-97194000D01*
X140253049Y-97194000D01*
X140168514Y-97067486D01*
X139720486Y-96768122D01*
X139192000Y-96663000D01*
X138663514Y-96768122D01*
X138215486Y-97067486D01*
X137916122Y-97515514D01*
X137883000Y-97682030D01*
X137883000Y-97118214D01*
X137824996Y-96978180D01*
X137717819Y-96871004D01*
X137577785Y-96813000D01*
X136874250Y-96813000D01*
X136779000Y-96908250D01*
X136525000Y-96908250D01*
X136429750Y-96813000D01*
X135726215Y-96813000D01*
X135586181Y-96871004D01*
X135479004Y-96978180D01*
X135421000Y-97118214D01*
X128651000Y-97118214D01*
X128651000Y-94118316D01*
X129844657Y-94118316D01*
X130145611Y-94846680D01*
X130702389Y-95404431D01*
X131430226Y-95706655D01*
X132218316Y-95707343D01*
X132946680Y-95406389D01*
X133504431Y-94849611D01*
X133777363Y-94192316D01*
X164083857Y-94192316D01*
X164384811Y-94920680D01*
X164941589Y-95478431D01*
X165669426Y-95780655D01*
X166457516Y-95781343D01*
X167185880Y-95480389D01*
X167743631Y-94923611D01*
X168045855Y-94195774D01*
X168045922Y-94118316D01*
X174040657Y-94118316D01*
X174341611Y-94846680D01*
X174898389Y-95404431D01*
X175626226Y-95706655D01*
X176414316Y-95707343D01*
X177142680Y-95406389D01*
X177700431Y-94849611D01*
X178002655Y-94121774D01*
X178003343Y-93333684D01*
X177702389Y-92605320D01*
X177145611Y-92047569D01*
X176417774Y-91745345D01*
X175629684Y-91744657D01*
X174901320Y-92045611D01*
X174343569Y-92602389D01*
X174041345Y-93330226D01*
X174040657Y-94118316D01*
X168045922Y-94118316D01*
X168046543Y-93407684D01*
X167745589Y-92679320D01*
X167188811Y-92121569D01*
X166460974Y-91819345D01*
X165672884Y-91818657D01*
X164944520Y-92119611D01*
X164386769Y-92676389D01*
X164084545Y-93404226D01*
X164083857Y-94192316D01*
X133777363Y-94192316D01*
X133806655Y-94121774D01*
X133807343Y-93333684D01*
X133506389Y-92605320D01*
X132949611Y-92047569D01*
X132221774Y-91745345D01*
X131433684Y-91744657D01*
X130705320Y-92045611D01*
X130147569Y-92602389D01*
X129845345Y-93330226D01*
X129844657Y-94118316D01*
X128651000Y-94118316D01*
X128651000Y-90551000D01*
X179197000Y-90551000D01*
X179197000Y-127381000D01*
X179197000Y-127381000D01*
G37*
X179197000Y-127381000D02*
X128651000Y-127381000D01*
X128651000Y-124598316D01*
X129844657Y-124598316D01*
X130145611Y-125326680D01*
X130702389Y-125884431D01*
X131430226Y-126186655D01*
X132218316Y-126187343D01*
X132946680Y-125886389D01*
X133504431Y-125329611D01*
X133806655Y-124601774D01*
X133806663Y-124592316D01*
X164083857Y-124592316D01*
X164384811Y-125320680D01*
X164941589Y-125878431D01*
X165669426Y-126180655D01*
X166457516Y-126181343D01*
X167185880Y-125880389D01*
X167743631Y-125323611D01*
X168044799Y-124598316D01*
X174040657Y-124598316D01*
X174341611Y-125326680D01*
X174898389Y-125884431D01*
X175626226Y-126186655D01*
X176414316Y-126187343D01*
X177142680Y-125886389D01*
X177700431Y-125329611D01*
X178002655Y-124601774D01*
X178003343Y-123813684D01*
X177702389Y-123085320D01*
X177145611Y-122527569D01*
X176417774Y-122225345D01*
X175629684Y-122224657D01*
X174901320Y-122525611D01*
X174343569Y-123082389D01*
X174041345Y-123810226D01*
X174040657Y-124598316D01*
X168044799Y-124598316D01*
X168045855Y-124595774D01*
X168046543Y-123807684D01*
X167745589Y-123079320D01*
X167188811Y-122521569D01*
X166460974Y-122219345D01*
X165672884Y-122218657D01*
X164944520Y-122519611D01*
X164386769Y-123076389D01*
X164084545Y-123804226D01*
X164083857Y-124592316D01*
X133806663Y-124592316D01*
X133807343Y-123813684D01*
X133506389Y-123085320D01*
X132949611Y-122527569D01*
X132221774Y-122225345D01*
X131433684Y-122224657D01*
X130705320Y-122525611D01*
X130147569Y-123082389D01*
X129845345Y-123810226D01*
X129844657Y-124598316D01*
X128651000Y-124598316D01*
X128651000Y-111390339D01*
X128667266Y-111472114D01*
X128896178Y-111814705D01*
X129238769Y-112043617D01*
X129618309Y-112119112D01*
X129620866Y-112120859D01*
X129772000Y-112151464D01*
X130783536Y-112151464D01*
X130783536Y-112250500D01*
X130810103Y-112391690D01*
X130893546Y-112521365D01*
X131020866Y-112608359D01*
X131172000Y-112638964D01*
X131872000Y-112638964D01*
X132013190Y-112612397D01*
X132015427Y-112610958D01*
X132092000Y-112626464D01*
X133592000Y-112626464D01*
X133733190Y-112599897D01*
X133862000Y-112517011D01*
X133862000Y-113601500D01*
X133909561Y-113840604D01*
X133910032Y-113842973D01*
X134046816Y-114047684D01*
X134618316Y-114619184D01*
X134823027Y-114755968D01*
X135064500Y-114804000D01*
X137069480Y-114804000D01*
X137131563Y-114954251D01*
X137324481Y-115147506D01*
X137324486Y-115147514D01*
X137326485Y-115149514D01*
X137519705Y-115343072D01*
X137520285Y-115343313D01*
X139264486Y-117087515D01*
X139506860Y-117249464D01*
X139712514Y-117386878D01*
X140241000Y-117492000D01*
X147176000Y-117492000D01*
X147704486Y-117386878D01*
X148152514Y-117087514D01*
X149820514Y-115419515D01*
X150119878Y-114971486D01*
X150167912Y-114730000D01*
X150225000Y-114443000D01*
X150225000Y-112601000D01*
X153130000Y-112601000D01*
X153253351Y-112576464D01*
X153962000Y-112576464D01*
X154001667Y-112569000D01*
X156353000Y-112569000D01*
X156353000Y-116458940D01*
X156352761Y-116732493D01*
X156562563Y-117240251D01*
X156950705Y-117629072D01*
X157205513Y-117734877D01*
X157205514Y-117734878D01*
X157205516Y-117734878D01*
X157458097Y-117839759D01*
X158007493Y-117840239D01*
X158262485Y-117734878D01*
X158262486Y-117734878D01*
X158262487Y-117734877D01*
X158515251Y-117630437D01*
X158904072Y-117242295D01*
X159114759Y-116734903D01*
X159115239Y-116185507D01*
X159115000Y-116184929D01*
X159115000Y-111975980D01*
X174476911Y-111975980D01*
X174601155Y-112275964D01*
X174918344Y-112636652D01*
X175349418Y-112848501D01*
X175539400Y-112788193D01*
X175539400Y-111786000D01*
X175793400Y-111786000D01*
X175793400Y-112788193D01*
X175983382Y-112848501D01*
X176414456Y-112636652D01*
X176731645Y-112275964D01*
X176855889Y-111975980D01*
X176795027Y-111786000D01*
X175793400Y-111786000D01*
X175539400Y-111786000D01*
X174537773Y-111786000D01*
X174476911Y-111975980D01*
X159115000Y-111975980D01*
X159115000Y-111188000D01*
X159009878Y-110659514D01*
X158922464Y-110528690D01*
X158922464Y-110188000D01*
X158895897Y-110046810D01*
X158812454Y-109917135D01*
X158685134Y-109830141D01*
X158534000Y-109799536D01*
X156934000Y-109799536D01*
X156894333Y-109807000D01*
X153998859Y-109807000D01*
X153962000Y-109799536D01*
X152362000Y-109799536D01*
X152220810Y-109826103D01*
X152200767Y-109839000D01*
X149680859Y-109839000D01*
X149644000Y-109831536D01*
X148044000Y-109831536D01*
X147902810Y-109858103D01*
X147773135Y-109941546D01*
X147686141Y-110068866D01*
X147655536Y-110220000D01*
X147655536Y-110560690D01*
X147568122Y-110691514D01*
X147463000Y-111220000D01*
X147463000Y-113870971D01*
X146603972Y-114730000D01*
X140813029Y-114730000D01*
X139280080Y-113197052D01*
X139086295Y-113002928D01*
X138834111Y-112898212D01*
X138829486Y-112895122D01*
X138824078Y-112894046D01*
X138578903Y-112792241D01*
X138311085Y-112792007D01*
X138301000Y-112790001D01*
X138291003Y-112791989D01*
X138029507Y-112791761D01*
X137785705Y-112892498D01*
X137772514Y-112895122D01*
X137761428Y-112902529D01*
X137521749Y-113001563D01*
X137336591Y-113186398D01*
X137324486Y-113194486D01*
X137316468Y-113206485D01*
X137132928Y-113389705D01*
X137069690Y-113542000D01*
X135325868Y-113542000D01*
X135124000Y-113340132D01*
X135124000Y-112502908D01*
X135246866Y-112586859D01*
X135398000Y-112617464D01*
X135813520Y-112617464D01*
X135869514Y-112654878D01*
X136398000Y-112760000D01*
X136926486Y-112654878D01*
X136982480Y-112617464D01*
X137398000Y-112617464D01*
X137539190Y-112590897D01*
X137668865Y-112507454D01*
X137755859Y-112380134D01*
X137786464Y-112229000D01*
X137786464Y-111601250D01*
X139017000Y-111601250D01*
X139017000Y-112304785D01*
X139075004Y-112444819D01*
X139182180Y-112551996D01*
X139322214Y-112610000D01*
X140175750Y-112610000D01*
X140271000Y-112514750D01*
X140271000Y-111506000D01*
X140525000Y-111506000D01*
X140525000Y-112514750D01*
X140620250Y-112610000D01*
X141473786Y-112610000D01*
X141613820Y-112551996D01*
X141720996Y-112444819D01*
X141779000Y-112304785D01*
X141779000Y-111601250D01*
X141683750Y-111506000D01*
X140525000Y-111506000D01*
X140271000Y-111506000D01*
X139112250Y-111506000D01*
X139017000Y-111601250D01*
X137786464Y-111601250D01*
X137786464Y-110529000D01*
X137779000Y-110489333D01*
X137779000Y-110453215D01*
X139017000Y-110453215D01*
X139017000Y-111156750D01*
X139112250Y-111252000D01*
X140271000Y-111252000D01*
X140271000Y-110243250D01*
X140525000Y-110243250D01*
X140525000Y-111252000D01*
X141683750Y-111252000D01*
X141779000Y-111156750D01*
X141779000Y-110453215D01*
X141720996Y-110313181D01*
X141613820Y-110206004D01*
X141473786Y-110148000D01*
X140620250Y-110148000D01*
X140525000Y-110243250D01*
X140271000Y-110243250D01*
X140175750Y-110148000D01*
X139322214Y-110148000D01*
X139182180Y-110206004D01*
X139075004Y-110313181D01*
X139017000Y-110453215D01*
X137779000Y-110453215D01*
X137779000Y-109138000D01*
X143487536Y-109138000D01*
X143487536Y-110638000D01*
X143514103Y-110779190D01*
X143597546Y-110908865D01*
X143724866Y-110995859D01*
X143876000Y-111026464D01*
X144020000Y-111026464D01*
X144020000Y-112272536D01*
X143876000Y-112272536D01*
X143734810Y-112299103D01*
X143605135Y-112382546D01*
X143518141Y-112509866D01*
X143487536Y-112661000D01*
X143487536Y-114161000D01*
X143514103Y-114302190D01*
X143597546Y-114431865D01*
X143724866Y-114518859D01*
X143876000Y-114549464D01*
X145176000Y-114549464D01*
X145317190Y-114522897D01*
X145446865Y-114439454D01*
X145533859Y-114312134D01*
X145564464Y-114161000D01*
X145564464Y-112661000D01*
X145537897Y-112519810D01*
X145454454Y-112390135D01*
X145327134Y-112303141D01*
X145176000Y-112272536D01*
X145032000Y-112272536D01*
X145032000Y-111026464D01*
X145176000Y-111026464D01*
X145317190Y-110999897D01*
X145446865Y-110916454D01*
X145533859Y-110789134D01*
X145564464Y-110638000D01*
X145564464Y-109510716D01*
X164134657Y-109510716D01*
X164435611Y-110239080D01*
X164992389Y-110796831D01*
X165720226Y-111099055D01*
X166508316Y-111099743D01*
X167236680Y-110798789D01*
X167794431Y-110242011D01*
X168096655Y-109514174D01*
X168097343Y-108726084D01*
X167796389Y-107997720D01*
X167239611Y-107439969D01*
X166511774Y-107137745D01*
X165723684Y-107137057D01*
X164995320Y-107438011D01*
X164437569Y-107994789D01*
X164135345Y-108722626D01*
X164134657Y-109510716D01*
X145564464Y-109510716D01*
X145564464Y-109138000D01*
X145537897Y-108996810D01*
X145454454Y-108867135D01*
X145327134Y-108780141D01*
X145176000Y-108749536D01*
X143876000Y-108749536D01*
X143734810Y-108776103D01*
X143605135Y-108859546D01*
X143518141Y-108986866D01*
X143487536Y-109138000D01*
X137779000Y-109138000D01*
X137779000Y-108201859D01*
X137786464Y-108165000D01*
X137786464Y-107537250D01*
X139017000Y-107537250D01*
X139017000Y-108240785D01*
X139075004Y-108380819D01*
X139182180Y-108487996D01*
X139322214Y-108546000D01*
X140175750Y-108546000D01*
X140271000Y-108450750D01*
X140271000Y-107442000D01*
X140525000Y-107442000D01*
X140525000Y-108450750D01*
X140620250Y-108546000D01*
X141473786Y-108546000D01*
X141613820Y-108487996D01*
X141720996Y-108380819D01*
X141779000Y-108240785D01*
X141779000Y-107537250D01*
X141683750Y-107442000D01*
X140525000Y-107442000D01*
X140271000Y-107442000D01*
X139112250Y-107442000D01*
X139017000Y-107537250D01*
X137786464Y-107537250D01*
X137786464Y-107410250D01*
X143495000Y-107410250D01*
X143495000Y-108013786D01*
X143553004Y-108153820D01*
X143660181Y-108260996D01*
X143800215Y-108319000D01*
X144303750Y-108319000D01*
X144399000Y-108223750D01*
X144399000Y-107315000D01*
X144653000Y-107315000D01*
X144653000Y-108223750D01*
X144748250Y-108319000D01*
X145251785Y-108319000D01*
X145391819Y-108260996D01*
X145498996Y-108153820D01*
X145557000Y-108013786D01*
X145557000Y-107442250D01*
X147663000Y-107442250D01*
X147663000Y-108295786D01*
X147721004Y-108435820D01*
X147828181Y-108542996D01*
X147968215Y-108601000D01*
X148621750Y-108601000D01*
X148717000Y-108505750D01*
X148717000Y-107347000D01*
X148971000Y-107347000D01*
X148971000Y-108505750D01*
X149066250Y-108601000D01*
X149719785Y-108601000D01*
X149859819Y-108542996D01*
X149966996Y-108435820D01*
X150025000Y-108295786D01*
X150025000Y-107442250D01*
X149993000Y-107410250D01*
X151981000Y-107410250D01*
X151981000Y-108263786D01*
X152039004Y-108403820D01*
X152146181Y-108510996D01*
X152286215Y-108569000D01*
X152939750Y-108569000D01*
X153035000Y-108473750D01*
X153035000Y-107315000D01*
X153289000Y-107315000D01*
X153289000Y-108473750D01*
X153384250Y-108569000D01*
X154037785Y-108569000D01*
X154177819Y-108510996D01*
X154284996Y-108403820D01*
X154343000Y-108263786D01*
X154343000Y-107410250D01*
X156553000Y-107410250D01*
X156553000Y-108263786D01*
X156611004Y-108403820D01*
X156718181Y-108510996D01*
X156858215Y-108569000D01*
X157511750Y-108569000D01*
X157607000Y-108473750D01*
X157607000Y-107315000D01*
X157861000Y-107315000D01*
X157861000Y-108473750D01*
X157956250Y-108569000D01*
X158609785Y-108569000D01*
X158749819Y-108510996D01*
X158856996Y-108403820D01*
X158915000Y-108263786D01*
X158915000Y-107410250D01*
X158819750Y-107315000D01*
X157861000Y-107315000D01*
X157607000Y-107315000D01*
X156648250Y-107315000D01*
X156553000Y-107410250D01*
X154343000Y-107410250D01*
X154247750Y-107315000D01*
X153289000Y-107315000D01*
X153035000Y-107315000D01*
X152076250Y-107315000D01*
X151981000Y-107410250D01*
X149993000Y-107410250D01*
X149929750Y-107347000D01*
X148971000Y-107347000D01*
X148717000Y-107347000D01*
X147758250Y-107347000D01*
X147663000Y-107442250D01*
X145557000Y-107442250D01*
X145557000Y-107410250D01*
X145461750Y-107315000D01*
X144653000Y-107315000D01*
X144399000Y-107315000D01*
X143590250Y-107315000D01*
X143495000Y-107410250D01*
X137786464Y-107410250D01*
X137786464Y-106465000D01*
X137772204Y-106389215D01*
X139017000Y-106389215D01*
X139017000Y-107092750D01*
X139112250Y-107188000D01*
X140271000Y-107188000D01*
X140271000Y-106179250D01*
X140525000Y-106179250D01*
X140525000Y-107188000D01*
X141683750Y-107188000D01*
X141779000Y-107092750D01*
X141779000Y-106389215D01*
X141767816Y-106362214D01*
X143495000Y-106362214D01*
X143495000Y-106965750D01*
X143590250Y-107061000D01*
X144399000Y-107061000D01*
X144399000Y-106152250D01*
X144653000Y-106152250D01*
X144653000Y-107061000D01*
X145461750Y-107061000D01*
X145557000Y-106965750D01*
X145557000Y-106362214D01*
X145498996Y-106222180D01*
X145421030Y-106144214D01*
X147663000Y-106144214D01*
X147663000Y-106997750D01*
X147758250Y-107093000D01*
X148717000Y-107093000D01*
X148717000Y-105934250D01*
X148971000Y-105934250D01*
X148971000Y-107093000D01*
X149929750Y-107093000D01*
X150025000Y-106997750D01*
X150025000Y-106144214D01*
X150011746Y-106112214D01*
X151981000Y-106112214D01*
X151981000Y-106965750D01*
X152076250Y-107061000D01*
X153035000Y-107061000D01*
X153035000Y-105902250D01*
X153289000Y-105902250D01*
X153289000Y-107061000D01*
X154247750Y-107061000D01*
X154343000Y-106965750D01*
X154343000Y-106112214D01*
X156553000Y-106112214D01*
X156553000Y-106965750D01*
X156648250Y-107061000D01*
X157607000Y-107061000D01*
X157607000Y-105902250D01*
X157861000Y-105902250D01*
X157861000Y-107061000D01*
X158819750Y-107061000D01*
X158915000Y-106965750D01*
X158915000Y-106112214D01*
X158856996Y-105972180D01*
X158749819Y-105865004D01*
X158609785Y-105807000D01*
X157956250Y-105807000D01*
X157861000Y-105902250D01*
X157607000Y-105902250D01*
X157511750Y-105807000D01*
X156858215Y-105807000D01*
X156718181Y-105865004D01*
X156611004Y-105972180D01*
X156553000Y-106112214D01*
X154343000Y-106112214D01*
X154284996Y-105972180D01*
X154177819Y-105865004D01*
X154037785Y-105807000D01*
X153384250Y-105807000D01*
X153289000Y-105902250D01*
X153035000Y-105902250D01*
X152939750Y-105807000D01*
X152286215Y-105807000D01*
X152146181Y-105865004D01*
X152039004Y-105972180D01*
X151981000Y-106112214D01*
X150011746Y-106112214D01*
X149966996Y-106004180D01*
X149859819Y-105897004D01*
X149719785Y-105839000D01*
X149066250Y-105839000D01*
X148971000Y-105934250D01*
X148717000Y-105934250D01*
X148621750Y-105839000D01*
X147968215Y-105839000D01*
X147828181Y-105897004D01*
X147721004Y-106004180D01*
X147663000Y-106144214D01*
X145421030Y-106144214D01*
X145391819Y-106115004D01*
X145251785Y-106057000D01*
X144748250Y-106057000D01*
X144653000Y-106152250D01*
X144399000Y-106152250D01*
X144303750Y-106057000D01*
X143800215Y-106057000D01*
X143660181Y-106115004D01*
X143553004Y-106222180D01*
X143495000Y-106362214D01*
X141767816Y-106362214D01*
X141720996Y-106249181D01*
X141613820Y-106142004D01*
X141473786Y-106084000D01*
X140620250Y-106084000D01*
X140525000Y-106179250D01*
X140271000Y-106179250D01*
X140175750Y-106084000D01*
X139322214Y-106084000D01*
X139182180Y-106142004D01*
X139075004Y-106249181D01*
X139017000Y-106389215D01*
X137772204Y-106389215D01*
X137759897Y-106323810D01*
X137676454Y-106194135D01*
X137549134Y-106107141D01*
X137398000Y-106076536D01*
X136982480Y-106076536D01*
X136926486Y-106039122D01*
X136398000Y-105934000D01*
X135869514Y-106039122D01*
X135813520Y-106076536D01*
X135398000Y-106076536D01*
X135256810Y-106103103D01*
X135127135Y-106186546D01*
X135040141Y-106313866D01*
X135011156Y-106457000D01*
X133960464Y-106457000D01*
X133960464Y-106092419D01*
X133995158Y-105918000D01*
X133960464Y-105743581D01*
X133960464Y-104488000D01*
X133933897Y-104346810D01*
X133850454Y-104217135D01*
X133723134Y-104130141D01*
X133572000Y-104099536D01*
X132072000Y-104099536D01*
X132000327Y-104113022D01*
X131872000Y-104087036D01*
X131172000Y-104087036D01*
X131030810Y-104113603D01*
X130901135Y-104197046D01*
X130814141Y-104324366D01*
X130783536Y-104475500D01*
X130783536Y-104544536D01*
X129772000Y-104544536D01*
X129732333Y-104552000D01*
X129642883Y-104552000D01*
X129238769Y-104632383D01*
X128896178Y-104861295D01*
X128667266Y-105203886D01*
X128651000Y-105285661D01*
X128651000Y-103539122D01*
X136035483Y-103539122D01*
X136111216Y-103703391D01*
X136519907Y-103837235D01*
X136948707Y-103804491D01*
X137192784Y-103703391D01*
X137268517Y-103539122D01*
X136652000Y-102922605D01*
X136035483Y-103539122D01*
X128651000Y-103539122D01*
X128651000Y-102610907D01*
X135557765Y-102610907D01*
X135590509Y-103039707D01*
X135691609Y-103283784D01*
X135855878Y-103359517D01*
X136472395Y-102743000D01*
X136831605Y-102743000D01*
X137448122Y-103359517D01*
X137612391Y-103283784D01*
X137746235Y-102875093D01*
X137713491Y-102446293D01*
X137612391Y-102202216D01*
X137448122Y-102126483D01*
X136831605Y-102743000D01*
X136472395Y-102743000D01*
X135855878Y-102126483D01*
X135691609Y-102202216D01*
X135557765Y-102610907D01*
X128651000Y-102610907D01*
X128651000Y-101946878D01*
X136035483Y-101946878D01*
X136652000Y-102563395D01*
X137268517Y-101946878D01*
X137192784Y-101782609D01*
X136784093Y-101648765D01*
X136355293Y-101681509D01*
X136111216Y-101782609D01*
X136035483Y-101946878D01*
X128651000Y-101946878D01*
X128651000Y-98266250D01*
X135421000Y-98266250D01*
X135421000Y-98969786D01*
X135479004Y-99109820D01*
X135586181Y-99216996D01*
X135726215Y-99275000D01*
X136429750Y-99275000D01*
X136525000Y-99179750D01*
X136525000Y-98171000D01*
X135516250Y-98171000D01*
X135421000Y-98266250D01*
X128651000Y-98266250D01*
X128651000Y-97118214D01*
X135421000Y-97118214D01*
X135421000Y-97821750D01*
X135516250Y-97917000D01*
X136525000Y-97917000D01*
X136525000Y-96908250D01*
X136779000Y-96908250D01*
X136779000Y-97917000D01*
X136799000Y-97917000D01*
X136799000Y-98171000D01*
X136779000Y-98171000D01*
X136779000Y-99179750D01*
X136874250Y-99275000D01*
X137577785Y-99275000D01*
X137717819Y-99216996D01*
X137811000Y-99123816D01*
X137811000Y-100202940D01*
X137810761Y-100476493D01*
X137811000Y-100477071D01*
X137811000Y-102743000D01*
X137916122Y-103271486D01*
X138215486Y-103719514D01*
X138663514Y-104018878D01*
X139192000Y-104124000D01*
X139720486Y-104018878D01*
X140168514Y-103719514D01*
X140467878Y-103271486D01*
X140573000Y-102743000D01*
X140573000Y-100203000D01*
X140573239Y-99929507D01*
X140573000Y-99928929D01*
X140573000Y-98044000D01*
X140467878Y-97515514D01*
X140253049Y-97194000D01*
X144557536Y-97194000D01*
X144557536Y-98894000D01*
X144584103Y-99035190D01*
X144667546Y-99164865D01*
X144794866Y-99251859D01*
X144946000Y-99282464D01*
X146646000Y-99282464D01*
X146787190Y-99255897D01*
X146916865Y-99172454D01*
X147003859Y-99045134D01*
X147034464Y-98894000D01*
X147034464Y-98360982D01*
X147146499Y-98360982D01*
X147358348Y-98792056D01*
X147719036Y-99109245D01*
X148019020Y-99233489D01*
X148209000Y-99172627D01*
X148209000Y-98171000D01*
X148463000Y-98171000D01*
X148463000Y-99172627D01*
X148652980Y-99233489D01*
X148952964Y-99109245D01*
X149313652Y-98792056D01*
X149525501Y-98360982D01*
X149465193Y-98171000D01*
X148463000Y-98171000D01*
X148209000Y-98171000D01*
X147206807Y-98171000D01*
X147146499Y-98360982D01*
X147034464Y-98360982D01*
X147034464Y-98019883D01*
X149645000Y-98019883D01*
X149645000Y-98068117D01*
X149738704Y-98539200D01*
X150005552Y-98938565D01*
X150404917Y-99205413D01*
X150876000Y-99299117D01*
X151347083Y-99205413D01*
X151746448Y-98938565D01*
X152013296Y-98539200D01*
X152107000Y-98068117D01*
X152107000Y-98019883D01*
X152185000Y-98019883D01*
X152185000Y-98068117D01*
X152278704Y-98539200D01*
X152545552Y-98938565D01*
X152910000Y-99182082D01*
X152910000Y-101092000D01*
X152948517Y-101285638D01*
X153058204Y-101449796D01*
X156487204Y-104878796D01*
X156651362Y-104988483D01*
X156845000Y-105027000D01*
X171367408Y-105027000D01*
X173276604Y-106936196D01*
X173440762Y-107045883D01*
X173634400Y-107084400D01*
X174527917Y-107084400D01*
X174771835Y-107449448D01*
X175171200Y-107716296D01*
X175277297Y-107737400D01*
X171659493Y-107737400D01*
X171598903Y-107712241D01*
X171049507Y-107711761D01*
X170794515Y-107817122D01*
X170794514Y-107817122D01*
X170794513Y-107817123D01*
X170541749Y-107921563D01*
X170152928Y-108309705D01*
X169942241Y-108817097D01*
X169941761Y-109366493D01*
X170151563Y-109874251D01*
X170539705Y-110263072D01*
X170761193Y-110355041D01*
X170819914Y-110394278D01*
X170888577Y-110407936D01*
X171047097Y-110473759D01*
X171220254Y-110473910D01*
X171348400Y-110499400D01*
X175288575Y-110499400D01*
X174918344Y-110681348D01*
X174601155Y-111042036D01*
X174476911Y-111342020D01*
X174537773Y-111532000D01*
X175539400Y-111532000D01*
X175539400Y-111512000D01*
X175793400Y-111512000D01*
X175793400Y-111532000D01*
X176795027Y-111532000D01*
X176855889Y-111342020D01*
X176731645Y-111042036D01*
X176414456Y-110681348D01*
X175983382Y-110469499D01*
X175793402Y-110529806D01*
X175793402Y-110474138D01*
X176194886Y-110394278D01*
X176642914Y-110094914D01*
X176942278Y-109646886D01*
X177047400Y-109118400D01*
X176942278Y-108589914D01*
X176642914Y-108141886D01*
X176194886Y-107842522D01*
X175860952Y-107776099D01*
X176161600Y-107716296D01*
X176560965Y-107449448D01*
X176827813Y-107050083D01*
X176921517Y-106579000D01*
X176827813Y-106107917D01*
X176560965Y-105708552D01*
X176161600Y-105441704D01*
X175690517Y-105348000D01*
X175642283Y-105348000D01*
X175171200Y-105441704D01*
X174771835Y-105708552D01*
X174528719Y-106072400D01*
X173843992Y-106072400D01*
X171934796Y-104163204D01*
X171770638Y-104053517D01*
X171577000Y-104015000D01*
X157054592Y-104015000D01*
X153922000Y-100882408D01*
X153922000Y-99182082D01*
X154286448Y-98938565D01*
X154553296Y-98539200D01*
X154647000Y-98068117D01*
X154647000Y-98019883D01*
X154725000Y-98019883D01*
X154725000Y-98068117D01*
X154818704Y-98539200D01*
X155085552Y-98938565D01*
X155450000Y-99182082D01*
X155450000Y-99246081D01*
X155488517Y-99439719D01*
X155598204Y-99603877D01*
X156936123Y-100941796D01*
X157100281Y-101051483D01*
X157293919Y-101090000D01*
X173526408Y-101090000D01*
X175160400Y-102723992D01*
X175160400Y-102908920D01*
X174771835Y-103168552D01*
X174504987Y-103567917D01*
X174411283Y-104039000D01*
X174504987Y-104510083D01*
X174771835Y-104909448D01*
X175171200Y-105176296D01*
X175642283Y-105270000D01*
X175690517Y-105270000D01*
X176161600Y-105176296D01*
X176560965Y-104909448D01*
X176827813Y-104510083D01*
X176921517Y-104039000D01*
X176827813Y-103567917D01*
X176560965Y-103168552D01*
X176172400Y-102908920D01*
X176172400Y-102514400D01*
X176133883Y-102320762D01*
X176024196Y-102156604D01*
X174093796Y-100226204D01*
X173929638Y-100116517D01*
X173736000Y-100078000D01*
X157503511Y-100078000D01*
X156549277Y-99123766D01*
X156826448Y-98938565D01*
X157093296Y-98539200D01*
X157187000Y-98068117D01*
X157187000Y-98019883D01*
X157265000Y-98019883D01*
X157265000Y-98068117D01*
X157358704Y-98539200D01*
X157625552Y-98938565D01*
X158024917Y-99205413D01*
X158496000Y-99299117D01*
X158967083Y-99205413D01*
X159366448Y-98938565D01*
X159633296Y-98539200D01*
X159727000Y-98068117D01*
X159727000Y-98019883D01*
X159633296Y-97548800D01*
X159366448Y-97149435D01*
X158967083Y-96882587D01*
X158496000Y-96788883D01*
X158024917Y-96882587D01*
X157625552Y-97149435D01*
X157358704Y-97548800D01*
X157265000Y-98019883D01*
X157187000Y-98019883D01*
X157093296Y-97548800D01*
X156826448Y-97149435D01*
X156427083Y-96882587D01*
X155956000Y-96788883D01*
X155484917Y-96882587D01*
X155085552Y-97149435D01*
X154818704Y-97548800D01*
X154725000Y-98019883D01*
X154647000Y-98019883D01*
X154553296Y-97548800D01*
X154286448Y-97149435D01*
X153887083Y-96882587D01*
X153416000Y-96788883D01*
X152944917Y-96882587D01*
X152545552Y-97149435D01*
X152278704Y-97548800D01*
X152185000Y-98019883D01*
X152107000Y-98019883D01*
X152013296Y-97548800D01*
X151746448Y-97149435D01*
X151347083Y-96882587D01*
X150876000Y-96788883D01*
X150404917Y-96882587D01*
X150005552Y-97149435D01*
X149738704Y-97548800D01*
X149645000Y-98019883D01*
X147034464Y-98019883D01*
X147034464Y-97727018D01*
X147146499Y-97727018D01*
X147206807Y-97917000D01*
X148209000Y-97917000D01*
X148209000Y-96915373D01*
X148463000Y-96915373D01*
X148463000Y-97917000D01*
X149465193Y-97917000D01*
X149525501Y-97727018D01*
X149313652Y-97295944D01*
X148952964Y-96978755D01*
X148652980Y-96854511D01*
X148463000Y-96915373D01*
X148209000Y-96915373D01*
X148019020Y-96854511D01*
X147719036Y-96978755D01*
X147358348Y-97295944D01*
X147146499Y-97727018D01*
X147034464Y-97727018D01*
X147034464Y-97194000D01*
X147007897Y-97052810D01*
X146924454Y-96923135D01*
X146797134Y-96836141D01*
X146646000Y-96805536D01*
X146302000Y-96805536D01*
X146302000Y-96729592D01*
X146513592Y-96518000D01*
X162604408Y-96518000D01*
X164107204Y-98020796D01*
X164271362Y-98130483D01*
X164465000Y-98169000D01*
X175812408Y-98169000D01*
X177802000Y-100158592D01*
X177802000Y-113692400D01*
X176904864Y-113692400D01*
X176904864Y-113349000D01*
X176878297Y-113207810D01*
X176794854Y-113078135D01*
X176667534Y-112991141D01*
X176516400Y-112960536D01*
X174816400Y-112960536D01*
X174675210Y-112987103D01*
X174545535Y-113070546D01*
X174458541Y-113197866D01*
X174427936Y-113349000D01*
X174427936Y-115049000D01*
X174454503Y-115190190D01*
X174537946Y-115319865D01*
X174665266Y-115406859D01*
X174816400Y-115437464D01*
X176516400Y-115437464D01*
X176657590Y-115410897D01*
X176787265Y-115327454D01*
X176874259Y-115200134D01*
X176904864Y-115049000D01*
X176904864Y-114704400D01*
X178155600Y-114704400D01*
X178349238Y-114665883D01*
X178513396Y-114556196D01*
X178665796Y-114403796D01*
X178775483Y-114239638D01*
X178814000Y-114046000D01*
X178814000Y-99949000D01*
X178775483Y-99755362D01*
X178665796Y-99591204D01*
X176379796Y-97305204D01*
X176215638Y-97195517D01*
X176022000Y-97157000D01*
X164674592Y-97157000D01*
X163171796Y-95654204D01*
X163007638Y-95544517D01*
X162814000Y-95506000D01*
X146304000Y-95506000D01*
X146110362Y-95544517D01*
X145946204Y-95654204D01*
X145438204Y-96162204D01*
X145328517Y-96326362D01*
X145290000Y-96520000D01*
X145290000Y-96805536D01*
X144946000Y-96805536D01*
X144804810Y-96832103D01*
X144675135Y-96915546D01*
X144588141Y-97042866D01*
X144557536Y-97194000D01*
X140253049Y-97194000D01*
X140168514Y-97067486D01*
X139720486Y-96768122D01*
X139192000Y-96663000D01*
X138663514Y-96768122D01*
X138215486Y-97067486D01*
X137916122Y-97515514D01*
X137883000Y-97682030D01*
X137883000Y-97118214D01*
X137824996Y-96978180D01*
X137717819Y-96871004D01*
X137577785Y-96813000D01*
X136874250Y-96813000D01*
X136779000Y-96908250D01*
X136525000Y-96908250D01*
X136429750Y-96813000D01*
X135726215Y-96813000D01*
X135586181Y-96871004D01*
X135479004Y-96978180D01*
X135421000Y-97118214D01*
X128651000Y-97118214D01*
X128651000Y-94118316D01*
X129844657Y-94118316D01*
X130145611Y-94846680D01*
X130702389Y-95404431D01*
X131430226Y-95706655D01*
X132218316Y-95707343D01*
X132946680Y-95406389D01*
X133504431Y-94849611D01*
X133777363Y-94192316D01*
X164083857Y-94192316D01*
X164384811Y-94920680D01*
X164941589Y-95478431D01*
X165669426Y-95780655D01*
X166457516Y-95781343D01*
X167185880Y-95480389D01*
X167743631Y-94923611D01*
X168045855Y-94195774D01*
X168045922Y-94118316D01*
X174040657Y-94118316D01*
X174341611Y-94846680D01*
X174898389Y-95404431D01*
X175626226Y-95706655D01*
X176414316Y-95707343D01*
X177142680Y-95406389D01*
X177700431Y-94849611D01*
X178002655Y-94121774D01*
X178003343Y-93333684D01*
X177702389Y-92605320D01*
X177145611Y-92047569D01*
X176417774Y-91745345D01*
X175629684Y-91744657D01*
X174901320Y-92045611D01*
X174343569Y-92602389D01*
X174041345Y-93330226D01*
X174040657Y-94118316D01*
X168045922Y-94118316D01*
X168046543Y-93407684D01*
X167745589Y-92679320D01*
X167188811Y-92121569D01*
X166460974Y-91819345D01*
X165672884Y-91818657D01*
X164944520Y-92119611D01*
X164386769Y-92676389D01*
X164084545Y-93404226D01*
X164083857Y-94192316D01*
X133777363Y-94192316D01*
X133806655Y-94121774D01*
X133807343Y-93333684D01*
X133506389Y-92605320D01*
X132949611Y-92047569D01*
X132221774Y-91745345D01*
X131433684Y-91744657D01*
X130705320Y-92045611D01*
X130147569Y-92602389D01*
X129845345Y-93330226D01*
X129844657Y-94118316D01*
X128651000Y-94118316D01*
X128651000Y-90551000D01*
X179197000Y-90551000D01*
X179197000Y-127381000D01*
M02*
