%FSLAX45Y45*%
G04 Gerber Fmt 4.5, Leading zero omitted, Abs format (unit mm)*
G04 Created by KiCad (PCBNEW 4.0.6+dfsg1-1) date Wed May  9 15:43:25 2018*
%MOMM*%
%LPD*%
G01*
G04 APERTURE LIST*
%ADD10C,0.127000*%
%ADD11C,0.150000*%
%ADD12C,0.200000*%
%ADD13C,0.300000*%
G04 APERTURE END LIST*
D10*
D11*
X12801600Y-12801600D02*
X17983200Y-12801600D01*
X16611600Y-8991600D02*
X12801600Y-8991600D01*
X12801600Y-9093200D02*
X12801600Y-8991600D01*
X12801600Y-12801600D02*
X12801600Y-9093200D01*
X17983200Y-8991600D02*
X17983200Y-12801600D01*
X16611600Y-8991600D02*
X17983200Y-8991600D01*
D12*
X13624560Y-10233660D02*
X13705840Y-10314940D01*
X13705840Y-10233660D02*
X13624560Y-10314940D01*
X13878560Y-10233660D02*
X13959840Y-10314940D01*
X13959840Y-10233660D02*
X13878560Y-10314940D01*
X13715200Y-9804400D02*
G75*
G03X13715200Y-9804400I-50000J0D01*
G01*
X13880300Y-11417300D02*
G75*
G03X13880300Y-11417300I-50000J0D01*
G01*
X13969200Y-9804400D02*
G75*
G03X13969200Y-9804400I-50000J0D01*
G01*
X13969200Y-10020300D02*
G75*
G03X13969200Y-10020300I-50000J0D01*
G01*
X13969200Y-10020300D02*
G75*
G03X13969200Y-10020300I-50000J0D01*
G01*
X14629600Y-9804400D02*
G75*
G03X14629600Y-9804400I-50000J0D01*
G01*
X14883600Y-9804400D02*
G75*
G03X14883600Y-9804400I-50000J0D01*
G01*
X15137600Y-9804400D02*
G75*
G03X15137600Y-9804400I-50000J0D01*
G01*
X15391600Y-9804400D02*
G75*
G03X15391600Y-9804400I-50000J0D01*
G01*
X15645600Y-9804400D02*
G75*
G03X15645600Y-9804400I-50000J0D01*
G01*
X15823400Y-11645900D02*
G75*
G03X15823400Y-11645900I-50000J0D01*
G01*
X15899600Y-9804400D02*
G75*
G03X15899600Y-9804400I-50000J0D01*
G01*
X17182300Y-10909300D02*
G75*
G03X17182300Y-10909300I-50000J0D01*
G01*
X17616640Y-10403900D02*
G75*
G03X17616640Y-10403900I-50000J0D01*
G01*
X17616640Y-10657900D02*
G75*
G03X17616640Y-10657900I-50000J0D01*
G01*
X17616640Y-10911900D02*
G75*
G03X17616640Y-10911900I-50000J0D01*
G01*
X17616640Y-11165900D02*
G75*
G03X17616640Y-11165900I-50000J0D01*
G01*
X17616640Y-11419900D02*
G75*
G03X17616640Y-11419900I-50000J0D01*
G01*
X13284200Y-10539300D02*
X13284200Y-10644300D01*
X13231700Y-10591800D02*
X13336700Y-10591800D01*
X13284200Y-11023300D02*
X13284200Y-11128300D01*
X13231700Y-11075800D02*
X13336700Y-11075800D01*
X13026627Y-10603227D02*
X13026627Y-10518373D01*
X12941773Y-10518373D01*
X12941773Y-10603227D01*
X13026627Y-10603227D01*
X13026627Y-11149227D02*
X13026627Y-11064373D01*
X12941773Y-11064373D01*
X12941773Y-11149227D01*
X13026627Y-11149227D01*
D13*
X13065528Y-13274814D02*
X13065528Y-12974814D01*
X13136957Y-12974814D01*
X13179814Y-12989100D01*
X13208386Y-13017671D01*
X13222671Y-13046243D01*
X13236957Y-13103386D01*
X13236957Y-13146243D01*
X13222671Y-13203386D01*
X13208386Y-13231957D01*
X13179814Y-13260529D01*
X13136957Y-13274814D01*
X13065528Y-13274814D01*
X13365528Y-13274814D02*
X13365528Y-13074814D01*
X13365528Y-13131957D02*
X13379814Y-13103386D01*
X13394100Y-13089100D01*
X13422671Y-13074814D01*
X13451243Y-13074814D01*
X13551243Y-13274814D02*
X13551243Y-13074814D01*
X13551243Y-12974814D02*
X13536957Y-12989100D01*
X13551243Y-13003386D01*
X13565528Y-12989100D01*
X13551243Y-12974814D01*
X13551243Y-13003386D01*
X13736957Y-13274814D02*
X13708386Y-13260529D01*
X13694100Y-13231957D01*
X13694100Y-12974814D01*
X13894100Y-13274814D02*
X13865528Y-13260529D01*
X13851243Y-13231957D01*
X13851243Y-12974814D01*
X14236957Y-13274814D02*
X14236957Y-12974814D01*
X14336957Y-13189100D01*
X14436957Y-12974814D01*
X14436957Y-13274814D01*
X14708386Y-13274814D02*
X14708386Y-13117671D01*
X14694100Y-13089100D01*
X14665528Y-13074814D01*
X14608386Y-13074814D01*
X14579814Y-13089100D01*
X14708386Y-13260529D02*
X14679814Y-13274814D01*
X14608386Y-13274814D01*
X14579814Y-13260529D01*
X14565528Y-13231957D01*
X14565528Y-13203386D01*
X14579814Y-13174814D01*
X14608386Y-13160529D01*
X14679814Y-13160529D01*
X14708386Y-13146243D01*
X14851243Y-13074814D02*
X14851243Y-13374814D01*
X14851243Y-13089100D02*
X14879814Y-13074814D01*
X14936957Y-13074814D01*
X14965528Y-13089100D01*
X14979814Y-13103386D01*
X14994100Y-13131957D01*
X14994100Y-13217671D01*
X14979814Y-13246243D01*
X14965528Y-13260529D01*
X14936957Y-13274814D01*
X14879814Y-13274814D01*
X14851243Y-13260529D01*
X15122671Y-13246243D02*
X15136957Y-13260529D01*
X15122671Y-13274814D01*
X15108386Y-13260529D01*
X15122671Y-13246243D01*
X15122671Y-13274814D01*
X15122671Y-13089100D02*
X15136957Y-13103386D01*
X15122671Y-13117671D01*
X15108386Y-13103386D01*
X15122671Y-13089100D01*
X15122671Y-13117671D01*
X12712820Y-13728460D02*
X12794100Y-13809740D01*
X12794100Y-13728460D02*
X12712820Y-13809740D01*
X13122671Y-13604814D02*
X13151243Y-13604814D01*
X13179814Y-13619100D01*
X13194100Y-13633386D01*
X13208386Y-13661957D01*
X13222671Y-13719100D01*
X13222671Y-13790529D01*
X13208386Y-13847671D01*
X13194100Y-13876243D01*
X13179814Y-13890529D01*
X13151243Y-13904814D01*
X13122671Y-13904814D01*
X13094100Y-13890529D01*
X13079814Y-13876243D01*
X13065528Y-13847671D01*
X13051243Y-13790529D01*
X13051243Y-13719100D01*
X13065528Y-13661957D01*
X13079814Y-13633386D01*
X13094100Y-13619100D01*
X13122671Y-13604814D01*
X13351243Y-13876243D02*
X13365528Y-13890529D01*
X13351243Y-13904814D01*
X13336957Y-13890529D01*
X13351243Y-13876243D01*
X13351243Y-13904814D01*
X13536957Y-13733386D02*
X13508386Y-13719100D01*
X13494100Y-13704814D01*
X13479814Y-13676243D01*
X13479814Y-13661957D01*
X13494100Y-13633386D01*
X13508386Y-13619100D01*
X13536957Y-13604814D01*
X13594100Y-13604814D01*
X13622671Y-13619100D01*
X13636957Y-13633386D01*
X13651243Y-13661957D01*
X13651243Y-13676243D01*
X13636957Y-13704814D01*
X13622671Y-13719100D01*
X13594100Y-13733386D01*
X13536957Y-13733386D01*
X13508386Y-13747671D01*
X13494100Y-13761957D01*
X13479814Y-13790529D01*
X13479814Y-13847671D01*
X13494100Y-13876243D01*
X13508386Y-13890529D01*
X13536957Y-13904814D01*
X13594100Y-13904814D01*
X13622671Y-13890529D01*
X13636957Y-13876243D01*
X13651243Y-13847671D01*
X13651243Y-13790529D01*
X13636957Y-13761957D01*
X13622671Y-13747671D01*
X13594100Y-13733386D01*
X13936957Y-13904814D02*
X13765528Y-13904814D01*
X13851243Y-13904814D02*
X13851243Y-13604814D01*
X13822671Y-13647671D01*
X13794100Y-13676243D01*
X13765528Y-13690529D01*
X14065528Y-13904814D02*
X14065528Y-13704814D01*
X14065528Y-13733386D02*
X14079814Y-13719100D01*
X14108386Y-13704814D01*
X14151243Y-13704814D01*
X14179814Y-13719100D01*
X14194100Y-13747671D01*
X14194100Y-13904814D01*
X14194100Y-13747671D02*
X14208386Y-13719100D01*
X14236957Y-13704814D01*
X14279814Y-13704814D01*
X14308386Y-13719100D01*
X14322671Y-13747671D01*
X14322671Y-13904814D01*
X14465528Y-13904814D02*
X14465528Y-13704814D01*
X14465528Y-13733386D02*
X14479814Y-13719100D01*
X14508386Y-13704814D01*
X14551243Y-13704814D01*
X14579814Y-13719100D01*
X14594100Y-13747671D01*
X14594100Y-13904814D01*
X14594100Y-13747671D02*
X14608386Y-13719100D01*
X14636957Y-13704814D01*
X14679814Y-13704814D01*
X14708386Y-13719100D01*
X14722671Y-13747671D01*
X14722671Y-13904814D01*
X15308386Y-13590529D02*
X15051243Y-13976243D01*
X15694100Y-13604814D02*
X15722671Y-13604814D01*
X15751243Y-13619100D01*
X15765528Y-13633386D01*
X15779814Y-13661957D01*
X15794100Y-13719100D01*
X15794100Y-13790529D01*
X15779814Y-13847671D01*
X15765528Y-13876243D01*
X15751243Y-13890529D01*
X15722671Y-13904814D01*
X15694100Y-13904814D01*
X15665528Y-13890529D01*
X15651243Y-13876243D01*
X15636957Y-13847671D01*
X15622671Y-13790529D01*
X15622671Y-13719100D01*
X15636957Y-13661957D01*
X15651243Y-13633386D01*
X15665528Y-13619100D01*
X15694100Y-13604814D01*
X15922671Y-13876243D02*
X15936957Y-13890529D01*
X15922671Y-13904814D01*
X15908386Y-13890529D01*
X15922671Y-13876243D01*
X15922671Y-13904814D01*
X16122671Y-13604814D02*
X16151243Y-13604814D01*
X16179814Y-13619100D01*
X16194100Y-13633386D01*
X16208385Y-13661957D01*
X16222671Y-13719100D01*
X16222671Y-13790529D01*
X16208385Y-13847671D01*
X16194100Y-13876243D01*
X16179814Y-13890529D01*
X16151243Y-13904814D01*
X16122671Y-13904814D01*
X16094100Y-13890529D01*
X16079814Y-13876243D01*
X16065528Y-13847671D01*
X16051243Y-13790529D01*
X16051243Y-13719100D01*
X16065528Y-13661957D01*
X16079814Y-13633386D01*
X16094100Y-13619100D01*
X16122671Y-13604814D01*
X16322671Y-13604814D02*
X16508385Y-13604814D01*
X16408385Y-13719100D01*
X16451243Y-13719100D01*
X16479814Y-13733386D01*
X16494100Y-13747671D01*
X16508385Y-13776243D01*
X16508385Y-13847671D01*
X16494100Y-13876243D01*
X16479814Y-13890529D01*
X16451243Y-13904814D01*
X16365528Y-13904814D01*
X16336957Y-13890529D01*
X16322671Y-13876243D01*
X16622671Y-13633386D02*
X16636957Y-13619100D01*
X16665528Y-13604814D01*
X16736957Y-13604814D01*
X16765528Y-13619100D01*
X16779814Y-13633386D01*
X16794100Y-13661957D01*
X16794100Y-13690529D01*
X16779814Y-13733386D01*
X16608385Y-13904814D01*
X16794100Y-13904814D01*
X16908386Y-13604814D02*
X16908386Y-13661957D01*
X17022671Y-13604814D02*
X17022671Y-13661957D01*
X17465528Y-14019100D02*
X17451243Y-14004814D01*
X17422671Y-13961957D01*
X17408386Y-13933386D01*
X17394100Y-13890529D01*
X17379814Y-13819100D01*
X17379814Y-13761957D01*
X17394100Y-13690529D01*
X17408386Y-13647671D01*
X17422671Y-13619100D01*
X17451243Y-13576243D01*
X17465528Y-13561957D01*
X17565528Y-13633386D02*
X17579814Y-13619100D01*
X17608386Y-13604814D01*
X17679814Y-13604814D01*
X17708386Y-13619100D01*
X17722671Y-13633386D01*
X17736957Y-13661957D01*
X17736957Y-13690529D01*
X17722671Y-13733386D01*
X17551243Y-13904814D01*
X17736957Y-13904814D01*
X18094100Y-13904814D02*
X18094100Y-13604814D01*
X18222671Y-13904814D02*
X18222671Y-13747671D01*
X18208386Y-13719100D01*
X18179814Y-13704814D01*
X18136957Y-13704814D01*
X18108386Y-13719100D01*
X18094100Y-13733386D01*
X18408386Y-13904814D02*
X18379814Y-13890529D01*
X18365528Y-13876243D01*
X18351243Y-13847671D01*
X18351243Y-13761957D01*
X18365528Y-13733386D01*
X18379814Y-13719100D01*
X18408386Y-13704814D01*
X18451243Y-13704814D01*
X18479814Y-13719100D01*
X18494100Y-13733386D01*
X18508386Y-13761957D01*
X18508386Y-13847671D01*
X18494100Y-13876243D01*
X18479814Y-13890529D01*
X18451243Y-13904814D01*
X18408386Y-13904814D01*
X18679814Y-13904814D02*
X18651243Y-13890529D01*
X18636957Y-13861957D01*
X18636957Y-13604814D01*
X18908386Y-13890529D02*
X18879814Y-13904814D01*
X18822671Y-13904814D01*
X18794100Y-13890529D01*
X18779814Y-13861957D01*
X18779814Y-13747671D01*
X18794100Y-13719100D01*
X18822671Y-13704814D01*
X18879814Y-13704814D01*
X18908386Y-13719100D01*
X18922671Y-13747671D01*
X18922671Y-13776243D01*
X18779814Y-13804814D01*
X19036957Y-13890529D02*
X19065529Y-13904814D01*
X19122671Y-13904814D01*
X19151243Y-13890529D01*
X19165529Y-13861957D01*
X19165529Y-13847671D01*
X19151243Y-13819100D01*
X19122671Y-13804814D01*
X19079814Y-13804814D01*
X19051243Y-13790529D01*
X19036957Y-13761957D01*
X19036957Y-13747671D01*
X19051243Y-13719100D01*
X19079814Y-13704814D01*
X19122671Y-13704814D01*
X19151243Y-13719100D01*
X19265528Y-14019100D02*
X19279814Y-14004814D01*
X19308386Y-13961957D01*
X19322671Y-13933386D01*
X19336957Y-13890529D01*
X19351243Y-13819100D01*
X19351243Y-13761957D01*
X19336957Y-13690529D01*
X19322671Y-13647671D01*
X19308386Y-13619100D01*
X19279814Y-13576243D01*
X19265528Y-13561957D01*
X12794100Y-14165100D02*
G75*
G03X12794100Y-14165100I-50000J0D01*
G01*
X13222671Y-14300814D02*
X13051243Y-14300814D01*
X13136957Y-14300814D02*
X13136957Y-14000814D01*
X13108386Y-14043671D01*
X13079814Y-14072243D01*
X13051243Y-14086529D01*
X13351243Y-14272243D02*
X13365528Y-14286529D01*
X13351243Y-14300814D01*
X13336957Y-14286529D01*
X13351243Y-14272243D01*
X13351243Y-14300814D01*
X13551243Y-14000814D02*
X13579814Y-14000814D01*
X13608386Y-14015100D01*
X13622671Y-14029386D01*
X13636957Y-14057957D01*
X13651243Y-14115100D01*
X13651243Y-14186529D01*
X13636957Y-14243671D01*
X13622671Y-14272243D01*
X13608386Y-14286529D01*
X13579814Y-14300814D01*
X13551243Y-14300814D01*
X13522671Y-14286529D01*
X13508386Y-14272243D01*
X13494100Y-14243671D01*
X13479814Y-14186529D01*
X13479814Y-14115100D01*
X13494100Y-14057957D01*
X13508386Y-14029386D01*
X13522671Y-14015100D01*
X13551243Y-14000814D01*
X13836957Y-14000814D02*
X13865528Y-14000814D01*
X13894100Y-14015100D01*
X13908386Y-14029386D01*
X13922671Y-14057957D01*
X13936957Y-14115100D01*
X13936957Y-14186529D01*
X13922671Y-14243671D01*
X13908386Y-14272243D01*
X13894100Y-14286529D01*
X13865528Y-14300814D01*
X13836957Y-14300814D01*
X13808386Y-14286529D01*
X13794100Y-14272243D01*
X13779814Y-14243671D01*
X13765528Y-14186529D01*
X13765528Y-14115100D01*
X13779814Y-14057957D01*
X13794100Y-14029386D01*
X13808386Y-14015100D01*
X13836957Y-14000814D01*
X14065528Y-14300814D02*
X14065528Y-14100814D01*
X14065528Y-14129386D02*
X14079814Y-14115100D01*
X14108386Y-14100814D01*
X14151243Y-14100814D01*
X14179814Y-14115100D01*
X14194100Y-14143671D01*
X14194100Y-14300814D01*
X14194100Y-14143671D02*
X14208386Y-14115100D01*
X14236957Y-14100814D01*
X14279814Y-14100814D01*
X14308386Y-14115100D01*
X14322671Y-14143671D01*
X14322671Y-14300814D01*
X14465528Y-14300814D02*
X14465528Y-14100814D01*
X14465528Y-14129386D02*
X14479814Y-14115100D01*
X14508386Y-14100814D01*
X14551243Y-14100814D01*
X14579814Y-14115100D01*
X14594100Y-14143671D01*
X14594100Y-14300814D01*
X14594100Y-14143671D02*
X14608386Y-14115100D01*
X14636957Y-14100814D01*
X14679814Y-14100814D01*
X14708386Y-14115100D01*
X14722671Y-14143671D01*
X14722671Y-14300814D01*
X15308386Y-13986529D02*
X15051243Y-14372243D01*
X15694100Y-14000814D02*
X15722671Y-14000814D01*
X15751243Y-14015100D01*
X15765528Y-14029386D01*
X15779814Y-14057957D01*
X15794100Y-14115100D01*
X15794100Y-14186529D01*
X15779814Y-14243671D01*
X15765528Y-14272243D01*
X15751243Y-14286529D01*
X15722671Y-14300814D01*
X15694100Y-14300814D01*
X15665528Y-14286529D01*
X15651243Y-14272243D01*
X15636957Y-14243671D01*
X15622671Y-14186529D01*
X15622671Y-14115100D01*
X15636957Y-14057957D01*
X15651243Y-14029386D01*
X15665528Y-14015100D01*
X15694100Y-14000814D01*
X15922671Y-14272243D02*
X15936957Y-14286529D01*
X15922671Y-14300814D01*
X15908386Y-14286529D01*
X15922671Y-14272243D01*
X15922671Y-14300814D01*
X16122671Y-14000814D02*
X16151243Y-14000814D01*
X16179814Y-14015100D01*
X16194100Y-14029386D01*
X16208385Y-14057957D01*
X16222671Y-14115100D01*
X16222671Y-14186529D01*
X16208385Y-14243671D01*
X16194100Y-14272243D01*
X16179814Y-14286529D01*
X16151243Y-14300814D01*
X16122671Y-14300814D01*
X16094100Y-14286529D01*
X16079814Y-14272243D01*
X16065528Y-14243671D01*
X16051243Y-14186529D01*
X16051243Y-14115100D01*
X16065528Y-14057957D01*
X16079814Y-14029386D01*
X16094100Y-14015100D01*
X16122671Y-14000814D01*
X16322671Y-14000814D02*
X16508385Y-14000814D01*
X16408385Y-14115100D01*
X16451243Y-14115100D01*
X16479814Y-14129386D01*
X16494100Y-14143671D01*
X16508385Y-14172243D01*
X16508385Y-14243671D01*
X16494100Y-14272243D01*
X16479814Y-14286529D01*
X16451243Y-14300814D01*
X16365528Y-14300814D01*
X16336957Y-14286529D01*
X16322671Y-14272243D01*
X16651243Y-14300814D02*
X16708385Y-14300814D01*
X16736957Y-14286529D01*
X16751243Y-14272243D01*
X16779814Y-14229386D01*
X16794100Y-14172243D01*
X16794100Y-14057957D01*
X16779814Y-14029386D01*
X16765528Y-14015100D01*
X16736957Y-14000814D01*
X16679814Y-14000814D01*
X16651243Y-14015100D01*
X16636957Y-14029386D01*
X16622671Y-14057957D01*
X16622671Y-14129386D01*
X16636957Y-14157957D01*
X16651243Y-14172243D01*
X16679814Y-14186529D01*
X16736957Y-14186529D01*
X16765528Y-14172243D01*
X16779814Y-14157957D01*
X16794100Y-14129386D01*
X16908386Y-14000814D02*
X16908386Y-14057957D01*
X17022671Y-14000814D02*
X17022671Y-14057957D01*
X17465528Y-14415100D02*
X17451243Y-14400814D01*
X17422671Y-14357957D01*
X17408386Y-14329386D01*
X17394100Y-14286529D01*
X17379814Y-14215100D01*
X17379814Y-14157957D01*
X17394100Y-14086529D01*
X17408386Y-14043671D01*
X17422671Y-14015100D01*
X17451243Y-13972243D01*
X17465528Y-13957957D01*
X17736957Y-14300814D02*
X17565528Y-14300814D01*
X17651243Y-14300814D02*
X17651243Y-14000814D01*
X17622671Y-14043671D01*
X17594100Y-14072243D01*
X17565528Y-14086529D01*
X17908386Y-14129386D02*
X17879814Y-14115100D01*
X17865528Y-14100814D01*
X17851243Y-14072243D01*
X17851243Y-14057957D01*
X17865528Y-14029386D01*
X17879814Y-14015100D01*
X17908386Y-14000814D01*
X17965528Y-14000814D01*
X17994100Y-14015100D01*
X18008386Y-14029386D01*
X18022671Y-14057957D01*
X18022671Y-14072243D01*
X18008386Y-14100814D01*
X17994100Y-14115100D01*
X17965528Y-14129386D01*
X17908386Y-14129386D01*
X17879814Y-14143671D01*
X17865528Y-14157957D01*
X17851243Y-14186529D01*
X17851243Y-14243671D01*
X17865528Y-14272243D01*
X17879814Y-14286529D01*
X17908386Y-14300814D01*
X17965528Y-14300814D01*
X17994100Y-14286529D01*
X18008386Y-14272243D01*
X18022671Y-14243671D01*
X18022671Y-14186529D01*
X18008386Y-14157957D01*
X17994100Y-14143671D01*
X17965528Y-14129386D01*
X18379814Y-14300814D02*
X18379814Y-14000814D01*
X18508386Y-14300814D02*
X18508386Y-14143671D01*
X18494100Y-14115100D01*
X18465528Y-14100814D01*
X18422671Y-14100814D01*
X18394100Y-14115100D01*
X18379814Y-14129386D01*
X18694100Y-14300814D02*
X18665528Y-14286529D01*
X18651243Y-14272243D01*
X18636957Y-14243671D01*
X18636957Y-14157957D01*
X18651243Y-14129386D01*
X18665528Y-14115100D01*
X18694100Y-14100814D01*
X18736957Y-14100814D01*
X18765528Y-14115100D01*
X18779814Y-14129386D01*
X18794100Y-14157957D01*
X18794100Y-14243671D01*
X18779814Y-14272243D01*
X18765528Y-14286529D01*
X18736957Y-14300814D01*
X18694100Y-14300814D01*
X18965528Y-14300814D02*
X18936957Y-14286529D01*
X18922671Y-14257957D01*
X18922671Y-14000814D01*
X19194100Y-14286529D02*
X19165529Y-14300814D01*
X19108386Y-14300814D01*
X19079814Y-14286529D01*
X19065529Y-14257957D01*
X19065529Y-14143671D01*
X19079814Y-14115100D01*
X19108386Y-14100814D01*
X19165529Y-14100814D01*
X19194100Y-14115100D01*
X19208386Y-14143671D01*
X19208386Y-14172243D01*
X19065529Y-14200814D01*
X19322671Y-14286529D02*
X19351243Y-14300814D01*
X19408386Y-14300814D01*
X19436957Y-14286529D01*
X19451243Y-14257957D01*
X19451243Y-14243671D01*
X19436957Y-14215100D01*
X19408386Y-14200814D01*
X19365529Y-14200814D01*
X19336957Y-14186529D01*
X19322671Y-14157957D01*
X19322671Y-14143671D01*
X19336957Y-14115100D01*
X19365529Y-14100814D01*
X19408386Y-14100814D01*
X19436957Y-14115100D01*
X19551243Y-14415100D02*
X19565529Y-14400814D01*
X19594100Y-14357957D01*
X19608386Y-14329386D01*
X19622671Y-14286529D01*
X19636957Y-14215100D01*
X19636957Y-14157957D01*
X19622671Y-14086529D01*
X19608386Y-14043671D01*
X19594100Y-14015100D01*
X19565529Y-13972243D01*
X19551243Y-13957957D01*
X12741600Y-14508600D02*
X12741600Y-14613600D01*
X12689100Y-14561100D02*
X12794100Y-14561100D01*
X13222671Y-14696814D02*
X13051243Y-14696814D01*
X13136957Y-14696814D02*
X13136957Y-14396814D01*
X13108386Y-14439671D01*
X13079814Y-14468243D01*
X13051243Y-14482529D01*
X13351243Y-14668243D02*
X13365528Y-14682529D01*
X13351243Y-14696814D01*
X13336957Y-14682529D01*
X13351243Y-14668243D01*
X13351243Y-14696814D01*
X13551243Y-14396814D02*
X13579814Y-14396814D01*
X13608386Y-14411100D01*
X13622671Y-14425386D01*
X13636957Y-14453957D01*
X13651243Y-14511100D01*
X13651243Y-14582529D01*
X13636957Y-14639671D01*
X13622671Y-14668243D01*
X13608386Y-14682529D01*
X13579814Y-14696814D01*
X13551243Y-14696814D01*
X13522671Y-14682529D01*
X13508386Y-14668243D01*
X13494100Y-14639671D01*
X13479814Y-14582529D01*
X13479814Y-14511100D01*
X13494100Y-14453957D01*
X13508386Y-14425386D01*
X13522671Y-14411100D01*
X13551243Y-14396814D01*
X13922671Y-14396814D02*
X13779814Y-14396814D01*
X13765528Y-14539671D01*
X13779814Y-14525386D01*
X13808386Y-14511100D01*
X13879814Y-14511100D01*
X13908386Y-14525386D01*
X13922671Y-14539671D01*
X13936957Y-14568243D01*
X13936957Y-14639671D01*
X13922671Y-14668243D01*
X13908386Y-14682529D01*
X13879814Y-14696814D01*
X13808386Y-14696814D01*
X13779814Y-14682529D01*
X13765528Y-14668243D01*
X14065528Y-14696814D02*
X14065528Y-14496814D01*
X14065528Y-14525386D02*
X14079814Y-14511100D01*
X14108386Y-14496814D01*
X14151243Y-14496814D01*
X14179814Y-14511100D01*
X14194100Y-14539671D01*
X14194100Y-14696814D01*
X14194100Y-14539671D02*
X14208386Y-14511100D01*
X14236957Y-14496814D01*
X14279814Y-14496814D01*
X14308386Y-14511100D01*
X14322671Y-14539671D01*
X14322671Y-14696814D01*
X14465528Y-14696814D02*
X14465528Y-14496814D01*
X14465528Y-14525386D02*
X14479814Y-14511100D01*
X14508386Y-14496814D01*
X14551243Y-14496814D01*
X14579814Y-14511100D01*
X14594100Y-14539671D01*
X14594100Y-14696814D01*
X14594100Y-14539671D02*
X14608386Y-14511100D01*
X14636957Y-14496814D01*
X14679814Y-14496814D01*
X14708386Y-14511100D01*
X14722671Y-14539671D01*
X14722671Y-14696814D01*
X15308386Y-14382529D02*
X15051243Y-14768243D01*
X15694100Y-14396814D02*
X15722671Y-14396814D01*
X15751243Y-14411100D01*
X15765528Y-14425386D01*
X15779814Y-14453957D01*
X15794100Y-14511100D01*
X15794100Y-14582529D01*
X15779814Y-14639671D01*
X15765528Y-14668243D01*
X15751243Y-14682529D01*
X15722671Y-14696814D01*
X15694100Y-14696814D01*
X15665528Y-14682529D01*
X15651243Y-14668243D01*
X15636957Y-14639671D01*
X15622671Y-14582529D01*
X15622671Y-14511100D01*
X15636957Y-14453957D01*
X15651243Y-14425386D01*
X15665528Y-14411100D01*
X15694100Y-14396814D01*
X15922671Y-14668243D02*
X15936957Y-14682529D01*
X15922671Y-14696814D01*
X15908386Y-14682529D01*
X15922671Y-14668243D01*
X15922671Y-14696814D01*
X16122671Y-14396814D02*
X16151243Y-14396814D01*
X16179814Y-14411100D01*
X16194100Y-14425386D01*
X16208385Y-14453957D01*
X16222671Y-14511100D01*
X16222671Y-14582529D01*
X16208385Y-14639671D01*
X16194100Y-14668243D01*
X16179814Y-14682529D01*
X16151243Y-14696814D01*
X16122671Y-14696814D01*
X16094100Y-14682529D01*
X16079814Y-14668243D01*
X16065528Y-14639671D01*
X16051243Y-14582529D01*
X16051243Y-14511100D01*
X16065528Y-14453957D01*
X16079814Y-14425386D01*
X16094100Y-14411100D01*
X16122671Y-14396814D01*
X16479814Y-14496814D02*
X16479814Y-14696814D01*
X16408385Y-14382529D02*
X16336957Y-14596814D01*
X16522671Y-14596814D01*
X16794100Y-14696814D02*
X16622671Y-14696814D01*
X16708385Y-14696814D02*
X16708385Y-14396814D01*
X16679814Y-14439671D01*
X16651243Y-14468243D01*
X16622671Y-14482529D01*
X16908386Y-14396814D02*
X16908386Y-14453957D01*
X17022671Y-14396814D02*
X17022671Y-14453957D01*
X17465528Y-14811100D02*
X17451243Y-14796814D01*
X17422671Y-14753957D01*
X17408386Y-14725386D01*
X17394100Y-14682529D01*
X17379814Y-14611100D01*
X17379814Y-14553957D01*
X17394100Y-14482529D01*
X17408386Y-14439671D01*
X17422671Y-14411100D01*
X17451243Y-14368243D01*
X17465528Y-14353957D01*
X17565528Y-14425386D02*
X17579814Y-14411100D01*
X17608386Y-14396814D01*
X17679814Y-14396814D01*
X17708386Y-14411100D01*
X17722671Y-14425386D01*
X17736957Y-14453957D01*
X17736957Y-14482529D01*
X17722671Y-14525386D01*
X17551243Y-14696814D01*
X17736957Y-14696814D01*
X18094100Y-14696814D02*
X18094100Y-14396814D01*
X18222671Y-14696814D02*
X18222671Y-14539671D01*
X18208386Y-14511100D01*
X18179814Y-14496814D01*
X18136957Y-14496814D01*
X18108386Y-14511100D01*
X18094100Y-14525386D01*
X18408386Y-14696814D02*
X18379814Y-14682529D01*
X18365528Y-14668243D01*
X18351243Y-14639671D01*
X18351243Y-14553957D01*
X18365528Y-14525386D01*
X18379814Y-14511100D01*
X18408386Y-14496814D01*
X18451243Y-14496814D01*
X18479814Y-14511100D01*
X18494100Y-14525386D01*
X18508386Y-14553957D01*
X18508386Y-14639671D01*
X18494100Y-14668243D01*
X18479814Y-14682529D01*
X18451243Y-14696814D01*
X18408386Y-14696814D01*
X18679814Y-14696814D02*
X18651243Y-14682529D01*
X18636957Y-14653957D01*
X18636957Y-14396814D01*
X18908386Y-14682529D02*
X18879814Y-14696814D01*
X18822671Y-14696814D01*
X18794100Y-14682529D01*
X18779814Y-14653957D01*
X18779814Y-14539671D01*
X18794100Y-14511100D01*
X18822671Y-14496814D01*
X18879814Y-14496814D01*
X18908386Y-14511100D01*
X18922671Y-14539671D01*
X18922671Y-14568243D01*
X18779814Y-14596814D01*
X19036957Y-14682529D02*
X19065529Y-14696814D01*
X19122671Y-14696814D01*
X19151243Y-14682529D01*
X19165529Y-14653957D01*
X19165529Y-14639671D01*
X19151243Y-14611100D01*
X19122671Y-14596814D01*
X19079814Y-14596814D01*
X19051243Y-14582529D01*
X19036957Y-14553957D01*
X19036957Y-14539671D01*
X19051243Y-14511100D01*
X19079814Y-14496814D01*
X19122671Y-14496814D01*
X19151243Y-14511100D01*
X19265528Y-14811100D02*
X19279814Y-14796814D01*
X19308386Y-14753957D01*
X19322671Y-14725386D01*
X19336957Y-14682529D01*
X19351243Y-14611100D01*
X19351243Y-14553957D01*
X19336957Y-14482529D01*
X19322671Y-14439671D01*
X19308386Y-14411100D01*
X19279814Y-14368243D01*
X19265528Y-14353957D01*
X12776527Y-14999527D02*
X12776527Y-14914673D01*
X12691673Y-14914673D01*
X12691673Y-14999527D01*
X12776527Y-14999527D01*
X13222671Y-15092814D02*
X13051243Y-15092814D01*
X13136957Y-15092814D02*
X13136957Y-14792814D01*
X13108386Y-14835671D01*
X13079814Y-14864243D01*
X13051243Y-14878529D01*
X13351243Y-15064243D02*
X13365528Y-15078529D01*
X13351243Y-15092814D01*
X13336957Y-15078529D01*
X13351243Y-15064243D01*
X13351243Y-15092814D01*
X13479814Y-14821386D02*
X13494100Y-14807100D01*
X13522671Y-14792814D01*
X13594100Y-14792814D01*
X13622671Y-14807100D01*
X13636957Y-14821386D01*
X13651243Y-14849957D01*
X13651243Y-14878529D01*
X13636957Y-14921386D01*
X13465528Y-15092814D01*
X13651243Y-15092814D01*
X13836957Y-14792814D02*
X13865528Y-14792814D01*
X13894100Y-14807100D01*
X13908386Y-14821386D01*
X13922671Y-14849957D01*
X13936957Y-14907100D01*
X13936957Y-14978529D01*
X13922671Y-15035671D01*
X13908386Y-15064243D01*
X13894100Y-15078529D01*
X13865528Y-15092814D01*
X13836957Y-15092814D01*
X13808386Y-15078529D01*
X13794100Y-15064243D01*
X13779814Y-15035671D01*
X13765528Y-14978529D01*
X13765528Y-14907100D01*
X13779814Y-14849957D01*
X13794100Y-14821386D01*
X13808386Y-14807100D01*
X13836957Y-14792814D01*
X14065528Y-15092814D02*
X14065528Y-14892814D01*
X14065528Y-14921386D02*
X14079814Y-14907100D01*
X14108386Y-14892814D01*
X14151243Y-14892814D01*
X14179814Y-14907100D01*
X14194100Y-14935671D01*
X14194100Y-15092814D01*
X14194100Y-14935671D02*
X14208386Y-14907100D01*
X14236957Y-14892814D01*
X14279814Y-14892814D01*
X14308386Y-14907100D01*
X14322671Y-14935671D01*
X14322671Y-15092814D01*
X14465528Y-15092814D02*
X14465528Y-14892814D01*
X14465528Y-14921386D02*
X14479814Y-14907100D01*
X14508386Y-14892814D01*
X14551243Y-14892814D01*
X14579814Y-14907100D01*
X14594100Y-14935671D01*
X14594100Y-15092814D01*
X14594100Y-14935671D02*
X14608386Y-14907100D01*
X14636957Y-14892814D01*
X14679814Y-14892814D01*
X14708386Y-14907100D01*
X14722671Y-14935671D01*
X14722671Y-15092814D01*
X15308386Y-14778529D02*
X15051243Y-15164243D01*
X15694100Y-14792814D02*
X15722671Y-14792814D01*
X15751243Y-14807100D01*
X15765528Y-14821386D01*
X15779814Y-14849957D01*
X15794100Y-14907100D01*
X15794100Y-14978529D01*
X15779814Y-15035671D01*
X15765528Y-15064243D01*
X15751243Y-15078529D01*
X15722671Y-15092814D01*
X15694100Y-15092814D01*
X15665528Y-15078529D01*
X15651243Y-15064243D01*
X15636957Y-15035671D01*
X15622671Y-14978529D01*
X15622671Y-14907100D01*
X15636957Y-14849957D01*
X15651243Y-14821386D01*
X15665528Y-14807100D01*
X15694100Y-14792814D01*
X15922671Y-15064243D02*
X15936957Y-15078529D01*
X15922671Y-15092814D01*
X15908386Y-15078529D01*
X15922671Y-15064243D01*
X15922671Y-15092814D01*
X16122671Y-14792814D02*
X16151243Y-14792814D01*
X16179814Y-14807100D01*
X16194100Y-14821386D01*
X16208385Y-14849957D01*
X16222671Y-14907100D01*
X16222671Y-14978529D01*
X16208385Y-15035671D01*
X16194100Y-15064243D01*
X16179814Y-15078529D01*
X16151243Y-15092814D01*
X16122671Y-15092814D01*
X16094100Y-15078529D01*
X16079814Y-15064243D01*
X16065528Y-15035671D01*
X16051243Y-14978529D01*
X16051243Y-14907100D01*
X16065528Y-14849957D01*
X16079814Y-14821386D01*
X16094100Y-14807100D01*
X16122671Y-14792814D01*
X16479814Y-14892814D02*
X16479814Y-15092814D01*
X16408385Y-14778529D02*
X16336957Y-14992814D01*
X16522671Y-14992814D01*
X16608385Y-14792814D02*
X16808386Y-14792814D01*
X16679814Y-15092814D01*
X16908386Y-14792814D02*
X16908386Y-14849957D01*
X17022671Y-14792814D02*
X17022671Y-14849957D01*
X17465528Y-15207100D02*
X17451243Y-15192814D01*
X17422671Y-15149957D01*
X17408386Y-15121386D01*
X17394100Y-15078529D01*
X17379814Y-15007100D01*
X17379814Y-14949957D01*
X17394100Y-14878529D01*
X17408386Y-14835671D01*
X17422671Y-14807100D01*
X17451243Y-14764243D01*
X17465528Y-14749957D01*
X17565528Y-14821386D02*
X17579814Y-14807100D01*
X17608386Y-14792814D01*
X17679814Y-14792814D01*
X17708386Y-14807100D01*
X17722671Y-14821386D01*
X17736957Y-14849957D01*
X17736957Y-14878529D01*
X17722671Y-14921386D01*
X17551243Y-15092814D01*
X17736957Y-15092814D01*
X18094100Y-15092814D02*
X18094100Y-14792814D01*
X18222671Y-15092814D02*
X18222671Y-14935671D01*
X18208386Y-14907100D01*
X18179814Y-14892814D01*
X18136957Y-14892814D01*
X18108386Y-14907100D01*
X18094100Y-14921386D01*
X18408386Y-15092814D02*
X18379814Y-15078529D01*
X18365528Y-15064243D01*
X18351243Y-15035671D01*
X18351243Y-14949957D01*
X18365528Y-14921386D01*
X18379814Y-14907100D01*
X18408386Y-14892814D01*
X18451243Y-14892814D01*
X18479814Y-14907100D01*
X18494100Y-14921386D01*
X18508386Y-14949957D01*
X18508386Y-15035671D01*
X18494100Y-15064243D01*
X18479814Y-15078529D01*
X18451243Y-15092814D01*
X18408386Y-15092814D01*
X18679814Y-15092814D02*
X18651243Y-15078529D01*
X18636957Y-15049957D01*
X18636957Y-14792814D01*
X18908386Y-15078529D02*
X18879814Y-15092814D01*
X18822671Y-15092814D01*
X18794100Y-15078529D01*
X18779814Y-15049957D01*
X18779814Y-14935671D01*
X18794100Y-14907100D01*
X18822671Y-14892814D01*
X18879814Y-14892814D01*
X18908386Y-14907100D01*
X18922671Y-14935671D01*
X18922671Y-14964243D01*
X18779814Y-14992814D01*
X19036957Y-15078529D02*
X19065529Y-15092814D01*
X19122671Y-15092814D01*
X19151243Y-15078529D01*
X19165529Y-15049957D01*
X19165529Y-15035671D01*
X19151243Y-15007100D01*
X19122671Y-14992814D01*
X19079814Y-14992814D01*
X19051243Y-14978529D01*
X19036957Y-14949957D01*
X19036957Y-14935671D01*
X19051243Y-14907100D01*
X19079814Y-14892814D01*
X19122671Y-14892814D01*
X19151243Y-14907100D01*
X19265528Y-15207100D02*
X19279814Y-15192814D01*
X19308386Y-15149957D01*
X19322671Y-15121386D01*
X19336957Y-15078529D01*
X19351243Y-15007100D01*
X19351243Y-14949957D01*
X19336957Y-14878529D01*
X19322671Y-14835671D01*
X19308386Y-14807100D01*
X19279814Y-14764243D01*
X19265528Y-14749957D01*
M02*
