G04 #@! TF.FileFunction,Legend,Top*
%FSLAX46Y46*%
G04 Gerber Fmt 4.6, Leading zero omitted, Abs format (unit mm)*
G04 Created by KiCad (PCBNEW 4.0.6+dfsg1-1) date Wed May  9 14:16:57 2018*
%MOMM*%
%LPD*%
G01*
G04 APERTURE LIST*
%ADD10C,0.100000*%
%ADD11C,0.120000*%
%ADD12C,0.150000*%
%ADD13R,2.000000X2.400000*%
%ADD14R,1.700000X1.900000*%
%ADD15C,1.900000*%
%ADD16C,3.400000*%
%ADD17R,2.400000X2.100000*%
%ADD18C,1.800000*%
%ADD19R,2.100000X2.100000*%
%ADD20O,2.100000X2.100000*%
%ADD21C,2.400000*%
%ADD22C,3.600000*%
G04 APERTURE END LIST*
D10*
D11*
X149864000Y-110220000D02*
X149864000Y-108220000D01*
X147824000Y-108220000D02*
X147824000Y-110220000D01*
X154182000Y-110188000D02*
X154182000Y-108188000D01*
X152142000Y-108188000D02*
X152142000Y-110188000D01*
X158754000Y-110188000D02*
X158754000Y-108188000D01*
X156714000Y-108188000D02*
X156714000Y-110188000D01*
X145276000Y-107538000D02*
X145276000Y-110738000D01*
X143776000Y-110738000D02*
X143776000Y-107538000D01*
X143776000Y-110738000D02*
X145276000Y-110738000D01*
X132397500Y-118111000D02*
X130067500Y-118111000D01*
X132397500Y-103121000D02*
X130277500Y-103121000D01*
X132397500Y-118111000D02*
X132397500Y-103121000D01*
X118307500Y-118111000D02*
X118307500Y-103121000D01*
X127107500Y-118111000D02*
X118307500Y-118111000D01*
X126907500Y-103121000D02*
X118307500Y-103121000D01*
X137398000Y-106245000D02*
X139398000Y-106245000D01*
X139398000Y-108385000D02*
X137398000Y-108385000D01*
X137398000Y-110309000D02*
X139398000Y-110309000D01*
X139398000Y-112449000D02*
X137398000Y-112449000D01*
X143646000Y-115361000D02*
X143646000Y-114161000D01*
X145406000Y-114161000D02*
X145406000Y-115361000D01*
D12*
X136122000Y-101843000D02*
X139722000Y-101843000D01*
X139722000Y-101843000D02*
X140222000Y-102343000D01*
X140222000Y-102343000D02*
X140222000Y-103143000D01*
X140222000Y-103143000D02*
X139722000Y-103643000D01*
X139722000Y-103643000D02*
X136122000Y-103643000D01*
X136122000Y-103643000D02*
X135622000Y-103143000D01*
X135622000Y-103143000D02*
X135622000Y-102343000D01*
X135622000Y-102343000D02*
X136122000Y-101843000D01*
D11*
X135322000Y-96604000D02*
X140522000Y-96604000D01*
X140522000Y-96604000D02*
X140522000Y-93944000D01*
X140522000Y-93944000D02*
X135322000Y-93944000D01*
X135322000Y-93944000D02*
X135322000Y-96604000D01*
X136272000Y-93944000D02*
X136272000Y-87944000D01*
X136272000Y-87944000D02*
X137032000Y-87944000D01*
X137032000Y-87944000D02*
X137032000Y-93944000D01*
X136332000Y-93944000D02*
X136332000Y-87944000D01*
X136452000Y-93944000D02*
X136452000Y-87944000D01*
X136572000Y-93944000D02*
X136572000Y-87944000D01*
X136692000Y-93944000D02*
X136692000Y-87944000D01*
X136812000Y-93944000D02*
X136812000Y-87944000D01*
X136932000Y-93944000D02*
X136932000Y-87944000D01*
X136272000Y-96934000D02*
X136272000Y-96604000D01*
X137032000Y-96934000D02*
X137032000Y-96604000D01*
X137922000Y-96604000D02*
X137922000Y-93944000D01*
X138812000Y-93944000D02*
X138812000Y-87944000D01*
X138812000Y-87944000D02*
X139572000Y-87944000D01*
X139572000Y-87944000D02*
X139572000Y-93944000D01*
X138812000Y-97001071D02*
X138812000Y-96604000D01*
X139572000Y-97001071D02*
X139572000Y-96604000D01*
X136652000Y-99314000D02*
X135382000Y-99314000D01*
X135382000Y-99314000D02*
X135382000Y-98044000D01*
X144466000Y-96604000D02*
X159826000Y-96604000D01*
X159826000Y-96604000D02*
X159826000Y-93944000D01*
X159826000Y-93944000D02*
X144466000Y-93944000D01*
X144466000Y-93944000D02*
X144466000Y-96604000D01*
X145416000Y-93944000D02*
X145416000Y-87944000D01*
X145416000Y-87944000D02*
X146176000Y-87944000D01*
X146176000Y-87944000D02*
X146176000Y-93944000D01*
X145476000Y-93944000D02*
X145476000Y-87944000D01*
X145596000Y-93944000D02*
X145596000Y-87944000D01*
X145716000Y-93944000D02*
X145716000Y-87944000D01*
X145836000Y-93944000D02*
X145836000Y-87944000D01*
X145956000Y-93944000D02*
X145956000Y-87944000D01*
X146076000Y-93944000D02*
X146076000Y-87944000D01*
X145416000Y-96934000D02*
X145416000Y-96604000D01*
X146176000Y-96934000D02*
X146176000Y-96604000D01*
X147066000Y-96604000D02*
X147066000Y-93944000D01*
X147956000Y-93944000D02*
X147956000Y-87944000D01*
X147956000Y-87944000D02*
X148716000Y-87944000D01*
X148716000Y-87944000D02*
X148716000Y-93944000D01*
X147956000Y-97001071D02*
X147956000Y-96604000D01*
X148716000Y-97001071D02*
X148716000Y-96604000D01*
X149606000Y-96604000D02*
X149606000Y-93944000D01*
X150496000Y-93944000D02*
X150496000Y-87944000D01*
X150496000Y-87944000D02*
X151256000Y-87944000D01*
X151256000Y-87944000D02*
X151256000Y-93944000D01*
X150496000Y-97001071D02*
X150496000Y-96604000D01*
X151256000Y-97001071D02*
X151256000Y-96604000D01*
X152146000Y-96604000D02*
X152146000Y-93944000D01*
X153036000Y-93944000D02*
X153036000Y-87944000D01*
X153036000Y-87944000D02*
X153796000Y-87944000D01*
X153796000Y-87944000D02*
X153796000Y-93944000D01*
X153036000Y-97001071D02*
X153036000Y-96604000D01*
X153796000Y-97001071D02*
X153796000Y-96604000D01*
X154686000Y-96604000D02*
X154686000Y-93944000D01*
X155576000Y-93944000D02*
X155576000Y-87944000D01*
X155576000Y-87944000D02*
X156336000Y-87944000D01*
X156336000Y-87944000D02*
X156336000Y-93944000D01*
X155576000Y-97001071D02*
X155576000Y-96604000D01*
X156336000Y-97001071D02*
X156336000Y-96604000D01*
X157226000Y-96604000D02*
X157226000Y-93944000D01*
X158116000Y-93944000D02*
X158116000Y-87944000D01*
X158116000Y-87944000D02*
X158876000Y-87944000D01*
X158876000Y-87944000D02*
X158876000Y-93944000D01*
X158116000Y-97001071D02*
X158116000Y-96604000D01*
X158876000Y-97001071D02*
X158876000Y-96604000D01*
X145796000Y-99314000D02*
X144526000Y-99314000D01*
X144526000Y-99314000D02*
X144526000Y-98044000D01*
D12*
X174166400Y-114598400D02*
X175166400Y-115598400D01*
X175166400Y-115598400D02*
X177166400Y-115598400D01*
X177166400Y-115598400D02*
X177166400Y-102638400D01*
X177166400Y-102638400D02*
X174166400Y-102638400D01*
X174166400Y-102638400D02*
X174166400Y-114598400D01*
X150951143Y-109386666D02*
X150998762Y-109434285D01*
X151046381Y-109577142D01*
X151046381Y-109672380D01*
X150998762Y-109815238D01*
X150903524Y-109910476D01*
X150808286Y-109958095D01*
X150617810Y-110005714D01*
X150474952Y-110005714D01*
X150284476Y-109958095D01*
X150189238Y-109910476D01*
X150094000Y-109815238D01*
X150046381Y-109672380D01*
X150046381Y-109577142D01*
X150094000Y-109434285D01*
X150141619Y-109386666D01*
X151046381Y-108434285D02*
X151046381Y-109005714D01*
X151046381Y-108720000D02*
X150046381Y-108720000D01*
X150189238Y-108815238D01*
X150284476Y-108910476D01*
X150332095Y-109005714D01*
X155269143Y-109354666D02*
X155316762Y-109402285D01*
X155364381Y-109545142D01*
X155364381Y-109640380D01*
X155316762Y-109783238D01*
X155221524Y-109878476D01*
X155126286Y-109926095D01*
X154935810Y-109973714D01*
X154792952Y-109973714D01*
X154602476Y-109926095D01*
X154507238Y-109878476D01*
X154412000Y-109783238D01*
X154364381Y-109640380D01*
X154364381Y-109545142D01*
X154412000Y-109402285D01*
X154459619Y-109354666D01*
X154459619Y-108973714D02*
X154412000Y-108926095D01*
X154364381Y-108830857D01*
X154364381Y-108592761D01*
X154412000Y-108497523D01*
X154459619Y-108449904D01*
X154554857Y-108402285D01*
X154650095Y-108402285D01*
X154792952Y-108449904D01*
X155364381Y-109021333D01*
X155364381Y-108402285D01*
X159841143Y-109354666D02*
X159888762Y-109402285D01*
X159936381Y-109545142D01*
X159936381Y-109640380D01*
X159888762Y-109783238D01*
X159793524Y-109878476D01*
X159698286Y-109926095D01*
X159507810Y-109973714D01*
X159364952Y-109973714D01*
X159174476Y-109926095D01*
X159079238Y-109878476D01*
X158984000Y-109783238D01*
X158936381Y-109640380D01*
X158936381Y-109545142D01*
X158984000Y-109402285D01*
X159031619Y-109354666D01*
X158936381Y-109021333D02*
X158936381Y-108402285D01*
X159317333Y-108735619D01*
X159317333Y-108592761D01*
X159364952Y-108497523D01*
X159412571Y-108449904D01*
X159507810Y-108402285D01*
X159745905Y-108402285D01*
X159841143Y-108449904D01*
X159888762Y-108497523D01*
X159936381Y-108592761D01*
X159936381Y-108878476D01*
X159888762Y-108973714D01*
X159841143Y-109021333D01*
X143278381Y-109276095D02*
X142278381Y-109276095D01*
X142278381Y-109038000D01*
X142326000Y-108895142D01*
X142421238Y-108799904D01*
X142516476Y-108752285D01*
X142706952Y-108704666D01*
X142849810Y-108704666D01*
X143040286Y-108752285D01*
X143135524Y-108799904D01*
X143230762Y-108895142D01*
X143278381Y-109038000D01*
X143278381Y-109276095D01*
X143278381Y-107752285D02*
X143278381Y-108323714D01*
X143278381Y-108038000D02*
X142278381Y-108038000D01*
X142421238Y-108133238D01*
X142516476Y-108228476D01*
X142564095Y-108323714D01*
X133059881Y-107394333D02*
X133774167Y-107394333D01*
X133917024Y-107441953D01*
X134012262Y-107537191D01*
X134059881Y-107680048D01*
X134059881Y-107775286D01*
X134059881Y-106394333D02*
X134059881Y-106965762D01*
X134059881Y-106680048D02*
X133059881Y-106680048D01*
X133202738Y-106775286D01*
X133297976Y-106870524D01*
X133345595Y-106965762D01*
X138231334Y-109617381D02*
X137898000Y-109141190D01*
X137659905Y-109617381D02*
X137659905Y-108617381D01*
X138040858Y-108617381D01*
X138136096Y-108665000D01*
X138183715Y-108712619D01*
X138231334Y-108807857D01*
X138231334Y-108950714D01*
X138183715Y-109045952D01*
X138136096Y-109093571D01*
X138040858Y-109141190D01*
X137659905Y-109141190D01*
X139183715Y-109617381D02*
X138612286Y-109617381D01*
X138898000Y-109617381D02*
X138898000Y-108617381D01*
X138802762Y-108760238D01*
X138707524Y-108855476D01*
X138612286Y-108903095D01*
X138231334Y-113681381D02*
X137898000Y-113205190D01*
X137659905Y-113681381D02*
X137659905Y-112681381D01*
X138040858Y-112681381D01*
X138136096Y-112729000D01*
X138183715Y-112776619D01*
X138231334Y-112871857D01*
X138231334Y-113014714D01*
X138183715Y-113109952D01*
X138136096Y-113157571D01*
X138040858Y-113205190D01*
X137659905Y-113205190D01*
X138612286Y-112776619D02*
X138659905Y-112729000D01*
X138755143Y-112681381D01*
X138993239Y-112681381D01*
X139088477Y-112729000D01*
X139136096Y-112776619D01*
X139183715Y-112871857D01*
X139183715Y-112967095D01*
X139136096Y-113109952D01*
X138564667Y-113681381D01*
X139183715Y-113681381D01*
X146678381Y-114927666D02*
X146202190Y-115261000D01*
X146678381Y-115499095D02*
X145678381Y-115499095D01*
X145678381Y-115118142D01*
X145726000Y-115022904D01*
X145773619Y-114975285D01*
X145868857Y-114927666D01*
X146011714Y-114927666D01*
X146106952Y-114975285D01*
X146154571Y-115022904D01*
X146202190Y-115118142D01*
X146202190Y-115499095D01*
X145678381Y-114594333D02*
X145678381Y-113975285D01*
X146059333Y-114308619D01*
X146059333Y-114165761D01*
X146106952Y-114070523D01*
X146154571Y-114022904D01*
X146249810Y-113975285D01*
X146487905Y-113975285D01*
X146583143Y-114022904D01*
X146630762Y-114070523D01*
X146678381Y-114165761D01*
X146678381Y-114451476D01*
X146630762Y-114546714D01*
X146583143Y-114594333D01*
X137588667Y-100195381D02*
X137588667Y-100909667D01*
X137541047Y-101052524D01*
X137445809Y-101147762D01*
X137302952Y-101195381D01*
X137207714Y-101195381D01*
X138541048Y-100195381D02*
X138064857Y-100195381D01*
X138017238Y-100671571D01*
X138064857Y-100623952D01*
X138160095Y-100576333D01*
X138398191Y-100576333D01*
X138493429Y-100623952D01*
X138541048Y-100671571D01*
X138588667Y-100766810D01*
X138588667Y-101004905D01*
X138541048Y-101100143D01*
X138493429Y-101147762D01*
X138398191Y-101195381D01*
X138160095Y-101195381D01*
X138064857Y-101147762D01*
X138017238Y-101100143D01*
X133834381Y-93992333D02*
X134548667Y-93992333D01*
X134691524Y-94039953D01*
X134786762Y-94135191D01*
X134834381Y-94278048D01*
X134834381Y-94373286D01*
X133929619Y-93563762D02*
X133882000Y-93516143D01*
X133834381Y-93420905D01*
X133834381Y-93182809D01*
X133882000Y-93087571D01*
X133929619Y-93039952D01*
X134024857Y-92992333D01*
X134120095Y-92992333D01*
X134262952Y-93039952D01*
X134834381Y-93611381D01*
X134834381Y-92992333D01*
X142978381Y-93992333D02*
X143692667Y-93992333D01*
X143835524Y-94039953D01*
X143930762Y-94135191D01*
X143978381Y-94278048D01*
X143978381Y-94373286D01*
X142978381Y-93611381D02*
X142978381Y-92992333D01*
X143359333Y-93325667D01*
X143359333Y-93182809D01*
X143406952Y-93087571D01*
X143454571Y-93039952D01*
X143549810Y-92992333D01*
X143787905Y-92992333D01*
X143883143Y-93039952D01*
X143930762Y-93087571D01*
X143978381Y-93182809D01*
X143978381Y-93468524D01*
X143930762Y-93563762D01*
X143883143Y-93611381D01*
X177709257Y-109518400D02*
X178566400Y-109518400D01*
X178737829Y-109575542D01*
X178852114Y-109689828D01*
X178909257Y-109861257D01*
X178909257Y-109975542D01*
X178109257Y-108432685D02*
X178909257Y-108432685D01*
X177652114Y-108718399D02*
X178509257Y-109004114D01*
X178509257Y-108261256D01*
X164782667Y-105370781D02*
X164449333Y-104894590D01*
X164211238Y-105370781D02*
X164211238Y-104370781D01*
X164592191Y-104370781D01*
X164687429Y-104418400D01*
X164735048Y-104466019D01*
X164782667Y-104561257D01*
X164782667Y-104704114D01*
X164735048Y-104799352D01*
X164687429Y-104846971D01*
X164592191Y-104894590D01*
X164211238Y-104894590D01*
X165211238Y-104846971D02*
X165544572Y-104846971D01*
X165687429Y-105370781D02*
X165211238Y-105370781D01*
X165211238Y-104370781D01*
X165687429Y-104370781D01*
X166449334Y-104846971D02*
X166116000Y-104846971D01*
X166116000Y-105370781D02*
X166116000Y-104370781D01*
X166592191Y-104370781D01*
X167116000Y-104370781D02*
X167116000Y-104608876D01*
X166877905Y-104513638D02*
X167116000Y-104608876D01*
X167354096Y-104513638D01*
X166973143Y-104799352D02*
X167116000Y-104608876D01*
X167258858Y-104799352D01*
X167877905Y-104370781D02*
X167877905Y-104608876D01*
X167639810Y-104513638D02*
X167877905Y-104608876D01*
X168116001Y-104513638D01*
X167735048Y-104799352D02*
X167877905Y-104608876D01*
X168020763Y-104799352D01*
X164731867Y-90052381D02*
X164398533Y-89576190D01*
X164160438Y-90052381D02*
X164160438Y-89052381D01*
X164541391Y-89052381D01*
X164636629Y-89100000D01*
X164684248Y-89147619D01*
X164731867Y-89242857D01*
X164731867Y-89385714D01*
X164684248Y-89480952D01*
X164636629Y-89528571D01*
X164541391Y-89576190D01*
X164160438Y-89576190D01*
X165160438Y-89528571D02*
X165493772Y-89528571D01*
X165636629Y-90052381D02*
X165160438Y-90052381D01*
X165160438Y-89052381D01*
X165636629Y-89052381D01*
X166398534Y-89528571D02*
X166065200Y-89528571D01*
X166065200Y-90052381D02*
X166065200Y-89052381D01*
X166541391Y-89052381D01*
X167065200Y-89052381D02*
X167065200Y-89290476D01*
X166827105Y-89195238D02*
X167065200Y-89290476D01*
X167303296Y-89195238D01*
X166922343Y-89480952D02*
X167065200Y-89290476D01*
X167208058Y-89480952D01*
X167827105Y-89052381D02*
X167827105Y-89290476D01*
X167589010Y-89195238D02*
X167827105Y-89290476D01*
X168065201Y-89195238D01*
X167684248Y-89480952D02*
X167827105Y-89290476D01*
X167969963Y-89480952D01*
X164731867Y-120452381D02*
X164398533Y-119976190D01*
X164160438Y-120452381D02*
X164160438Y-119452381D01*
X164541391Y-119452381D01*
X164636629Y-119500000D01*
X164684248Y-119547619D01*
X164731867Y-119642857D01*
X164731867Y-119785714D01*
X164684248Y-119880952D01*
X164636629Y-119928571D01*
X164541391Y-119976190D01*
X164160438Y-119976190D01*
X165160438Y-119928571D02*
X165493772Y-119928571D01*
X165636629Y-120452381D02*
X165160438Y-120452381D01*
X165160438Y-119452381D01*
X165636629Y-119452381D01*
X166398534Y-119928571D02*
X166065200Y-119928571D01*
X166065200Y-120452381D02*
X166065200Y-119452381D01*
X166541391Y-119452381D01*
X167065200Y-119452381D02*
X167065200Y-119690476D01*
X166827105Y-119595238D02*
X167065200Y-119690476D01*
X167303296Y-119595238D01*
X166922343Y-119880952D02*
X167065200Y-119690476D01*
X167208058Y-119880952D01*
X167827105Y-119452381D02*
X167827105Y-119690476D01*
X167589010Y-119595238D02*
X167827105Y-119690476D01*
X168065201Y-119595238D01*
X167684248Y-119880952D02*
X167827105Y-119690476D01*
X167969963Y-119880952D01*
%LPC*%
D13*
X148844000Y-107220000D03*
X148844000Y-111220000D03*
X153162000Y-107188000D03*
X153162000Y-111188000D03*
X157734000Y-107188000D03*
X157734000Y-111188000D03*
D14*
X144526000Y-109888000D03*
X144526000Y-107188000D03*
D15*
X131257500Y-114171000D03*
X131257500Y-111631000D03*
X131257500Y-109601000D03*
X131257500Y-107061000D03*
D16*
X128587500Y-117221000D03*
X128587500Y-103501000D03*
D17*
X140398000Y-107315000D03*
X136398000Y-107315000D03*
X140398000Y-111379000D03*
X136398000Y-111379000D03*
D14*
X144526000Y-113411000D03*
X144526000Y-116111000D03*
D18*
X136652000Y-102743000D03*
X139192000Y-102743000D03*
D19*
X136652000Y-98044000D03*
D20*
X139192000Y-98044000D03*
D19*
X145796000Y-98044000D03*
D20*
X148336000Y-98044000D03*
X150876000Y-98044000D03*
X153416000Y-98044000D03*
X155956000Y-98044000D03*
X158496000Y-98044000D03*
D21*
X175666400Y-114198400D03*
X175666400Y-111658400D03*
X175666400Y-109118400D03*
X175666400Y-106578400D03*
X175666400Y-104038400D03*
D22*
X166116000Y-109118400D03*
X166065200Y-93800000D03*
X166065200Y-124200000D03*
M02*
