%FSLAX45Y45*%
G04 Gerber Fmt 4.5, Leading zero omitted, Abs format (unit mm)*
G04 Created by KiCad (PCBNEW 4.0.6+dfsg1-1) date Wed May  9 15:43:25 2018*
%MOMM*%
%LPD*%
G01*
G04 APERTURE LIST*
%ADD10C,0.127000*%
%ADD11C,0.150000*%
%ADD12C,0.200000*%
%ADD13C,0.300000*%
G04 APERTURE END LIST*
D10*
D11*
X12801600Y-12801600D02*
X17983200Y-12801600D01*
X16611600Y-8991600D02*
X12801600Y-8991600D01*
X12801600Y-9093200D02*
X12801600Y-8991600D01*
X12801600Y-12801600D02*
X12801600Y-9093200D01*
X17983200Y-8991600D02*
X17983200Y-12801600D01*
X16611600Y-8991600D02*
X17983200Y-8991600D01*
D12*
X13022600Y-9212600D02*
X13342600Y-9532600D01*
X13342600Y-9212600D02*
X13022600Y-9532600D01*
X13022600Y-12260600D02*
X13342600Y-12580600D01*
X13342600Y-12260600D02*
X13022600Y-12580600D01*
X16446520Y-9220000D02*
X16766520Y-9540000D01*
X16766520Y-9220000D02*
X16446520Y-9540000D01*
X16446520Y-12260000D02*
X16766520Y-12580000D01*
X16766520Y-12260000D02*
X16446520Y-12580000D01*
X16451600Y-10751840D02*
X16771600Y-11071840D01*
X16771600Y-10751840D02*
X16451600Y-11071840D01*
X17442200Y-9212600D02*
X17762200Y-9532600D01*
X17762200Y-9212600D02*
X17442200Y-9532600D01*
X17442200Y-12260600D02*
X17762200Y-12580600D01*
X17762200Y-12260600D02*
X17442200Y-12580600D01*
D13*
X13065528Y-13274814D02*
X13065528Y-12974814D01*
X13136957Y-12974814D01*
X13179814Y-12989100D01*
X13208386Y-13017671D01*
X13222671Y-13046243D01*
X13236957Y-13103386D01*
X13236957Y-13146243D01*
X13222671Y-13203386D01*
X13208386Y-13231957D01*
X13179814Y-13260529D01*
X13136957Y-13274814D01*
X13065528Y-13274814D01*
X13365528Y-13274814D02*
X13365528Y-13074814D01*
X13365528Y-13131957D02*
X13379814Y-13103386D01*
X13394100Y-13089100D01*
X13422671Y-13074814D01*
X13451243Y-13074814D01*
X13551243Y-13274814D02*
X13551243Y-13074814D01*
X13551243Y-12974814D02*
X13536957Y-12989100D01*
X13551243Y-13003386D01*
X13565528Y-12989100D01*
X13551243Y-12974814D01*
X13551243Y-13003386D01*
X13736957Y-13274814D02*
X13708386Y-13260529D01*
X13694100Y-13231957D01*
X13694100Y-12974814D01*
X13894100Y-13274814D02*
X13865528Y-13260529D01*
X13851243Y-13231957D01*
X13851243Y-12974814D01*
X14236957Y-13274814D02*
X14236957Y-12974814D01*
X14336957Y-13189100D01*
X14436957Y-12974814D01*
X14436957Y-13274814D01*
X14708386Y-13274814D02*
X14708386Y-13117671D01*
X14694100Y-13089100D01*
X14665528Y-13074814D01*
X14608386Y-13074814D01*
X14579814Y-13089100D01*
X14708386Y-13260529D02*
X14679814Y-13274814D01*
X14608386Y-13274814D01*
X14579814Y-13260529D01*
X14565528Y-13231957D01*
X14565528Y-13203386D01*
X14579814Y-13174814D01*
X14608386Y-13160529D01*
X14679814Y-13160529D01*
X14708386Y-13146243D01*
X14851243Y-13074814D02*
X14851243Y-13374814D01*
X14851243Y-13089100D02*
X14879814Y-13074814D01*
X14936957Y-13074814D01*
X14965528Y-13089100D01*
X14979814Y-13103386D01*
X14994100Y-13131957D01*
X14994100Y-13217671D01*
X14979814Y-13246243D01*
X14965528Y-13260529D01*
X14936957Y-13274814D01*
X14879814Y-13274814D01*
X14851243Y-13260529D01*
X15122671Y-13246243D02*
X15136957Y-13260529D01*
X15122671Y-13274814D01*
X15108386Y-13260529D01*
X15122671Y-13246243D01*
X15122671Y-13274814D01*
X15122671Y-13089100D02*
X15136957Y-13103386D01*
X15122671Y-13117671D01*
X15108386Y-13103386D01*
X15122671Y-13089100D01*
X15122671Y-13117671D01*
X12474100Y-13609100D02*
X12794100Y-13929100D01*
X12794100Y-13609100D02*
X12474100Y-13929100D01*
X13036957Y-13604814D02*
X13222671Y-13604814D01*
X13122671Y-13719100D01*
X13165528Y-13719100D01*
X13194100Y-13733386D01*
X13208386Y-13747671D01*
X13222671Y-13776243D01*
X13222671Y-13847671D01*
X13208386Y-13876243D01*
X13194100Y-13890529D01*
X13165528Y-13904814D01*
X13079814Y-13904814D01*
X13051243Y-13890529D01*
X13036957Y-13876243D01*
X13351243Y-13876243D02*
X13365528Y-13890529D01*
X13351243Y-13904814D01*
X13336957Y-13890529D01*
X13351243Y-13876243D01*
X13351243Y-13904814D01*
X13479814Y-13633386D02*
X13494100Y-13619100D01*
X13522671Y-13604814D01*
X13594100Y-13604814D01*
X13622671Y-13619100D01*
X13636957Y-13633386D01*
X13651243Y-13661957D01*
X13651243Y-13690529D01*
X13636957Y-13733386D01*
X13465528Y-13904814D01*
X13651243Y-13904814D01*
X13836957Y-13604814D02*
X13865528Y-13604814D01*
X13894100Y-13619100D01*
X13908386Y-13633386D01*
X13922671Y-13661957D01*
X13936957Y-13719100D01*
X13936957Y-13790529D01*
X13922671Y-13847671D01*
X13908386Y-13876243D01*
X13894100Y-13890529D01*
X13865528Y-13904814D01*
X13836957Y-13904814D01*
X13808386Y-13890529D01*
X13794100Y-13876243D01*
X13779814Y-13847671D01*
X13765528Y-13790529D01*
X13765528Y-13719100D01*
X13779814Y-13661957D01*
X13794100Y-13633386D01*
X13808386Y-13619100D01*
X13836957Y-13604814D01*
X14065528Y-13904814D02*
X14065528Y-13704814D01*
X14065528Y-13733386D02*
X14079814Y-13719100D01*
X14108386Y-13704814D01*
X14151243Y-13704814D01*
X14179814Y-13719100D01*
X14194100Y-13747671D01*
X14194100Y-13904814D01*
X14194100Y-13747671D02*
X14208386Y-13719100D01*
X14236957Y-13704814D01*
X14279814Y-13704814D01*
X14308386Y-13719100D01*
X14322671Y-13747671D01*
X14322671Y-13904814D01*
X14465528Y-13904814D02*
X14465528Y-13704814D01*
X14465528Y-13733386D02*
X14479814Y-13719100D01*
X14508386Y-13704814D01*
X14551243Y-13704814D01*
X14579814Y-13719100D01*
X14594100Y-13747671D01*
X14594100Y-13904814D01*
X14594100Y-13747671D02*
X14608386Y-13719100D01*
X14636957Y-13704814D01*
X14679814Y-13704814D01*
X14708386Y-13719100D01*
X14722671Y-13747671D01*
X14722671Y-13904814D01*
X15308386Y-13590529D02*
X15051243Y-13976243D01*
X15694100Y-13604814D02*
X15722671Y-13604814D01*
X15751243Y-13619100D01*
X15765528Y-13633386D01*
X15779814Y-13661957D01*
X15794100Y-13719100D01*
X15794100Y-13790529D01*
X15779814Y-13847671D01*
X15765528Y-13876243D01*
X15751243Y-13890529D01*
X15722671Y-13904814D01*
X15694100Y-13904814D01*
X15665528Y-13890529D01*
X15651243Y-13876243D01*
X15636957Y-13847671D01*
X15622671Y-13790529D01*
X15622671Y-13719100D01*
X15636957Y-13661957D01*
X15651243Y-13633386D01*
X15665528Y-13619100D01*
X15694100Y-13604814D01*
X15922671Y-13876243D02*
X15936957Y-13890529D01*
X15922671Y-13904814D01*
X15908386Y-13890529D01*
X15922671Y-13876243D01*
X15922671Y-13904814D01*
X16222671Y-13904814D02*
X16051243Y-13904814D01*
X16136957Y-13904814D02*
X16136957Y-13604814D01*
X16108385Y-13647671D01*
X16079814Y-13676243D01*
X16051243Y-13690529D01*
X16336957Y-13633386D02*
X16351243Y-13619100D01*
X16379814Y-13604814D01*
X16451243Y-13604814D01*
X16479814Y-13619100D01*
X16494100Y-13633386D01*
X16508385Y-13661957D01*
X16508385Y-13690529D01*
X16494100Y-13733386D01*
X16322671Y-13904814D01*
X16508385Y-13904814D01*
X16765528Y-13604814D02*
X16708385Y-13604814D01*
X16679814Y-13619100D01*
X16665528Y-13633386D01*
X16636957Y-13676243D01*
X16622671Y-13733386D01*
X16622671Y-13847671D01*
X16636957Y-13876243D01*
X16651243Y-13890529D01*
X16679814Y-13904814D01*
X16736957Y-13904814D01*
X16765528Y-13890529D01*
X16779814Y-13876243D01*
X16794100Y-13847671D01*
X16794100Y-13776243D01*
X16779814Y-13747671D01*
X16765528Y-13733386D01*
X16736957Y-13719100D01*
X16679814Y-13719100D01*
X16651243Y-13733386D01*
X16636957Y-13747671D01*
X16622671Y-13776243D01*
X16908386Y-13604814D02*
X16908386Y-13661957D01*
X17022671Y-13604814D02*
X17022671Y-13661957D01*
X17465528Y-14019100D02*
X17451243Y-14004814D01*
X17422671Y-13961957D01*
X17408386Y-13933386D01*
X17394100Y-13890529D01*
X17379814Y-13819100D01*
X17379814Y-13761957D01*
X17394100Y-13690529D01*
X17408386Y-13647671D01*
X17422671Y-13619100D01*
X17451243Y-13576243D01*
X17465528Y-13561957D01*
X17551243Y-13604814D02*
X17751243Y-13604814D01*
X17622671Y-13904814D01*
X18094100Y-13904814D02*
X18094100Y-13604814D01*
X18222671Y-13904814D02*
X18222671Y-13747671D01*
X18208386Y-13719100D01*
X18179814Y-13704814D01*
X18136957Y-13704814D01*
X18108386Y-13719100D01*
X18094100Y-13733386D01*
X18408386Y-13904814D02*
X18379814Y-13890529D01*
X18365528Y-13876243D01*
X18351243Y-13847671D01*
X18351243Y-13761957D01*
X18365528Y-13733386D01*
X18379814Y-13719100D01*
X18408386Y-13704814D01*
X18451243Y-13704814D01*
X18479814Y-13719100D01*
X18494100Y-13733386D01*
X18508386Y-13761957D01*
X18508386Y-13847671D01*
X18494100Y-13876243D01*
X18479814Y-13890529D01*
X18451243Y-13904814D01*
X18408386Y-13904814D01*
X18679814Y-13904814D02*
X18651243Y-13890529D01*
X18636957Y-13861957D01*
X18636957Y-13604814D01*
X18908386Y-13890529D02*
X18879814Y-13904814D01*
X18822671Y-13904814D01*
X18794100Y-13890529D01*
X18779814Y-13861957D01*
X18779814Y-13747671D01*
X18794100Y-13719100D01*
X18822671Y-13704814D01*
X18879814Y-13704814D01*
X18908386Y-13719100D01*
X18922671Y-13747671D01*
X18922671Y-13776243D01*
X18779814Y-13804814D01*
X19036957Y-13890529D02*
X19065529Y-13904814D01*
X19122671Y-13904814D01*
X19151243Y-13890529D01*
X19165529Y-13861957D01*
X19165529Y-13847671D01*
X19151243Y-13819100D01*
X19122671Y-13804814D01*
X19079814Y-13804814D01*
X19051243Y-13790529D01*
X19036957Y-13761957D01*
X19036957Y-13747671D01*
X19051243Y-13719100D01*
X19079814Y-13704814D01*
X19122671Y-13704814D01*
X19151243Y-13719100D01*
X19265528Y-14019100D02*
X19279814Y-14004814D01*
X19308386Y-13961957D01*
X19322671Y-13933386D01*
X19336957Y-13890529D01*
X19351243Y-13819100D01*
X19351243Y-13761957D01*
X19336957Y-13690529D01*
X19322671Y-13647671D01*
X19308386Y-13619100D01*
X19279814Y-13576243D01*
X19265528Y-13561957D01*
X19808386Y-14019100D02*
X19794100Y-14004814D01*
X19765528Y-13961957D01*
X19751243Y-13933386D01*
X19736957Y-13890529D01*
X19722671Y-13819100D01*
X19722671Y-13761957D01*
X19736957Y-13690529D01*
X19751243Y-13647671D01*
X19765528Y-13619100D01*
X19794100Y-13576243D01*
X19808386Y-13561957D01*
X19922671Y-13704814D02*
X19922671Y-13904814D01*
X19922671Y-13733386D02*
X19936957Y-13719100D01*
X19965528Y-13704814D01*
X20008386Y-13704814D01*
X20036957Y-13719100D01*
X20051243Y-13747671D01*
X20051243Y-13904814D01*
X20236957Y-13904814D02*
X20208386Y-13890529D01*
X20194100Y-13876243D01*
X20179814Y-13847671D01*
X20179814Y-13761957D01*
X20194100Y-13733386D01*
X20208386Y-13719100D01*
X20236957Y-13704814D01*
X20279814Y-13704814D01*
X20308386Y-13719100D01*
X20322671Y-13733386D01*
X20336957Y-13761957D01*
X20336957Y-13847671D01*
X20322671Y-13876243D01*
X20308386Y-13890529D01*
X20279814Y-13904814D01*
X20236957Y-13904814D01*
X20422671Y-13704814D02*
X20536957Y-13704814D01*
X20465529Y-13604814D02*
X20465529Y-13861957D01*
X20479814Y-13890529D01*
X20508386Y-13904814D01*
X20536957Y-13904814D01*
X20865529Y-13704814D02*
X20865529Y-14004814D01*
X20865529Y-13719100D02*
X20894100Y-13704814D01*
X20951243Y-13704814D01*
X20979814Y-13719100D01*
X20994100Y-13733386D01*
X21008386Y-13761957D01*
X21008386Y-13847671D01*
X20994100Y-13876243D01*
X20979814Y-13890529D01*
X20951243Y-13904814D01*
X20894100Y-13904814D01*
X20865529Y-13890529D01*
X21179814Y-13904814D02*
X21151243Y-13890529D01*
X21136957Y-13861957D01*
X21136957Y-13604814D01*
X21422671Y-13904814D02*
X21422671Y-13747671D01*
X21408386Y-13719100D01*
X21379814Y-13704814D01*
X21322671Y-13704814D01*
X21294100Y-13719100D01*
X21422671Y-13890529D02*
X21394100Y-13904814D01*
X21322671Y-13904814D01*
X21294100Y-13890529D01*
X21279814Y-13861957D01*
X21279814Y-13833386D01*
X21294100Y-13804814D01*
X21322671Y-13790529D01*
X21394100Y-13790529D01*
X21422671Y-13776243D01*
X21522671Y-13704814D02*
X21636957Y-13704814D01*
X21565529Y-13604814D02*
X21565529Y-13861957D01*
X21579814Y-13890529D01*
X21608386Y-13904814D01*
X21636957Y-13904814D01*
X21851243Y-13890529D02*
X21822672Y-13904814D01*
X21765529Y-13904814D01*
X21736957Y-13890529D01*
X21722672Y-13861957D01*
X21722672Y-13747671D01*
X21736957Y-13719100D01*
X21765529Y-13704814D01*
X21822672Y-13704814D01*
X21851243Y-13719100D01*
X21865529Y-13747671D01*
X21865529Y-13776243D01*
X21722672Y-13804814D01*
X22122672Y-13904814D02*
X22122672Y-13604814D01*
X22122672Y-13890529D02*
X22094100Y-13904814D01*
X22036957Y-13904814D01*
X22008386Y-13890529D01*
X21994100Y-13876243D01*
X21979814Y-13847671D01*
X21979814Y-13761957D01*
X21994100Y-13733386D01*
X22008386Y-13719100D01*
X22036957Y-13704814D01*
X22094100Y-13704814D01*
X22122672Y-13719100D01*
X22236957Y-14019100D02*
X22251243Y-14004814D01*
X22279814Y-13961957D01*
X22294100Y-13933386D01*
X22308386Y-13890529D01*
X22322672Y-13819100D01*
X22322672Y-13761957D01*
X22308386Y-13690529D01*
X22294100Y-13647671D01*
X22279814Y-13619100D01*
X22251243Y-13576243D01*
X22236957Y-13561957D01*
M02*
