%FSLAX45Y45*%
G04 Gerber Fmt 4.5, Leading zero omitted, Abs format (unit mm)*
G04 Created by KiCad (PCBNEW 4.0.6+dfsg1-1) date Wed May  9 14:17:05 2018*
%MOMM*%
%LPD*%
G01*
G04 APERTURE LIST*
%ADD10C,0.127000*%
%ADD11C,0.150000*%
%ADD12C,0.200000*%
%ADD13C,0.300000*%
G04 APERTURE END LIST*
D10*
D11*
X12446000Y-8991600D02*
X16611600Y-8991600D01*
X12446000Y-9093200D02*
X12446000Y-8991600D01*
X12446000Y-12801600D02*
X12446000Y-9093200D01*
X17983200Y-12801600D02*
X12446000Y-12801600D01*
X17983200Y-8991600D02*
X17983200Y-12801600D01*
X16611600Y-8991600D02*
X17983200Y-8991600D01*
D12*
X16446520Y-9220000D02*
X16766520Y-9540000D01*
X16766520Y-9220000D02*
X16446520Y-9540000D01*
X16446520Y-12260000D02*
X16766520Y-12580000D01*
X16766520Y-12260000D02*
X16446520Y-12580000D01*
X16451600Y-10751840D02*
X16771600Y-11071840D01*
X16771600Y-10751840D02*
X16451600Y-11071840D01*
D13*
X12709928Y-13274814D02*
X12709928Y-12974814D01*
X12781357Y-12974814D01*
X12824214Y-12989100D01*
X12852786Y-13017671D01*
X12867071Y-13046243D01*
X12881357Y-13103386D01*
X12881357Y-13146243D01*
X12867071Y-13203386D01*
X12852786Y-13231957D01*
X12824214Y-13260529D01*
X12781357Y-13274814D01*
X12709928Y-13274814D01*
X13009928Y-13274814D02*
X13009928Y-13074814D01*
X13009928Y-13131957D02*
X13024214Y-13103386D01*
X13038500Y-13089100D01*
X13067071Y-13074814D01*
X13095643Y-13074814D01*
X13195643Y-13274814D02*
X13195643Y-13074814D01*
X13195643Y-12974814D02*
X13181357Y-12989100D01*
X13195643Y-13003386D01*
X13209928Y-12989100D01*
X13195643Y-12974814D01*
X13195643Y-13003386D01*
X13381357Y-13274814D02*
X13352786Y-13260529D01*
X13338500Y-13231957D01*
X13338500Y-12974814D01*
X13538500Y-13274814D02*
X13509928Y-13260529D01*
X13495643Y-13231957D01*
X13495643Y-12974814D01*
X13881357Y-13274814D02*
X13881357Y-12974814D01*
X13981357Y-13189100D01*
X14081357Y-12974814D01*
X14081357Y-13274814D01*
X14352786Y-13274814D02*
X14352786Y-13117671D01*
X14338500Y-13089100D01*
X14309928Y-13074814D01*
X14252786Y-13074814D01*
X14224214Y-13089100D01*
X14352786Y-13260529D02*
X14324214Y-13274814D01*
X14252786Y-13274814D01*
X14224214Y-13260529D01*
X14209928Y-13231957D01*
X14209928Y-13203386D01*
X14224214Y-13174814D01*
X14252786Y-13160529D01*
X14324214Y-13160529D01*
X14352786Y-13146243D01*
X14495643Y-13074814D02*
X14495643Y-13374814D01*
X14495643Y-13089100D02*
X14524214Y-13074814D01*
X14581357Y-13074814D01*
X14609928Y-13089100D01*
X14624214Y-13103386D01*
X14638500Y-13131957D01*
X14638500Y-13217671D01*
X14624214Y-13246243D01*
X14609928Y-13260529D01*
X14581357Y-13274814D01*
X14524214Y-13274814D01*
X14495643Y-13260529D01*
X14767071Y-13246243D02*
X14781357Y-13260529D01*
X14767071Y-13274814D01*
X14752786Y-13260529D01*
X14767071Y-13246243D01*
X14767071Y-13274814D01*
X14767071Y-13089100D02*
X14781357Y-13103386D01*
X14767071Y-13117671D01*
X14752786Y-13103386D01*
X14767071Y-13089100D01*
X14767071Y-13117671D01*
X12118500Y-13609100D02*
X12438500Y-13929100D01*
X12438500Y-13609100D02*
X12118500Y-13929100D01*
X12681357Y-13604814D02*
X12867071Y-13604814D01*
X12767071Y-13719100D01*
X12809928Y-13719100D01*
X12838500Y-13733386D01*
X12852786Y-13747671D01*
X12867071Y-13776243D01*
X12867071Y-13847671D01*
X12852786Y-13876243D01*
X12838500Y-13890529D01*
X12809928Y-13904814D01*
X12724214Y-13904814D01*
X12695643Y-13890529D01*
X12681357Y-13876243D01*
X12995643Y-13876243D02*
X13009928Y-13890529D01*
X12995643Y-13904814D01*
X12981357Y-13890529D01*
X12995643Y-13876243D01*
X12995643Y-13904814D01*
X13124214Y-13633386D02*
X13138500Y-13619100D01*
X13167071Y-13604814D01*
X13238500Y-13604814D01*
X13267071Y-13619100D01*
X13281357Y-13633386D01*
X13295643Y-13661957D01*
X13295643Y-13690529D01*
X13281357Y-13733386D01*
X13109928Y-13904814D01*
X13295643Y-13904814D01*
X13481357Y-13604814D02*
X13509928Y-13604814D01*
X13538500Y-13619100D01*
X13552786Y-13633386D01*
X13567071Y-13661957D01*
X13581357Y-13719100D01*
X13581357Y-13790529D01*
X13567071Y-13847671D01*
X13552786Y-13876243D01*
X13538500Y-13890529D01*
X13509928Y-13904814D01*
X13481357Y-13904814D01*
X13452786Y-13890529D01*
X13438500Y-13876243D01*
X13424214Y-13847671D01*
X13409928Y-13790529D01*
X13409928Y-13719100D01*
X13424214Y-13661957D01*
X13438500Y-13633386D01*
X13452786Y-13619100D01*
X13481357Y-13604814D01*
X13709928Y-13904814D02*
X13709928Y-13704814D01*
X13709928Y-13733386D02*
X13724214Y-13719100D01*
X13752786Y-13704814D01*
X13795643Y-13704814D01*
X13824214Y-13719100D01*
X13838500Y-13747671D01*
X13838500Y-13904814D01*
X13838500Y-13747671D02*
X13852786Y-13719100D01*
X13881357Y-13704814D01*
X13924214Y-13704814D01*
X13952786Y-13719100D01*
X13967071Y-13747671D01*
X13967071Y-13904814D01*
X14109928Y-13904814D02*
X14109928Y-13704814D01*
X14109928Y-13733386D02*
X14124214Y-13719100D01*
X14152786Y-13704814D01*
X14195643Y-13704814D01*
X14224214Y-13719100D01*
X14238500Y-13747671D01*
X14238500Y-13904814D01*
X14238500Y-13747671D02*
X14252786Y-13719100D01*
X14281357Y-13704814D01*
X14324214Y-13704814D01*
X14352786Y-13719100D01*
X14367071Y-13747671D01*
X14367071Y-13904814D01*
X14952786Y-13590529D02*
X14695643Y-13976243D01*
X15338500Y-13604814D02*
X15367071Y-13604814D01*
X15395643Y-13619100D01*
X15409928Y-13633386D01*
X15424214Y-13661957D01*
X15438500Y-13719100D01*
X15438500Y-13790529D01*
X15424214Y-13847671D01*
X15409928Y-13876243D01*
X15395643Y-13890529D01*
X15367071Y-13904814D01*
X15338500Y-13904814D01*
X15309928Y-13890529D01*
X15295643Y-13876243D01*
X15281357Y-13847671D01*
X15267071Y-13790529D01*
X15267071Y-13719100D01*
X15281357Y-13661957D01*
X15295643Y-13633386D01*
X15309928Y-13619100D01*
X15338500Y-13604814D01*
X15567071Y-13876243D02*
X15581357Y-13890529D01*
X15567071Y-13904814D01*
X15552786Y-13890529D01*
X15567071Y-13876243D01*
X15567071Y-13904814D01*
X15867071Y-13904814D02*
X15695643Y-13904814D01*
X15781357Y-13904814D02*
X15781357Y-13604814D01*
X15752785Y-13647671D01*
X15724214Y-13676243D01*
X15695643Y-13690529D01*
X15981357Y-13633386D02*
X15995643Y-13619100D01*
X16024214Y-13604814D01*
X16095643Y-13604814D01*
X16124214Y-13619100D01*
X16138500Y-13633386D01*
X16152785Y-13661957D01*
X16152785Y-13690529D01*
X16138500Y-13733386D01*
X15967071Y-13904814D01*
X16152785Y-13904814D01*
X16409928Y-13604814D02*
X16352785Y-13604814D01*
X16324214Y-13619100D01*
X16309928Y-13633386D01*
X16281357Y-13676243D01*
X16267071Y-13733386D01*
X16267071Y-13847671D01*
X16281357Y-13876243D01*
X16295643Y-13890529D01*
X16324214Y-13904814D01*
X16381357Y-13904814D01*
X16409928Y-13890529D01*
X16424214Y-13876243D01*
X16438500Y-13847671D01*
X16438500Y-13776243D01*
X16424214Y-13747671D01*
X16409928Y-13733386D01*
X16381357Y-13719100D01*
X16324214Y-13719100D01*
X16295643Y-13733386D01*
X16281357Y-13747671D01*
X16267071Y-13776243D01*
X16552786Y-13604814D02*
X16552786Y-13661957D01*
X16667071Y-13604814D02*
X16667071Y-13661957D01*
X17109928Y-14019100D02*
X17095643Y-14004814D01*
X17067071Y-13961957D01*
X17052786Y-13933386D01*
X17038500Y-13890529D01*
X17024214Y-13819100D01*
X17024214Y-13761957D01*
X17038500Y-13690529D01*
X17052786Y-13647671D01*
X17067071Y-13619100D01*
X17095643Y-13576243D01*
X17109928Y-13561957D01*
X17195643Y-13604814D02*
X17381357Y-13604814D01*
X17281357Y-13719100D01*
X17324214Y-13719100D01*
X17352786Y-13733386D01*
X17367071Y-13747671D01*
X17381357Y-13776243D01*
X17381357Y-13847671D01*
X17367071Y-13876243D01*
X17352786Y-13890529D01*
X17324214Y-13904814D01*
X17238500Y-13904814D01*
X17209928Y-13890529D01*
X17195643Y-13876243D01*
X17738500Y-13904814D02*
X17738500Y-13604814D01*
X17867071Y-13904814D02*
X17867071Y-13747671D01*
X17852786Y-13719100D01*
X17824214Y-13704814D01*
X17781357Y-13704814D01*
X17752786Y-13719100D01*
X17738500Y-13733386D01*
X18052786Y-13904814D02*
X18024214Y-13890529D01*
X18009928Y-13876243D01*
X17995643Y-13847671D01*
X17995643Y-13761957D01*
X18009928Y-13733386D01*
X18024214Y-13719100D01*
X18052786Y-13704814D01*
X18095643Y-13704814D01*
X18124214Y-13719100D01*
X18138500Y-13733386D01*
X18152786Y-13761957D01*
X18152786Y-13847671D01*
X18138500Y-13876243D01*
X18124214Y-13890529D01*
X18095643Y-13904814D01*
X18052786Y-13904814D01*
X18324214Y-13904814D02*
X18295643Y-13890529D01*
X18281357Y-13861957D01*
X18281357Y-13604814D01*
X18552786Y-13890529D02*
X18524214Y-13904814D01*
X18467071Y-13904814D01*
X18438500Y-13890529D01*
X18424214Y-13861957D01*
X18424214Y-13747671D01*
X18438500Y-13719100D01*
X18467071Y-13704814D01*
X18524214Y-13704814D01*
X18552786Y-13719100D01*
X18567071Y-13747671D01*
X18567071Y-13776243D01*
X18424214Y-13804814D01*
X18681357Y-13890529D02*
X18709929Y-13904814D01*
X18767071Y-13904814D01*
X18795643Y-13890529D01*
X18809929Y-13861957D01*
X18809929Y-13847671D01*
X18795643Y-13819100D01*
X18767071Y-13804814D01*
X18724214Y-13804814D01*
X18695643Y-13790529D01*
X18681357Y-13761957D01*
X18681357Y-13747671D01*
X18695643Y-13719100D01*
X18724214Y-13704814D01*
X18767071Y-13704814D01*
X18795643Y-13719100D01*
X18909928Y-14019100D02*
X18924214Y-14004814D01*
X18952786Y-13961957D01*
X18967071Y-13933386D01*
X18981357Y-13890529D01*
X18995643Y-13819100D01*
X18995643Y-13761957D01*
X18981357Y-13690529D01*
X18967071Y-13647671D01*
X18952786Y-13619100D01*
X18924214Y-13576243D01*
X18909928Y-13561957D01*
X19452786Y-14019100D02*
X19438500Y-14004814D01*
X19409928Y-13961957D01*
X19395643Y-13933386D01*
X19381357Y-13890529D01*
X19367071Y-13819100D01*
X19367071Y-13761957D01*
X19381357Y-13690529D01*
X19395643Y-13647671D01*
X19409928Y-13619100D01*
X19438500Y-13576243D01*
X19452786Y-13561957D01*
X19567071Y-13704814D02*
X19567071Y-13904814D01*
X19567071Y-13733386D02*
X19581357Y-13719100D01*
X19609928Y-13704814D01*
X19652786Y-13704814D01*
X19681357Y-13719100D01*
X19695643Y-13747671D01*
X19695643Y-13904814D01*
X19881357Y-13904814D02*
X19852786Y-13890529D01*
X19838500Y-13876243D01*
X19824214Y-13847671D01*
X19824214Y-13761957D01*
X19838500Y-13733386D01*
X19852786Y-13719100D01*
X19881357Y-13704814D01*
X19924214Y-13704814D01*
X19952786Y-13719100D01*
X19967071Y-13733386D01*
X19981357Y-13761957D01*
X19981357Y-13847671D01*
X19967071Y-13876243D01*
X19952786Y-13890529D01*
X19924214Y-13904814D01*
X19881357Y-13904814D01*
X20067071Y-13704814D02*
X20181357Y-13704814D01*
X20109929Y-13604814D02*
X20109929Y-13861957D01*
X20124214Y-13890529D01*
X20152786Y-13904814D01*
X20181357Y-13904814D01*
X20509929Y-13704814D02*
X20509929Y-14004814D01*
X20509929Y-13719100D02*
X20538500Y-13704814D01*
X20595643Y-13704814D01*
X20624214Y-13719100D01*
X20638500Y-13733386D01*
X20652786Y-13761957D01*
X20652786Y-13847671D01*
X20638500Y-13876243D01*
X20624214Y-13890529D01*
X20595643Y-13904814D01*
X20538500Y-13904814D01*
X20509929Y-13890529D01*
X20824214Y-13904814D02*
X20795643Y-13890529D01*
X20781357Y-13861957D01*
X20781357Y-13604814D01*
X21067071Y-13904814D02*
X21067071Y-13747671D01*
X21052786Y-13719100D01*
X21024214Y-13704814D01*
X20967071Y-13704814D01*
X20938500Y-13719100D01*
X21067071Y-13890529D02*
X21038500Y-13904814D01*
X20967071Y-13904814D01*
X20938500Y-13890529D01*
X20924214Y-13861957D01*
X20924214Y-13833386D01*
X20938500Y-13804814D01*
X20967071Y-13790529D01*
X21038500Y-13790529D01*
X21067071Y-13776243D01*
X21167071Y-13704814D02*
X21281357Y-13704814D01*
X21209929Y-13604814D02*
X21209929Y-13861957D01*
X21224214Y-13890529D01*
X21252786Y-13904814D01*
X21281357Y-13904814D01*
X21495643Y-13890529D02*
X21467072Y-13904814D01*
X21409929Y-13904814D01*
X21381357Y-13890529D01*
X21367072Y-13861957D01*
X21367072Y-13747671D01*
X21381357Y-13719100D01*
X21409929Y-13704814D01*
X21467072Y-13704814D01*
X21495643Y-13719100D01*
X21509929Y-13747671D01*
X21509929Y-13776243D01*
X21367072Y-13804814D01*
X21767072Y-13904814D02*
X21767072Y-13604814D01*
X21767072Y-13890529D02*
X21738500Y-13904814D01*
X21681357Y-13904814D01*
X21652786Y-13890529D01*
X21638500Y-13876243D01*
X21624214Y-13847671D01*
X21624214Y-13761957D01*
X21638500Y-13733386D01*
X21652786Y-13719100D01*
X21681357Y-13704814D01*
X21738500Y-13704814D01*
X21767072Y-13719100D01*
X21881357Y-14019100D02*
X21895643Y-14004814D01*
X21924214Y-13961957D01*
X21938500Y-13933386D01*
X21952786Y-13890529D01*
X21967072Y-13819100D01*
X21967072Y-13761957D01*
X21952786Y-13690529D01*
X21938500Y-13647671D01*
X21924214Y-13619100D01*
X21895643Y-13576243D01*
X21881357Y-13561957D01*
M02*
