M48
;DRILL file {KiCad 4.0.6+dfsg1-1} date Wed May  9 14:17:04 2018
;FORMAT={-:-/ absolute / inch / decimal}
FMAT,2
INCH,TZ
T1C0.032
T2C0.039
T3C0.091
%
G90
G05
M72
T1
X5.38Y-4.045
X5.48Y-4.045
T2
X5.1676Y-4.215
X5.1676Y-4.315
X5.1676Y-4.3949
X5.1676Y-4.4949
X5.38Y-3.86
X5.445Y-4.495
X5.48Y-3.86
X5.48Y-3.945
X5.48Y-3.945
X5.74Y-3.86
X5.84Y-3.86
X5.94Y-3.86
X6.04Y-3.86
X6.14Y-3.86
X6.21Y-4.585
X6.24Y-3.86
X6.745Y-4.295
T3
X5.0625Y-4.0748
X5.0625Y-4.615
T0
M30
