G04 #@! TF.FileFunction,Copper,L1,Top,Signal*
%FSLAX46Y46*%
G04 Gerber Fmt 4.6, Leading zero omitted, Abs format (unit mm)*
G04 Created by KiCad (PCBNEW 4.0.6+dfsg1-1) date Fri Mar  9 15:20:54 2018*
%MOMM*%
%LPD*%
G01*
G04 APERTURE LIST*
%ADD10C,0.100000*%
%ADD11R,1.000000X1.250000*%
%ADD12R,1.250000X1.000000*%
%ADD13R,1.200000X1.200000*%
%ADD14R,1.800000X1.800000*%
%ADD15C,1.800000*%
%ADD16R,1.700000X1.700000*%
%ADD17O,1.700000X1.700000*%
%ADD18R,1.300000X1.500000*%
%ADD19R,1.550000X1.300000*%
%ADD20R,2.000000X0.600000*%
%ADD21C,0.600000*%
%ADD22C,0.250000*%
%ADD23C,0.254000*%
G04 APERTURE END LIST*
D10*
D11*
X208550000Y-64770000D03*
X210550000Y-64770000D03*
X208550000Y-68580000D03*
X210550000Y-68580000D03*
D12*
X181610000Y-69485000D03*
X181610000Y-71485000D03*
D13*
X208745000Y-45720000D03*
X206545000Y-45720000D03*
X211625000Y-45720000D03*
X213825000Y-45720000D03*
X206545000Y-49530000D03*
X208745000Y-49530000D03*
X213825000Y-49530000D03*
X211625000Y-49530000D03*
X190670000Y-45720000D03*
X192870000Y-45720000D03*
X197950000Y-45720000D03*
X195750000Y-45720000D03*
X192870000Y-49530000D03*
X190670000Y-49530000D03*
X195750000Y-49530000D03*
X197950000Y-49530000D03*
D14*
X204470000Y-78740000D03*
D15*
X201930000Y-78740000D03*
D16*
X220345000Y-60960000D03*
D17*
X220345000Y-63500000D03*
X220345000Y-66040000D03*
X220345000Y-68580000D03*
X220345000Y-71120000D03*
D18*
X207645000Y-54530000D03*
X207645000Y-57230000D03*
X190500000Y-54530000D03*
X190500000Y-57230000D03*
X212725000Y-54530000D03*
X212725000Y-57230000D03*
X195580000Y-54530000D03*
X195580000Y-57230000D03*
X198120000Y-77390000D03*
X198120000Y-80090000D03*
D19*
X181440000Y-67020000D03*
X181440000Y-62520000D03*
X189400000Y-62520000D03*
X189400000Y-67020000D03*
D20*
X194690000Y-63500000D03*
X194690000Y-64770000D03*
X194690000Y-66040000D03*
X194690000Y-67310000D03*
X194690000Y-68580000D03*
X194690000Y-69850000D03*
X194690000Y-71120000D03*
X194690000Y-72390000D03*
X194690000Y-73660000D03*
X204090000Y-73660000D03*
X204090000Y-72390000D03*
X204090000Y-71120000D03*
X204090000Y-69850000D03*
X204090000Y-68580000D03*
X204090000Y-67310000D03*
X204090000Y-66040000D03*
X204090000Y-64770000D03*
X204090000Y-63500000D03*
D14*
X186055000Y-73660000D03*
D15*
X188595000Y-73660000D03*
X191135000Y-73660000D03*
D21*
X182372000Y-54483000D03*
X182372000Y-49530000D03*
X199390000Y-69596000D03*
X202311000Y-49530000D03*
X200152000Y-53594000D03*
X204343000Y-53594000D03*
X210185000Y-53594000D03*
X210185000Y-51562000D03*
X210185000Y-49530000D03*
X204343000Y-43688000D03*
X204343000Y-51689000D03*
X190627000Y-43688000D03*
X208280000Y-60960000D03*
X208788000Y-43688000D03*
X198120000Y-43688000D03*
X212090000Y-67310000D03*
X197485000Y-67310000D03*
X186055000Y-65405000D03*
D22*
X190670000Y-49530000D02*
X182372000Y-49530000D01*
X194690000Y-68580000D02*
X198374000Y-68580000D01*
X198374000Y-68580000D02*
X199390000Y-69596000D01*
X211625000Y-49530000D02*
X210185000Y-49530000D01*
X204343000Y-53594000D02*
X200152000Y-53594000D01*
X210185000Y-51562000D02*
X210185000Y-53594000D01*
X204343000Y-51689000D02*
X204343000Y-43688000D01*
X190670000Y-43731000D02*
X190670000Y-45720000D01*
X190627000Y-43688000D02*
X190670000Y-43731000D01*
X208550000Y-64770000D02*
X208550000Y-61230000D01*
X208550000Y-61230000D02*
X208280000Y-60960000D01*
X208745000Y-45720000D02*
X208745000Y-43731000D01*
X208745000Y-43731000D02*
X208788000Y-43688000D01*
X197950000Y-43858000D02*
X197950000Y-45720000D01*
X198120000Y-43688000D02*
X197950000Y-43858000D01*
X211625000Y-45720000D02*
X208745000Y-45720000D01*
X204090000Y-68580000D02*
X208550000Y-68580000D01*
X208550000Y-68580000D02*
X208550000Y-64770000D01*
X194690000Y-67310000D02*
X197485000Y-67310000D01*
X213995000Y-60960000D02*
X220345000Y-60960000D01*
X212725000Y-62230000D02*
X213995000Y-60960000D01*
X212725000Y-66675000D02*
X212725000Y-62230000D01*
X212090000Y-67310000D02*
X212725000Y-66675000D01*
X186055000Y-67020000D02*
X186055000Y-65405000D01*
X181440000Y-67020000D02*
X181440000Y-69315000D01*
X181440000Y-69315000D02*
X181610000Y-69485000D01*
X181440000Y-67020000D02*
X186055000Y-67020000D01*
X186055000Y-67020000D02*
X189400000Y-67020000D01*
X189400000Y-67020000D02*
X189690000Y-67310000D01*
X189690000Y-67310000D02*
X194690000Y-67310000D01*
X207645000Y-54530000D02*
X207645000Y-52070000D01*
X206545000Y-50970000D02*
X206545000Y-49530000D01*
X207645000Y-52070000D02*
X206545000Y-50970000D01*
X206545000Y-45720000D02*
X206545000Y-46570000D01*
X206545000Y-46570000D02*
X206545000Y-49530000D01*
X213825000Y-49530000D02*
X213825000Y-54330000D01*
X213825000Y-54330000D02*
X213625000Y-54530000D01*
X213625000Y-54530000D02*
X212725000Y-54530000D01*
X213825000Y-45720000D02*
X213825000Y-46570000D01*
X213825000Y-46570000D02*
X213825000Y-49530000D01*
X190500000Y-54530000D02*
X191400000Y-54530000D01*
X191400000Y-54530000D02*
X192870000Y-53060000D01*
X192870000Y-53060000D02*
X192870000Y-49530000D01*
X192870000Y-45720000D02*
X192870000Y-49530000D01*
X195580000Y-54530000D02*
X195580000Y-49700000D01*
X195580000Y-49700000D02*
X195750000Y-49530000D01*
X195750000Y-49530000D02*
X195750000Y-45720000D01*
X198120000Y-80090000D02*
X200580000Y-80090000D01*
X200580000Y-80090000D02*
X201930000Y-78740000D01*
X220345000Y-68580000D02*
X219710000Y-68580000D01*
X219710000Y-68580000D02*
X218440000Y-69850000D01*
X218440000Y-69850000D02*
X204090000Y-69850000D01*
X204090000Y-71120000D02*
X220345000Y-71120000D01*
X207645000Y-57230000D02*
X206930000Y-57230000D01*
X202565000Y-64770000D02*
X204090000Y-64770000D01*
X201930000Y-64135000D02*
X202565000Y-64770000D01*
X201930000Y-60325000D02*
X201930000Y-64135000D01*
X203835000Y-58420000D02*
X201930000Y-60325000D01*
X205740000Y-58420000D02*
X203835000Y-58420000D01*
X206930000Y-57230000D02*
X205740000Y-58420000D01*
X194690000Y-63500000D02*
X194690000Y-60520000D01*
X194690000Y-60520000D02*
X191400000Y-57230000D01*
X191400000Y-57230000D02*
X190500000Y-57230000D01*
X212725000Y-57230000D02*
X210740000Y-57230000D01*
X204090000Y-60070000D02*
X204090000Y-63500000D01*
X205105000Y-59055000D02*
X204090000Y-60070000D01*
X208915000Y-59055000D02*
X205105000Y-59055000D01*
X210740000Y-57230000D02*
X208915000Y-59055000D01*
X194690000Y-64770000D02*
X196215000Y-64770000D01*
X196295000Y-57230000D02*
X195580000Y-57230000D01*
X196850000Y-57785000D02*
X196295000Y-57230000D01*
X196850000Y-58420000D02*
X196850000Y-57785000D01*
X196850000Y-64135000D02*
X196850000Y-58420000D01*
X196215000Y-64770000D02*
X196850000Y-64135000D01*
X198120000Y-77390000D02*
X198120000Y-73660000D01*
X196850000Y-72390000D02*
X194690000Y-72390000D01*
X198120000Y-73660000D02*
X196850000Y-72390000D01*
X194690000Y-69850000D02*
X191135000Y-69850000D01*
X186055000Y-71755000D02*
X186055000Y-73660000D01*
X186690000Y-71120000D02*
X186055000Y-71755000D01*
X189865000Y-71120000D02*
X186690000Y-71120000D01*
X191135000Y-69850000D02*
X189865000Y-71120000D01*
D23*
G36*
X223290000Y-81840000D02*
X179780000Y-81840000D01*
X179780000Y-79182619D01*
X180644613Y-79182619D01*
X180984155Y-80004372D01*
X181612321Y-80633636D01*
X182433481Y-80974611D01*
X183322619Y-80975387D01*
X184144372Y-80635845D01*
X184773636Y-80007679D01*
X185114611Y-79186519D01*
X185115387Y-78297381D01*
X184775845Y-77475628D01*
X184147679Y-76846364D01*
X183326519Y-76505389D01*
X182437381Y-76504613D01*
X181615628Y-76844155D01*
X180986364Y-77472321D01*
X180645389Y-78293481D01*
X180644613Y-79182619D01*
X179780000Y-79182619D01*
X179780000Y-72760000D01*
X184507560Y-72760000D01*
X184507560Y-74560000D01*
X184551838Y-74795317D01*
X184690910Y-75011441D01*
X184903110Y-75156431D01*
X185155000Y-75207440D01*
X186955000Y-75207440D01*
X187190317Y-75163162D01*
X187406441Y-75024090D01*
X187545598Y-74820426D01*
X187579890Y-74854718D01*
X187694447Y-74740161D01*
X187780852Y-74996643D01*
X188354336Y-75206458D01*
X188964460Y-75180839D01*
X189409148Y-74996643D01*
X189495554Y-74740159D01*
X188595000Y-73839605D01*
X188580858Y-73853748D01*
X188401253Y-73674143D01*
X188415395Y-73660000D01*
X188774605Y-73660000D01*
X189675159Y-74560554D01*
X189825327Y-74509965D01*
X189832932Y-74528371D01*
X190264357Y-74960551D01*
X190828330Y-75194733D01*
X191438991Y-75195265D01*
X192003371Y-74962068D01*
X192435551Y-74530643D01*
X192669733Y-73966670D01*
X192670265Y-73356009D01*
X192437068Y-72791629D01*
X192005643Y-72359449D01*
X191441670Y-72125267D01*
X190831009Y-72124735D01*
X190266629Y-72357932D01*
X189834449Y-72789357D01*
X189825797Y-72810194D01*
X189675159Y-72759446D01*
X188774605Y-73660000D01*
X188415395Y-73660000D01*
X188401253Y-73645858D01*
X188580858Y-73466253D01*
X188595000Y-73480395D01*
X189495554Y-72579841D01*
X189409148Y-72323357D01*
X188835664Y-72113542D01*
X188225540Y-72139161D01*
X187780852Y-72323357D01*
X187694447Y-72579839D01*
X187579890Y-72465282D01*
X187543412Y-72501760D01*
X187419090Y-72308559D01*
X187206890Y-72163569D01*
X186955000Y-72112560D01*
X186815000Y-72112560D01*
X186815000Y-72069802D01*
X187004802Y-71880000D01*
X189865000Y-71880000D01*
X190155839Y-71822148D01*
X190402401Y-71657401D01*
X191449802Y-70610000D01*
X193085086Y-70610000D01*
X193042560Y-70820000D01*
X193042560Y-71420000D01*
X193086838Y-71655317D01*
X193150678Y-71754528D01*
X193093569Y-71838110D01*
X193042560Y-72090000D01*
X193042560Y-72690000D01*
X193086838Y-72925317D01*
X193150678Y-73024528D01*
X193093569Y-73108110D01*
X193042560Y-73360000D01*
X193042560Y-73960000D01*
X193086838Y-74195317D01*
X193225910Y-74411441D01*
X193438110Y-74556431D01*
X193690000Y-74607440D01*
X195690000Y-74607440D01*
X195925317Y-74563162D01*
X196141441Y-74424090D01*
X196286431Y-74211890D01*
X196337440Y-73960000D01*
X196337440Y-73360000D01*
X196297926Y-73150000D01*
X196535198Y-73150000D01*
X197360000Y-73974802D01*
X197360000Y-76013258D01*
X197234683Y-76036838D01*
X197018559Y-76175910D01*
X196873569Y-76388110D01*
X196822560Y-76640000D01*
X196822560Y-78140000D01*
X196866838Y-78375317D01*
X197005910Y-78591441D01*
X197218110Y-78736431D01*
X197231197Y-78739081D01*
X197018559Y-78875910D01*
X196873569Y-79088110D01*
X196822560Y-79340000D01*
X196822560Y-80840000D01*
X196866838Y-81075317D01*
X197005910Y-81291441D01*
X197218110Y-81436431D01*
X197470000Y-81487440D01*
X198770000Y-81487440D01*
X199005317Y-81443162D01*
X199221441Y-81304090D01*
X199366431Y-81091890D01*
X199415415Y-80850000D01*
X200580000Y-80850000D01*
X200870839Y-80792148D01*
X201117401Y-80627401D01*
X201515036Y-80229766D01*
X201623330Y-80274733D01*
X202233991Y-80275265D01*
X202798371Y-80042068D01*
X202975841Y-79864908D01*
X203031673Y-79999699D01*
X203210302Y-80178327D01*
X203443691Y-80275000D01*
X204184250Y-80275000D01*
X204343000Y-80116250D01*
X204343000Y-78867000D01*
X204597000Y-78867000D01*
X204597000Y-80116250D01*
X204755750Y-80275000D01*
X205496309Y-80275000D01*
X205729698Y-80178327D01*
X205908327Y-79999699D01*
X206005000Y-79766310D01*
X206005000Y-79182619D01*
X218109613Y-79182619D01*
X218449155Y-80004372D01*
X219077321Y-80633636D01*
X219898481Y-80974611D01*
X220787619Y-80975387D01*
X221609372Y-80635845D01*
X222238636Y-80007679D01*
X222579611Y-79186519D01*
X222580387Y-78297381D01*
X222240845Y-77475628D01*
X221612679Y-76846364D01*
X220791519Y-76505389D01*
X219902381Y-76504613D01*
X219080628Y-76844155D01*
X218451364Y-77472321D01*
X218110389Y-78293481D01*
X218109613Y-79182619D01*
X206005000Y-79182619D01*
X206005000Y-79025750D01*
X205846250Y-78867000D01*
X204597000Y-78867000D01*
X204343000Y-78867000D01*
X204323000Y-78867000D01*
X204323000Y-78613000D01*
X204343000Y-78613000D01*
X204343000Y-77363750D01*
X204597000Y-77363750D01*
X204597000Y-78613000D01*
X205846250Y-78613000D01*
X206005000Y-78454250D01*
X206005000Y-77713690D01*
X205908327Y-77480301D01*
X205729698Y-77301673D01*
X205496309Y-77205000D01*
X204755750Y-77205000D01*
X204597000Y-77363750D01*
X204343000Y-77363750D01*
X204184250Y-77205000D01*
X203443691Y-77205000D01*
X203210302Y-77301673D01*
X203031673Y-77480301D01*
X202975881Y-77614994D01*
X202800643Y-77439449D01*
X202236670Y-77205267D01*
X201626009Y-77204735D01*
X201061629Y-77437932D01*
X200629449Y-77869357D01*
X200395267Y-78433330D01*
X200394735Y-79043991D01*
X200440485Y-79154713D01*
X200265198Y-79330000D01*
X199415558Y-79330000D01*
X199373162Y-79104683D01*
X199234090Y-78888559D01*
X199021890Y-78743569D01*
X199008803Y-78740919D01*
X199221441Y-78604090D01*
X199366431Y-78391890D01*
X199417440Y-78140000D01*
X199417440Y-76640000D01*
X199373162Y-76404683D01*
X199234090Y-76188559D01*
X199021890Y-76043569D01*
X198880000Y-76014836D01*
X198880000Y-73660000D01*
X198822148Y-73369161D01*
X198822148Y-73369160D01*
X198657401Y-73122599D01*
X197387401Y-71852599D01*
X197140839Y-71687852D01*
X196850000Y-71630000D01*
X196294914Y-71630000D01*
X196337440Y-71420000D01*
X196337440Y-70820000D01*
X196293162Y-70584683D01*
X196229322Y-70485472D01*
X196286431Y-70401890D01*
X196337440Y-70150000D01*
X196337440Y-69550000D01*
X196293162Y-69314683D01*
X196234822Y-69224020D01*
X196325000Y-69006310D01*
X196325000Y-68865750D01*
X196166250Y-68707000D01*
X194817000Y-68707000D01*
X194817000Y-68727000D01*
X194563000Y-68727000D01*
X194563000Y-68707000D01*
X193213750Y-68707000D01*
X193055000Y-68865750D01*
X193055000Y-69006310D01*
X193089666Y-69090000D01*
X191135000Y-69090000D01*
X190844160Y-69147852D01*
X190597599Y-69312599D01*
X189550198Y-70360000D01*
X186690000Y-70360000D01*
X186399161Y-70417852D01*
X186152599Y-70582599D01*
X185517599Y-71217599D01*
X185352852Y-71464161D01*
X185295000Y-71755000D01*
X185295000Y-72112560D01*
X185155000Y-72112560D01*
X184919683Y-72156838D01*
X184703559Y-72295910D01*
X184558569Y-72508110D01*
X184507560Y-72760000D01*
X179780000Y-72760000D01*
X179780000Y-71770750D01*
X180350000Y-71770750D01*
X180350000Y-72111309D01*
X180446673Y-72344698D01*
X180625301Y-72523327D01*
X180858690Y-72620000D01*
X181324250Y-72620000D01*
X181483000Y-72461250D01*
X181483000Y-71612000D01*
X181737000Y-71612000D01*
X181737000Y-72461250D01*
X181895750Y-72620000D01*
X182361310Y-72620000D01*
X182594699Y-72523327D01*
X182773327Y-72344698D01*
X182870000Y-72111309D01*
X182870000Y-71770750D01*
X182711250Y-71612000D01*
X181737000Y-71612000D01*
X181483000Y-71612000D01*
X180508750Y-71612000D01*
X180350000Y-71770750D01*
X179780000Y-71770750D01*
X179780000Y-66370000D01*
X180017560Y-66370000D01*
X180017560Y-67670000D01*
X180061838Y-67905317D01*
X180200910Y-68121441D01*
X180413110Y-68266431D01*
X180665000Y-68317440D01*
X180680000Y-68317440D01*
X180680000Y-68426678D01*
X180533559Y-68520910D01*
X180388569Y-68733110D01*
X180337560Y-68985000D01*
X180337560Y-69985000D01*
X180381838Y-70220317D01*
X180520910Y-70436441D01*
X180589006Y-70482969D01*
X180446673Y-70625302D01*
X180350000Y-70858691D01*
X180350000Y-71199250D01*
X180508750Y-71358000D01*
X181483000Y-71358000D01*
X181483000Y-71338000D01*
X181737000Y-71338000D01*
X181737000Y-71358000D01*
X182711250Y-71358000D01*
X182870000Y-71199250D01*
X182870000Y-70858691D01*
X182773327Y-70625302D01*
X182632090Y-70484064D01*
X182686441Y-70449090D01*
X182831431Y-70236890D01*
X182882440Y-69985000D01*
X182882440Y-68985000D01*
X182838162Y-68749683D01*
X182699090Y-68533559D01*
X182486890Y-68388569D01*
X182235000Y-68337560D01*
X182200000Y-68337560D01*
X182200000Y-68317440D01*
X182215000Y-68317440D01*
X182450317Y-68273162D01*
X182666441Y-68134090D01*
X182811431Y-67921890D01*
X182840164Y-67780000D01*
X187998258Y-67780000D01*
X188021838Y-67905317D01*
X188160910Y-68121441D01*
X188373110Y-68266431D01*
X188625000Y-68317440D01*
X190175000Y-68317440D01*
X190410317Y-68273162D01*
X190626441Y-68134090D01*
X190670232Y-68070000D01*
X193089666Y-68070000D01*
X193055000Y-68153690D01*
X193055000Y-68294250D01*
X193213750Y-68453000D01*
X194563000Y-68453000D01*
X194563000Y-68433000D01*
X194817000Y-68433000D01*
X194817000Y-68453000D01*
X196166250Y-68453000D01*
X196325000Y-68294250D01*
X196325000Y-68153690D01*
X196290334Y-68070000D01*
X196922537Y-68070000D01*
X196954673Y-68102192D01*
X197298201Y-68244838D01*
X197670167Y-68245162D01*
X198013943Y-68103117D01*
X198277192Y-67840327D01*
X198419838Y-67496799D01*
X198420162Y-67124833D01*
X198278117Y-66781057D01*
X198015327Y-66517808D01*
X197671799Y-66375162D01*
X197299833Y-66374838D01*
X196956057Y-66516883D01*
X196922882Y-66550000D01*
X196294914Y-66550000D01*
X196337440Y-66340000D01*
X196337440Y-65740000D01*
X196294934Y-65514100D01*
X196505839Y-65472148D01*
X196752401Y-65307401D01*
X197387401Y-64672401D01*
X197552148Y-64425839D01*
X197610000Y-64135000D01*
X197610000Y-60325000D01*
X201170000Y-60325000D01*
X201170000Y-64135000D01*
X201227852Y-64425839D01*
X201392599Y-64672401D01*
X202027599Y-65307401D01*
X202274161Y-65472148D01*
X202488180Y-65514720D01*
X202442560Y-65740000D01*
X202442560Y-66340000D01*
X202486838Y-66575317D01*
X202550678Y-66674528D01*
X202493569Y-66758110D01*
X202442560Y-67010000D01*
X202442560Y-67610000D01*
X202486838Y-67845317D01*
X202550678Y-67944528D01*
X202493569Y-68028110D01*
X202442560Y-68280000D01*
X202442560Y-68880000D01*
X202486838Y-69115317D01*
X202550678Y-69214528D01*
X202493569Y-69298110D01*
X202442560Y-69550000D01*
X202442560Y-70150000D01*
X202486838Y-70385317D01*
X202550678Y-70484528D01*
X202493569Y-70568110D01*
X202442560Y-70820000D01*
X202442560Y-71420000D01*
X202486838Y-71655317D01*
X202550678Y-71754528D01*
X202493569Y-71838110D01*
X202442560Y-72090000D01*
X202442560Y-72690000D01*
X202486838Y-72925317D01*
X202550678Y-73024528D01*
X202493569Y-73108110D01*
X202442560Y-73360000D01*
X202442560Y-73960000D01*
X202486838Y-74195317D01*
X202625910Y-74411441D01*
X202838110Y-74556431D01*
X203090000Y-74607440D01*
X205090000Y-74607440D01*
X205325317Y-74563162D01*
X205541441Y-74424090D01*
X205686431Y-74211890D01*
X205737440Y-73960000D01*
X205737440Y-73360000D01*
X205693162Y-73124683D01*
X205629322Y-73025472D01*
X205686431Y-72941890D01*
X205737440Y-72690000D01*
X205737440Y-72090000D01*
X205697926Y-71880000D01*
X219072046Y-71880000D01*
X219265853Y-72170054D01*
X219747622Y-72491961D01*
X220315907Y-72605000D01*
X220374093Y-72605000D01*
X220942378Y-72491961D01*
X221424147Y-72170054D01*
X221746054Y-71688285D01*
X221859093Y-71120000D01*
X221746054Y-70551715D01*
X221424147Y-70069946D01*
X221094974Y-69850000D01*
X221424147Y-69630054D01*
X221746054Y-69148285D01*
X221859093Y-68580000D01*
X221746054Y-68011715D01*
X221424147Y-67529946D01*
X221083447Y-67302298D01*
X221226358Y-67235183D01*
X221616645Y-66806924D01*
X221786476Y-66396890D01*
X221665155Y-66167000D01*
X220472000Y-66167000D01*
X220472000Y-66187000D01*
X220218000Y-66187000D01*
X220218000Y-66167000D01*
X219024845Y-66167000D01*
X218903524Y-66396890D01*
X219073355Y-66806924D01*
X219463642Y-67235183D01*
X219606553Y-67302298D01*
X219265853Y-67529946D01*
X218943946Y-68011715D01*
X218879502Y-68335696D01*
X218125198Y-69090000D01*
X211685000Y-69090000D01*
X211685000Y-68865750D01*
X211526250Y-68707000D01*
X210677000Y-68707000D01*
X210677000Y-68727000D01*
X210423000Y-68727000D01*
X210423000Y-68707000D01*
X210403000Y-68707000D01*
X210403000Y-68453000D01*
X210423000Y-68453000D01*
X210423000Y-67478750D01*
X210677000Y-67478750D01*
X210677000Y-68453000D01*
X211526250Y-68453000D01*
X211685000Y-68294250D01*
X211685000Y-68154233D01*
X211903201Y-68244838D01*
X212275167Y-68245162D01*
X212618943Y-68103117D01*
X212882192Y-67840327D01*
X213024838Y-67496799D01*
X213024879Y-67449923D01*
X213262401Y-67212401D01*
X213427148Y-66965839D01*
X213485000Y-66675000D01*
X213485000Y-62544802D01*
X214309802Y-61720000D01*
X218847560Y-61720000D01*
X218847560Y-61810000D01*
X218891838Y-62045317D01*
X219030910Y-62261441D01*
X219243110Y-62406431D01*
X219310541Y-62420086D01*
X219265853Y-62449946D01*
X218943946Y-62931715D01*
X218830907Y-63500000D01*
X218943946Y-64068285D01*
X219265853Y-64550054D01*
X219606553Y-64777702D01*
X219463642Y-64844817D01*
X219073355Y-65273076D01*
X218903524Y-65683110D01*
X219024845Y-65913000D01*
X220218000Y-65913000D01*
X220218000Y-65893000D01*
X220472000Y-65893000D01*
X220472000Y-65913000D01*
X221665155Y-65913000D01*
X221786476Y-65683110D01*
X221616645Y-65273076D01*
X221226358Y-64844817D01*
X221083447Y-64777702D01*
X221424147Y-64550054D01*
X221746054Y-64068285D01*
X221859093Y-63500000D01*
X221746054Y-62931715D01*
X221424147Y-62449946D01*
X221382548Y-62422150D01*
X221430317Y-62413162D01*
X221646441Y-62274090D01*
X221791431Y-62061890D01*
X221842440Y-61810000D01*
X221842440Y-60110000D01*
X221798162Y-59874683D01*
X221659090Y-59658559D01*
X221446890Y-59513569D01*
X221195000Y-59462560D01*
X219495000Y-59462560D01*
X219259683Y-59506838D01*
X219043559Y-59645910D01*
X218898569Y-59858110D01*
X218847560Y-60110000D01*
X218847560Y-60200000D01*
X213995000Y-60200000D01*
X213704160Y-60257852D01*
X213457599Y-60422599D01*
X212187599Y-61692599D01*
X212022852Y-61939161D01*
X211965000Y-62230000D01*
X211965000Y-66360198D01*
X211950320Y-66374878D01*
X211904833Y-66374838D01*
X211561057Y-66516883D01*
X211297808Y-66779673D01*
X211155162Y-67123201D01*
X211154991Y-67320000D01*
X210835750Y-67320000D01*
X210677000Y-67478750D01*
X210423000Y-67478750D01*
X210264250Y-67320000D01*
X209923691Y-67320000D01*
X209690302Y-67416673D01*
X209549064Y-67557910D01*
X209514090Y-67503559D01*
X209310000Y-67364110D01*
X209310000Y-65982279D01*
X209501441Y-65859090D01*
X209547969Y-65790994D01*
X209690302Y-65933327D01*
X209923691Y-66030000D01*
X210264250Y-66030000D01*
X210423000Y-65871250D01*
X210423000Y-64897000D01*
X210677000Y-64897000D01*
X210677000Y-65871250D01*
X210835750Y-66030000D01*
X211176309Y-66030000D01*
X211409698Y-65933327D01*
X211588327Y-65754699D01*
X211685000Y-65521310D01*
X211685000Y-65055750D01*
X211526250Y-64897000D01*
X210677000Y-64897000D01*
X210423000Y-64897000D01*
X210403000Y-64897000D01*
X210403000Y-64643000D01*
X210423000Y-64643000D01*
X210423000Y-63668750D01*
X210677000Y-63668750D01*
X210677000Y-64643000D01*
X211526250Y-64643000D01*
X211685000Y-64484250D01*
X211685000Y-64018690D01*
X211588327Y-63785301D01*
X211409698Y-63606673D01*
X211176309Y-63510000D01*
X210835750Y-63510000D01*
X210677000Y-63668750D01*
X210423000Y-63668750D01*
X210264250Y-63510000D01*
X209923691Y-63510000D01*
X209690302Y-63606673D01*
X209549064Y-63747910D01*
X209514090Y-63693559D01*
X209310000Y-63554110D01*
X209310000Y-61230000D01*
X209252148Y-60939161D01*
X209215067Y-60883666D01*
X209215162Y-60774833D01*
X209073117Y-60431057D01*
X208810327Y-60167808D01*
X208466799Y-60025162D01*
X208094833Y-60024838D01*
X207751057Y-60166883D01*
X207487808Y-60429673D01*
X207345162Y-60773201D01*
X207344838Y-61145167D01*
X207486883Y-61488943D01*
X207749673Y-61752192D01*
X207790000Y-61768937D01*
X207790000Y-63557721D01*
X207598559Y-63680910D01*
X207453569Y-63893110D01*
X207402560Y-64145000D01*
X207402560Y-65395000D01*
X207446838Y-65630317D01*
X207585910Y-65846441D01*
X207790000Y-65985890D01*
X207790000Y-67367721D01*
X207598559Y-67490910D01*
X207453569Y-67703110D01*
X207429898Y-67820000D01*
X205694914Y-67820000D01*
X205737440Y-67610000D01*
X205737440Y-67010000D01*
X205693162Y-66774683D01*
X205629322Y-66675472D01*
X205686431Y-66591890D01*
X205737440Y-66340000D01*
X205737440Y-65740000D01*
X205693162Y-65504683D01*
X205629322Y-65405472D01*
X205686431Y-65321890D01*
X205737440Y-65070000D01*
X205737440Y-64470000D01*
X205693162Y-64234683D01*
X205629322Y-64135472D01*
X205686431Y-64051890D01*
X205737440Y-63800000D01*
X205737440Y-63200000D01*
X205693162Y-62964683D01*
X205554090Y-62748559D01*
X205341890Y-62603569D01*
X205090000Y-62552560D01*
X204850000Y-62552560D01*
X204850000Y-60384802D01*
X205419802Y-59815000D01*
X208915000Y-59815000D01*
X209205839Y-59757148D01*
X209452401Y-59592401D01*
X211054802Y-57990000D01*
X211429442Y-57990000D01*
X211471838Y-58215317D01*
X211610910Y-58431441D01*
X211823110Y-58576431D01*
X212075000Y-58627440D01*
X213375000Y-58627440D01*
X213610317Y-58583162D01*
X213826441Y-58444090D01*
X213971431Y-58231890D01*
X214022440Y-57980000D01*
X214022440Y-56480000D01*
X213978162Y-56244683D01*
X213839090Y-56028559D01*
X213626890Y-55883569D01*
X213613803Y-55880919D01*
X213826441Y-55744090D01*
X213971431Y-55531890D01*
X214022440Y-55280000D01*
X214022440Y-55160920D01*
X214162401Y-55067401D01*
X214362401Y-54867401D01*
X214527148Y-54620839D01*
X214585000Y-54330000D01*
X214585000Y-50747334D01*
X214660317Y-50733162D01*
X214876441Y-50594090D01*
X215021431Y-50381890D01*
X215072440Y-50130000D01*
X215072440Y-48930000D01*
X215028162Y-48694683D01*
X214889090Y-48478559D01*
X214676890Y-48333569D01*
X214585000Y-48314961D01*
X214585000Y-46937334D01*
X214660317Y-46923162D01*
X214876441Y-46784090D01*
X215021431Y-46571890D01*
X215072440Y-46320000D01*
X215072440Y-45120000D01*
X215028162Y-44884683D01*
X214889090Y-44668559D01*
X214676890Y-44523569D01*
X214425000Y-44472560D01*
X213225000Y-44472560D01*
X212989683Y-44516838D01*
X212773559Y-44655910D01*
X212725866Y-44725711D01*
X212689090Y-44668559D01*
X212476890Y-44523569D01*
X212225000Y-44472560D01*
X211025000Y-44472560D01*
X210789683Y-44516838D01*
X210573559Y-44655910D01*
X210428569Y-44868110D01*
X210409961Y-44960000D01*
X209962334Y-44960000D01*
X209948162Y-44884683D01*
X209809090Y-44668559D01*
X209596890Y-44523569D01*
X209505000Y-44504961D01*
X209505000Y-44293388D01*
X209580192Y-44218327D01*
X209722838Y-43874799D01*
X209723057Y-43622619D01*
X218109613Y-43622619D01*
X218449155Y-44444372D01*
X219077321Y-45073636D01*
X219898481Y-45414611D01*
X220787619Y-45415387D01*
X221609372Y-45075845D01*
X222238636Y-44447679D01*
X222579611Y-43626519D01*
X222580387Y-42737381D01*
X222240845Y-41915628D01*
X221612679Y-41286364D01*
X220791519Y-40945389D01*
X219902381Y-40944613D01*
X219080628Y-41284155D01*
X218451364Y-41912321D01*
X218110389Y-42733481D01*
X218109613Y-43622619D01*
X209723057Y-43622619D01*
X209723162Y-43502833D01*
X209581117Y-43159057D01*
X209318327Y-42895808D01*
X208974799Y-42753162D01*
X208602833Y-42752838D01*
X208259057Y-42894883D01*
X207995808Y-43157673D01*
X207853162Y-43501201D01*
X207852838Y-43873167D01*
X207985000Y-44193024D01*
X207985000Y-44502666D01*
X207909683Y-44516838D01*
X207693559Y-44655910D01*
X207645866Y-44725711D01*
X207609090Y-44668559D01*
X207396890Y-44523569D01*
X207145000Y-44472560D01*
X205945000Y-44472560D01*
X205709683Y-44516838D01*
X205493559Y-44655910D01*
X205348569Y-44868110D01*
X205297560Y-45120000D01*
X205297560Y-46320000D01*
X205341838Y-46555317D01*
X205480910Y-46771441D01*
X205693110Y-46916431D01*
X205785000Y-46935039D01*
X205785000Y-48312666D01*
X205709683Y-48326838D01*
X205493559Y-48465910D01*
X205348569Y-48678110D01*
X205297560Y-48930000D01*
X205297560Y-50130000D01*
X205341838Y-50365317D01*
X205480910Y-50581441D01*
X205693110Y-50726431D01*
X205785000Y-50745039D01*
X205785000Y-50970000D01*
X205842852Y-51260839D01*
X206007599Y-51507401D01*
X206885000Y-52384802D01*
X206885000Y-53153258D01*
X206759683Y-53176838D01*
X206543559Y-53315910D01*
X206398569Y-53528110D01*
X206347560Y-53780000D01*
X206347560Y-55280000D01*
X206391838Y-55515317D01*
X206530910Y-55731441D01*
X206743110Y-55876431D01*
X206756197Y-55879081D01*
X206543559Y-56015910D01*
X206398569Y-56228110D01*
X206347560Y-56480000D01*
X206347560Y-56737638D01*
X205425198Y-57660000D01*
X203835000Y-57660000D01*
X203544161Y-57717852D01*
X203297599Y-57882599D01*
X201392599Y-59787599D01*
X201227852Y-60034161D01*
X201170000Y-60325000D01*
X197610000Y-60325000D01*
X197610000Y-57785000D01*
X197552148Y-57494161D01*
X197387401Y-57247599D01*
X196877440Y-56737638D01*
X196877440Y-56480000D01*
X196833162Y-56244683D01*
X196694090Y-56028559D01*
X196481890Y-55883569D01*
X196468803Y-55880919D01*
X196681441Y-55744090D01*
X196826431Y-55531890D01*
X196877440Y-55280000D01*
X196877440Y-53780000D01*
X196833162Y-53544683D01*
X196694090Y-53328559D01*
X196481890Y-53183569D01*
X196340000Y-53154836D01*
X196340000Y-50777440D01*
X196350000Y-50777440D01*
X196585317Y-50733162D01*
X196801441Y-50594090D01*
X196847969Y-50525994D01*
X196990302Y-50668327D01*
X197223691Y-50765000D01*
X197664250Y-50765000D01*
X197823000Y-50606250D01*
X197823000Y-49657000D01*
X198077000Y-49657000D01*
X198077000Y-50606250D01*
X198235750Y-50765000D01*
X198676309Y-50765000D01*
X198909698Y-50668327D01*
X199088327Y-50489699D01*
X199185000Y-50256310D01*
X199185000Y-49815750D01*
X199026250Y-49657000D01*
X198077000Y-49657000D01*
X197823000Y-49657000D01*
X197803000Y-49657000D01*
X197803000Y-49403000D01*
X197823000Y-49403000D01*
X197823000Y-48453750D01*
X198077000Y-48453750D01*
X198077000Y-49403000D01*
X199026250Y-49403000D01*
X199185000Y-49244250D01*
X199185000Y-48803690D01*
X199088327Y-48570301D01*
X198909698Y-48391673D01*
X198676309Y-48295000D01*
X198235750Y-48295000D01*
X198077000Y-48453750D01*
X197823000Y-48453750D01*
X197664250Y-48295000D01*
X197223691Y-48295000D01*
X196990302Y-48391673D01*
X196849064Y-48532910D01*
X196814090Y-48478559D01*
X196601890Y-48333569D01*
X196510000Y-48314961D01*
X196510000Y-46937334D01*
X196585317Y-46923162D01*
X196801441Y-46784090D01*
X196849134Y-46714289D01*
X196885910Y-46771441D01*
X197098110Y-46916431D01*
X197350000Y-46967440D01*
X198550000Y-46967440D01*
X198785317Y-46923162D01*
X199001441Y-46784090D01*
X199146431Y-46571890D01*
X199197440Y-46320000D01*
X199197440Y-45120000D01*
X199153162Y-44884683D01*
X199014090Y-44668559D01*
X198801890Y-44523569D01*
X198710000Y-44504961D01*
X198710000Y-44420166D01*
X198912192Y-44218327D01*
X199054838Y-43874799D01*
X199054839Y-43873167D01*
X203407838Y-43873167D01*
X203549883Y-44216943D01*
X203583000Y-44250118D01*
X203583000Y-51126537D01*
X203550808Y-51158673D01*
X203408162Y-51502201D01*
X203407838Y-51874167D01*
X203549883Y-52217943D01*
X203812673Y-52481192D01*
X204156201Y-52623838D01*
X204528167Y-52624162D01*
X204871943Y-52482117D01*
X205135192Y-52219327D01*
X205277838Y-51875799D01*
X205278162Y-51503833D01*
X205136117Y-51160057D01*
X205103000Y-51126882D01*
X205103000Y-44250463D01*
X205135192Y-44218327D01*
X205277838Y-43874799D01*
X205278162Y-43502833D01*
X205136117Y-43159057D01*
X204873327Y-42895808D01*
X204529799Y-42753162D01*
X204157833Y-42752838D01*
X203814057Y-42894883D01*
X203550808Y-43157673D01*
X203408162Y-43501201D01*
X203407838Y-43873167D01*
X199054839Y-43873167D01*
X199055162Y-43502833D01*
X198913117Y-43159057D01*
X198650327Y-42895808D01*
X198306799Y-42753162D01*
X197934833Y-42752838D01*
X197591057Y-42894883D01*
X197327808Y-43157673D01*
X197185162Y-43501201D01*
X197184838Y-43873167D01*
X197190000Y-43885660D01*
X197190000Y-44502666D01*
X197114683Y-44516838D01*
X196898559Y-44655910D01*
X196850866Y-44725711D01*
X196814090Y-44668559D01*
X196601890Y-44523569D01*
X196350000Y-44472560D01*
X195150000Y-44472560D01*
X194914683Y-44516838D01*
X194698559Y-44655910D01*
X194553569Y-44868110D01*
X194502560Y-45120000D01*
X194502560Y-46320000D01*
X194546838Y-46555317D01*
X194685910Y-46771441D01*
X194898110Y-46916431D01*
X194990000Y-46935039D01*
X194990000Y-48312666D01*
X194914683Y-48326838D01*
X194698559Y-48465910D01*
X194553569Y-48678110D01*
X194502560Y-48930000D01*
X194502560Y-50130000D01*
X194546838Y-50365317D01*
X194685910Y-50581441D01*
X194820000Y-50673061D01*
X194820000Y-53153258D01*
X194694683Y-53176838D01*
X194478559Y-53315910D01*
X194333569Y-53528110D01*
X194282560Y-53780000D01*
X194282560Y-55280000D01*
X194326838Y-55515317D01*
X194465910Y-55731441D01*
X194678110Y-55876431D01*
X194691197Y-55879081D01*
X194478559Y-56015910D01*
X194333569Y-56228110D01*
X194282560Y-56480000D01*
X194282560Y-57980000D01*
X194326838Y-58215317D01*
X194465910Y-58431441D01*
X194678110Y-58576431D01*
X194930000Y-58627440D01*
X196090000Y-58627440D01*
X196090000Y-62704768D01*
X195941890Y-62603569D01*
X195690000Y-62552560D01*
X195450000Y-62552560D01*
X195450000Y-60520000D01*
X195392148Y-60229161D01*
X195227401Y-59982599D01*
X191937401Y-56692599D01*
X191797440Y-56599080D01*
X191797440Y-56480000D01*
X191753162Y-56244683D01*
X191614090Y-56028559D01*
X191401890Y-55883569D01*
X191388803Y-55880919D01*
X191601441Y-55744090D01*
X191746431Y-55531890D01*
X191797440Y-55280000D01*
X191797440Y-55160920D01*
X191937401Y-55067401D01*
X193407401Y-53597401D01*
X193572148Y-53350839D01*
X193630000Y-53060000D01*
X193630000Y-50747334D01*
X193705317Y-50733162D01*
X193921441Y-50594090D01*
X194066431Y-50381890D01*
X194117440Y-50130000D01*
X194117440Y-48930000D01*
X194073162Y-48694683D01*
X193934090Y-48478559D01*
X193721890Y-48333569D01*
X193630000Y-48314961D01*
X193630000Y-46937334D01*
X193705317Y-46923162D01*
X193921441Y-46784090D01*
X194066431Y-46571890D01*
X194117440Y-46320000D01*
X194117440Y-45120000D01*
X194073162Y-44884683D01*
X193934090Y-44668559D01*
X193721890Y-44523569D01*
X193470000Y-44472560D01*
X192270000Y-44472560D01*
X192034683Y-44516838D01*
X191818559Y-44655910D01*
X191770866Y-44725711D01*
X191734090Y-44668559D01*
X191521890Y-44523569D01*
X191430000Y-44504961D01*
X191430000Y-44192299D01*
X191561838Y-43874799D01*
X191562162Y-43502833D01*
X191420117Y-43159057D01*
X191157327Y-42895808D01*
X190813799Y-42753162D01*
X190441833Y-42752838D01*
X190098057Y-42894883D01*
X189834808Y-43157673D01*
X189692162Y-43501201D01*
X189691838Y-43873167D01*
X189833883Y-44216943D01*
X189910000Y-44293193D01*
X189910000Y-44502666D01*
X189834683Y-44516838D01*
X189618559Y-44655910D01*
X189473569Y-44868110D01*
X189422560Y-45120000D01*
X189422560Y-46320000D01*
X189466838Y-46555317D01*
X189605910Y-46771441D01*
X189818110Y-46916431D01*
X190070000Y-46967440D01*
X191270000Y-46967440D01*
X191505317Y-46923162D01*
X191721441Y-46784090D01*
X191769134Y-46714289D01*
X191805910Y-46771441D01*
X192018110Y-46916431D01*
X192110000Y-46935039D01*
X192110000Y-48312666D01*
X192034683Y-48326838D01*
X191818559Y-48465910D01*
X191772031Y-48534006D01*
X191629698Y-48391673D01*
X191396309Y-48295000D01*
X190955750Y-48295000D01*
X190797000Y-48453750D01*
X190797000Y-49403000D01*
X190817000Y-49403000D01*
X190817000Y-49657000D01*
X190797000Y-49657000D01*
X190797000Y-50606250D01*
X190955750Y-50765000D01*
X191396309Y-50765000D01*
X191629698Y-50668327D01*
X191770936Y-50527090D01*
X191805910Y-50581441D01*
X192018110Y-50726431D01*
X192110000Y-50745039D01*
X192110000Y-52745198D01*
X191562137Y-53293061D01*
X191401890Y-53183569D01*
X191150000Y-53132560D01*
X189850000Y-53132560D01*
X189614683Y-53176838D01*
X189398559Y-53315910D01*
X189253569Y-53528110D01*
X189202560Y-53780000D01*
X189202560Y-55280000D01*
X189246838Y-55515317D01*
X189385910Y-55731441D01*
X189598110Y-55876431D01*
X189611197Y-55879081D01*
X189398559Y-56015910D01*
X189253569Y-56228110D01*
X189202560Y-56480000D01*
X189202560Y-57980000D01*
X189246838Y-58215317D01*
X189385910Y-58431441D01*
X189598110Y-58576431D01*
X189850000Y-58627440D01*
X191150000Y-58627440D01*
X191385317Y-58583162D01*
X191563623Y-58468425D01*
X193930000Y-60834802D01*
X193930000Y-62552560D01*
X193690000Y-62552560D01*
X193454683Y-62596838D01*
X193238559Y-62735910D01*
X193093569Y-62948110D01*
X193042560Y-63200000D01*
X193042560Y-63800000D01*
X193086838Y-64035317D01*
X193150678Y-64134528D01*
X193093569Y-64218110D01*
X193042560Y-64470000D01*
X193042560Y-65070000D01*
X193086838Y-65305317D01*
X193150678Y-65404528D01*
X193093569Y-65488110D01*
X193042560Y-65740000D01*
X193042560Y-66340000D01*
X193082074Y-66550000D01*
X190822440Y-66550000D01*
X190822440Y-66370000D01*
X190778162Y-66134683D01*
X190639090Y-65918559D01*
X190426890Y-65773569D01*
X190175000Y-65722560D01*
X188625000Y-65722560D01*
X188389683Y-65766838D01*
X188173559Y-65905910D01*
X188028569Y-66118110D01*
X187999836Y-66260000D01*
X186815000Y-66260000D01*
X186815000Y-65967463D01*
X186847192Y-65935327D01*
X186989838Y-65591799D01*
X186990162Y-65219833D01*
X186848117Y-64876057D01*
X186585327Y-64612808D01*
X186241799Y-64470162D01*
X185869833Y-64469838D01*
X185526057Y-64611883D01*
X185262808Y-64874673D01*
X185120162Y-65218201D01*
X185119838Y-65590167D01*
X185261883Y-65933943D01*
X185295000Y-65967118D01*
X185295000Y-66260000D01*
X182841742Y-66260000D01*
X182818162Y-66134683D01*
X182679090Y-65918559D01*
X182466890Y-65773569D01*
X182215000Y-65722560D01*
X180665000Y-65722560D01*
X180429683Y-65766838D01*
X180213559Y-65905910D01*
X180068569Y-66118110D01*
X180017560Y-66370000D01*
X179780000Y-66370000D01*
X179780000Y-62805750D01*
X180030000Y-62805750D01*
X180030000Y-63296310D01*
X180126673Y-63529699D01*
X180305302Y-63708327D01*
X180538691Y-63805000D01*
X181154250Y-63805000D01*
X181313000Y-63646250D01*
X181313000Y-62647000D01*
X181567000Y-62647000D01*
X181567000Y-63646250D01*
X181725750Y-63805000D01*
X182341309Y-63805000D01*
X182574698Y-63708327D01*
X182753327Y-63529699D01*
X182850000Y-63296310D01*
X182850000Y-62805750D01*
X187990000Y-62805750D01*
X187990000Y-63296310D01*
X188086673Y-63529699D01*
X188265302Y-63708327D01*
X188498691Y-63805000D01*
X189114250Y-63805000D01*
X189273000Y-63646250D01*
X189273000Y-62647000D01*
X189527000Y-62647000D01*
X189527000Y-63646250D01*
X189685750Y-63805000D01*
X190301309Y-63805000D01*
X190534698Y-63708327D01*
X190713327Y-63529699D01*
X190810000Y-63296310D01*
X190810000Y-62805750D01*
X190651250Y-62647000D01*
X189527000Y-62647000D01*
X189273000Y-62647000D01*
X188148750Y-62647000D01*
X187990000Y-62805750D01*
X182850000Y-62805750D01*
X182691250Y-62647000D01*
X181567000Y-62647000D01*
X181313000Y-62647000D01*
X180188750Y-62647000D01*
X180030000Y-62805750D01*
X179780000Y-62805750D01*
X179780000Y-61743690D01*
X180030000Y-61743690D01*
X180030000Y-62234250D01*
X180188750Y-62393000D01*
X181313000Y-62393000D01*
X181313000Y-61393750D01*
X181567000Y-61393750D01*
X181567000Y-62393000D01*
X182691250Y-62393000D01*
X182850000Y-62234250D01*
X182850000Y-61743690D01*
X187990000Y-61743690D01*
X187990000Y-62234250D01*
X188148750Y-62393000D01*
X189273000Y-62393000D01*
X189273000Y-61393750D01*
X189527000Y-61393750D01*
X189527000Y-62393000D01*
X190651250Y-62393000D01*
X190810000Y-62234250D01*
X190810000Y-61743690D01*
X190713327Y-61510301D01*
X190534698Y-61331673D01*
X190301309Y-61235000D01*
X189685750Y-61235000D01*
X189527000Y-61393750D01*
X189273000Y-61393750D01*
X189114250Y-61235000D01*
X188498691Y-61235000D01*
X188265302Y-61331673D01*
X188086673Y-61510301D01*
X187990000Y-61743690D01*
X182850000Y-61743690D01*
X182753327Y-61510301D01*
X182574698Y-61331673D01*
X182341309Y-61235000D01*
X181725750Y-61235000D01*
X181567000Y-61393750D01*
X181313000Y-61393750D01*
X181154250Y-61235000D01*
X180538691Y-61235000D01*
X180305302Y-61331673D01*
X180126673Y-61510301D01*
X180030000Y-61743690D01*
X179780000Y-61743690D01*
X179780000Y-49815750D01*
X189435000Y-49815750D01*
X189435000Y-50256310D01*
X189531673Y-50489699D01*
X189710302Y-50668327D01*
X189943691Y-50765000D01*
X190384250Y-50765000D01*
X190543000Y-50606250D01*
X190543000Y-49657000D01*
X189593750Y-49657000D01*
X189435000Y-49815750D01*
X179780000Y-49815750D01*
X179780000Y-48803690D01*
X189435000Y-48803690D01*
X189435000Y-49244250D01*
X189593750Y-49403000D01*
X190543000Y-49403000D01*
X190543000Y-48453750D01*
X190384250Y-48295000D01*
X189943691Y-48295000D01*
X189710302Y-48391673D01*
X189531673Y-48570301D01*
X189435000Y-48803690D01*
X179780000Y-48803690D01*
X179780000Y-43622619D01*
X180644613Y-43622619D01*
X180984155Y-44444372D01*
X181612321Y-45073636D01*
X182433481Y-45414611D01*
X183322619Y-45415387D01*
X184144372Y-45075845D01*
X184773636Y-44447679D01*
X185114611Y-43626519D01*
X185115387Y-42737381D01*
X184775845Y-41915628D01*
X184147679Y-41286364D01*
X183326519Y-40945389D01*
X182437381Y-40944613D01*
X181615628Y-41284155D01*
X180986364Y-41912321D01*
X180645389Y-42733481D01*
X180644613Y-43622619D01*
X179780000Y-43622619D01*
X179780000Y-40080000D01*
X223290000Y-40080000D01*
X223290000Y-81840000D01*
X223290000Y-81840000D01*
G37*
X223290000Y-81840000D02*
X179780000Y-81840000D01*
X179780000Y-79182619D01*
X180644613Y-79182619D01*
X180984155Y-80004372D01*
X181612321Y-80633636D01*
X182433481Y-80974611D01*
X183322619Y-80975387D01*
X184144372Y-80635845D01*
X184773636Y-80007679D01*
X185114611Y-79186519D01*
X185115387Y-78297381D01*
X184775845Y-77475628D01*
X184147679Y-76846364D01*
X183326519Y-76505389D01*
X182437381Y-76504613D01*
X181615628Y-76844155D01*
X180986364Y-77472321D01*
X180645389Y-78293481D01*
X180644613Y-79182619D01*
X179780000Y-79182619D01*
X179780000Y-72760000D01*
X184507560Y-72760000D01*
X184507560Y-74560000D01*
X184551838Y-74795317D01*
X184690910Y-75011441D01*
X184903110Y-75156431D01*
X185155000Y-75207440D01*
X186955000Y-75207440D01*
X187190317Y-75163162D01*
X187406441Y-75024090D01*
X187545598Y-74820426D01*
X187579890Y-74854718D01*
X187694447Y-74740161D01*
X187780852Y-74996643D01*
X188354336Y-75206458D01*
X188964460Y-75180839D01*
X189409148Y-74996643D01*
X189495554Y-74740159D01*
X188595000Y-73839605D01*
X188580858Y-73853748D01*
X188401253Y-73674143D01*
X188415395Y-73660000D01*
X188774605Y-73660000D01*
X189675159Y-74560554D01*
X189825327Y-74509965D01*
X189832932Y-74528371D01*
X190264357Y-74960551D01*
X190828330Y-75194733D01*
X191438991Y-75195265D01*
X192003371Y-74962068D01*
X192435551Y-74530643D01*
X192669733Y-73966670D01*
X192670265Y-73356009D01*
X192437068Y-72791629D01*
X192005643Y-72359449D01*
X191441670Y-72125267D01*
X190831009Y-72124735D01*
X190266629Y-72357932D01*
X189834449Y-72789357D01*
X189825797Y-72810194D01*
X189675159Y-72759446D01*
X188774605Y-73660000D01*
X188415395Y-73660000D01*
X188401253Y-73645858D01*
X188580858Y-73466253D01*
X188595000Y-73480395D01*
X189495554Y-72579841D01*
X189409148Y-72323357D01*
X188835664Y-72113542D01*
X188225540Y-72139161D01*
X187780852Y-72323357D01*
X187694447Y-72579839D01*
X187579890Y-72465282D01*
X187543412Y-72501760D01*
X187419090Y-72308559D01*
X187206890Y-72163569D01*
X186955000Y-72112560D01*
X186815000Y-72112560D01*
X186815000Y-72069802D01*
X187004802Y-71880000D01*
X189865000Y-71880000D01*
X190155839Y-71822148D01*
X190402401Y-71657401D01*
X191449802Y-70610000D01*
X193085086Y-70610000D01*
X193042560Y-70820000D01*
X193042560Y-71420000D01*
X193086838Y-71655317D01*
X193150678Y-71754528D01*
X193093569Y-71838110D01*
X193042560Y-72090000D01*
X193042560Y-72690000D01*
X193086838Y-72925317D01*
X193150678Y-73024528D01*
X193093569Y-73108110D01*
X193042560Y-73360000D01*
X193042560Y-73960000D01*
X193086838Y-74195317D01*
X193225910Y-74411441D01*
X193438110Y-74556431D01*
X193690000Y-74607440D01*
X195690000Y-74607440D01*
X195925317Y-74563162D01*
X196141441Y-74424090D01*
X196286431Y-74211890D01*
X196337440Y-73960000D01*
X196337440Y-73360000D01*
X196297926Y-73150000D01*
X196535198Y-73150000D01*
X197360000Y-73974802D01*
X197360000Y-76013258D01*
X197234683Y-76036838D01*
X197018559Y-76175910D01*
X196873569Y-76388110D01*
X196822560Y-76640000D01*
X196822560Y-78140000D01*
X196866838Y-78375317D01*
X197005910Y-78591441D01*
X197218110Y-78736431D01*
X197231197Y-78739081D01*
X197018559Y-78875910D01*
X196873569Y-79088110D01*
X196822560Y-79340000D01*
X196822560Y-80840000D01*
X196866838Y-81075317D01*
X197005910Y-81291441D01*
X197218110Y-81436431D01*
X197470000Y-81487440D01*
X198770000Y-81487440D01*
X199005317Y-81443162D01*
X199221441Y-81304090D01*
X199366431Y-81091890D01*
X199415415Y-80850000D01*
X200580000Y-80850000D01*
X200870839Y-80792148D01*
X201117401Y-80627401D01*
X201515036Y-80229766D01*
X201623330Y-80274733D01*
X202233991Y-80275265D01*
X202798371Y-80042068D01*
X202975841Y-79864908D01*
X203031673Y-79999699D01*
X203210302Y-80178327D01*
X203443691Y-80275000D01*
X204184250Y-80275000D01*
X204343000Y-80116250D01*
X204343000Y-78867000D01*
X204597000Y-78867000D01*
X204597000Y-80116250D01*
X204755750Y-80275000D01*
X205496309Y-80275000D01*
X205729698Y-80178327D01*
X205908327Y-79999699D01*
X206005000Y-79766310D01*
X206005000Y-79182619D01*
X218109613Y-79182619D01*
X218449155Y-80004372D01*
X219077321Y-80633636D01*
X219898481Y-80974611D01*
X220787619Y-80975387D01*
X221609372Y-80635845D01*
X222238636Y-80007679D01*
X222579611Y-79186519D01*
X222580387Y-78297381D01*
X222240845Y-77475628D01*
X221612679Y-76846364D01*
X220791519Y-76505389D01*
X219902381Y-76504613D01*
X219080628Y-76844155D01*
X218451364Y-77472321D01*
X218110389Y-78293481D01*
X218109613Y-79182619D01*
X206005000Y-79182619D01*
X206005000Y-79025750D01*
X205846250Y-78867000D01*
X204597000Y-78867000D01*
X204343000Y-78867000D01*
X204323000Y-78867000D01*
X204323000Y-78613000D01*
X204343000Y-78613000D01*
X204343000Y-77363750D01*
X204597000Y-77363750D01*
X204597000Y-78613000D01*
X205846250Y-78613000D01*
X206005000Y-78454250D01*
X206005000Y-77713690D01*
X205908327Y-77480301D01*
X205729698Y-77301673D01*
X205496309Y-77205000D01*
X204755750Y-77205000D01*
X204597000Y-77363750D01*
X204343000Y-77363750D01*
X204184250Y-77205000D01*
X203443691Y-77205000D01*
X203210302Y-77301673D01*
X203031673Y-77480301D01*
X202975881Y-77614994D01*
X202800643Y-77439449D01*
X202236670Y-77205267D01*
X201626009Y-77204735D01*
X201061629Y-77437932D01*
X200629449Y-77869357D01*
X200395267Y-78433330D01*
X200394735Y-79043991D01*
X200440485Y-79154713D01*
X200265198Y-79330000D01*
X199415558Y-79330000D01*
X199373162Y-79104683D01*
X199234090Y-78888559D01*
X199021890Y-78743569D01*
X199008803Y-78740919D01*
X199221441Y-78604090D01*
X199366431Y-78391890D01*
X199417440Y-78140000D01*
X199417440Y-76640000D01*
X199373162Y-76404683D01*
X199234090Y-76188559D01*
X199021890Y-76043569D01*
X198880000Y-76014836D01*
X198880000Y-73660000D01*
X198822148Y-73369161D01*
X198822148Y-73369160D01*
X198657401Y-73122599D01*
X197387401Y-71852599D01*
X197140839Y-71687852D01*
X196850000Y-71630000D01*
X196294914Y-71630000D01*
X196337440Y-71420000D01*
X196337440Y-70820000D01*
X196293162Y-70584683D01*
X196229322Y-70485472D01*
X196286431Y-70401890D01*
X196337440Y-70150000D01*
X196337440Y-69550000D01*
X196293162Y-69314683D01*
X196234822Y-69224020D01*
X196325000Y-69006310D01*
X196325000Y-68865750D01*
X196166250Y-68707000D01*
X194817000Y-68707000D01*
X194817000Y-68727000D01*
X194563000Y-68727000D01*
X194563000Y-68707000D01*
X193213750Y-68707000D01*
X193055000Y-68865750D01*
X193055000Y-69006310D01*
X193089666Y-69090000D01*
X191135000Y-69090000D01*
X190844160Y-69147852D01*
X190597599Y-69312599D01*
X189550198Y-70360000D01*
X186690000Y-70360000D01*
X186399161Y-70417852D01*
X186152599Y-70582599D01*
X185517599Y-71217599D01*
X185352852Y-71464161D01*
X185295000Y-71755000D01*
X185295000Y-72112560D01*
X185155000Y-72112560D01*
X184919683Y-72156838D01*
X184703559Y-72295910D01*
X184558569Y-72508110D01*
X184507560Y-72760000D01*
X179780000Y-72760000D01*
X179780000Y-71770750D01*
X180350000Y-71770750D01*
X180350000Y-72111309D01*
X180446673Y-72344698D01*
X180625301Y-72523327D01*
X180858690Y-72620000D01*
X181324250Y-72620000D01*
X181483000Y-72461250D01*
X181483000Y-71612000D01*
X181737000Y-71612000D01*
X181737000Y-72461250D01*
X181895750Y-72620000D01*
X182361310Y-72620000D01*
X182594699Y-72523327D01*
X182773327Y-72344698D01*
X182870000Y-72111309D01*
X182870000Y-71770750D01*
X182711250Y-71612000D01*
X181737000Y-71612000D01*
X181483000Y-71612000D01*
X180508750Y-71612000D01*
X180350000Y-71770750D01*
X179780000Y-71770750D01*
X179780000Y-66370000D01*
X180017560Y-66370000D01*
X180017560Y-67670000D01*
X180061838Y-67905317D01*
X180200910Y-68121441D01*
X180413110Y-68266431D01*
X180665000Y-68317440D01*
X180680000Y-68317440D01*
X180680000Y-68426678D01*
X180533559Y-68520910D01*
X180388569Y-68733110D01*
X180337560Y-68985000D01*
X180337560Y-69985000D01*
X180381838Y-70220317D01*
X180520910Y-70436441D01*
X180589006Y-70482969D01*
X180446673Y-70625302D01*
X180350000Y-70858691D01*
X180350000Y-71199250D01*
X180508750Y-71358000D01*
X181483000Y-71358000D01*
X181483000Y-71338000D01*
X181737000Y-71338000D01*
X181737000Y-71358000D01*
X182711250Y-71358000D01*
X182870000Y-71199250D01*
X182870000Y-70858691D01*
X182773327Y-70625302D01*
X182632090Y-70484064D01*
X182686441Y-70449090D01*
X182831431Y-70236890D01*
X182882440Y-69985000D01*
X182882440Y-68985000D01*
X182838162Y-68749683D01*
X182699090Y-68533559D01*
X182486890Y-68388569D01*
X182235000Y-68337560D01*
X182200000Y-68337560D01*
X182200000Y-68317440D01*
X182215000Y-68317440D01*
X182450317Y-68273162D01*
X182666441Y-68134090D01*
X182811431Y-67921890D01*
X182840164Y-67780000D01*
X187998258Y-67780000D01*
X188021838Y-67905317D01*
X188160910Y-68121441D01*
X188373110Y-68266431D01*
X188625000Y-68317440D01*
X190175000Y-68317440D01*
X190410317Y-68273162D01*
X190626441Y-68134090D01*
X190670232Y-68070000D01*
X193089666Y-68070000D01*
X193055000Y-68153690D01*
X193055000Y-68294250D01*
X193213750Y-68453000D01*
X194563000Y-68453000D01*
X194563000Y-68433000D01*
X194817000Y-68433000D01*
X194817000Y-68453000D01*
X196166250Y-68453000D01*
X196325000Y-68294250D01*
X196325000Y-68153690D01*
X196290334Y-68070000D01*
X196922537Y-68070000D01*
X196954673Y-68102192D01*
X197298201Y-68244838D01*
X197670167Y-68245162D01*
X198013943Y-68103117D01*
X198277192Y-67840327D01*
X198419838Y-67496799D01*
X198420162Y-67124833D01*
X198278117Y-66781057D01*
X198015327Y-66517808D01*
X197671799Y-66375162D01*
X197299833Y-66374838D01*
X196956057Y-66516883D01*
X196922882Y-66550000D01*
X196294914Y-66550000D01*
X196337440Y-66340000D01*
X196337440Y-65740000D01*
X196294934Y-65514100D01*
X196505839Y-65472148D01*
X196752401Y-65307401D01*
X197387401Y-64672401D01*
X197552148Y-64425839D01*
X197610000Y-64135000D01*
X197610000Y-60325000D01*
X201170000Y-60325000D01*
X201170000Y-64135000D01*
X201227852Y-64425839D01*
X201392599Y-64672401D01*
X202027599Y-65307401D01*
X202274161Y-65472148D01*
X202488180Y-65514720D01*
X202442560Y-65740000D01*
X202442560Y-66340000D01*
X202486838Y-66575317D01*
X202550678Y-66674528D01*
X202493569Y-66758110D01*
X202442560Y-67010000D01*
X202442560Y-67610000D01*
X202486838Y-67845317D01*
X202550678Y-67944528D01*
X202493569Y-68028110D01*
X202442560Y-68280000D01*
X202442560Y-68880000D01*
X202486838Y-69115317D01*
X202550678Y-69214528D01*
X202493569Y-69298110D01*
X202442560Y-69550000D01*
X202442560Y-70150000D01*
X202486838Y-70385317D01*
X202550678Y-70484528D01*
X202493569Y-70568110D01*
X202442560Y-70820000D01*
X202442560Y-71420000D01*
X202486838Y-71655317D01*
X202550678Y-71754528D01*
X202493569Y-71838110D01*
X202442560Y-72090000D01*
X202442560Y-72690000D01*
X202486838Y-72925317D01*
X202550678Y-73024528D01*
X202493569Y-73108110D01*
X202442560Y-73360000D01*
X202442560Y-73960000D01*
X202486838Y-74195317D01*
X202625910Y-74411441D01*
X202838110Y-74556431D01*
X203090000Y-74607440D01*
X205090000Y-74607440D01*
X205325317Y-74563162D01*
X205541441Y-74424090D01*
X205686431Y-74211890D01*
X205737440Y-73960000D01*
X205737440Y-73360000D01*
X205693162Y-73124683D01*
X205629322Y-73025472D01*
X205686431Y-72941890D01*
X205737440Y-72690000D01*
X205737440Y-72090000D01*
X205697926Y-71880000D01*
X219072046Y-71880000D01*
X219265853Y-72170054D01*
X219747622Y-72491961D01*
X220315907Y-72605000D01*
X220374093Y-72605000D01*
X220942378Y-72491961D01*
X221424147Y-72170054D01*
X221746054Y-71688285D01*
X221859093Y-71120000D01*
X221746054Y-70551715D01*
X221424147Y-70069946D01*
X221094974Y-69850000D01*
X221424147Y-69630054D01*
X221746054Y-69148285D01*
X221859093Y-68580000D01*
X221746054Y-68011715D01*
X221424147Y-67529946D01*
X221083447Y-67302298D01*
X221226358Y-67235183D01*
X221616645Y-66806924D01*
X221786476Y-66396890D01*
X221665155Y-66167000D01*
X220472000Y-66167000D01*
X220472000Y-66187000D01*
X220218000Y-66187000D01*
X220218000Y-66167000D01*
X219024845Y-66167000D01*
X218903524Y-66396890D01*
X219073355Y-66806924D01*
X219463642Y-67235183D01*
X219606553Y-67302298D01*
X219265853Y-67529946D01*
X218943946Y-68011715D01*
X218879502Y-68335696D01*
X218125198Y-69090000D01*
X211685000Y-69090000D01*
X211685000Y-68865750D01*
X211526250Y-68707000D01*
X210677000Y-68707000D01*
X210677000Y-68727000D01*
X210423000Y-68727000D01*
X210423000Y-68707000D01*
X210403000Y-68707000D01*
X210403000Y-68453000D01*
X210423000Y-68453000D01*
X210423000Y-67478750D01*
X210677000Y-67478750D01*
X210677000Y-68453000D01*
X211526250Y-68453000D01*
X211685000Y-68294250D01*
X211685000Y-68154233D01*
X211903201Y-68244838D01*
X212275167Y-68245162D01*
X212618943Y-68103117D01*
X212882192Y-67840327D01*
X213024838Y-67496799D01*
X213024879Y-67449923D01*
X213262401Y-67212401D01*
X213427148Y-66965839D01*
X213485000Y-66675000D01*
X213485000Y-62544802D01*
X214309802Y-61720000D01*
X218847560Y-61720000D01*
X218847560Y-61810000D01*
X218891838Y-62045317D01*
X219030910Y-62261441D01*
X219243110Y-62406431D01*
X219310541Y-62420086D01*
X219265853Y-62449946D01*
X218943946Y-62931715D01*
X218830907Y-63500000D01*
X218943946Y-64068285D01*
X219265853Y-64550054D01*
X219606553Y-64777702D01*
X219463642Y-64844817D01*
X219073355Y-65273076D01*
X218903524Y-65683110D01*
X219024845Y-65913000D01*
X220218000Y-65913000D01*
X220218000Y-65893000D01*
X220472000Y-65893000D01*
X220472000Y-65913000D01*
X221665155Y-65913000D01*
X221786476Y-65683110D01*
X221616645Y-65273076D01*
X221226358Y-64844817D01*
X221083447Y-64777702D01*
X221424147Y-64550054D01*
X221746054Y-64068285D01*
X221859093Y-63500000D01*
X221746054Y-62931715D01*
X221424147Y-62449946D01*
X221382548Y-62422150D01*
X221430317Y-62413162D01*
X221646441Y-62274090D01*
X221791431Y-62061890D01*
X221842440Y-61810000D01*
X221842440Y-60110000D01*
X221798162Y-59874683D01*
X221659090Y-59658559D01*
X221446890Y-59513569D01*
X221195000Y-59462560D01*
X219495000Y-59462560D01*
X219259683Y-59506838D01*
X219043559Y-59645910D01*
X218898569Y-59858110D01*
X218847560Y-60110000D01*
X218847560Y-60200000D01*
X213995000Y-60200000D01*
X213704160Y-60257852D01*
X213457599Y-60422599D01*
X212187599Y-61692599D01*
X212022852Y-61939161D01*
X211965000Y-62230000D01*
X211965000Y-66360198D01*
X211950320Y-66374878D01*
X211904833Y-66374838D01*
X211561057Y-66516883D01*
X211297808Y-66779673D01*
X211155162Y-67123201D01*
X211154991Y-67320000D01*
X210835750Y-67320000D01*
X210677000Y-67478750D01*
X210423000Y-67478750D01*
X210264250Y-67320000D01*
X209923691Y-67320000D01*
X209690302Y-67416673D01*
X209549064Y-67557910D01*
X209514090Y-67503559D01*
X209310000Y-67364110D01*
X209310000Y-65982279D01*
X209501441Y-65859090D01*
X209547969Y-65790994D01*
X209690302Y-65933327D01*
X209923691Y-66030000D01*
X210264250Y-66030000D01*
X210423000Y-65871250D01*
X210423000Y-64897000D01*
X210677000Y-64897000D01*
X210677000Y-65871250D01*
X210835750Y-66030000D01*
X211176309Y-66030000D01*
X211409698Y-65933327D01*
X211588327Y-65754699D01*
X211685000Y-65521310D01*
X211685000Y-65055750D01*
X211526250Y-64897000D01*
X210677000Y-64897000D01*
X210423000Y-64897000D01*
X210403000Y-64897000D01*
X210403000Y-64643000D01*
X210423000Y-64643000D01*
X210423000Y-63668750D01*
X210677000Y-63668750D01*
X210677000Y-64643000D01*
X211526250Y-64643000D01*
X211685000Y-64484250D01*
X211685000Y-64018690D01*
X211588327Y-63785301D01*
X211409698Y-63606673D01*
X211176309Y-63510000D01*
X210835750Y-63510000D01*
X210677000Y-63668750D01*
X210423000Y-63668750D01*
X210264250Y-63510000D01*
X209923691Y-63510000D01*
X209690302Y-63606673D01*
X209549064Y-63747910D01*
X209514090Y-63693559D01*
X209310000Y-63554110D01*
X209310000Y-61230000D01*
X209252148Y-60939161D01*
X209215067Y-60883666D01*
X209215162Y-60774833D01*
X209073117Y-60431057D01*
X208810327Y-60167808D01*
X208466799Y-60025162D01*
X208094833Y-60024838D01*
X207751057Y-60166883D01*
X207487808Y-60429673D01*
X207345162Y-60773201D01*
X207344838Y-61145167D01*
X207486883Y-61488943D01*
X207749673Y-61752192D01*
X207790000Y-61768937D01*
X207790000Y-63557721D01*
X207598559Y-63680910D01*
X207453569Y-63893110D01*
X207402560Y-64145000D01*
X207402560Y-65395000D01*
X207446838Y-65630317D01*
X207585910Y-65846441D01*
X207790000Y-65985890D01*
X207790000Y-67367721D01*
X207598559Y-67490910D01*
X207453569Y-67703110D01*
X207429898Y-67820000D01*
X205694914Y-67820000D01*
X205737440Y-67610000D01*
X205737440Y-67010000D01*
X205693162Y-66774683D01*
X205629322Y-66675472D01*
X205686431Y-66591890D01*
X205737440Y-66340000D01*
X205737440Y-65740000D01*
X205693162Y-65504683D01*
X205629322Y-65405472D01*
X205686431Y-65321890D01*
X205737440Y-65070000D01*
X205737440Y-64470000D01*
X205693162Y-64234683D01*
X205629322Y-64135472D01*
X205686431Y-64051890D01*
X205737440Y-63800000D01*
X205737440Y-63200000D01*
X205693162Y-62964683D01*
X205554090Y-62748559D01*
X205341890Y-62603569D01*
X205090000Y-62552560D01*
X204850000Y-62552560D01*
X204850000Y-60384802D01*
X205419802Y-59815000D01*
X208915000Y-59815000D01*
X209205839Y-59757148D01*
X209452401Y-59592401D01*
X211054802Y-57990000D01*
X211429442Y-57990000D01*
X211471838Y-58215317D01*
X211610910Y-58431441D01*
X211823110Y-58576431D01*
X212075000Y-58627440D01*
X213375000Y-58627440D01*
X213610317Y-58583162D01*
X213826441Y-58444090D01*
X213971431Y-58231890D01*
X214022440Y-57980000D01*
X214022440Y-56480000D01*
X213978162Y-56244683D01*
X213839090Y-56028559D01*
X213626890Y-55883569D01*
X213613803Y-55880919D01*
X213826441Y-55744090D01*
X213971431Y-55531890D01*
X214022440Y-55280000D01*
X214022440Y-55160920D01*
X214162401Y-55067401D01*
X214362401Y-54867401D01*
X214527148Y-54620839D01*
X214585000Y-54330000D01*
X214585000Y-50747334D01*
X214660317Y-50733162D01*
X214876441Y-50594090D01*
X215021431Y-50381890D01*
X215072440Y-50130000D01*
X215072440Y-48930000D01*
X215028162Y-48694683D01*
X214889090Y-48478559D01*
X214676890Y-48333569D01*
X214585000Y-48314961D01*
X214585000Y-46937334D01*
X214660317Y-46923162D01*
X214876441Y-46784090D01*
X215021431Y-46571890D01*
X215072440Y-46320000D01*
X215072440Y-45120000D01*
X215028162Y-44884683D01*
X214889090Y-44668559D01*
X214676890Y-44523569D01*
X214425000Y-44472560D01*
X213225000Y-44472560D01*
X212989683Y-44516838D01*
X212773559Y-44655910D01*
X212725866Y-44725711D01*
X212689090Y-44668559D01*
X212476890Y-44523569D01*
X212225000Y-44472560D01*
X211025000Y-44472560D01*
X210789683Y-44516838D01*
X210573559Y-44655910D01*
X210428569Y-44868110D01*
X210409961Y-44960000D01*
X209962334Y-44960000D01*
X209948162Y-44884683D01*
X209809090Y-44668559D01*
X209596890Y-44523569D01*
X209505000Y-44504961D01*
X209505000Y-44293388D01*
X209580192Y-44218327D01*
X209722838Y-43874799D01*
X209723057Y-43622619D01*
X218109613Y-43622619D01*
X218449155Y-44444372D01*
X219077321Y-45073636D01*
X219898481Y-45414611D01*
X220787619Y-45415387D01*
X221609372Y-45075845D01*
X222238636Y-44447679D01*
X222579611Y-43626519D01*
X222580387Y-42737381D01*
X222240845Y-41915628D01*
X221612679Y-41286364D01*
X220791519Y-40945389D01*
X219902381Y-40944613D01*
X219080628Y-41284155D01*
X218451364Y-41912321D01*
X218110389Y-42733481D01*
X218109613Y-43622619D01*
X209723057Y-43622619D01*
X209723162Y-43502833D01*
X209581117Y-43159057D01*
X209318327Y-42895808D01*
X208974799Y-42753162D01*
X208602833Y-42752838D01*
X208259057Y-42894883D01*
X207995808Y-43157673D01*
X207853162Y-43501201D01*
X207852838Y-43873167D01*
X207985000Y-44193024D01*
X207985000Y-44502666D01*
X207909683Y-44516838D01*
X207693559Y-44655910D01*
X207645866Y-44725711D01*
X207609090Y-44668559D01*
X207396890Y-44523569D01*
X207145000Y-44472560D01*
X205945000Y-44472560D01*
X205709683Y-44516838D01*
X205493559Y-44655910D01*
X205348569Y-44868110D01*
X205297560Y-45120000D01*
X205297560Y-46320000D01*
X205341838Y-46555317D01*
X205480910Y-46771441D01*
X205693110Y-46916431D01*
X205785000Y-46935039D01*
X205785000Y-48312666D01*
X205709683Y-48326838D01*
X205493559Y-48465910D01*
X205348569Y-48678110D01*
X205297560Y-48930000D01*
X205297560Y-50130000D01*
X205341838Y-50365317D01*
X205480910Y-50581441D01*
X205693110Y-50726431D01*
X205785000Y-50745039D01*
X205785000Y-50970000D01*
X205842852Y-51260839D01*
X206007599Y-51507401D01*
X206885000Y-52384802D01*
X206885000Y-53153258D01*
X206759683Y-53176838D01*
X206543559Y-53315910D01*
X206398569Y-53528110D01*
X206347560Y-53780000D01*
X206347560Y-55280000D01*
X206391838Y-55515317D01*
X206530910Y-55731441D01*
X206743110Y-55876431D01*
X206756197Y-55879081D01*
X206543559Y-56015910D01*
X206398569Y-56228110D01*
X206347560Y-56480000D01*
X206347560Y-56737638D01*
X205425198Y-57660000D01*
X203835000Y-57660000D01*
X203544161Y-57717852D01*
X203297599Y-57882599D01*
X201392599Y-59787599D01*
X201227852Y-60034161D01*
X201170000Y-60325000D01*
X197610000Y-60325000D01*
X197610000Y-57785000D01*
X197552148Y-57494161D01*
X197387401Y-57247599D01*
X196877440Y-56737638D01*
X196877440Y-56480000D01*
X196833162Y-56244683D01*
X196694090Y-56028559D01*
X196481890Y-55883569D01*
X196468803Y-55880919D01*
X196681441Y-55744090D01*
X196826431Y-55531890D01*
X196877440Y-55280000D01*
X196877440Y-53780000D01*
X196833162Y-53544683D01*
X196694090Y-53328559D01*
X196481890Y-53183569D01*
X196340000Y-53154836D01*
X196340000Y-50777440D01*
X196350000Y-50777440D01*
X196585317Y-50733162D01*
X196801441Y-50594090D01*
X196847969Y-50525994D01*
X196990302Y-50668327D01*
X197223691Y-50765000D01*
X197664250Y-50765000D01*
X197823000Y-50606250D01*
X197823000Y-49657000D01*
X198077000Y-49657000D01*
X198077000Y-50606250D01*
X198235750Y-50765000D01*
X198676309Y-50765000D01*
X198909698Y-50668327D01*
X199088327Y-50489699D01*
X199185000Y-50256310D01*
X199185000Y-49815750D01*
X199026250Y-49657000D01*
X198077000Y-49657000D01*
X197823000Y-49657000D01*
X197803000Y-49657000D01*
X197803000Y-49403000D01*
X197823000Y-49403000D01*
X197823000Y-48453750D01*
X198077000Y-48453750D01*
X198077000Y-49403000D01*
X199026250Y-49403000D01*
X199185000Y-49244250D01*
X199185000Y-48803690D01*
X199088327Y-48570301D01*
X198909698Y-48391673D01*
X198676309Y-48295000D01*
X198235750Y-48295000D01*
X198077000Y-48453750D01*
X197823000Y-48453750D01*
X197664250Y-48295000D01*
X197223691Y-48295000D01*
X196990302Y-48391673D01*
X196849064Y-48532910D01*
X196814090Y-48478559D01*
X196601890Y-48333569D01*
X196510000Y-48314961D01*
X196510000Y-46937334D01*
X196585317Y-46923162D01*
X196801441Y-46784090D01*
X196849134Y-46714289D01*
X196885910Y-46771441D01*
X197098110Y-46916431D01*
X197350000Y-46967440D01*
X198550000Y-46967440D01*
X198785317Y-46923162D01*
X199001441Y-46784090D01*
X199146431Y-46571890D01*
X199197440Y-46320000D01*
X199197440Y-45120000D01*
X199153162Y-44884683D01*
X199014090Y-44668559D01*
X198801890Y-44523569D01*
X198710000Y-44504961D01*
X198710000Y-44420166D01*
X198912192Y-44218327D01*
X199054838Y-43874799D01*
X199054839Y-43873167D01*
X203407838Y-43873167D01*
X203549883Y-44216943D01*
X203583000Y-44250118D01*
X203583000Y-51126537D01*
X203550808Y-51158673D01*
X203408162Y-51502201D01*
X203407838Y-51874167D01*
X203549883Y-52217943D01*
X203812673Y-52481192D01*
X204156201Y-52623838D01*
X204528167Y-52624162D01*
X204871943Y-52482117D01*
X205135192Y-52219327D01*
X205277838Y-51875799D01*
X205278162Y-51503833D01*
X205136117Y-51160057D01*
X205103000Y-51126882D01*
X205103000Y-44250463D01*
X205135192Y-44218327D01*
X205277838Y-43874799D01*
X205278162Y-43502833D01*
X205136117Y-43159057D01*
X204873327Y-42895808D01*
X204529799Y-42753162D01*
X204157833Y-42752838D01*
X203814057Y-42894883D01*
X203550808Y-43157673D01*
X203408162Y-43501201D01*
X203407838Y-43873167D01*
X199054839Y-43873167D01*
X199055162Y-43502833D01*
X198913117Y-43159057D01*
X198650327Y-42895808D01*
X198306799Y-42753162D01*
X197934833Y-42752838D01*
X197591057Y-42894883D01*
X197327808Y-43157673D01*
X197185162Y-43501201D01*
X197184838Y-43873167D01*
X197190000Y-43885660D01*
X197190000Y-44502666D01*
X197114683Y-44516838D01*
X196898559Y-44655910D01*
X196850866Y-44725711D01*
X196814090Y-44668559D01*
X196601890Y-44523569D01*
X196350000Y-44472560D01*
X195150000Y-44472560D01*
X194914683Y-44516838D01*
X194698559Y-44655910D01*
X194553569Y-44868110D01*
X194502560Y-45120000D01*
X194502560Y-46320000D01*
X194546838Y-46555317D01*
X194685910Y-46771441D01*
X194898110Y-46916431D01*
X194990000Y-46935039D01*
X194990000Y-48312666D01*
X194914683Y-48326838D01*
X194698559Y-48465910D01*
X194553569Y-48678110D01*
X194502560Y-48930000D01*
X194502560Y-50130000D01*
X194546838Y-50365317D01*
X194685910Y-50581441D01*
X194820000Y-50673061D01*
X194820000Y-53153258D01*
X194694683Y-53176838D01*
X194478559Y-53315910D01*
X194333569Y-53528110D01*
X194282560Y-53780000D01*
X194282560Y-55280000D01*
X194326838Y-55515317D01*
X194465910Y-55731441D01*
X194678110Y-55876431D01*
X194691197Y-55879081D01*
X194478559Y-56015910D01*
X194333569Y-56228110D01*
X194282560Y-56480000D01*
X194282560Y-57980000D01*
X194326838Y-58215317D01*
X194465910Y-58431441D01*
X194678110Y-58576431D01*
X194930000Y-58627440D01*
X196090000Y-58627440D01*
X196090000Y-62704768D01*
X195941890Y-62603569D01*
X195690000Y-62552560D01*
X195450000Y-62552560D01*
X195450000Y-60520000D01*
X195392148Y-60229161D01*
X195227401Y-59982599D01*
X191937401Y-56692599D01*
X191797440Y-56599080D01*
X191797440Y-56480000D01*
X191753162Y-56244683D01*
X191614090Y-56028559D01*
X191401890Y-55883569D01*
X191388803Y-55880919D01*
X191601441Y-55744090D01*
X191746431Y-55531890D01*
X191797440Y-55280000D01*
X191797440Y-55160920D01*
X191937401Y-55067401D01*
X193407401Y-53597401D01*
X193572148Y-53350839D01*
X193630000Y-53060000D01*
X193630000Y-50747334D01*
X193705317Y-50733162D01*
X193921441Y-50594090D01*
X194066431Y-50381890D01*
X194117440Y-50130000D01*
X194117440Y-48930000D01*
X194073162Y-48694683D01*
X193934090Y-48478559D01*
X193721890Y-48333569D01*
X193630000Y-48314961D01*
X193630000Y-46937334D01*
X193705317Y-46923162D01*
X193921441Y-46784090D01*
X194066431Y-46571890D01*
X194117440Y-46320000D01*
X194117440Y-45120000D01*
X194073162Y-44884683D01*
X193934090Y-44668559D01*
X193721890Y-44523569D01*
X193470000Y-44472560D01*
X192270000Y-44472560D01*
X192034683Y-44516838D01*
X191818559Y-44655910D01*
X191770866Y-44725711D01*
X191734090Y-44668559D01*
X191521890Y-44523569D01*
X191430000Y-44504961D01*
X191430000Y-44192299D01*
X191561838Y-43874799D01*
X191562162Y-43502833D01*
X191420117Y-43159057D01*
X191157327Y-42895808D01*
X190813799Y-42753162D01*
X190441833Y-42752838D01*
X190098057Y-42894883D01*
X189834808Y-43157673D01*
X189692162Y-43501201D01*
X189691838Y-43873167D01*
X189833883Y-44216943D01*
X189910000Y-44293193D01*
X189910000Y-44502666D01*
X189834683Y-44516838D01*
X189618559Y-44655910D01*
X189473569Y-44868110D01*
X189422560Y-45120000D01*
X189422560Y-46320000D01*
X189466838Y-46555317D01*
X189605910Y-46771441D01*
X189818110Y-46916431D01*
X190070000Y-46967440D01*
X191270000Y-46967440D01*
X191505317Y-46923162D01*
X191721441Y-46784090D01*
X191769134Y-46714289D01*
X191805910Y-46771441D01*
X192018110Y-46916431D01*
X192110000Y-46935039D01*
X192110000Y-48312666D01*
X192034683Y-48326838D01*
X191818559Y-48465910D01*
X191772031Y-48534006D01*
X191629698Y-48391673D01*
X191396309Y-48295000D01*
X190955750Y-48295000D01*
X190797000Y-48453750D01*
X190797000Y-49403000D01*
X190817000Y-49403000D01*
X190817000Y-49657000D01*
X190797000Y-49657000D01*
X190797000Y-50606250D01*
X190955750Y-50765000D01*
X191396309Y-50765000D01*
X191629698Y-50668327D01*
X191770936Y-50527090D01*
X191805910Y-50581441D01*
X192018110Y-50726431D01*
X192110000Y-50745039D01*
X192110000Y-52745198D01*
X191562137Y-53293061D01*
X191401890Y-53183569D01*
X191150000Y-53132560D01*
X189850000Y-53132560D01*
X189614683Y-53176838D01*
X189398559Y-53315910D01*
X189253569Y-53528110D01*
X189202560Y-53780000D01*
X189202560Y-55280000D01*
X189246838Y-55515317D01*
X189385910Y-55731441D01*
X189598110Y-55876431D01*
X189611197Y-55879081D01*
X189398559Y-56015910D01*
X189253569Y-56228110D01*
X189202560Y-56480000D01*
X189202560Y-57980000D01*
X189246838Y-58215317D01*
X189385910Y-58431441D01*
X189598110Y-58576431D01*
X189850000Y-58627440D01*
X191150000Y-58627440D01*
X191385317Y-58583162D01*
X191563623Y-58468425D01*
X193930000Y-60834802D01*
X193930000Y-62552560D01*
X193690000Y-62552560D01*
X193454683Y-62596838D01*
X193238559Y-62735910D01*
X193093569Y-62948110D01*
X193042560Y-63200000D01*
X193042560Y-63800000D01*
X193086838Y-64035317D01*
X193150678Y-64134528D01*
X193093569Y-64218110D01*
X193042560Y-64470000D01*
X193042560Y-65070000D01*
X193086838Y-65305317D01*
X193150678Y-65404528D01*
X193093569Y-65488110D01*
X193042560Y-65740000D01*
X193042560Y-66340000D01*
X193082074Y-66550000D01*
X190822440Y-66550000D01*
X190822440Y-66370000D01*
X190778162Y-66134683D01*
X190639090Y-65918559D01*
X190426890Y-65773569D01*
X190175000Y-65722560D01*
X188625000Y-65722560D01*
X188389683Y-65766838D01*
X188173559Y-65905910D01*
X188028569Y-66118110D01*
X187999836Y-66260000D01*
X186815000Y-66260000D01*
X186815000Y-65967463D01*
X186847192Y-65935327D01*
X186989838Y-65591799D01*
X186990162Y-65219833D01*
X186848117Y-64876057D01*
X186585327Y-64612808D01*
X186241799Y-64470162D01*
X185869833Y-64469838D01*
X185526057Y-64611883D01*
X185262808Y-64874673D01*
X185120162Y-65218201D01*
X185119838Y-65590167D01*
X185261883Y-65933943D01*
X185295000Y-65967118D01*
X185295000Y-66260000D01*
X182841742Y-66260000D01*
X182818162Y-66134683D01*
X182679090Y-65918559D01*
X182466890Y-65773569D01*
X182215000Y-65722560D01*
X180665000Y-65722560D01*
X180429683Y-65766838D01*
X180213559Y-65905910D01*
X180068569Y-66118110D01*
X180017560Y-66370000D01*
X179780000Y-66370000D01*
X179780000Y-62805750D01*
X180030000Y-62805750D01*
X180030000Y-63296310D01*
X180126673Y-63529699D01*
X180305302Y-63708327D01*
X180538691Y-63805000D01*
X181154250Y-63805000D01*
X181313000Y-63646250D01*
X181313000Y-62647000D01*
X181567000Y-62647000D01*
X181567000Y-63646250D01*
X181725750Y-63805000D01*
X182341309Y-63805000D01*
X182574698Y-63708327D01*
X182753327Y-63529699D01*
X182850000Y-63296310D01*
X182850000Y-62805750D01*
X187990000Y-62805750D01*
X187990000Y-63296310D01*
X188086673Y-63529699D01*
X188265302Y-63708327D01*
X188498691Y-63805000D01*
X189114250Y-63805000D01*
X189273000Y-63646250D01*
X189273000Y-62647000D01*
X189527000Y-62647000D01*
X189527000Y-63646250D01*
X189685750Y-63805000D01*
X190301309Y-63805000D01*
X190534698Y-63708327D01*
X190713327Y-63529699D01*
X190810000Y-63296310D01*
X190810000Y-62805750D01*
X190651250Y-62647000D01*
X189527000Y-62647000D01*
X189273000Y-62647000D01*
X188148750Y-62647000D01*
X187990000Y-62805750D01*
X182850000Y-62805750D01*
X182691250Y-62647000D01*
X181567000Y-62647000D01*
X181313000Y-62647000D01*
X180188750Y-62647000D01*
X180030000Y-62805750D01*
X179780000Y-62805750D01*
X179780000Y-61743690D01*
X180030000Y-61743690D01*
X180030000Y-62234250D01*
X180188750Y-62393000D01*
X181313000Y-62393000D01*
X181313000Y-61393750D01*
X181567000Y-61393750D01*
X181567000Y-62393000D01*
X182691250Y-62393000D01*
X182850000Y-62234250D01*
X182850000Y-61743690D01*
X187990000Y-61743690D01*
X187990000Y-62234250D01*
X188148750Y-62393000D01*
X189273000Y-62393000D01*
X189273000Y-61393750D01*
X189527000Y-61393750D01*
X189527000Y-62393000D01*
X190651250Y-62393000D01*
X190810000Y-62234250D01*
X190810000Y-61743690D01*
X190713327Y-61510301D01*
X190534698Y-61331673D01*
X190301309Y-61235000D01*
X189685750Y-61235000D01*
X189527000Y-61393750D01*
X189273000Y-61393750D01*
X189114250Y-61235000D01*
X188498691Y-61235000D01*
X188265302Y-61331673D01*
X188086673Y-61510301D01*
X187990000Y-61743690D01*
X182850000Y-61743690D01*
X182753327Y-61510301D01*
X182574698Y-61331673D01*
X182341309Y-61235000D01*
X181725750Y-61235000D01*
X181567000Y-61393750D01*
X181313000Y-61393750D01*
X181154250Y-61235000D01*
X180538691Y-61235000D01*
X180305302Y-61331673D01*
X180126673Y-61510301D01*
X180030000Y-61743690D01*
X179780000Y-61743690D01*
X179780000Y-49815750D01*
X189435000Y-49815750D01*
X189435000Y-50256310D01*
X189531673Y-50489699D01*
X189710302Y-50668327D01*
X189943691Y-50765000D01*
X190384250Y-50765000D01*
X190543000Y-50606250D01*
X190543000Y-49657000D01*
X189593750Y-49657000D01*
X189435000Y-49815750D01*
X179780000Y-49815750D01*
X179780000Y-48803690D01*
X189435000Y-48803690D01*
X189435000Y-49244250D01*
X189593750Y-49403000D01*
X190543000Y-49403000D01*
X190543000Y-48453750D01*
X190384250Y-48295000D01*
X189943691Y-48295000D01*
X189710302Y-48391673D01*
X189531673Y-48570301D01*
X189435000Y-48803690D01*
X179780000Y-48803690D01*
X179780000Y-43622619D01*
X180644613Y-43622619D01*
X180984155Y-44444372D01*
X181612321Y-45073636D01*
X182433481Y-45414611D01*
X183322619Y-45415387D01*
X184144372Y-45075845D01*
X184773636Y-44447679D01*
X185114611Y-43626519D01*
X185115387Y-42737381D01*
X184775845Y-41915628D01*
X184147679Y-41286364D01*
X183326519Y-40945389D01*
X182437381Y-40944613D01*
X181615628Y-41284155D01*
X180986364Y-41912321D01*
X180645389Y-42733481D01*
X180644613Y-43622619D01*
X179780000Y-43622619D01*
X179780000Y-40080000D01*
X223290000Y-40080000D01*
X223290000Y-81840000D01*
G36*
X210421838Y-46555317D02*
X210560910Y-46771441D01*
X210773110Y-46916431D01*
X211025000Y-46967440D01*
X212225000Y-46967440D01*
X212460317Y-46923162D01*
X212676441Y-46784090D01*
X212724134Y-46714289D01*
X212760910Y-46771441D01*
X212973110Y-46916431D01*
X213065000Y-46935039D01*
X213065000Y-48312666D01*
X212989683Y-48326838D01*
X212773559Y-48465910D01*
X212727031Y-48534006D01*
X212584698Y-48391673D01*
X212351309Y-48295000D01*
X211910750Y-48295000D01*
X211752000Y-48453750D01*
X211752000Y-49403000D01*
X211772000Y-49403000D01*
X211772000Y-49657000D01*
X211752000Y-49657000D01*
X211752000Y-50606250D01*
X211910750Y-50765000D01*
X212351309Y-50765000D01*
X212584698Y-50668327D01*
X212725936Y-50527090D01*
X212760910Y-50581441D01*
X212973110Y-50726431D01*
X213065000Y-50745039D01*
X213065000Y-53132560D01*
X212075000Y-53132560D01*
X211839683Y-53176838D01*
X211623559Y-53315910D01*
X211478569Y-53528110D01*
X211427560Y-53780000D01*
X211427560Y-55280000D01*
X211471838Y-55515317D01*
X211610910Y-55731441D01*
X211823110Y-55876431D01*
X211836197Y-55879081D01*
X211623559Y-56015910D01*
X211478569Y-56228110D01*
X211429585Y-56470000D01*
X210740000Y-56470000D01*
X210449161Y-56527852D01*
X210202599Y-56692599D01*
X208942440Y-57952758D01*
X208942440Y-56480000D01*
X208898162Y-56244683D01*
X208759090Y-56028559D01*
X208546890Y-55883569D01*
X208533803Y-55880919D01*
X208746441Y-55744090D01*
X208891431Y-55531890D01*
X208942440Y-55280000D01*
X208942440Y-53780000D01*
X208898162Y-53544683D01*
X208759090Y-53328559D01*
X208546890Y-53183569D01*
X208405000Y-53154836D01*
X208405000Y-52070000D01*
X208347148Y-51779161D01*
X208182401Y-51532599D01*
X207381928Y-50732126D01*
X207596441Y-50594090D01*
X207642969Y-50525994D01*
X207785302Y-50668327D01*
X208018691Y-50765000D01*
X208459250Y-50765000D01*
X208618000Y-50606250D01*
X208618000Y-49657000D01*
X208872000Y-49657000D01*
X208872000Y-50606250D01*
X209030750Y-50765000D01*
X209471309Y-50765000D01*
X209704698Y-50668327D01*
X209883327Y-50489699D01*
X209980000Y-50256310D01*
X209980000Y-49815750D01*
X210390000Y-49815750D01*
X210390000Y-50256310D01*
X210486673Y-50489699D01*
X210665302Y-50668327D01*
X210898691Y-50765000D01*
X211339250Y-50765000D01*
X211498000Y-50606250D01*
X211498000Y-49657000D01*
X210548750Y-49657000D01*
X210390000Y-49815750D01*
X209980000Y-49815750D01*
X209821250Y-49657000D01*
X208872000Y-49657000D01*
X208618000Y-49657000D01*
X208598000Y-49657000D01*
X208598000Y-49403000D01*
X208618000Y-49403000D01*
X208618000Y-48453750D01*
X208872000Y-48453750D01*
X208872000Y-49403000D01*
X209821250Y-49403000D01*
X209980000Y-49244250D01*
X209980000Y-48803690D01*
X210390000Y-48803690D01*
X210390000Y-49244250D01*
X210548750Y-49403000D01*
X211498000Y-49403000D01*
X211498000Y-48453750D01*
X211339250Y-48295000D01*
X210898691Y-48295000D01*
X210665302Y-48391673D01*
X210486673Y-48570301D01*
X210390000Y-48803690D01*
X209980000Y-48803690D01*
X209883327Y-48570301D01*
X209704698Y-48391673D01*
X209471309Y-48295000D01*
X209030750Y-48295000D01*
X208872000Y-48453750D01*
X208618000Y-48453750D01*
X208459250Y-48295000D01*
X208018691Y-48295000D01*
X207785302Y-48391673D01*
X207644064Y-48532910D01*
X207609090Y-48478559D01*
X207396890Y-48333569D01*
X207305000Y-48314961D01*
X207305000Y-46937334D01*
X207380317Y-46923162D01*
X207596441Y-46784090D01*
X207644134Y-46714289D01*
X207680910Y-46771441D01*
X207893110Y-46916431D01*
X208145000Y-46967440D01*
X209345000Y-46967440D01*
X209580317Y-46923162D01*
X209796441Y-46784090D01*
X209941431Y-46571890D01*
X209960039Y-46480000D01*
X210407666Y-46480000D01*
X210421838Y-46555317D01*
X210421838Y-46555317D01*
G37*
X210421838Y-46555317D02*
X210560910Y-46771441D01*
X210773110Y-46916431D01*
X211025000Y-46967440D01*
X212225000Y-46967440D01*
X212460317Y-46923162D01*
X212676441Y-46784090D01*
X212724134Y-46714289D01*
X212760910Y-46771441D01*
X212973110Y-46916431D01*
X213065000Y-46935039D01*
X213065000Y-48312666D01*
X212989683Y-48326838D01*
X212773559Y-48465910D01*
X212727031Y-48534006D01*
X212584698Y-48391673D01*
X212351309Y-48295000D01*
X211910750Y-48295000D01*
X211752000Y-48453750D01*
X211752000Y-49403000D01*
X211772000Y-49403000D01*
X211772000Y-49657000D01*
X211752000Y-49657000D01*
X211752000Y-50606250D01*
X211910750Y-50765000D01*
X212351309Y-50765000D01*
X212584698Y-50668327D01*
X212725936Y-50527090D01*
X212760910Y-50581441D01*
X212973110Y-50726431D01*
X213065000Y-50745039D01*
X213065000Y-53132560D01*
X212075000Y-53132560D01*
X211839683Y-53176838D01*
X211623559Y-53315910D01*
X211478569Y-53528110D01*
X211427560Y-53780000D01*
X211427560Y-55280000D01*
X211471838Y-55515317D01*
X211610910Y-55731441D01*
X211823110Y-55876431D01*
X211836197Y-55879081D01*
X211623559Y-56015910D01*
X211478569Y-56228110D01*
X211429585Y-56470000D01*
X210740000Y-56470000D01*
X210449161Y-56527852D01*
X210202599Y-56692599D01*
X208942440Y-57952758D01*
X208942440Y-56480000D01*
X208898162Y-56244683D01*
X208759090Y-56028559D01*
X208546890Y-55883569D01*
X208533803Y-55880919D01*
X208746441Y-55744090D01*
X208891431Y-55531890D01*
X208942440Y-55280000D01*
X208942440Y-53780000D01*
X208898162Y-53544683D01*
X208759090Y-53328559D01*
X208546890Y-53183569D01*
X208405000Y-53154836D01*
X208405000Y-52070000D01*
X208347148Y-51779161D01*
X208182401Y-51532599D01*
X207381928Y-50732126D01*
X207596441Y-50594090D01*
X207642969Y-50525994D01*
X207785302Y-50668327D01*
X208018691Y-50765000D01*
X208459250Y-50765000D01*
X208618000Y-50606250D01*
X208618000Y-49657000D01*
X208872000Y-49657000D01*
X208872000Y-50606250D01*
X209030750Y-50765000D01*
X209471309Y-50765000D01*
X209704698Y-50668327D01*
X209883327Y-50489699D01*
X209980000Y-50256310D01*
X209980000Y-49815750D01*
X210390000Y-49815750D01*
X210390000Y-50256310D01*
X210486673Y-50489699D01*
X210665302Y-50668327D01*
X210898691Y-50765000D01*
X211339250Y-50765000D01*
X211498000Y-50606250D01*
X211498000Y-49657000D01*
X210548750Y-49657000D01*
X210390000Y-49815750D01*
X209980000Y-49815750D01*
X209821250Y-49657000D01*
X208872000Y-49657000D01*
X208618000Y-49657000D01*
X208598000Y-49657000D01*
X208598000Y-49403000D01*
X208618000Y-49403000D01*
X208618000Y-48453750D01*
X208872000Y-48453750D01*
X208872000Y-49403000D01*
X209821250Y-49403000D01*
X209980000Y-49244250D01*
X209980000Y-48803690D01*
X210390000Y-48803690D01*
X210390000Y-49244250D01*
X210548750Y-49403000D01*
X211498000Y-49403000D01*
X211498000Y-48453750D01*
X211339250Y-48295000D01*
X210898691Y-48295000D01*
X210665302Y-48391673D01*
X210486673Y-48570301D01*
X210390000Y-48803690D01*
X209980000Y-48803690D01*
X209883327Y-48570301D01*
X209704698Y-48391673D01*
X209471309Y-48295000D01*
X209030750Y-48295000D01*
X208872000Y-48453750D01*
X208618000Y-48453750D01*
X208459250Y-48295000D01*
X208018691Y-48295000D01*
X207785302Y-48391673D01*
X207644064Y-48532910D01*
X207609090Y-48478559D01*
X207396890Y-48333569D01*
X207305000Y-48314961D01*
X207305000Y-46937334D01*
X207380317Y-46923162D01*
X207596441Y-46784090D01*
X207644134Y-46714289D01*
X207680910Y-46771441D01*
X207893110Y-46916431D01*
X208145000Y-46967440D01*
X209345000Y-46967440D01*
X209580317Y-46923162D01*
X209796441Y-46784090D01*
X209941431Y-46571890D01*
X209960039Y-46480000D01*
X210407666Y-46480000D01*
X210421838Y-46555317D01*
M02*
