G04 #@! TF.FileFunction,Legend,Bot*
%FSLAX46Y46*%
G04 Gerber Fmt 4.6, Leading zero omitted, Abs format (unit mm)*
G04 Created by KiCad (PCBNEW 4.0.6+dfsg1-1) date Fri Mar  9 15:20:54 2018*
%MOMM*%
%LPD*%
G01*
G04 APERTURE LIST*
%ADD10C,0.100000*%
%ADD11C,0.300000*%
%ADD12C,0.120000*%
%ADD13C,0.150000*%
G04 APERTURE END LIST*
D10*
D11*
X216594428Y-79418571D02*
X216594428Y-78418571D01*
X216594428Y-78704286D02*
X216523000Y-78561429D01*
X216451571Y-78490000D01*
X216308714Y-78418571D01*
X216165857Y-78418571D01*
X214880143Y-79418571D02*
X215737286Y-79418571D01*
X215308714Y-79418571D02*
X215308714Y-77918571D01*
X215451571Y-78132857D01*
X215594429Y-78275714D01*
X215737286Y-78347143D01*
D12*
X199635000Y-74260000D02*
X199635000Y-73060000D01*
X197875000Y-73060000D02*
X197875000Y-74260000D01*
D13*
X202875714Y-56443571D02*
X202732857Y-56491190D01*
X202685238Y-56538810D01*
X202637619Y-56634048D01*
X202637619Y-56776905D01*
X202685238Y-56872143D01*
X202732857Y-56919762D01*
X202828095Y-56967381D01*
X203209048Y-56967381D01*
X203209048Y-55967381D01*
X202875714Y-55967381D01*
X202780476Y-56015000D01*
X202732857Y-56062619D01*
X202685238Y-56157857D01*
X202685238Y-56253095D01*
X202732857Y-56348333D01*
X202780476Y-56395952D01*
X202875714Y-56443571D01*
X203209048Y-56443571D01*
X202351905Y-55967381D02*
X201780476Y-55967381D01*
X202066191Y-56967381D02*
X202066191Y-55967381D01*
X200923333Y-56967381D02*
X201494762Y-56967381D01*
X201209048Y-56967381D02*
X201209048Y-55967381D01*
X201304286Y-56110238D01*
X201399524Y-56205476D01*
X201494762Y-56253095D01*
X189428333Y-67397381D02*
X189428333Y-68111667D01*
X189475953Y-68254524D01*
X189571191Y-68349762D01*
X189714048Y-68397381D01*
X189809286Y-68397381D01*
X188952143Y-68397381D02*
X188952143Y-67397381D01*
X188571190Y-67397381D01*
X188475952Y-67445000D01*
X188428333Y-67492619D01*
X188380714Y-67587857D01*
X188380714Y-67730714D01*
X188428333Y-67825952D01*
X188475952Y-67873571D01*
X188571190Y-67921190D01*
X188952143Y-67921190D01*
X187428333Y-68397381D02*
X187999762Y-68397381D01*
X187714048Y-68397381D02*
X187714048Y-67397381D01*
X187809286Y-67540238D01*
X187904524Y-67635476D01*
X187999762Y-67683095D01*
X196381666Y-74112381D02*
X196715000Y-73636190D01*
X196953095Y-74112381D02*
X196953095Y-73112381D01*
X196572142Y-73112381D01*
X196476904Y-73160000D01*
X196429285Y-73207619D01*
X196381666Y-73302857D01*
X196381666Y-73445714D01*
X196429285Y-73540952D01*
X196476904Y-73588571D01*
X196572142Y-73636190D01*
X196953095Y-73636190D01*
X196048333Y-73112381D02*
X195381666Y-73112381D01*
X195810238Y-74112381D01*
M02*
