G04 #@! TF.FileFunction,Legend,Top*
%FSLAX46Y46*%
G04 Gerber Fmt 4.6, Leading zero omitted, Abs format (unit mm)*
G04 Created by KiCad (PCBNEW 4.0.6+dfsg1-1) date Fri Mar  9 15:20:54 2018*
%MOMM*%
%LPD*%
G01*
G04 APERTURE LIST*
%ADD10C,0.100000*%
%ADD11C,0.300000*%
%ADD12C,0.120000*%
%ADD13C,0.150000*%
%ADD14C,0.010000*%
G04 APERTURE END LIST*
D10*
D11*
X187473573Y-40453571D02*
X187616430Y-40453571D01*
X187759287Y-40525000D01*
X187830716Y-40596429D01*
X187902145Y-40739286D01*
X187973573Y-41025000D01*
X187973573Y-41382143D01*
X187902145Y-41667857D01*
X187830716Y-41810714D01*
X187759287Y-41882143D01*
X187616430Y-41953571D01*
X187473573Y-41953571D01*
X187330716Y-41882143D01*
X187259287Y-41810714D01*
X187187859Y-41667857D01*
X187116430Y-41382143D01*
X187116430Y-41025000D01*
X187187859Y-40739286D01*
X187259287Y-40596429D01*
X187330716Y-40525000D01*
X187473573Y-40453571D01*
X188473573Y-41953571D02*
X189259287Y-40953571D01*
X188473573Y-40953571D02*
X189259287Y-41953571D01*
X190116430Y-40453571D02*
X190259287Y-40453571D01*
X190402144Y-40525000D01*
X190473573Y-40596429D01*
X190545002Y-40739286D01*
X190616430Y-41025000D01*
X190616430Y-41382143D01*
X190545002Y-41667857D01*
X190473573Y-41810714D01*
X190402144Y-41882143D01*
X190259287Y-41953571D01*
X190116430Y-41953571D01*
X189973573Y-41882143D01*
X189902144Y-41810714D01*
X189830716Y-41667857D01*
X189759287Y-41382143D01*
X189759287Y-41025000D01*
X189830716Y-40739286D01*
X189902144Y-40596429D01*
X189973573Y-40525000D01*
X190116430Y-40453571D01*
X192045001Y-40525000D02*
X191902144Y-40453571D01*
X191687858Y-40453571D01*
X191473573Y-40525000D01*
X191330715Y-40667857D01*
X191259287Y-40810714D01*
X191187858Y-41096429D01*
X191187858Y-41310714D01*
X191259287Y-41596429D01*
X191330715Y-41739286D01*
X191473573Y-41882143D01*
X191687858Y-41953571D01*
X191830715Y-41953571D01*
X192045001Y-41882143D01*
X192116430Y-41810714D01*
X192116430Y-41310714D01*
X191830715Y-41310714D01*
X194473572Y-41882143D02*
X194330715Y-41953571D01*
X194045001Y-41953571D01*
X193902144Y-41882143D01*
X193830715Y-41739286D01*
X193830715Y-41167857D01*
X193902144Y-41025000D01*
X194045001Y-40953571D01*
X194330715Y-40953571D01*
X194473572Y-41025000D01*
X194545001Y-41167857D01*
X194545001Y-41310714D01*
X193830715Y-41453571D01*
X195402144Y-41953571D02*
X195259286Y-41882143D01*
X195187858Y-41739286D01*
X195187858Y-40453571D01*
X196545000Y-41882143D02*
X196402143Y-41953571D01*
X196116429Y-41953571D01*
X195973572Y-41882143D01*
X195902143Y-41739286D01*
X195902143Y-41167857D01*
X195973572Y-41025000D01*
X196116429Y-40953571D01*
X196402143Y-40953571D01*
X196545000Y-41025000D01*
X196616429Y-41167857D01*
X196616429Y-41310714D01*
X195902143Y-41453571D01*
X197902143Y-41882143D02*
X197759286Y-41953571D01*
X197473572Y-41953571D01*
X197330714Y-41882143D01*
X197259286Y-41810714D01*
X197187857Y-41667857D01*
X197187857Y-41239286D01*
X197259286Y-41096429D01*
X197330714Y-41025000D01*
X197473572Y-40953571D01*
X197759286Y-40953571D01*
X197902143Y-41025000D01*
X198330714Y-40953571D02*
X198902143Y-40953571D01*
X198545000Y-40453571D02*
X198545000Y-41739286D01*
X198616428Y-41882143D01*
X198759286Y-41953571D01*
X198902143Y-41953571D01*
X199402143Y-41953571D02*
X199402143Y-40953571D01*
X199402143Y-41239286D02*
X199473571Y-41096429D01*
X199545000Y-41025000D01*
X199687857Y-40953571D01*
X199830714Y-40953571D01*
X200330714Y-41953571D02*
X200330714Y-40953571D01*
X200330714Y-40453571D02*
X200259285Y-40525000D01*
X200330714Y-40596429D01*
X200402142Y-40525000D01*
X200330714Y-40453571D01*
X200330714Y-40596429D01*
X201687857Y-41882143D02*
X201545000Y-41953571D01*
X201259286Y-41953571D01*
X201116428Y-41882143D01*
X201045000Y-41810714D01*
X200973571Y-41667857D01*
X200973571Y-41239286D01*
X201045000Y-41096429D01*
X201116428Y-41025000D01*
X201259286Y-40953571D01*
X201545000Y-40953571D01*
X201687857Y-41025000D01*
X202973571Y-41953571D02*
X202973571Y-41167857D01*
X202902142Y-41025000D01*
X202759285Y-40953571D01*
X202473571Y-40953571D01*
X202330714Y-41025000D01*
X202973571Y-41882143D02*
X202830714Y-41953571D01*
X202473571Y-41953571D01*
X202330714Y-41882143D01*
X202259285Y-41739286D01*
X202259285Y-41596429D01*
X202330714Y-41453571D01*
X202473571Y-41382143D01*
X202830714Y-41382143D01*
X202973571Y-41310714D01*
X203902143Y-41953571D02*
X203759285Y-41882143D01*
X203687857Y-41739286D01*
X203687857Y-40453571D01*
X205616428Y-40953571D02*
X205616428Y-42453571D01*
X205616428Y-41025000D02*
X205759285Y-40953571D01*
X206044999Y-40953571D01*
X206187856Y-41025000D01*
X206259285Y-41096429D01*
X206330714Y-41239286D01*
X206330714Y-41667857D01*
X206259285Y-41810714D01*
X206187856Y-41882143D01*
X206044999Y-41953571D01*
X205759285Y-41953571D01*
X205616428Y-41882143D01*
X206973571Y-41953571D02*
X206973571Y-40953571D01*
X206973571Y-41239286D02*
X207044999Y-41096429D01*
X207116428Y-41025000D01*
X207259285Y-40953571D01*
X207402142Y-40953571D01*
X208116428Y-41953571D02*
X207973570Y-41882143D01*
X207902142Y-41810714D01*
X207830713Y-41667857D01*
X207830713Y-41239286D01*
X207902142Y-41096429D01*
X207973570Y-41025000D01*
X208116428Y-40953571D01*
X208330713Y-40953571D01*
X208473570Y-41025000D01*
X208544999Y-41096429D01*
X208616428Y-41239286D01*
X208616428Y-41667857D01*
X208544999Y-41810714D01*
X208473570Y-41882143D01*
X208330713Y-41953571D01*
X208116428Y-41953571D01*
X209044999Y-40953571D02*
X209616428Y-40953571D01*
X209259285Y-40453571D02*
X209259285Y-41739286D01*
X209330713Y-41882143D01*
X209473571Y-41953571D01*
X209616428Y-41953571D01*
X210330714Y-41953571D02*
X210187856Y-41882143D01*
X210116428Y-41810714D01*
X210044999Y-41667857D01*
X210044999Y-41239286D01*
X210116428Y-41096429D01*
X210187856Y-41025000D01*
X210330714Y-40953571D01*
X210544999Y-40953571D01*
X210687856Y-41025000D01*
X210759285Y-41096429D01*
X210830714Y-41239286D01*
X210830714Y-41667857D01*
X210759285Y-41810714D01*
X210687856Y-41882143D01*
X210544999Y-41953571D01*
X210330714Y-41953571D01*
X211259285Y-40953571D02*
X211830714Y-40953571D01*
X211473571Y-40453571D02*
X211473571Y-41739286D01*
X211544999Y-41882143D01*
X211687857Y-41953571D01*
X211830714Y-41953571D01*
X212187857Y-40953571D02*
X212545000Y-41953571D01*
X212902142Y-40953571D02*
X212545000Y-41953571D01*
X212402142Y-42310714D01*
X212330714Y-42382143D01*
X212187857Y-42453571D01*
X213473571Y-40953571D02*
X213473571Y-42453571D01*
X213473571Y-41025000D02*
X213616428Y-40953571D01*
X213902142Y-40953571D01*
X214044999Y-41025000D01*
X214116428Y-41096429D01*
X214187857Y-41239286D01*
X214187857Y-41667857D01*
X214116428Y-41810714D01*
X214044999Y-41882143D01*
X213902142Y-41953571D01*
X213616428Y-41953571D01*
X213473571Y-41882143D01*
X215402142Y-41882143D02*
X215259285Y-41953571D01*
X214973571Y-41953571D01*
X214830714Y-41882143D01*
X214759285Y-41739286D01*
X214759285Y-41167857D01*
X214830714Y-41025000D01*
X214973571Y-40953571D01*
X215259285Y-40953571D01*
X215402142Y-41025000D01*
X215473571Y-41167857D01*
X215473571Y-41310714D01*
X214759285Y-41453571D01*
D12*
X210050000Y-63920000D02*
X209050000Y-63920000D01*
X209050000Y-65620000D02*
X210050000Y-65620000D01*
X210050000Y-67730000D02*
X209050000Y-67730000D01*
X209050000Y-69430000D02*
X210050000Y-69430000D01*
X182460000Y-70985000D02*
X182460000Y-69985000D01*
X180760000Y-69985000D02*
X180760000Y-70985000D01*
X205845000Y-45020000D02*
X205845000Y-46420000D01*
X205845000Y-46420000D02*
X208645000Y-46420000D01*
X205845000Y-45020000D02*
X208645000Y-45020000D01*
X214525000Y-46420000D02*
X214525000Y-45020000D01*
X214525000Y-45020000D02*
X211725000Y-45020000D01*
X214525000Y-46420000D02*
X211725000Y-46420000D01*
X209445000Y-50230000D02*
X209445000Y-48830000D01*
X209445000Y-48830000D02*
X206645000Y-48830000D01*
X209445000Y-50230000D02*
X206645000Y-50230000D01*
X210925000Y-48830000D02*
X210925000Y-50230000D01*
X210925000Y-50230000D02*
X213725000Y-50230000D01*
X210925000Y-48830000D02*
X213725000Y-48830000D01*
X193570000Y-46420000D02*
X193570000Y-45020000D01*
X193570000Y-45020000D02*
X190770000Y-45020000D01*
X193570000Y-46420000D02*
X190770000Y-46420000D01*
X195050000Y-45020000D02*
X195050000Y-46420000D01*
X195050000Y-46420000D02*
X197850000Y-46420000D01*
X195050000Y-45020000D02*
X197850000Y-45020000D01*
X189970000Y-48830000D02*
X189970000Y-50230000D01*
X189970000Y-50230000D02*
X192770000Y-50230000D01*
X189970000Y-48830000D02*
X192770000Y-48830000D01*
X198650000Y-50230000D02*
X198650000Y-48830000D01*
X198650000Y-48830000D02*
X195850000Y-48830000D01*
X198650000Y-50230000D02*
X195850000Y-50230000D01*
X201527665Y-79818608D02*
G75*
G03X204760000Y-79975516I1672335J1078608D01*
G01*
X201527665Y-77661392D02*
G75*
G02X204760000Y-77504484I1672335J-1078608D01*
G01*
X202158870Y-79819837D02*
G75*
G03X204240961Y-79820000I1041130J1079837D01*
G01*
X202158870Y-77660163D02*
G75*
G02X204240961Y-77660000I1041130J-1079837D01*
G01*
X204760000Y-79976000D02*
X204760000Y-79820000D01*
X204760000Y-77660000D02*
X204760000Y-77504000D01*
X218955000Y-62230000D02*
X218955000Y-72510000D01*
X218955000Y-72510000D02*
X221735000Y-72510000D01*
X221735000Y-72510000D02*
X221735000Y-62230000D01*
X221735000Y-62230000D02*
X218955000Y-62230000D01*
X218955000Y-60960000D02*
X218955000Y-59570000D01*
X218955000Y-59570000D02*
X220345000Y-59570000D01*
X206765000Y-56480000D02*
X206765000Y-55280000D01*
X208525000Y-55280000D02*
X208525000Y-56480000D01*
X189620000Y-56480000D02*
X189620000Y-55280000D01*
X191380000Y-55280000D02*
X191380000Y-56480000D01*
X211845000Y-56480000D02*
X211845000Y-55280000D01*
X213605000Y-55280000D02*
X213605000Y-56480000D01*
X194700000Y-56480000D02*
X194700000Y-55280000D01*
X196460000Y-55280000D02*
X196460000Y-56480000D01*
X197240000Y-79340000D02*
X197240000Y-78140000D01*
X199000000Y-78140000D02*
X199000000Y-79340000D01*
X188650000Y-61540000D02*
X188650000Y-61570000D01*
X188650000Y-68000000D02*
X188650000Y-67970000D01*
X182190000Y-68000000D02*
X182190000Y-67970000D01*
X182190000Y-61570000D02*
X182190000Y-61540000D01*
X188650000Y-63470000D02*
X188650000Y-66070000D01*
X182190000Y-61540000D02*
X188650000Y-61540000D01*
X182190000Y-63470000D02*
X182190000Y-66070000D01*
X182190000Y-68000000D02*
X188650000Y-68000000D01*
D13*
X195515000Y-62630000D02*
X195515000Y-62880000D01*
X203265000Y-62630000D02*
X203265000Y-62975000D01*
X203265000Y-74530000D02*
X203265000Y-74185000D01*
X195515000Y-74530000D02*
X195515000Y-74185000D01*
X195515000Y-62630000D02*
X203265000Y-62630000D01*
X195515000Y-74530000D02*
X203265000Y-74530000D01*
X195515000Y-62880000D02*
X193690000Y-62880000D01*
D12*
X191755000Y-75960000D02*
X191755000Y-74760000D01*
X191755000Y-72360000D02*
X191755000Y-72560000D01*
X185755000Y-72360000D02*
X185755000Y-72560000D01*
X191755000Y-75960000D02*
X185755000Y-75960000D01*
X185755000Y-75960000D02*
X185755000Y-74760000D01*
X191755000Y-72360000D02*
X185755000Y-72360000D01*
X186575000Y-77210000D02*
X186175000Y-77210000D01*
X186575000Y-77210000D02*
X186575000Y-77610000D01*
X186575000Y-77210000D02*
X185775000Y-78010000D01*
X187575000Y-77610000D02*
X186775000Y-78410000D01*
X187575000Y-77610000D02*
X187575000Y-78010000D01*
X187575000Y-77610000D02*
X187175000Y-77610000D01*
X186117315Y-76011321D02*
G75*
G03X191295000Y-75960000I2577685J1151321D01*
G01*
D14*
G36*
X214437042Y-70476313D02*
X214611640Y-70485671D01*
X214749444Y-70500312D01*
X214799333Y-70509398D01*
X215021222Y-70566869D01*
X215265423Y-70643024D01*
X215506863Y-70729405D01*
X215720470Y-70817549D01*
X215743058Y-70827851D01*
X215865329Y-70889379D01*
X216006047Y-70968196D01*
X216153602Y-71056910D01*
X216296383Y-71148127D01*
X216422780Y-71234455D01*
X216521183Y-71308500D01*
X216575883Y-71358161D01*
X216630877Y-71419054D01*
X216079401Y-71970531D01*
X215527924Y-72522008D01*
X215364656Y-72417566D01*
X215068253Y-72250662D01*
X214775321Y-72134203D01*
X214473441Y-72064473D01*
X214150195Y-72037754D01*
X214093778Y-72037222D01*
X213819845Y-72049825D01*
X213571718Y-72090878D01*
X213328852Y-72165248D01*
X213070703Y-72277803D01*
X213063666Y-72281251D01*
X212949252Y-72339952D01*
X212854698Y-72396225D01*
X212767035Y-72459936D01*
X212673293Y-72540950D01*
X212560502Y-72649132D01*
X212497471Y-72711919D01*
X212373854Y-72838108D01*
X212281962Y-72938982D01*
X212212021Y-73027488D01*
X212154258Y-73116571D01*
X212098899Y-73219179D01*
X212069358Y-73279000D01*
X211961710Y-73528088D01*
X211889459Y-73765967D01*
X211845498Y-74018566D01*
X211833346Y-74140330D01*
X211832380Y-74448245D01*
X211875432Y-74766710D01*
X211958649Y-75078711D01*
X212078182Y-75367235D01*
X212134498Y-75470892D01*
X212191613Y-75553654D01*
X212278553Y-75661977D01*
X212384134Y-75782640D01*
X212497172Y-75902420D01*
X212513333Y-75918745D01*
X212638212Y-76041348D01*
X212739487Y-76132530D01*
X212831221Y-76202910D01*
X212927475Y-76263109D01*
X213042311Y-76323745D01*
X213063666Y-76334353D01*
X213308081Y-76442974D01*
X213538270Y-76516895D01*
X213772407Y-76559862D01*
X214028662Y-76575621D01*
X214220778Y-76572861D01*
X214446531Y-76560070D01*
X214633226Y-76537818D01*
X214797986Y-76502058D01*
X214957936Y-76448744D01*
X215130200Y-76373830D01*
X215194444Y-76342806D01*
X215472201Y-76178451D01*
X215705046Y-75980268D01*
X215894312Y-75746794D01*
X216041330Y-75476570D01*
X216086484Y-75363703D01*
X216123907Y-75258092D01*
X216152299Y-75172123D01*
X216167033Y-75120023D01*
X216168111Y-75112631D01*
X216140346Y-75105058D01*
X216058866Y-75098597D01*
X215926387Y-75093322D01*
X215745630Y-75089303D01*
X215519312Y-75086615D01*
X215250151Y-75085328D01*
X215138000Y-75085222D01*
X214107889Y-75085222D01*
X214107889Y-73617666D01*
X215896980Y-73617666D01*
X216259656Y-73617740D01*
X216570000Y-73618038D01*
X216832124Y-73618671D01*
X217050140Y-73619752D01*
X217228162Y-73621393D01*
X217370302Y-73623706D01*
X217480671Y-73626805D01*
X217563382Y-73630800D01*
X217622548Y-73635804D01*
X217662281Y-73641931D01*
X217686693Y-73649291D01*
X217699897Y-73657997D01*
X217705587Y-73667055D01*
X217715352Y-73714000D01*
X217727000Y-73803805D01*
X217738984Y-73922991D01*
X217748543Y-74041000D01*
X217756449Y-74495315D01*
X217716535Y-74951614D01*
X217630824Y-75399510D01*
X217501338Y-75828620D01*
X217330100Y-76228558D01*
X217317763Y-76252924D01*
X217094574Y-76628536D01*
X216828155Y-76969713D01*
X216522007Y-77273672D01*
X216179634Y-77537630D01*
X215804540Y-77758803D01*
X215400227Y-77934408D01*
X215072821Y-78036398D01*
X214792955Y-78095269D01*
X214486393Y-78135136D01*
X214171338Y-78155023D01*
X213865998Y-78153954D01*
X213588577Y-78130952D01*
X213515222Y-78119917D01*
X213048595Y-78015273D01*
X212613034Y-77863773D01*
X212206876Y-77664545D01*
X211828456Y-77416720D01*
X211476111Y-77119427D01*
X211335394Y-76979493D01*
X211035065Y-76627717D01*
X210783527Y-76251889D01*
X210580740Y-75856268D01*
X210426664Y-75445114D01*
X210321258Y-75022686D01*
X210264483Y-74593242D01*
X210256298Y-74161043D01*
X210296664Y-73730347D01*
X210385540Y-73305414D01*
X210522887Y-72890502D01*
X210708664Y-72489872D01*
X210942831Y-72107781D01*
X211225348Y-71748490D01*
X211386204Y-71577241D01*
X211727600Y-71273224D01*
X212100934Y-71014799D01*
X212507321Y-70801367D01*
X212947873Y-70632332D01*
X213346693Y-70523865D01*
X213468337Y-70504244D01*
X213631392Y-70489128D01*
X213822825Y-70478647D01*
X214029600Y-70472931D01*
X214238684Y-70472110D01*
X214437042Y-70476313D01*
X214437042Y-70476313D01*
G37*
X214437042Y-70476313D02*
X214611640Y-70485671D01*
X214749444Y-70500312D01*
X214799333Y-70509398D01*
X215021222Y-70566869D01*
X215265423Y-70643024D01*
X215506863Y-70729405D01*
X215720470Y-70817549D01*
X215743058Y-70827851D01*
X215865329Y-70889379D01*
X216006047Y-70968196D01*
X216153602Y-71056910D01*
X216296383Y-71148127D01*
X216422780Y-71234455D01*
X216521183Y-71308500D01*
X216575883Y-71358161D01*
X216630877Y-71419054D01*
X216079401Y-71970531D01*
X215527924Y-72522008D01*
X215364656Y-72417566D01*
X215068253Y-72250662D01*
X214775321Y-72134203D01*
X214473441Y-72064473D01*
X214150195Y-72037754D01*
X214093778Y-72037222D01*
X213819845Y-72049825D01*
X213571718Y-72090878D01*
X213328852Y-72165248D01*
X213070703Y-72277803D01*
X213063666Y-72281251D01*
X212949252Y-72339952D01*
X212854698Y-72396225D01*
X212767035Y-72459936D01*
X212673293Y-72540950D01*
X212560502Y-72649132D01*
X212497471Y-72711919D01*
X212373854Y-72838108D01*
X212281962Y-72938982D01*
X212212021Y-73027488D01*
X212154258Y-73116571D01*
X212098899Y-73219179D01*
X212069358Y-73279000D01*
X211961710Y-73528088D01*
X211889459Y-73765967D01*
X211845498Y-74018566D01*
X211833346Y-74140330D01*
X211832380Y-74448245D01*
X211875432Y-74766710D01*
X211958649Y-75078711D01*
X212078182Y-75367235D01*
X212134498Y-75470892D01*
X212191613Y-75553654D01*
X212278553Y-75661977D01*
X212384134Y-75782640D01*
X212497172Y-75902420D01*
X212513333Y-75918745D01*
X212638212Y-76041348D01*
X212739487Y-76132530D01*
X212831221Y-76202910D01*
X212927475Y-76263109D01*
X213042311Y-76323745D01*
X213063666Y-76334353D01*
X213308081Y-76442974D01*
X213538270Y-76516895D01*
X213772407Y-76559862D01*
X214028662Y-76575621D01*
X214220778Y-76572861D01*
X214446531Y-76560070D01*
X214633226Y-76537818D01*
X214797986Y-76502058D01*
X214957936Y-76448744D01*
X215130200Y-76373830D01*
X215194444Y-76342806D01*
X215472201Y-76178451D01*
X215705046Y-75980268D01*
X215894312Y-75746794D01*
X216041330Y-75476570D01*
X216086484Y-75363703D01*
X216123907Y-75258092D01*
X216152299Y-75172123D01*
X216167033Y-75120023D01*
X216168111Y-75112631D01*
X216140346Y-75105058D01*
X216058866Y-75098597D01*
X215926387Y-75093322D01*
X215745630Y-75089303D01*
X215519312Y-75086615D01*
X215250151Y-75085328D01*
X215138000Y-75085222D01*
X214107889Y-75085222D01*
X214107889Y-73617666D01*
X215896980Y-73617666D01*
X216259656Y-73617740D01*
X216570000Y-73618038D01*
X216832124Y-73618671D01*
X217050140Y-73619752D01*
X217228162Y-73621393D01*
X217370302Y-73623706D01*
X217480671Y-73626805D01*
X217563382Y-73630800D01*
X217622548Y-73635804D01*
X217662281Y-73641931D01*
X217686693Y-73649291D01*
X217699897Y-73657997D01*
X217705587Y-73667055D01*
X217715352Y-73714000D01*
X217727000Y-73803805D01*
X217738984Y-73922991D01*
X217748543Y-74041000D01*
X217756449Y-74495315D01*
X217716535Y-74951614D01*
X217630824Y-75399510D01*
X217501338Y-75828620D01*
X217330100Y-76228558D01*
X217317763Y-76252924D01*
X217094574Y-76628536D01*
X216828155Y-76969713D01*
X216522007Y-77273672D01*
X216179634Y-77537630D01*
X215804540Y-77758803D01*
X215400227Y-77934408D01*
X215072821Y-78036398D01*
X214792955Y-78095269D01*
X214486393Y-78135136D01*
X214171338Y-78155023D01*
X213865998Y-78153954D01*
X213588577Y-78130952D01*
X213515222Y-78119917D01*
X213048595Y-78015273D01*
X212613034Y-77863773D01*
X212206876Y-77664545D01*
X211828456Y-77416720D01*
X211476111Y-77119427D01*
X211335394Y-76979493D01*
X211035065Y-76627717D01*
X210783527Y-76251889D01*
X210580740Y-75856268D01*
X210426664Y-75445114D01*
X210321258Y-75022686D01*
X210264483Y-74593242D01*
X210256298Y-74161043D01*
X210296664Y-73730347D01*
X210385540Y-73305414D01*
X210522887Y-72890502D01*
X210708664Y-72489872D01*
X210942831Y-72107781D01*
X211225348Y-71748490D01*
X211386204Y-71577241D01*
X211727600Y-71273224D01*
X212100934Y-71014799D01*
X212507321Y-70801367D01*
X212947873Y-70632332D01*
X213346693Y-70523865D01*
X213468337Y-70504244D01*
X213631392Y-70489128D01*
X213822825Y-70478647D01*
X214029600Y-70472931D01*
X214238684Y-70472110D01*
X214437042Y-70476313D01*
D13*
X209383334Y-63627143D02*
X209335715Y-63674762D01*
X209192858Y-63722381D01*
X209097620Y-63722381D01*
X208954762Y-63674762D01*
X208859524Y-63579524D01*
X208811905Y-63484286D01*
X208764286Y-63293810D01*
X208764286Y-63150952D01*
X208811905Y-62960476D01*
X208859524Y-62865238D01*
X208954762Y-62770000D01*
X209097620Y-62722381D01*
X209192858Y-62722381D01*
X209335715Y-62770000D01*
X209383334Y-62817619D01*
X210335715Y-63722381D02*
X209764286Y-63722381D01*
X210050000Y-63722381D02*
X210050000Y-62722381D01*
X209954762Y-62865238D01*
X209859524Y-62960476D01*
X209764286Y-63008095D01*
X209383334Y-67437143D02*
X209335715Y-67484762D01*
X209192858Y-67532381D01*
X209097620Y-67532381D01*
X208954762Y-67484762D01*
X208859524Y-67389524D01*
X208811905Y-67294286D01*
X208764286Y-67103810D01*
X208764286Y-66960952D01*
X208811905Y-66770476D01*
X208859524Y-66675238D01*
X208954762Y-66580000D01*
X209097620Y-66532381D01*
X209192858Y-66532381D01*
X209335715Y-66580000D01*
X209383334Y-66627619D01*
X209764286Y-66627619D02*
X209811905Y-66580000D01*
X209907143Y-66532381D01*
X210145239Y-66532381D01*
X210240477Y-66580000D01*
X210288096Y-66627619D01*
X210335715Y-66722857D01*
X210335715Y-66818095D01*
X210288096Y-66960952D01*
X209716667Y-67532381D01*
X210335715Y-67532381D01*
X183348334Y-70842143D02*
X183300715Y-70889762D01*
X183157858Y-70937381D01*
X183062620Y-70937381D01*
X182919762Y-70889762D01*
X182824524Y-70794524D01*
X182776905Y-70699286D01*
X182729286Y-70508810D01*
X182729286Y-70365952D01*
X182776905Y-70175476D01*
X182824524Y-70080238D01*
X182919762Y-69985000D01*
X183062620Y-69937381D01*
X183157858Y-69937381D01*
X183300715Y-69985000D01*
X183348334Y-70032619D01*
X183681667Y-69937381D02*
X184300715Y-69937381D01*
X183967381Y-70318333D01*
X184110239Y-70318333D01*
X184205477Y-70365952D01*
X184253096Y-70413571D01*
X184300715Y-70508810D01*
X184300715Y-70746905D01*
X184253096Y-70842143D01*
X184205477Y-70889762D01*
X184110239Y-70937381D01*
X183824524Y-70937381D01*
X183729286Y-70889762D01*
X183681667Y-70842143D01*
X203096905Y-46172381D02*
X203096905Y-45172381D01*
X203335000Y-45172381D01*
X203477858Y-45220000D01*
X203573096Y-45315238D01*
X203620715Y-45410476D01*
X203668334Y-45600952D01*
X203668334Y-45743810D01*
X203620715Y-45934286D01*
X203573096Y-46029524D01*
X203477858Y-46124762D01*
X203335000Y-46172381D01*
X203096905Y-46172381D01*
X204620715Y-46172381D02*
X204049286Y-46172381D01*
X204335000Y-46172381D02*
X204335000Y-45172381D01*
X204239762Y-45315238D01*
X204144524Y-45410476D01*
X204049286Y-45458095D01*
X215796905Y-46172381D02*
X215796905Y-45172381D01*
X216035000Y-45172381D01*
X216177858Y-45220000D01*
X216273096Y-45315238D01*
X216320715Y-45410476D01*
X216368334Y-45600952D01*
X216368334Y-45743810D01*
X216320715Y-45934286D01*
X216273096Y-46029524D01*
X216177858Y-46124762D01*
X216035000Y-46172381D01*
X215796905Y-46172381D01*
X216749286Y-45267619D02*
X216796905Y-45220000D01*
X216892143Y-45172381D01*
X217130239Y-45172381D01*
X217225477Y-45220000D01*
X217273096Y-45267619D01*
X217320715Y-45362857D01*
X217320715Y-45458095D01*
X217273096Y-45600952D01*
X216701667Y-46172381D01*
X217320715Y-46172381D01*
X203096905Y-49982381D02*
X203096905Y-48982381D01*
X203335000Y-48982381D01*
X203477858Y-49030000D01*
X203573096Y-49125238D01*
X203620715Y-49220476D01*
X203668334Y-49410952D01*
X203668334Y-49553810D01*
X203620715Y-49744286D01*
X203573096Y-49839524D01*
X203477858Y-49934762D01*
X203335000Y-49982381D01*
X203096905Y-49982381D01*
X204001667Y-48982381D02*
X204620715Y-48982381D01*
X204287381Y-49363333D01*
X204430239Y-49363333D01*
X204525477Y-49410952D01*
X204573096Y-49458571D01*
X204620715Y-49553810D01*
X204620715Y-49791905D01*
X204573096Y-49887143D01*
X204525477Y-49934762D01*
X204430239Y-49982381D01*
X204144524Y-49982381D01*
X204049286Y-49934762D01*
X204001667Y-49887143D01*
X215796905Y-49982381D02*
X215796905Y-48982381D01*
X216035000Y-48982381D01*
X216177858Y-49030000D01*
X216273096Y-49125238D01*
X216320715Y-49220476D01*
X216368334Y-49410952D01*
X216368334Y-49553810D01*
X216320715Y-49744286D01*
X216273096Y-49839524D01*
X216177858Y-49934762D01*
X216035000Y-49982381D01*
X215796905Y-49982381D01*
X217225477Y-49315714D02*
X217225477Y-49982381D01*
X216987381Y-48934762D02*
X216749286Y-49649048D01*
X217368334Y-49649048D01*
X187221905Y-46172381D02*
X187221905Y-45172381D01*
X187460000Y-45172381D01*
X187602858Y-45220000D01*
X187698096Y-45315238D01*
X187745715Y-45410476D01*
X187793334Y-45600952D01*
X187793334Y-45743810D01*
X187745715Y-45934286D01*
X187698096Y-46029524D01*
X187602858Y-46124762D01*
X187460000Y-46172381D01*
X187221905Y-46172381D01*
X188698096Y-45172381D02*
X188221905Y-45172381D01*
X188174286Y-45648571D01*
X188221905Y-45600952D01*
X188317143Y-45553333D01*
X188555239Y-45553333D01*
X188650477Y-45600952D01*
X188698096Y-45648571D01*
X188745715Y-45743810D01*
X188745715Y-45981905D01*
X188698096Y-46077143D01*
X188650477Y-46124762D01*
X188555239Y-46172381D01*
X188317143Y-46172381D01*
X188221905Y-46124762D01*
X188174286Y-46077143D01*
X199921905Y-46172381D02*
X199921905Y-45172381D01*
X200160000Y-45172381D01*
X200302858Y-45220000D01*
X200398096Y-45315238D01*
X200445715Y-45410476D01*
X200493334Y-45600952D01*
X200493334Y-45743810D01*
X200445715Y-45934286D01*
X200398096Y-46029524D01*
X200302858Y-46124762D01*
X200160000Y-46172381D01*
X199921905Y-46172381D01*
X201350477Y-45172381D02*
X201160000Y-45172381D01*
X201064762Y-45220000D01*
X201017143Y-45267619D01*
X200921905Y-45410476D01*
X200874286Y-45600952D01*
X200874286Y-45981905D01*
X200921905Y-46077143D01*
X200969524Y-46124762D01*
X201064762Y-46172381D01*
X201255239Y-46172381D01*
X201350477Y-46124762D01*
X201398096Y-46077143D01*
X201445715Y-45981905D01*
X201445715Y-45743810D01*
X201398096Y-45648571D01*
X201350477Y-45600952D01*
X201255239Y-45553333D01*
X201064762Y-45553333D01*
X200969524Y-45600952D01*
X200921905Y-45648571D01*
X200874286Y-45743810D01*
X187221905Y-49982381D02*
X187221905Y-48982381D01*
X187460000Y-48982381D01*
X187602858Y-49030000D01*
X187698096Y-49125238D01*
X187745715Y-49220476D01*
X187793334Y-49410952D01*
X187793334Y-49553810D01*
X187745715Y-49744286D01*
X187698096Y-49839524D01*
X187602858Y-49934762D01*
X187460000Y-49982381D01*
X187221905Y-49982381D01*
X188126667Y-48982381D02*
X188793334Y-48982381D01*
X188364762Y-49982381D01*
X199921905Y-49982381D02*
X199921905Y-48982381D01*
X200160000Y-48982381D01*
X200302858Y-49030000D01*
X200398096Y-49125238D01*
X200445715Y-49220476D01*
X200493334Y-49410952D01*
X200493334Y-49553810D01*
X200445715Y-49744286D01*
X200398096Y-49839524D01*
X200302858Y-49934762D01*
X200160000Y-49982381D01*
X199921905Y-49982381D01*
X201064762Y-49410952D02*
X200969524Y-49363333D01*
X200921905Y-49315714D01*
X200874286Y-49220476D01*
X200874286Y-49172857D01*
X200921905Y-49077619D01*
X200969524Y-49030000D01*
X201064762Y-48982381D01*
X201255239Y-48982381D01*
X201350477Y-49030000D01*
X201398096Y-49077619D01*
X201445715Y-49172857D01*
X201445715Y-49220476D01*
X201398096Y-49315714D01*
X201350477Y-49363333D01*
X201255239Y-49410952D01*
X201064762Y-49410952D01*
X200969524Y-49458571D01*
X200921905Y-49506190D01*
X200874286Y-49601429D01*
X200874286Y-49791905D01*
X200921905Y-49887143D01*
X200969524Y-49934762D01*
X201064762Y-49982381D01*
X201255239Y-49982381D01*
X201350477Y-49934762D01*
X201398096Y-49887143D01*
X201445715Y-49791905D01*
X201445715Y-49601429D01*
X201398096Y-49506190D01*
X201350477Y-49458571D01*
X201255239Y-49410952D01*
X206271905Y-79192381D02*
X206271905Y-78192381D01*
X206510000Y-78192381D01*
X206652858Y-78240000D01*
X206748096Y-78335238D01*
X206795715Y-78430476D01*
X206843334Y-78620952D01*
X206843334Y-78763810D01*
X206795715Y-78954286D01*
X206748096Y-79049524D01*
X206652858Y-79144762D01*
X206510000Y-79192381D01*
X206271905Y-79192381D01*
X207319524Y-79192381D02*
X207510000Y-79192381D01*
X207605239Y-79144762D01*
X207652858Y-79097143D01*
X207748096Y-78954286D01*
X207795715Y-78763810D01*
X207795715Y-78382857D01*
X207748096Y-78287619D01*
X207700477Y-78240000D01*
X207605239Y-78192381D01*
X207414762Y-78192381D01*
X207319524Y-78240000D01*
X207271905Y-78287619D01*
X207224286Y-78382857D01*
X207224286Y-78620952D01*
X207271905Y-78716190D01*
X207319524Y-78763810D01*
X207414762Y-78811429D01*
X207605239Y-78811429D01*
X207700477Y-78763810D01*
X207748096Y-78716190D01*
X207795715Y-78620952D01*
X220011667Y-58022381D02*
X220011667Y-58736667D01*
X219964047Y-58879524D01*
X219868809Y-58974762D01*
X219725952Y-59022381D01*
X219630714Y-59022381D01*
X221011667Y-59022381D02*
X220440238Y-59022381D01*
X220725952Y-59022381D02*
X220725952Y-58022381D01*
X220630714Y-58165238D01*
X220535476Y-58260476D01*
X220440238Y-58308095D01*
X207478334Y-60142381D02*
X207145000Y-59666190D01*
X206906905Y-60142381D02*
X206906905Y-59142381D01*
X207287858Y-59142381D01*
X207383096Y-59190000D01*
X207430715Y-59237619D01*
X207478334Y-59332857D01*
X207478334Y-59475714D01*
X207430715Y-59570952D01*
X207383096Y-59618571D01*
X207287858Y-59666190D01*
X206906905Y-59666190D01*
X208430715Y-60142381D02*
X207859286Y-60142381D01*
X208145000Y-60142381D02*
X208145000Y-59142381D01*
X208049762Y-59285238D01*
X207954524Y-59380476D01*
X207859286Y-59428095D01*
X190333334Y-60142381D02*
X190000000Y-59666190D01*
X189761905Y-60142381D02*
X189761905Y-59142381D01*
X190142858Y-59142381D01*
X190238096Y-59190000D01*
X190285715Y-59237619D01*
X190333334Y-59332857D01*
X190333334Y-59475714D01*
X190285715Y-59570952D01*
X190238096Y-59618571D01*
X190142858Y-59666190D01*
X189761905Y-59666190D01*
X190714286Y-59237619D02*
X190761905Y-59190000D01*
X190857143Y-59142381D01*
X191095239Y-59142381D01*
X191190477Y-59190000D01*
X191238096Y-59237619D01*
X191285715Y-59332857D01*
X191285715Y-59428095D01*
X191238096Y-59570952D01*
X190666667Y-60142381D01*
X191285715Y-60142381D01*
X212558334Y-60142381D02*
X212225000Y-59666190D01*
X211986905Y-60142381D02*
X211986905Y-59142381D01*
X212367858Y-59142381D01*
X212463096Y-59190000D01*
X212510715Y-59237619D01*
X212558334Y-59332857D01*
X212558334Y-59475714D01*
X212510715Y-59570952D01*
X212463096Y-59618571D01*
X212367858Y-59666190D01*
X211986905Y-59666190D01*
X212891667Y-59142381D02*
X213510715Y-59142381D01*
X213177381Y-59523333D01*
X213320239Y-59523333D01*
X213415477Y-59570952D01*
X213463096Y-59618571D01*
X213510715Y-59713810D01*
X213510715Y-59951905D01*
X213463096Y-60047143D01*
X213415477Y-60094762D01*
X213320239Y-60142381D01*
X213034524Y-60142381D01*
X212939286Y-60094762D01*
X212891667Y-60047143D01*
X195413334Y-60142381D02*
X195080000Y-59666190D01*
X194841905Y-60142381D02*
X194841905Y-59142381D01*
X195222858Y-59142381D01*
X195318096Y-59190000D01*
X195365715Y-59237619D01*
X195413334Y-59332857D01*
X195413334Y-59475714D01*
X195365715Y-59570952D01*
X195318096Y-59618571D01*
X195222858Y-59666190D01*
X194841905Y-59666190D01*
X196270477Y-59475714D02*
X196270477Y-60142381D01*
X196032381Y-59094762D02*
X195794286Y-59809048D01*
X196413334Y-59809048D01*
X195413334Y-79192381D02*
X195080000Y-78716190D01*
X194841905Y-79192381D02*
X194841905Y-78192381D01*
X195222858Y-78192381D01*
X195318096Y-78240000D01*
X195365715Y-78287619D01*
X195413334Y-78382857D01*
X195413334Y-78525714D01*
X195365715Y-78620952D01*
X195318096Y-78668571D01*
X195222858Y-78716190D01*
X194841905Y-78716190D01*
X195984762Y-78620952D02*
X195889524Y-78573333D01*
X195841905Y-78525714D01*
X195794286Y-78430476D01*
X195794286Y-78382857D01*
X195841905Y-78287619D01*
X195889524Y-78240000D01*
X195984762Y-78192381D01*
X196175239Y-78192381D01*
X196270477Y-78240000D01*
X196318096Y-78287619D01*
X196365715Y-78382857D01*
X196365715Y-78430476D01*
X196318096Y-78525714D01*
X196270477Y-78573333D01*
X196175239Y-78620952D01*
X195984762Y-78620952D01*
X195889524Y-78668571D01*
X195841905Y-78716190D01*
X195794286Y-78811429D01*
X195794286Y-79001905D01*
X195841905Y-79097143D01*
X195889524Y-79144762D01*
X195984762Y-79192381D01*
X196175239Y-79192381D01*
X196270477Y-79144762D01*
X196318096Y-79097143D01*
X196365715Y-79001905D01*
X196365715Y-78811429D01*
X196318096Y-78716190D01*
X196270477Y-78668571D01*
X196175239Y-78620952D01*
X184658095Y-61124762D02*
X184800952Y-61172381D01*
X185039048Y-61172381D01*
X185134286Y-61124762D01*
X185181905Y-61077143D01*
X185229524Y-60981905D01*
X185229524Y-60886667D01*
X185181905Y-60791429D01*
X185134286Y-60743810D01*
X185039048Y-60696190D01*
X184848571Y-60648571D01*
X184753333Y-60600952D01*
X184705714Y-60553333D01*
X184658095Y-60458095D01*
X184658095Y-60362857D01*
X184705714Y-60267619D01*
X184753333Y-60220000D01*
X184848571Y-60172381D01*
X185086667Y-60172381D01*
X185229524Y-60220000D01*
X186181905Y-61172381D02*
X185610476Y-61172381D01*
X185896190Y-61172381D02*
X185896190Y-60172381D01*
X185800952Y-60315238D01*
X185705714Y-60410476D01*
X185610476Y-60458095D01*
X198628095Y-61157381D02*
X198628095Y-61966905D01*
X198675714Y-62062143D01*
X198723333Y-62109762D01*
X198818571Y-62157381D01*
X199009048Y-62157381D01*
X199104286Y-62109762D01*
X199151905Y-62062143D01*
X199199524Y-61966905D01*
X199199524Y-61157381D01*
X200199524Y-62157381D02*
X199628095Y-62157381D01*
X199913809Y-62157381D02*
X199913809Y-61157381D01*
X199818571Y-61300238D01*
X199723333Y-61395476D01*
X199628095Y-61443095D01*
X187833095Y-78192381D02*
X187833095Y-79001905D01*
X187880714Y-79097143D01*
X187928333Y-79144762D01*
X188023571Y-79192381D01*
X188214048Y-79192381D01*
X188309286Y-79144762D01*
X188356905Y-79097143D01*
X188404524Y-79001905D01*
X188404524Y-78192381D01*
X188833095Y-78287619D02*
X188880714Y-78240000D01*
X188975952Y-78192381D01*
X189214048Y-78192381D01*
X189309286Y-78240000D01*
X189356905Y-78287619D01*
X189404524Y-78382857D01*
X189404524Y-78478095D01*
X189356905Y-78620952D01*
X188785476Y-79192381D01*
X189404524Y-79192381D01*
M02*
