G04 #@! TF.FileFunction,Copper,L2,Bot,Signal*
%FSLAX46Y46*%
G04 Gerber Fmt 4.6, Leading zero omitted, Abs format (unit mm)*
G04 Created by KiCad (PCBNEW 4.0.6+dfsg1-1) date Fri Mar  9 15:20:54 2018*
%MOMM*%
%LPD*%
G01*
G04 APERTURE LIST*
%ADD10C,0.100000*%
%ADD11R,2.600000X5.560000*%
%ADD12R,10.000000X5.560000*%
%ADD13R,1.800000X1.800000*%
%ADD14C,1.800000*%
%ADD15R,1.700000X1.700000*%
%ADD16O,1.700000X1.700000*%
%ADD17R,1.998980X1.998980*%
%ADD18R,1.300000X1.500000*%
%ADD19C,0.600000*%
%ADD20C,0.250000*%
%ADD21C,0.254000*%
G04 APERTURE END LIST*
D10*
D11*
X190185000Y-60960000D03*
D12*
X202090000Y-60960000D03*
D11*
X213995000Y-60960000D03*
D13*
X204470000Y-78740000D03*
D14*
X201930000Y-78740000D03*
D15*
X220345000Y-60960000D03*
D16*
X220345000Y-63500000D03*
X220345000Y-66040000D03*
X220345000Y-68580000D03*
X220345000Y-71120000D03*
D17*
X186055000Y-69850000D03*
X191135000Y-69850000D03*
D18*
X198755000Y-72310000D03*
X198755000Y-75010000D03*
D13*
X186055000Y-73660000D03*
D14*
X188595000Y-73660000D03*
X191135000Y-73660000D03*
D19*
X182372000Y-54483000D03*
X182372000Y-49530000D03*
X199390000Y-69596000D03*
X202311000Y-49530000D03*
X200152000Y-53594000D03*
X204343000Y-53594000D03*
X210185000Y-53594000D03*
X210185000Y-51562000D03*
X210185000Y-49530000D03*
X204343000Y-43688000D03*
X204343000Y-51689000D03*
X190627000Y-43688000D03*
X208280000Y-60960000D03*
X208788000Y-43688000D03*
X198120000Y-43688000D03*
X212090000Y-67310000D03*
X197485000Y-67310000D03*
X186055000Y-65405000D03*
D20*
X182372000Y-49530000D02*
X182372000Y-54483000D01*
X202311000Y-51435000D02*
X202311000Y-49530000D01*
X200152000Y-53594000D02*
X202311000Y-51435000D01*
X210185000Y-53594000D02*
X204343000Y-53594000D01*
X210185000Y-49530000D02*
X210185000Y-51562000D01*
X202090000Y-60960000D02*
X202090000Y-53942000D01*
X202090000Y-53942000D02*
X204343000Y-51689000D01*
X198120000Y-43688000D02*
X190627000Y-43688000D01*
X198755000Y-72310000D02*
X198755000Y-70485000D01*
X194437000Y-66167000D02*
X194437000Y-65024000D01*
X198755000Y-70485000D02*
X194437000Y-66167000D01*
X208280000Y-60960000D02*
X202090000Y-60960000D01*
X208788000Y-43688000D02*
X204343000Y-43688000D01*
X204343000Y-43688000D02*
X198120000Y-43688000D01*
X191135000Y-73660000D02*
X191135000Y-72771000D01*
X191135000Y-72771000D02*
X189992000Y-71628000D01*
X189992000Y-71628000D02*
X188976000Y-71628000D01*
X188976000Y-71628000D02*
X188468000Y-71120000D01*
X188468000Y-71120000D02*
X188468000Y-66040000D01*
X188468000Y-66040000D02*
X189484000Y-65024000D01*
X189484000Y-65024000D02*
X194437000Y-65024000D01*
X194437000Y-65024000D02*
X200980000Y-65024000D01*
X200980000Y-65024000D02*
X202090000Y-63914000D01*
X202090000Y-63914000D02*
X202090000Y-60960000D01*
X220345000Y-63500000D02*
X218440000Y-63500000D01*
X202090000Y-63914000D02*
X202090000Y-60960000D01*
X203200000Y-65024000D02*
X202090000Y-63914000D01*
X216916000Y-65024000D02*
X203200000Y-65024000D01*
X218440000Y-63500000D02*
X216916000Y-65024000D01*
X197485000Y-67310000D02*
X212090000Y-67310000D01*
X186055000Y-65405000D02*
X186055000Y-69850000D01*
X191135000Y-69850000D02*
X193040000Y-69850000D01*
X193040000Y-69850000D02*
X198200000Y-75010000D01*
X198200000Y-75010000D02*
X198755000Y-75010000D01*
D21*
G36*
X223290000Y-81840000D02*
X179780000Y-81840000D01*
X179780000Y-79182619D01*
X180644613Y-79182619D01*
X180984155Y-80004372D01*
X181612321Y-80633636D01*
X182433481Y-80974611D01*
X183322619Y-80975387D01*
X184144372Y-80635845D01*
X184773636Y-80007679D01*
X185114611Y-79186519D01*
X185114735Y-79043991D01*
X200394735Y-79043991D01*
X200627932Y-79608371D01*
X201059357Y-80040551D01*
X201623330Y-80274733D01*
X202233991Y-80275265D01*
X202798371Y-80042068D01*
X202975841Y-79864908D01*
X203031673Y-79999699D01*
X203210302Y-80178327D01*
X203443691Y-80275000D01*
X204184250Y-80275000D01*
X204343000Y-80116250D01*
X204343000Y-78867000D01*
X204597000Y-78867000D01*
X204597000Y-80116250D01*
X204755750Y-80275000D01*
X205496309Y-80275000D01*
X205729698Y-80178327D01*
X205908327Y-79999699D01*
X206005000Y-79766310D01*
X206005000Y-79182619D01*
X218109613Y-79182619D01*
X218449155Y-80004372D01*
X219077321Y-80633636D01*
X219898481Y-80974611D01*
X220787619Y-80975387D01*
X221609372Y-80635845D01*
X222238636Y-80007679D01*
X222579611Y-79186519D01*
X222580387Y-78297381D01*
X222240845Y-77475628D01*
X221612679Y-76846364D01*
X220791519Y-76505389D01*
X219902381Y-76504613D01*
X219080628Y-76844155D01*
X218451364Y-77472321D01*
X218110389Y-78293481D01*
X218109613Y-79182619D01*
X206005000Y-79182619D01*
X206005000Y-79025750D01*
X205846250Y-78867000D01*
X204597000Y-78867000D01*
X204343000Y-78867000D01*
X204323000Y-78867000D01*
X204323000Y-78613000D01*
X204343000Y-78613000D01*
X204343000Y-77363750D01*
X204597000Y-77363750D01*
X204597000Y-78613000D01*
X205846250Y-78613000D01*
X206005000Y-78454250D01*
X206005000Y-77713690D01*
X205908327Y-77480301D01*
X205729698Y-77301673D01*
X205496309Y-77205000D01*
X204755750Y-77205000D01*
X204597000Y-77363750D01*
X204343000Y-77363750D01*
X204184250Y-77205000D01*
X203443691Y-77205000D01*
X203210302Y-77301673D01*
X203031673Y-77480301D01*
X202975881Y-77614994D01*
X202800643Y-77439449D01*
X202236670Y-77205267D01*
X201626009Y-77204735D01*
X201061629Y-77437932D01*
X200629449Y-77869357D01*
X200395267Y-78433330D01*
X200394735Y-79043991D01*
X185114735Y-79043991D01*
X185115387Y-78297381D01*
X184775845Y-77475628D01*
X184147679Y-76846364D01*
X183326519Y-76505389D01*
X182437381Y-76504613D01*
X181615628Y-76844155D01*
X180986364Y-77472321D01*
X180645389Y-78293481D01*
X180644613Y-79182619D01*
X179780000Y-79182619D01*
X179780000Y-72760000D01*
X184507560Y-72760000D01*
X184507560Y-74560000D01*
X184551838Y-74795317D01*
X184690910Y-75011441D01*
X184903110Y-75156431D01*
X185155000Y-75207440D01*
X186955000Y-75207440D01*
X187190317Y-75163162D01*
X187406441Y-75024090D01*
X187545598Y-74820426D01*
X187579890Y-74854718D01*
X187694447Y-74740161D01*
X187780852Y-74996643D01*
X188354336Y-75206458D01*
X188964460Y-75180839D01*
X189409148Y-74996643D01*
X189495554Y-74740159D01*
X188595000Y-73839605D01*
X188580858Y-73853748D01*
X188401253Y-73674143D01*
X188415395Y-73660000D01*
X188401253Y-73645858D01*
X188580858Y-73466253D01*
X188595000Y-73480395D01*
X189495554Y-72579841D01*
X189430925Y-72388000D01*
X189677198Y-72388000D01*
X189956609Y-72667411D01*
X189834449Y-72789357D01*
X189825797Y-72810194D01*
X189675159Y-72759446D01*
X188774605Y-73660000D01*
X189675159Y-74560554D01*
X189825327Y-74509965D01*
X189832932Y-74528371D01*
X190264357Y-74960551D01*
X190828330Y-75194733D01*
X191438991Y-75195265D01*
X192003371Y-74962068D01*
X192435551Y-74530643D01*
X192669733Y-73966670D01*
X192670265Y-73356009D01*
X192437068Y-72791629D01*
X192005643Y-72359449D01*
X191650984Y-72212182D01*
X190935732Y-71496930D01*
X192134490Y-71496930D01*
X192369807Y-71452652D01*
X192585931Y-71313580D01*
X192730921Y-71101380D01*
X192781930Y-70849490D01*
X192781930Y-70666732D01*
X197457560Y-75342362D01*
X197457560Y-75760000D01*
X197501838Y-75995317D01*
X197640910Y-76211441D01*
X197853110Y-76356431D01*
X198105000Y-76407440D01*
X199405000Y-76407440D01*
X199640317Y-76363162D01*
X199856441Y-76224090D01*
X200001431Y-76011890D01*
X200052440Y-75760000D01*
X200052440Y-74260000D01*
X200008162Y-74024683D01*
X199869090Y-73808559D01*
X199656890Y-73663569D01*
X199643803Y-73660919D01*
X199856441Y-73524090D01*
X200001431Y-73311890D01*
X200052440Y-73060000D01*
X200052440Y-71560000D01*
X200008162Y-71324683D01*
X199869090Y-71108559D01*
X199656890Y-70963569D01*
X199515000Y-70934836D01*
X199515000Y-70485000D01*
X199457148Y-70194161D01*
X199292401Y-69947599D01*
X197924802Y-68580000D01*
X218830907Y-68580000D01*
X218943946Y-69148285D01*
X219265853Y-69630054D01*
X219595026Y-69850000D01*
X219265853Y-70069946D01*
X218943946Y-70551715D01*
X218830907Y-71120000D01*
X218943946Y-71688285D01*
X219265853Y-72170054D01*
X219747622Y-72491961D01*
X220315907Y-72605000D01*
X220374093Y-72605000D01*
X220942378Y-72491961D01*
X221424147Y-72170054D01*
X221746054Y-71688285D01*
X221859093Y-71120000D01*
X221746054Y-70551715D01*
X221424147Y-70069946D01*
X221094974Y-69850000D01*
X221424147Y-69630054D01*
X221746054Y-69148285D01*
X221859093Y-68580000D01*
X221746054Y-68011715D01*
X221424147Y-67529946D01*
X221083447Y-67302298D01*
X221226358Y-67235183D01*
X221616645Y-66806924D01*
X221786476Y-66396890D01*
X221665155Y-66167000D01*
X220472000Y-66167000D01*
X220472000Y-66187000D01*
X220218000Y-66187000D01*
X220218000Y-66167000D01*
X219024845Y-66167000D01*
X218903524Y-66396890D01*
X219073355Y-66806924D01*
X219463642Y-67235183D01*
X219606553Y-67302298D01*
X219265853Y-67529946D01*
X218943946Y-68011715D01*
X218830907Y-68580000D01*
X197924802Y-68580000D01*
X197589894Y-68245092D01*
X197670167Y-68245162D01*
X198013943Y-68103117D01*
X198047118Y-68070000D01*
X211527537Y-68070000D01*
X211559673Y-68102192D01*
X211903201Y-68244838D01*
X212275167Y-68245162D01*
X212618943Y-68103117D01*
X212882192Y-67840327D01*
X213024838Y-67496799D01*
X213025162Y-67124833D01*
X212883117Y-66781057D01*
X212620327Y-66517808D01*
X212276799Y-66375162D01*
X211904833Y-66374838D01*
X211561057Y-66516883D01*
X211527882Y-66550000D01*
X198047463Y-66550000D01*
X198015327Y-66517808D01*
X197671799Y-66375162D01*
X197299833Y-66374838D01*
X196956057Y-66516883D01*
X196692808Y-66779673D01*
X196550162Y-67123201D01*
X196550090Y-67205288D01*
X195197000Y-65852198D01*
X195197000Y-65784000D01*
X200980000Y-65784000D01*
X201270839Y-65726148D01*
X201517401Y-65561401D01*
X202090000Y-64988802D01*
X202662599Y-65561401D01*
X202909161Y-65726148D01*
X203200000Y-65784000D01*
X216916000Y-65784000D01*
X217206839Y-65726148D01*
X217453401Y-65561401D01*
X218754802Y-64260000D01*
X219072046Y-64260000D01*
X219265853Y-64550054D01*
X219606553Y-64777702D01*
X219463642Y-64844817D01*
X219073355Y-65273076D01*
X218903524Y-65683110D01*
X219024845Y-65913000D01*
X220218000Y-65913000D01*
X220218000Y-65893000D01*
X220472000Y-65893000D01*
X220472000Y-65913000D01*
X221665155Y-65913000D01*
X221786476Y-65683110D01*
X221616645Y-65273076D01*
X221226358Y-64844817D01*
X221083447Y-64777702D01*
X221424147Y-64550054D01*
X221746054Y-64068285D01*
X221859093Y-63500000D01*
X221746054Y-62931715D01*
X221424147Y-62449946D01*
X221382548Y-62422150D01*
X221430317Y-62413162D01*
X221646441Y-62274090D01*
X221791431Y-62061890D01*
X221842440Y-61810000D01*
X221842440Y-60110000D01*
X221798162Y-59874683D01*
X221659090Y-59658559D01*
X221446890Y-59513569D01*
X221195000Y-59462560D01*
X219495000Y-59462560D01*
X219259683Y-59506838D01*
X219043559Y-59645910D01*
X218898569Y-59858110D01*
X218847560Y-60110000D01*
X218847560Y-61810000D01*
X218891838Y-62045317D01*
X219030910Y-62261441D01*
X219243110Y-62406431D01*
X219310541Y-62420086D01*
X219265853Y-62449946D01*
X219072046Y-62740000D01*
X218440000Y-62740000D01*
X218197414Y-62788254D01*
X218149160Y-62797852D01*
X217902599Y-62962599D01*
X216601198Y-64264000D01*
X215669025Y-64264000D01*
X215833327Y-64099699D01*
X215930000Y-63866310D01*
X215930000Y-61245750D01*
X215771250Y-61087000D01*
X214122000Y-61087000D01*
X214122000Y-61107000D01*
X213868000Y-61107000D01*
X213868000Y-61087000D01*
X212218750Y-61087000D01*
X212060000Y-61245750D01*
X212060000Y-63866310D01*
X212156673Y-64099699D01*
X212320975Y-64264000D01*
X207448338Y-64264000D01*
X207541441Y-64204090D01*
X207686431Y-63991890D01*
X207737440Y-63740000D01*
X207737440Y-61739938D01*
X207749673Y-61752192D01*
X208093201Y-61894838D01*
X208465167Y-61895162D01*
X208808943Y-61753117D01*
X209072192Y-61490327D01*
X209214838Y-61146799D01*
X209215162Y-60774833D01*
X209073117Y-60431057D01*
X208810327Y-60167808D01*
X208466799Y-60025162D01*
X208094833Y-60024838D01*
X207751057Y-60166883D01*
X207737440Y-60180476D01*
X207737440Y-58180000D01*
X207713674Y-58053690D01*
X212060000Y-58053690D01*
X212060000Y-60674250D01*
X212218750Y-60833000D01*
X213868000Y-60833000D01*
X213868000Y-57703750D01*
X214122000Y-57703750D01*
X214122000Y-60833000D01*
X215771250Y-60833000D01*
X215930000Y-60674250D01*
X215930000Y-58053690D01*
X215833327Y-57820301D01*
X215654698Y-57641673D01*
X215421309Y-57545000D01*
X214280750Y-57545000D01*
X214122000Y-57703750D01*
X213868000Y-57703750D01*
X213709250Y-57545000D01*
X212568691Y-57545000D01*
X212335302Y-57641673D01*
X212156673Y-57820301D01*
X212060000Y-58053690D01*
X207713674Y-58053690D01*
X207693162Y-57944683D01*
X207554090Y-57728559D01*
X207341890Y-57583569D01*
X207090000Y-57532560D01*
X202850000Y-57532560D01*
X202850000Y-54256802D01*
X204482680Y-52624122D01*
X204528167Y-52624162D01*
X204871943Y-52482117D01*
X205135192Y-52219327D01*
X205277838Y-51875799D01*
X205278162Y-51503833D01*
X205136117Y-51160057D01*
X204873327Y-50896808D01*
X204529799Y-50754162D01*
X204157833Y-50753838D01*
X203814057Y-50895883D01*
X203550808Y-51158673D01*
X203408162Y-51502201D01*
X203408121Y-51549077D01*
X201552599Y-53404599D01*
X201387852Y-53651161D01*
X201330000Y-53942000D01*
X201330000Y-57532560D01*
X197090000Y-57532560D01*
X196854683Y-57576838D01*
X196638559Y-57715910D01*
X196493569Y-57928110D01*
X196442560Y-58180000D01*
X196442560Y-63740000D01*
X196486838Y-63975317D01*
X196625910Y-64191441D01*
X196732104Y-64264000D01*
X191859025Y-64264000D01*
X192023327Y-64099699D01*
X192120000Y-63866310D01*
X192120000Y-61245750D01*
X191961250Y-61087000D01*
X190312000Y-61087000D01*
X190312000Y-61107000D01*
X190058000Y-61107000D01*
X190058000Y-61087000D01*
X188408750Y-61087000D01*
X188250000Y-61245750D01*
X188250000Y-63866310D01*
X188346673Y-64099699D01*
X188525302Y-64278327D01*
X188758691Y-64375000D01*
X189113619Y-64375000D01*
X188946599Y-64486599D01*
X187930599Y-65502599D01*
X187765852Y-65749161D01*
X187708000Y-66040000D01*
X187708000Y-71120000D01*
X187765852Y-71410839D01*
X187930599Y-71657401D01*
X188404831Y-72131633D01*
X188225540Y-72139161D01*
X187780852Y-72323357D01*
X187694447Y-72579839D01*
X187579890Y-72465282D01*
X187543412Y-72501760D01*
X187419090Y-72308559D01*
X187206890Y-72163569D01*
X186955000Y-72112560D01*
X185155000Y-72112560D01*
X184919683Y-72156838D01*
X184703559Y-72295910D01*
X184558569Y-72508110D01*
X184507560Y-72760000D01*
X179780000Y-72760000D01*
X179780000Y-68850510D01*
X184408070Y-68850510D01*
X184408070Y-70849490D01*
X184452348Y-71084807D01*
X184591420Y-71300931D01*
X184803620Y-71445921D01*
X185055510Y-71496930D01*
X187054490Y-71496930D01*
X187289807Y-71452652D01*
X187505931Y-71313580D01*
X187650921Y-71101380D01*
X187701930Y-70849490D01*
X187701930Y-68850510D01*
X187657652Y-68615193D01*
X187518580Y-68399069D01*
X187306380Y-68254079D01*
X187054490Y-68203070D01*
X186815000Y-68203070D01*
X186815000Y-65967463D01*
X186847192Y-65935327D01*
X186989838Y-65591799D01*
X186990162Y-65219833D01*
X186848117Y-64876057D01*
X186585327Y-64612808D01*
X186241799Y-64470162D01*
X185869833Y-64469838D01*
X185526057Y-64611883D01*
X185262808Y-64874673D01*
X185120162Y-65218201D01*
X185119838Y-65590167D01*
X185261883Y-65933943D01*
X185295000Y-65967118D01*
X185295000Y-68203070D01*
X185055510Y-68203070D01*
X184820193Y-68247348D01*
X184604069Y-68386420D01*
X184459079Y-68598620D01*
X184408070Y-68850510D01*
X179780000Y-68850510D01*
X179780000Y-58053690D01*
X188250000Y-58053690D01*
X188250000Y-60674250D01*
X188408750Y-60833000D01*
X190058000Y-60833000D01*
X190058000Y-57703750D01*
X190312000Y-57703750D01*
X190312000Y-60833000D01*
X191961250Y-60833000D01*
X192120000Y-60674250D01*
X192120000Y-58053690D01*
X192023327Y-57820301D01*
X191844698Y-57641673D01*
X191611309Y-57545000D01*
X190470750Y-57545000D01*
X190312000Y-57703750D01*
X190058000Y-57703750D01*
X189899250Y-57545000D01*
X188758691Y-57545000D01*
X188525302Y-57641673D01*
X188346673Y-57820301D01*
X188250000Y-58053690D01*
X179780000Y-58053690D01*
X179780000Y-43622619D01*
X180644613Y-43622619D01*
X180984155Y-44444372D01*
X181612321Y-45073636D01*
X182433481Y-45414611D01*
X183322619Y-45415387D01*
X184144372Y-45075845D01*
X184773636Y-44447679D01*
X185012193Y-43873167D01*
X189691838Y-43873167D01*
X189833883Y-44216943D01*
X190096673Y-44480192D01*
X190440201Y-44622838D01*
X190812167Y-44623162D01*
X191155943Y-44481117D01*
X191189118Y-44448000D01*
X197557537Y-44448000D01*
X197589673Y-44480192D01*
X197933201Y-44622838D01*
X198305167Y-44623162D01*
X198648943Y-44481117D01*
X198682118Y-44448000D01*
X203780537Y-44448000D01*
X203812673Y-44480192D01*
X204156201Y-44622838D01*
X204528167Y-44623162D01*
X204871943Y-44481117D01*
X204905118Y-44448000D01*
X208225537Y-44448000D01*
X208257673Y-44480192D01*
X208601201Y-44622838D01*
X208973167Y-44623162D01*
X209316943Y-44481117D01*
X209580192Y-44218327D01*
X209722838Y-43874799D01*
X209723057Y-43622619D01*
X218109613Y-43622619D01*
X218449155Y-44444372D01*
X219077321Y-45073636D01*
X219898481Y-45414611D01*
X220787619Y-45415387D01*
X221609372Y-45075845D01*
X222238636Y-44447679D01*
X222579611Y-43626519D01*
X222580387Y-42737381D01*
X222240845Y-41915628D01*
X221612679Y-41286364D01*
X220791519Y-40945389D01*
X219902381Y-40944613D01*
X219080628Y-41284155D01*
X218451364Y-41912321D01*
X218110389Y-42733481D01*
X218109613Y-43622619D01*
X209723057Y-43622619D01*
X209723162Y-43502833D01*
X209581117Y-43159057D01*
X209318327Y-42895808D01*
X208974799Y-42753162D01*
X208602833Y-42752838D01*
X208259057Y-42894883D01*
X208225882Y-42928000D01*
X204905463Y-42928000D01*
X204873327Y-42895808D01*
X204529799Y-42753162D01*
X204157833Y-42752838D01*
X203814057Y-42894883D01*
X203780882Y-42928000D01*
X198682463Y-42928000D01*
X198650327Y-42895808D01*
X198306799Y-42753162D01*
X197934833Y-42752838D01*
X197591057Y-42894883D01*
X197557882Y-42928000D01*
X191189463Y-42928000D01*
X191157327Y-42895808D01*
X190813799Y-42753162D01*
X190441833Y-42752838D01*
X190098057Y-42894883D01*
X189834808Y-43157673D01*
X189692162Y-43501201D01*
X189691838Y-43873167D01*
X185012193Y-43873167D01*
X185114611Y-43626519D01*
X185115387Y-42737381D01*
X184775845Y-41915628D01*
X184147679Y-41286364D01*
X183326519Y-40945389D01*
X182437381Y-40944613D01*
X181615628Y-41284155D01*
X180986364Y-41912321D01*
X180645389Y-42733481D01*
X180644613Y-43622619D01*
X179780000Y-43622619D01*
X179780000Y-40080000D01*
X223290000Y-40080000D01*
X223290000Y-81840000D01*
X223290000Y-81840000D01*
G37*
X223290000Y-81840000D02*
X179780000Y-81840000D01*
X179780000Y-79182619D01*
X180644613Y-79182619D01*
X180984155Y-80004372D01*
X181612321Y-80633636D01*
X182433481Y-80974611D01*
X183322619Y-80975387D01*
X184144372Y-80635845D01*
X184773636Y-80007679D01*
X185114611Y-79186519D01*
X185114735Y-79043991D01*
X200394735Y-79043991D01*
X200627932Y-79608371D01*
X201059357Y-80040551D01*
X201623330Y-80274733D01*
X202233991Y-80275265D01*
X202798371Y-80042068D01*
X202975841Y-79864908D01*
X203031673Y-79999699D01*
X203210302Y-80178327D01*
X203443691Y-80275000D01*
X204184250Y-80275000D01*
X204343000Y-80116250D01*
X204343000Y-78867000D01*
X204597000Y-78867000D01*
X204597000Y-80116250D01*
X204755750Y-80275000D01*
X205496309Y-80275000D01*
X205729698Y-80178327D01*
X205908327Y-79999699D01*
X206005000Y-79766310D01*
X206005000Y-79182619D01*
X218109613Y-79182619D01*
X218449155Y-80004372D01*
X219077321Y-80633636D01*
X219898481Y-80974611D01*
X220787619Y-80975387D01*
X221609372Y-80635845D01*
X222238636Y-80007679D01*
X222579611Y-79186519D01*
X222580387Y-78297381D01*
X222240845Y-77475628D01*
X221612679Y-76846364D01*
X220791519Y-76505389D01*
X219902381Y-76504613D01*
X219080628Y-76844155D01*
X218451364Y-77472321D01*
X218110389Y-78293481D01*
X218109613Y-79182619D01*
X206005000Y-79182619D01*
X206005000Y-79025750D01*
X205846250Y-78867000D01*
X204597000Y-78867000D01*
X204343000Y-78867000D01*
X204323000Y-78867000D01*
X204323000Y-78613000D01*
X204343000Y-78613000D01*
X204343000Y-77363750D01*
X204597000Y-77363750D01*
X204597000Y-78613000D01*
X205846250Y-78613000D01*
X206005000Y-78454250D01*
X206005000Y-77713690D01*
X205908327Y-77480301D01*
X205729698Y-77301673D01*
X205496309Y-77205000D01*
X204755750Y-77205000D01*
X204597000Y-77363750D01*
X204343000Y-77363750D01*
X204184250Y-77205000D01*
X203443691Y-77205000D01*
X203210302Y-77301673D01*
X203031673Y-77480301D01*
X202975881Y-77614994D01*
X202800643Y-77439449D01*
X202236670Y-77205267D01*
X201626009Y-77204735D01*
X201061629Y-77437932D01*
X200629449Y-77869357D01*
X200395267Y-78433330D01*
X200394735Y-79043991D01*
X185114735Y-79043991D01*
X185115387Y-78297381D01*
X184775845Y-77475628D01*
X184147679Y-76846364D01*
X183326519Y-76505389D01*
X182437381Y-76504613D01*
X181615628Y-76844155D01*
X180986364Y-77472321D01*
X180645389Y-78293481D01*
X180644613Y-79182619D01*
X179780000Y-79182619D01*
X179780000Y-72760000D01*
X184507560Y-72760000D01*
X184507560Y-74560000D01*
X184551838Y-74795317D01*
X184690910Y-75011441D01*
X184903110Y-75156431D01*
X185155000Y-75207440D01*
X186955000Y-75207440D01*
X187190317Y-75163162D01*
X187406441Y-75024090D01*
X187545598Y-74820426D01*
X187579890Y-74854718D01*
X187694447Y-74740161D01*
X187780852Y-74996643D01*
X188354336Y-75206458D01*
X188964460Y-75180839D01*
X189409148Y-74996643D01*
X189495554Y-74740159D01*
X188595000Y-73839605D01*
X188580858Y-73853748D01*
X188401253Y-73674143D01*
X188415395Y-73660000D01*
X188401253Y-73645858D01*
X188580858Y-73466253D01*
X188595000Y-73480395D01*
X189495554Y-72579841D01*
X189430925Y-72388000D01*
X189677198Y-72388000D01*
X189956609Y-72667411D01*
X189834449Y-72789357D01*
X189825797Y-72810194D01*
X189675159Y-72759446D01*
X188774605Y-73660000D01*
X189675159Y-74560554D01*
X189825327Y-74509965D01*
X189832932Y-74528371D01*
X190264357Y-74960551D01*
X190828330Y-75194733D01*
X191438991Y-75195265D01*
X192003371Y-74962068D01*
X192435551Y-74530643D01*
X192669733Y-73966670D01*
X192670265Y-73356009D01*
X192437068Y-72791629D01*
X192005643Y-72359449D01*
X191650984Y-72212182D01*
X190935732Y-71496930D01*
X192134490Y-71496930D01*
X192369807Y-71452652D01*
X192585931Y-71313580D01*
X192730921Y-71101380D01*
X192781930Y-70849490D01*
X192781930Y-70666732D01*
X197457560Y-75342362D01*
X197457560Y-75760000D01*
X197501838Y-75995317D01*
X197640910Y-76211441D01*
X197853110Y-76356431D01*
X198105000Y-76407440D01*
X199405000Y-76407440D01*
X199640317Y-76363162D01*
X199856441Y-76224090D01*
X200001431Y-76011890D01*
X200052440Y-75760000D01*
X200052440Y-74260000D01*
X200008162Y-74024683D01*
X199869090Y-73808559D01*
X199656890Y-73663569D01*
X199643803Y-73660919D01*
X199856441Y-73524090D01*
X200001431Y-73311890D01*
X200052440Y-73060000D01*
X200052440Y-71560000D01*
X200008162Y-71324683D01*
X199869090Y-71108559D01*
X199656890Y-70963569D01*
X199515000Y-70934836D01*
X199515000Y-70485000D01*
X199457148Y-70194161D01*
X199292401Y-69947599D01*
X197924802Y-68580000D01*
X218830907Y-68580000D01*
X218943946Y-69148285D01*
X219265853Y-69630054D01*
X219595026Y-69850000D01*
X219265853Y-70069946D01*
X218943946Y-70551715D01*
X218830907Y-71120000D01*
X218943946Y-71688285D01*
X219265853Y-72170054D01*
X219747622Y-72491961D01*
X220315907Y-72605000D01*
X220374093Y-72605000D01*
X220942378Y-72491961D01*
X221424147Y-72170054D01*
X221746054Y-71688285D01*
X221859093Y-71120000D01*
X221746054Y-70551715D01*
X221424147Y-70069946D01*
X221094974Y-69850000D01*
X221424147Y-69630054D01*
X221746054Y-69148285D01*
X221859093Y-68580000D01*
X221746054Y-68011715D01*
X221424147Y-67529946D01*
X221083447Y-67302298D01*
X221226358Y-67235183D01*
X221616645Y-66806924D01*
X221786476Y-66396890D01*
X221665155Y-66167000D01*
X220472000Y-66167000D01*
X220472000Y-66187000D01*
X220218000Y-66187000D01*
X220218000Y-66167000D01*
X219024845Y-66167000D01*
X218903524Y-66396890D01*
X219073355Y-66806924D01*
X219463642Y-67235183D01*
X219606553Y-67302298D01*
X219265853Y-67529946D01*
X218943946Y-68011715D01*
X218830907Y-68580000D01*
X197924802Y-68580000D01*
X197589894Y-68245092D01*
X197670167Y-68245162D01*
X198013943Y-68103117D01*
X198047118Y-68070000D01*
X211527537Y-68070000D01*
X211559673Y-68102192D01*
X211903201Y-68244838D01*
X212275167Y-68245162D01*
X212618943Y-68103117D01*
X212882192Y-67840327D01*
X213024838Y-67496799D01*
X213025162Y-67124833D01*
X212883117Y-66781057D01*
X212620327Y-66517808D01*
X212276799Y-66375162D01*
X211904833Y-66374838D01*
X211561057Y-66516883D01*
X211527882Y-66550000D01*
X198047463Y-66550000D01*
X198015327Y-66517808D01*
X197671799Y-66375162D01*
X197299833Y-66374838D01*
X196956057Y-66516883D01*
X196692808Y-66779673D01*
X196550162Y-67123201D01*
X196550090Y-67205288D01*
X195197000Y-65852198D01*
X195197000Y-65784000D01*
X200980000Y-65784000D01*
X201270839Y-65726148D01*
X201517401Y-65561401D01*
X202090000Y-64988802D01*
X202662599Y-65561401D01*
X202909161Y-65726148D01*
X203200000Y-65784000D01*
X216916000Y-65784000D01*
X217206839Y-65726148D01*
X217453401Y-65561401D01*
X218754802Y-64260000D01*
X219072046Y-64260000D01*
X219265853Y-64550054D01*
X219606553Y-64777702D01*
X219463642Y-64844817D01*
X219073355Y-65273076D01*
X218903524Y-65683110D01*
X219024845Y-65913000D01*
X220218000Y-65913000D01*
X220218000Y-65893000D01*
X220472000Y-65893000D01*
X220472000Y-65913000D01*
X221665155Y-65913000D01*
X221786476Y-65683110D01*
X221616645Y-65273076D01*
X221226358Y-64844817D01*
X221083447Y-64777702D01*
X221424147Y-64550054D01*
X221746054Y-64068285D01*
X221859093Y-63500000D01*
X221746054Y-62931715D01*
X221424147Y-62449946D01*
X221382548Y-62422150D01*
X221430317Y-62413162D01*
X221646441Y-62274090D01*
X221791431Y-62061890D01*
X221842440Y-61810000D01*
X221842440Y-60110000D01*
X221798162Y-59874683D01*
X221659090Y-59658559D01*
X221446890Y-59513569D01*
X221195000Y-59462560D01*
X219495000Y-59462560D01*
X219259683Y-59506838D01*
X219043559Y-59645910D01*
X218898569Y-59858110D01*
X218847560Y-60110000D01*
X218847560Y-61810000D01*
X218891838Y-62045317D01*
X219030910Y-62261441D01*
X219243110Y-62406431D01*
X219310541Y-62420086D01*
X219265853Y-62449946D01*
X219072046Y-62740000D01*
X218440000Y-62740000D01*
X218197414Y-62788254D01*
X218149160Y-62797852D01*
X217902599Y-62962599D01*
X216601198Y-64264000D01*
X215669025Y-64264000D01*
X215833327Y-64099699D01*
X215930000Y-63866310D01*
X215930000Y-61245750D01*
X215771250Y-61087000D01*
X214122000Y-61087000D01*
X214122000Y-61107000D01*
X213868000Y-61107000D01*
X213868000Y-61087000D01*
X212218750Y-61087000D01*
X212060000Y-61245750D01*
X212060000Y-63866310D01*
X212156673Y-64099699D01*
X212320975Y-64264000D01*
X207448338Y-64264000D01*
X207541441Y-64204090D01*
X207686431Y-63991890D01*
X207737440Y-63740000D01*
X207737440Y-61739938D01*
X207749673Y-61752192D01*
X208093201Y-61894838D01*
X208465167Y-61895162D01*
X208808943Y-61753117D01*
X209072192Y-61490327D01*
X209214838Y-61146799D01*
X209215162Y-60774833D01*
X209073117Y-60431057D01*
X208810327Y-60167808D01*
X208466799Y-60025162D01*
X208094833Y-60024838D01*
X207751057Y-60166883D01*
X207737440Y-60180476D01*
X207737440Y-58180000D01*
X207713674Y-58053690D01*
X212060000Y-58053690D01*
X212060000Y-60674250D01*
X212218750Y-60833000D01*
X213868000Y-60833000D01*
X213868000Y-57703750D01*
X214122000Y-57703750D01*
X214122000Y-60833000D01*
X215771250Y-60833000D01*
X215930000Y-60674250D01*
X215930000Y-58053690D01*
X215833327Y-57820301D01*
X215654698Y-57641673D01*
X215421309Y-57545000D01*
X214280750Y-57545000D01*
X214122000Y-57703750D01*
X213868000Y-57703750D01*
X213709250Y-57545000D01*
X212568691Y-57545000D01*
X212335302Y-57641673D01*
X212156673Y-57820301D01*
X212060000Y-58053690D01*
X207713674Y-58053690D01*
X207693162Y-57944683D01*
X207554090Y-57728559D01*
X207341890Y-57583569D01*
X207090000Y-57532560D01*
X202850000Y-57532560D01*
X202850000Y-54256802D01*
X204482680Y-52624122D01*
X204528167Y-52624162D01*
X204871943Y-52482117D01*
X205135192Y-52219327D01*
X205277838Y-51875799D01*
X205278162Y-51503833D01*
X205136117Y-51160057D01*
X204873327Y-50896808D01*
X204529799Y-50754162D01*
X204157833Y-50753838D01*
X203814057Y-50895883D01*
X203550808Y-51158673D01*
X203408162Y-51502201D01*
X203408121Y-51549077D01*
X201552599Y-53404599D01*
X201387852Y-53651161D01*
X201330000Y-53942000D01*
X201330000Y-57532560D01*
X197090000Y-57532560D01*
X196854683Y-57576838D01*
X196638559Y-57715910D01*
X196493569Y-57928110D01*
X196442560Y-58180000D01*
X196442560Y-63740000D01*
X196486838Y-63975317D01*
X196625910Y-64191441D01*
X196732104Y-64264000D01*
X191859025Y-64264000D01*
X192023327Y-64099699D01*
X192120000Y-63866310D01*
X192120000Y-61245750D01*
X191961250Y-61087000D01*
X190312000Y-61087000D01*
X190312000Y-61107000D01*
X190058000Y-61107000D01*
X190058000Y-61087000D01*
X188408750Y-61087000D01*
X188250000Y-61245750D01*
X188250000Y-63866310D01*
X188346673Y-64099699D01*
X188525302Y-64278327D01*
X188758691Y-64375000D01*
X189113619Y-64375000D01*
X188946599Y-64486599D01*
X187930599Y-65502599D01*
X187765852Y-65749161D01*
X187708000Y-66040000D01*
X187708000Y-71120000D01*
X187765852Y-71410839D01*
X187930599Y-71657401D01*
X188404831Y-72131633D01*
X188225540Y-72139161D01*
X187780852Y-72323357D01*
X187694447Y-72579839D01*
X187579890Y-72465282D01*
X187543412Y-72501760D01*
X187419090Y-72308559D01*
X187206890Y-72163569D01*
X186955000Y-72112560D01*
X185155000Y-72112560D01*
X184919683Y-72156838D01*
X184703559Y-72295910D01*
X184558569Y-72508110D01*
X184507560Y-72760000D01*
X179780000Y-72760000D01*
X179780000Y-68850510D01*
X184408070Y-68850510D01*
X184408070Y-70849490D01*
X184452348Y-71084807D01*
X184591420Y-71300931D01*
X184803620Y-71445921D01*
X185055510Y-71496930D01*
X187054490Y-71496930D01*
X187289807Y-71452652D01*
X187505931Y-71313580D01*
X187650921Y-71101380D01*
X187701930Y-70849490D01*
X187701930Y-68850510D01*
X187657652Y-68615193D01*
X187518580Y-68399069D01*
X187306380Y-68254079D01*
X187054490Y-68203070D01*
X186815000Y-68203070D01*
X186815000Y-65967463D01*
X186847192Y-65935327D01*
X186989838Y-65591799D01*
X186990162Y-65219833D01*
X186848117Y-64876057D01*
X186585327Y-64612808D01*
X186241799Y-64470162D01*
X185869833Y-64469838D01*
X185526057Y-64611883D01*
X185262808Y-64874673D01*
X185120162Y-65218201D01*
X185119838Y-65590167D01*
X185261883Y-65933943D01*
X185295000Y-65967118D01*
X185295000Y-68203070D01*
X185055510Y-68203070D01*
X184820193Y-68247348D01*
X184604069Y-68386420D01*
X184459079Y-68598620D01*
X184408070Y-68850510D01*
X179780000Y-68850510D01*
X179780000Y-58053690D01*
X188250000Y-58053690D01*
X188250000Y-60674250D01*
X188408750Y-60833000D01*
X190058000Y-60833000D01*
X190058000Y-57703750D01*
X190312000Y-57703750D01*
X190312000Y-60833000D01*
X191961250Y-60833000D01*
X192120000Y-60674250D01*
X192120000Y-58053690D01*
X192023327Y-57820301D01*
X191844698Y-57641673D01*
X191611309Y-57545000D01*
X190470750Y-57545000D01*
X190312000Y-57703750D01*
X190058000Y-57703750D01*
X189899250Y-57545000D01*
X188758691Y-57545000D01*
X188525302Y-57641673D01*
X188346673Y-57820301D01*
X188250000Y-58053690D01*
X179780000Y-58053690D01*
X179780000Y-43622619D01*
X180644613Y-43622619D01*
X180984155Y-44444372D01*
X181612321Y-45073636D01*
X182433481Y-45414611D01*
X183322619Y-45415387D01*
X184144372Y-45075845D01*
X184773636Y-44447679D01*
X185012193Y-43873167D01*
X189691838Y-43873167D01*
X189833883Y-44216943D01*
X190096673Y-44480192D01*
X190440201Y-44622838D01*
X190812167Y-44623162D01*
X191155943Y-44481117D01*
X191189118Y-44448000D01*
X197557537Y-44448000D01*
X197589673Y-44480192D01*
X197933201Y-44622838D01*
X198305167Y-44623162D01*
X198648943Y-44481117D01*
X198682118Y-44448000D01*
X203780537Y-44448000D01*
X203812673Y-44480192D01*
X204156201Y-44622838D01*
X204528167Y-44623162D01*
X204871943Y-44481117D01*
X204905118Y-44448000D01*
X208225537Y-44448000D01*
X208257673Y-44480192D01*
X208601201Y-44622838D01*
X208973167Y-44623162D01*
X209316943Y-44481117D01*
X209580192Y-44218327D01*
X209722838Y-43874799D01*
X209723057Y-43622619D01*
X218109613Y-43622619D01*
X218449155Y-44444372D01*
X219077321Y-45073636D01*
X219898481Y-45414611D01*
X220787619Y-45415387D01*
X221609372Y-45075845D01*
X222238636Y-44447679D01*
X222579611Y-43626519D01*
X222580387Y-42737381D01*
X222240845Y-41915628D01*
X221612679Y-41286364D01*
X220791519Y-40945389D01*
X219902381Y-40944613D01*
X219080628Y-41284155D01*
X218451364Y-41912321D01*
X218110389Y-42733481D01*
X218109613Y-43622619D01*
X209723057Y-43622619D01*
X209723162Y-43502833D01*
X209581117Y-43159057D01*
X209318327Y-42895808D01*
X208974799Y-42753162D01*
X208602833Y-42752838D01*
X208259057Y-42894883D01*
X208225882Y-42928000D01*
X204905463Y-42928000D01*
X204873327Y-42895808D01*
X204529799Y-42753162D01*
X204157833Y-42752838D01*
X203814057Y-42894883D01*
X203780882Y-42928000D01*
X198682463Y-42928000D01*
X198650327Y-42895808D01*
X198306799Y-42753162D01*
X197934833Y-42752838D01*
X197591057Y-42894883D01*
X197557882Y-42928000D01*
X191189463Y-42928000D01*
X191157327Y-42895808D01*
X190813799Y-42753162D01*
X190441833Y-42752838D01*
X190098057Y-42894883D01*
X189834808Y-43157673D01*
X189692162Y-43501201D01*
X189691838Y-43873167D01*
X185012193Y-43873167D01*
X185114611Y-43626519D01*
X185115387Y-42737381D01*
X184775845Y-41915628D01*
X184147679Y-41286364D01*
X183326519Y-40945389D01*
X182437381Y-40944613D01*
X181615628Y-41284155D01*
X180986364Y-41912321D01*
X180645389Y-42733481D01*
X180644613Y-43622619D01*
X179780000Y-43622619D01*
X179780000Y-40080000D01*
X223290000Y-40080000D01*
X223290000Y-81840000D01*
M02*
