G04 #@! TF.FileFunction,Soldermask,Top*
%FSLAX46Y46*%
G04 Gerber Fmt 4.6, Leading zero omitted, Abs format (unit mm)*
G04 Created by KiCad (PCBNEW 4.0.6+dfsg1-1) date Fri Mar  9 15:20:54 2018*
%MOMM*%
%LPD*%
G01*
G04 APERTURE LIST*
%ADD10C,0.100000*%
%ADD11R,1.400000X1.650000*%
%ADD12R,1.650000X1.400000*%
%ADD13R,1.600000X1.600000*%
%ADD14R,2.200000X2.200000*%
%ADD15C,2.200000*%
%ADD16R,2.100000X2.100000*%
%ADD17O,2.100000X2.100000*%
%ADD18R,1.700000X1.900000*%
%ADD19R,1.950000X1.700000*%
%ADD20R,2.400000X1.000000*%
%ADD21C,3.600000*%
G04 APERTURE END LIST*
D10*
D11*
X208550000Y-64770000D03*
X210550000Y-64770000D03*
X208550000Y-68580000D03*
X210550000Y-68580000D03*
D12*
X181610000Y-69485000D03*
X181610000Y-71485000D03*
D13*
X208745000Y-45720000D03*
X206545000Y-45720000D03*
X211625000Y-45720000D03*
X213825000Y-45720000D03*
X206545000Y-49530000D03*
X208745000Y-49530000D03*
X213825000Y-49530000D03*
X211625000Y-49530000D03*
X190670000Y-45720000D03*
X192870000Y-45720000D03*
X197950000Y-45720000D03*
X195750000Y-45720000D03*
X192870000Y-49530000D03*
X190670000Y-49530000D03*
X195750000Y-49530000D03*
X197950000Y-49530000D03*
D14*
X204470000Y-78740000D03*
D15*
X201930000Y-78740000D03*
D16*
X220345000Y-60960000D03*
D17*
X220345000Y-63500000D03*
X220345000Y-66040000D03*
X220345000Y-68580000D03*
X220345000Y-71120000D03*
D18*
X207645000Y-54530000D03*
X207645000Y-57230000D03*
X190500000Y-54530000D03*
X190500000Y-57230000D03*
X212725000Y-54530000D03*
X212725000Y-57230000D03*
X195580000Y-54530000D03*
X195580000Y-57230000D03*
X198120000Y-77390000D03*
X198120000Y-80090000D03*
D19*
X181440000Y-67020000D03*
X181440000Y-62520000D03*
X189400000Y-62520000D03*
X189400000Y-67020000D03*
D20*
X194690000Y-63500000D03*
X194690000Y-64770000D03*
X194690000Y-66040000D03*
X194690000Y-67310000D03*
X194690000Y-68580000D03*
X194690000Y-69850000D03*
X194690000Y-71120000D03*
X194690000Y-72390000D03*
X194690000Y-73660000D03*
X204090000Y-73660000D03*
X204090000Y-72390000D03*
X204090000Y-71120000D03*
X204090000Y-69850000D03*
X204090000Y-68580000D03*
X204090000Y-67310000D03*
X204090000Y-66040000D03*
X204090000Y-64770000D03*
X204090000Y-63500000D03*
D14*
X186055000Y-73660000D03*
D15*
X188595000Y-73660000D03*
X191135000Y-73660000D03*
D21*
X220345000Y-43180000D03*
X220345000Y-78740000D03*
X182880000Y-43180000D03*
X182880000Y-78740000D03*
M02*
