M48
;DRILL file {KiCad 4.0.6+dfsg1-1} date Fri Mar  9 15:21:01 2018
;FORMAT={-:-/ absolute / inch / decimal}
FMAT,2
INCH,TZ
T1C0.016
T2C0.035
T3C0.039
%
G90
G05
M72
T1
X7.18Y-1.95
X7.18Y-2.145
X7.325Y-2.575
X7.505Y-1.72
X7.775Y-2.65
X7.8Y-1.72
X7.85Y-2.74
X7.88Y-2.11
X7.965Y-1.95
X8.045Y-1.72
X8.045Y-2.035
X8.045Y-2.11
X8.2Y-2.4
X8.22Y-1.72
X8.275Y-1.95
X8.275Y-2.03
X8.275Y-2.11
X8.35Y-2.65
T2
X7.325Y-2.9
X7.425Y-2.9
X7.525Y-2.9
X7.95Y-3.1
X8.05Y-3.1
T3
X8.675Y-2.4
X8.675Y-2.5
X8.675Y-2.6
X8.675Y-2.7
X8.675Y-2.8
T0
M30
