G04 #@! TF.FileFunction,Soldermask,Top*
%FSLAX46Y46*%
G04 Gerber Fmt 4.6, Leading zero omitted, Abs format (unit mm)*
G04 Created by KiCad (PCBNEW 4.0.7) date Thursday, May 03, 2018 'AMt' 10:03:59 AM*
%MOMM*%
%LPD*%
G01*
G04 APERTURE LIST*
%ADD10C,0.100000*%
%ADD11R,1.650000X1.400000*%
%ADD12R,2.200000X2.200000*%
%ADD13C,2.200000*%
%ADD14R,2.100000X2.100000*%
%ADD15O,2.100000X2.100000*%
%ADD16R,1.950000X1.700000*%
%ADD17C,3.600000*%
G04 APERTURE END LIST*
D10*
D11*
X93210000Y-118900000D03*
X93210000Y-116900000D03*
D10*
G36*
X87276313Y-125901211D02*
X87888178Y-124424038D01*
X89365351Y-125035903D01*
X88753486Y-126513076D01*
X87276313Y-125901211D01*
X87276313Y-125901211D01*
G37*
G36*
X89214649Y-126704097D02*
X89826514Y-125226924D01*
X91303687Y-125838789D01*
X90691822Y-127315962D01*
X89214649Y-126704097D01*
X89214649Y-126704097D01*
G37*
G36*
X74098789Y-87276313D02*
X75575962Y-87888178D01*
X74964097Y-89365351D01*
X73486924Y-88753486D01*
X74098789Y-87276313D01*
X74098789Y-87276313D01*
G37*
G36*
X73295903Y-89214649D02*
X74773076Y-89826514D01*
X74161211Y-91303687D01*
X72684038Y-90691822D01*
X73295903Y-89214649D01*
X73295903Y-89214649D01*
G37*
G36*
X108706313Y-74161211D02*
X109318178Y-72684038D01*
X110795351Y-73295903D01*
X110183486Y-74773076D01*
X108706313Y-74161211D01*
X108706313Y-74161211D01*
G37*
G36*
X110644649Y-74964097D02*
X111256514Y-73486924D01*
X112733687Y-74098789D01*
X112121822Y-75575962D01*
X110644649Y-74964097D01*
X110644649Y-74964097D01*
G37*
G36*
X90681822Y-72684038D02*
X91293687Y-74161211D01*
X89816514Y-74773076D01*
X89204649Y-73295903D01*
X90681822Y-72684038D01*
X90681822Y-72684038D01*
G37*
G36*
X88743486Y-73486924D02*
X89355351Y-74964097D01*
X87878178Y-75575962D01*
X87266313Y-74098789D01*
X88743486Y-73486924D01*
X88743486Y-73486924D01*
G37*
G36*
X72684038Y-109318178D02*
X74161211Y-108706313D01*
X74773076Y-110183486D01*
X73295903Y-110795351D01*
X72684038Y-109318178D01*
X72684038Y-109318178D01*
G37*
G36*
X73486924Y-111256514D02*
X74964097Y-110644649D01*
X75575962Y-112121822D01*
X74098789Y-112733687D01*
X73486924Y-111256514D01*
X73486924Y-111256514D01*
G37*
G36*
X125838789Y-108696313D02*
X127315962Y-109308178D01*
X126704097Y-110785351D01*
X125226924Y-110173486D01*
X125838789Y-108696313D01*
X125838789Y-108696313D01*
G37*
G36*
X125035903Y-110634649D02*
X126513076Y-111246514D01*
X125901211Y-112723687D01*
X124424038Y-112111822D01*
X125035903Y-110634649D01*
X125035903Y-110634649D01*
G37*
G36*
X124424038Y-87878178D02*
X125901211Y-87266313D01*
X126513076Y-88743486D01*
X125035903Y-89355351D01*
X124424038Y-87878178D01*
X124424038Y-87878178D01*
G37*
G36*
X125226924Y-89816514D02*
X126704097Y-89204649D01*
X127315962Y-90681822D01*
X125838789Y-91293687D01*
X125226924Y-89816514D01*
X125226924Y-89816514D01*
G37*
G36*
X112111822Y-124424038D02*
X112723687Y-125901211D01*
X111246514Y-126513076D01*
X110634649Y-125035903D01*
X112111822Y-124424038D01*
X112111822Y-124424038D01*
G37*
G36*
X110173486Y-125226924D02*
X110785351Y-126704097D01*
X109308178Y-127315962D01*
X108696313Y-125838789D01*
X110173486Y-125226924D01*
X110173486Y-125226924D01*
G37*
D12*
X81000000Y-100000000D03*
D13*
X83540000Y-100000000D03*
D14*
X94940000Y-81750000D03*
D15*
X97480000Y-81750000D03*
X100020000Y-81750000D03*
X102560000Y-81750000D03*
X105100000Y-81750000D03*
D16*
X96025000Y-121450000D03*
X96025000Y-116950000D03*
X103975000Y-116950000D03*
X103975000Y-121450000D03*
D17*
X100000000Y-72200000D03*
D12*
X114800000Y-105000000D03*
D13*
X117340000Y-105000000D03*
X119880000Y-105000000D03*
M02*
