M48
;DRILL file {KiCad 4.0.7} date Thursday, May 03, 2018 'AMt' 10:04:03 AM
;FORMAT={-:-/ absolute / inch / decimal}
FMAT,2
INCH,TZ
T1C0.016
T2C0.035
T3C0.039
%
G90
G05
M72
T1
X2.88Y-3.62
X2.88Y-4.28
X2.98Y-4.47
X3.03Y-3.47
X3.2087Y-4.378
X3.387Y-4.1744
X3.42Y-4.91
X3.448Y-3.6724
X3.4606Y-4.122
X3.47Y-3.28
X3.4713Y-4.2567
X3.56Y-3.33
X3.56Y-3.58
X3.56Y-4.62
X3.61Y-5.01
X3.62Y-2.88
X3.94Y-3.11
X4.25Y-4.82
X4.27Y-2.87
X4.3386Y-3.9449
X4.42Y-3.62
X4.46Y-4.91
X4.4921Y-3.0551
X4.5748Y-4.4606
X4.6181Y-3.9291
X4.72Y-4.3
X4.81Y-4.25
X4.9Y-4.46
X5.01Y-4.26
T2
X3.189Y-3.937
X3.289Y-3.937
X4.5197Y-4.1339
X4.6197Y-4.1339
X4.7197Y-4.1339
T3
X3.7378Y-3.2185
X3.8378Y-3.2185
X3.9378Y-3.2185
X4.0378Y-3.2185
X4.1378Y-3.2185
T0
M30
