G04 #@! TF.FileFunction,Copper,L2,Bot,Signal*
%FSLAX46Y46*%
G04 Gerber Fmt 4.6, Leading zero omitted, Abs format (unit mm)*
G04 Created by KiCad (PCBNEW 4.0.7) date Thursday, May 03, 2018 'AMt' 10:41:57 AM*
%MOMM*%
%LPD*%
G01*
G04 APERTURE LIST*
%ADD10C,0.100000*%
%ADD11R,2.600000X5.560000*%
%ADD12R,10.000000X5.560000*%
%ADD13R,1.000000X1.250000*%
%ADD14R,1.250000X1.000000*%
%ADD15R,1.800000X1.800000*%
%ADD16C,1.800000*%
%ADD17R,1.300000X1.500000*%
%ADD18R,1.500000X1.300000*%
%ADD19R,2.000000X0.600000*%
%ADD20R,2.100000X5.600000*%
%ADD21C,0.600000*%
%ADD22C,0.250000*%
%ADD23C,0.254000*%
G04 APERTURE END LIST*
D10*
D11*
X88095000Y-115000000D03*
D12*
X100000000Y-115000000D03*
D11*
X111905000Y-115000000D03*
D13*
X96000000Y-78000000D03*
X98000000Y-78000000D03*
X102000000Y-78000000D03*
X104000000Y-78000000D03*
D14*
X121610000Y-95570000D03*
X121610000Y-93570000D03*
X121610000Y-86060000D03*
X121610000Y-84060000D03*
D15*
X81000000Y-100000000D03*
D16*
X83540000Y-100000000D03*
D17*
X106350000Y-73700000D03*
X106350000Y-76400000D03*
D18*
X78700000Y-113500000D03*
X81400000Y-113500000D03*
X78700000Y-86640000D03*
X81400000Y-86640000D03*
X121260000Y-113320000D03*
X118560000Y-113320000D03*
X78700000Y-106030000D03*
X81400000Y-106030000D03*
D17*
X83610000Y-93910000D03*
X83610000Y-96610000D03*
D19*
X95300000Y-97080000D03*
X95300000Y-95810000D03*
X95300000Y-94540000D03*
X95300000Y-93270000D03*
X95300000Y-92000000D03*
X95300000Y-90730000D03*
X95300000Y-89460000D03*
X95300000Y-88190000D03*
X95300000Y-86920000D03*
X104700000Y-86920000D03*
X104700000Y-88190000D03*
X104700000Y-89460000D03*
X104700000Y-90730000D03*
X104700000Y-92000000D03*
X104700000Y-93270000D03*
X104700000Y-94540000D03*
X104700000Y-95810000D03*
X104700000Y-97080000D03*
D20*
X117000000Y-95750000D03*
X117000000Y-86250000D03*
D15*
X114800000Y-105000000D03*
D16*
X117340000Y-105000000D03*
X119880000Y-105000000D03*
X94930000Y-81740000D03*
X97470000Y-81740000D03*
X100010000Y-81740000D03*
X102550000Y-81740000D03*
X105090000Y-81740000D03*
D21*
X100076000Y-78994000D03*
X90424000Y-84582000D03*
X90424000Y-90932000D03*
X76962000Y-88138000D03*
X112268000Y-91948000D03*
X90424000Y-117348000D03*
X86868000Y-124714000D03*
X73152000Y-108712000D03*
X119888000Y-109220000D03*
X127254000Y-108204000D03*
X88138000Y-83312000D03*
X86030000Y-106030000D03*
X87580000Y-93280000D03*
X108458000Y-72898000D03*
X107950000Y-122428000D03*
X91694000Y-127254000D03*
X73152000Y-91948000D03*
X91948000Y-73152000D03*
X122174000Y-107950000D03*
X75692000Y-113538000D03*
X113284000Y-124714000D03*
X124460000Y-113284000D03*
X114100000Y-77600000D03*
X117300000Y-99800000D03*
X81500000Y-111200000D03*
X87900000Y-104700000D03*
X116200000Y-113300000D03*
X110200000Y-100200000D03*
D22*
X99484264Y-77978000D02*
X99462264Y-78000000D01*
X99462264Y-78000000D02*
X98000000Y-78000000D01*
X100076000Y-78994000D02*
X100076000Y-78569736D01*
X100076000Y-78569736D02*
X99484264Y-77978000D01*
X95300000Y-92000000D02*
X91492000Y-92000000D01*
X91492000Y-92000000D02*
X90424000Y-90932000D01*
X74310000Y-106030000D02*
X76708000Y-106030000D01*
X76662001Y-105984001D02*
X76708000Y-106030000D01*
X76708000Y-106030000D02*
X78700000Y-106030000D01*
X76962000Y-88138000D02*
X76662001Y-88437999D01*
X76662001Y-88437999D02*
X76662001Y-105984001D01*
X79248000Y-107696000D02*
X78700000Y-107148000D01*
X78700000Y-107148000D02*
X78700000Y-106030000D01*
X84074000Y-107696000D02*
X79248000Y-107696000D01*
X104700000Y-92000000D02*
X112216000Y-92000000D01*
X112216000Y-92000000D02*
X112268000Y-91948000D01*
X99568000Y-85090000D02*
X97480000Y-83002000D01*
X97480000Y-83002000D02*
X97480000Y-81750000D01*
X99568000Y-89408000D02*
X99568000Y-85090000D01*
X102160000Y-92000000D02*
X99568000Y-89408000D01*
X104700000Y-92000000D02*
X102160000Y-92000000D01*
X90424000Y-115570000D02*
X89854000Y-115000000D01*
X89854000Y-115000000D02*
X88095000Y-115000000D01*
X90424000Y-117348000D02*
X90424000Y-115570000D01*
X110998000Y-120142000D02*
X111905000Y-119235000D01*
X111905000Y-119235000D02*
X111905000Y-115000000D01*
X107442000Y-120142000D02*
X110998000Y-120142000D01*
X103886000Y-123698000D02*
X107442000Y-120142000D01*
X87884000Y-123698000D02*
X103886000Y-123698000D01*
X86868000Y-124714000D02*
X87884000Y-123698000D01*
X73152000Y-108712000D02*
X73152000Y-107188000D01*
X73152000Y-107188000D02*
X74310000Y-106030000D01*
X85090000Y-108712000D02*
X84074000Y-107696000D01*
X85090000Y-113545000D02*
X85090000Y-108712000D01*
X88095000Y-115000000D02*
X86545000Y-115000000D01*
X86545000Y-115000000D02*
X85090000Y-113545000D01*
X117501000Y-111607000D02*
X119888000Y-109220000D01*
X112268000Y-111607000D02*
X117501000Y-111607000D01*
X111905000Y-115000000D02*
X111905000Y-111970000D01*
X111905000Y-111970000D02*
X112268000Y-111607000D01*
X127254000Y-108204000D02*
X127254000Y-105918000D01*
X127254000Y-105918000D02*
X126238000Y-104902000D01*
X126238000Y-104902000D02*
X119978000Y-104902000D01*
X119978000Y-104902000D02*
X119880000Y-105000000D01*
X97480000Y-81750000D02*
X97480000Y-80208000D01*
X97480000Y-80208000D02*
X96000000Y-78728000D01*
X96000000Y-78728000D02*
X96000000Y-78000000D01*
X102000000Y-78000000D02*
X102000000Y-77125000D01*
X102000000Y-77125000D02*
X101275000Y-76400000D01*
X101275000Y-76400000D02*
X96500000Y-76400000D01*
X96500000Y-76400000D02*
X96000000Y-76900000D01*
X96000000Y-76900000D02*
X96000000Y-78000000D01*
X83602000Y-106030000D02*
X81400000Y-106030000D01*
X88138000Y-83312000D02*
X89700000Y-81750000D01*
X89700000Y-81750000D02*
X94940000Y-81750000D01*
X86030000Y-106030000D02*
X83602000Y-106030000D01*
X94050000Y-93270000D02*
X87590000Y-93270000D01*
X87590000Y-93270000D02*
X87580000Y-93280000D01*
X95300000Y-93270000D02*
X94050000Y-93270000D01*
X108458000Y-72898000D02*
X107152000Y-72898000D01*
X107152000Y-72898000D02*
X106350000Y-73700000D01*
X104140000Y-125476000D02*
X104902000Y-125476000D01*
X104902000Y-125476000D02*
X107950000Y-122428000D01*
X94488000Y-125476000D02*
X104140000Y-125476000D01*
X92710000Y-127254000D02*
X94488000Y-125476000D01*
X91694000Y-127254000D02*
X92710000Y-127254000D01*
X74930000Y-87884000D02*
X76174000Y-86640000D01*
X76174000Y-86640000D02*
X78700000Y-86640000D01*
X74930000Y-90170000D02*
X74930000Y-87884000D01*
X73152000Y-91948000D02*
X74930000Y-90170000D01*
X91288000Y-73152000D02*
X91948000Y-73152000D01*
X78700000Y-86640000D02*
X78700000Y-85740000D01*
X78700000Y-85740000D02*
X91288000Y-73152000D01*
X122174000Y-107950000D02*
X111506000Y-107950000D01*
X111506000Y-107950000D02*
X107696000Y-111760000D01*
X107696000Y-111760000D02*
X107696000Y-117602000D01*
X107696000Y-117602000D02*
X106172000Y-119126000D01*
X106172000Y-119126000D02*
X81788000Y-119126000D01*
X81788000Y-119126000D02*
X78700000Y-116038000D01*
X78700000Y-116038000D02*
X78700000Y-113500000D01*
X75692000Y-113538000D02*
X78662000Y-113538000D01*
X78662000Y-113538000D02*
X78700000Y-113500000D01*
X121260000Y-113320000D02*
X121260000Y-116738000D01*
X121260000Y-116738000D02*
X113284000Y-124714000D01*
X121260000Y-113320000D02*
X124424000Y-113320000D01*
X124424000Y-113320000D02*
X124460000Y-113284000D01*
X83540000Y-100000000D02*
X83540000Y-96680000D01*
X83540000Y-96680000D02*
X83610000Y-96610000D01*
X104700000Y-90730000D02*
X102760000Y-90730000D01*
X102760000Y-90730000D02*
X101200000Y-89170000D01*
X101200000Y-89170000D02*
X101200000Y-83110000D01*
X101200000Y-83110000D02*
X102560000Y-81750000D01*
X104700000Y-89460000D02*
X102830000Y-89460000D01*
X102830000Y-89460000D02*
X102470000Y-89100000D01*
X102470000Y-89100000D02*
X102470000Y-84380000D01*
X102470000Y-84380000D02*
X105100000Y-81750000D01*
X114100000Y-77600000D02*
X112900000Y-76400000D01*
X112900000Y-76400000D02*
X106350000Y-76400000D01*
X110810000Y-95810000D02*
X114800000Y-99800000D01*
X114800000Y-99800000D02*
X117300000Y-99800000D01*
X104700000Y-95810000D02*
X110810000Y-95810000D01*
X81500000Y-111200000D02*
X81500000Y-113470000D01*
X81500000Y-113470000D02*
X81470000Y-113500000D01*
X87800000Y-98200000D02*
X87800000Y-104400000D01*
X87800000Y-104400000D02*
X87800000Y-104600000D01*
X87900000Y-104700000D02*
X87900000Y-104500000D01*
X87900000Y-104500000D02*
X87800000Y-104400000D01*
X88900000Y-97100000D02*
X87800000Y-98200000D01*
X94030000Y-97100000D02*
X88900000Y-97100000D01*
X95300000Y-97080000D02*
X94050000Y-97080000D01*
X94050000Y-97080000D02*
X94030000Y-97100000D01*
X116200000Y-113300000D02*
X118540000Y-113300000D01*
X118540000Y-113300000D02*
X118560000Y-113320000D01*
X97300000Y-98800000D02*
X98700000Y-100200000D01*
X98700000Y-100200000D02*
X110200000Y-100200000D01*
X97300000Y-96300000D02*
X97300000Y-98800000D01*
X96800000Y-95800000D02*
X97300000Y-96300000D01*
X96010000Y-95800000D02*
X96800000Y-95800000D01*
X95300000Y-95810000D02*
X96000000Y-95810000D01*
X96000000Y-95810000D02*
X96010000Y-95800000D01*
X85910000Y-88190000D02*
X83610000Y-90490000D01*
X83610000Y-90490000D02*
X83610000Y-93910000D01*
X95300000Y-88190000D02*
X85910000Y-88190000D01*
X95300000Y-90730000D02*
X97830000Y-90730000D01*
X114800000Y-102800000D02*
X114800000Y-105000000D01*
X97830000Y-90730000D02*
X98900000Y-91800000D01*
X98900000Y-91800000D02*
X98900000Y-97200000D01*
X98900000Y-97200000D02*
X100500000Y-98800000D01*
X100500000Y-98800000D02*
X110800000Y-98800000D01*
X110800000Y-98800000D02*
X114800000Y-102800000D01*
X117000000Y-95750000D02*
X121430000Y-95750000D01*
X121430000Y-95750000D02*
X121610000Y-95570000D01*
X104700000Y-94540000D02*
X115790000Y-94540000D01*
X115790000Y-94540000D02*
X117000000Y-95750000D01*
X121610000Y-86060000D02*
X117190000Y-86060000D01*
X117190000Y-86060000D02*
X117000000Y-86250000D01*
X113890000Y-93270000D02*
X117000000Y-90160000D01*
X117000000Y-90160000D02*
X117000000Y-86250000D01*
X104700000Y-93270000D02*
X113890000Y-93270000D01*
X95300000Y-86920000D02*
X81680000Y-86920000D01*
X81680000Y-86920000D02*
X81400000Y-86640000D01*
D23*
G36*
X98343598Y-71091135D02*
X98045340Y-71809420D01*
X98044661Y-72587168D01*
X98341665Y-73305972D01*
X98891135Y-73856402D01*
X99609420Y-74154660D01*
X100387168Y-74155339D01*
X101105972Y-73858335D01*
X101656402Y-73308865D01*
X101805415Y-72950000D01*
X105338046Y-72950000D01*
X105338046Y-74450000D01*
X105362800Y-74581555D01*
X105440549Y-74702380D01*
X105559180Y-74783437D01*
X105700000Y-74811954D01*
X107000000Y-74811954D01*
X107131555Y-74787200D01*
X107252380Y-74709451D01*
X107333437Y-74590820D01*
X107361954Y-74450000D01*
X107361954Y-73378000D01*
X108011660Y-73378000D01*
X108086488Y-73452958D01*
X108327141Y-73552886D01*
X108587716Y-73553113D01*
X108828543Y-73453606D01*
X109012958Y-73269512D01*
X109112886Y-73028859D01*
X109113113Y-72768284D01*
X109013606Y-72527457D01*
X108829512Y-72343042D01*
X108588859Y-72243114D01*
X108328284Y-72242887D01*
X108087457Y-72342394D01*
X108011719Y-72418000D01*
X107152000Y-72418000D01*
X106968312Y-72454538D01*
X106812589Y-72558589D01*
X106783132Y-72588046D01*
X105700000Y-72588046D01*
X105568445Y-72612800D01*
X105447620Y-72690549D01*
X105366563Y-72809180D01*
X105338046Y-72950000D01*
X101805415Y-72950000D01*
X101954660Y-72590580D01*
X101955339Y-71812832D01*
X101658335Y-71094028D01*
X101242104Y-70677070D01*
X111315949Y-72680882D01*
X120909148Y-79090852D01*
X127319118Y-88684051D01*
X129570000Y-100000000D01*
X127319118Y-111315949D01*
X120909148Y-120909148D01*
X111315949Y-127319118D01*
X100000000Y-129570000D01*
X91649393Y-127908961D01*
X91823716Y-127909113D01*
X92064543Y-127809606D01*
X92140281Y-127734000D01*
X92710000Y-127734000D01*
X92893688Y-127697462D01*
X93049411Y-127593411D01*
X94686822Y-125956000D01*
X104902000Y-125956000D01*
X105085688Y-125919462D01*
X105241411Y-125815411D01*
X106213106Y-124843716D01*
X112628887Y-124843716D01*
X112728394Y-125084543D01*
X112912488Y-125268958D01*
X113153141Y-125368886D01*
X113413716Y-125369113D01*
X113654543Y-125269606D01*
X113838958Y-125085512D01*
X113938886Y-124844859D01*
X113938979Y-124737843D01*
X121599411Y-117077412D01*
X121703462Y-116921688D01*
X121729180Y-116792394D01*
X121740000Y-116738000D01*
X121740000Y-114331954D01*
X122010000Y-114331954D01*
X122141555Y-114307200D01*
X122262380Y-114229451D01*
X122343437Y-114110820D01*
X122371954Y-113970000D01*
X122371954Y-113800000D01*
X124049598Y-113800000D01*
X124088488Y-113838958D01*
X124329141Y-113938886D01*
X124589716Y-113939113D01*
X124830543Y-113839606D01*
X125014958Y-113655512D01*
X125114886Y-113414859D01*
X125115113Y-113154284D01*
X125015606Y-112913457D01*
X124831512Y-112729042D01*
X124590859Y-112629114D01*
X124330284Y-112628887D01*
X124089457Y-112728394D01*
X123977656Y-112840000D01*
X122371954Y-112840000D01*
X122371954Y-112670000D01*
X122347200Y-112538445D01*
X122269451Y-112417620D01*
X122150820Y-112336563D01*
X122010000Y-112308046D01*
X120510000Y-112308046D01*
X120378445Y-112332800D01*
X120257620Y-112410549D01*
X120176563Y-112529180D01*
X120148046Y-112670000D01*
X120148046Y-113970000D01*
X120172800Y-114101555D01*
X120250549Y-114222380D01*
X120369180Y-114303437D01*
X120510000Y-114331954D01*
X120780000Y-114331954D01*
X120780000Y-116539177D01*
X113260199Y-124058979D01*
X113154284Y-124058887D01*
X112913457Y-124158394D01*
X112729042Y-124342488D01*
X112629114Y-124583141D01*
X112628887Y-124843716D01*
X106213106Y-124843716D01*
X107973801Y-123083021D01*
X108079716Y-123083113D01*
X108320543Y-122983606D01*
X108504958Y-122799512D01*
X108604886Y-122558859D01*
X108605113Y-122298284D01*
X108505606Y-122057457D01*
X108321512Y-121873042D01*
X108080859Y-121773114D01*
X107820284Y-121772887D01*
X107579457Y-121872394D01*
X107395042Y-122056488D01*
X107295114Y-122297141D01*
X107295021Y-122404157D01*
X104703178Y-124996000D01*
X94488000Y-124996000D01*
X94304312Y-125032538D01*
X94148589Y-125136589D01*
X92511178Y-126774000D01*
X92140340Y-126774000D01*
X92065512Y-126699042D01*
X91824859Y-126599114D01*
X91564284Y-126598887D01*
X91323457Y-126698394D01*
X91139042Y-126882488D01*
X91039114Y-127123141D01*
X91038887Y-127383716D01*
X91138394Y-127624543D01*
X91322488Y-127808958D01*
X91484179Y-127876098D01*
X88684051Y-127319118D01*
X84979350Y-124843716D01*
X86212887Y-124843716D01*
X86312394Y-125084543D01*
X86496488Y-125268958D01*
X86737141Y-125368886D01*
X86997716Y-125369113D01*
X87238543Y-125269606D01*
X87422958Y-125085512D01*
X87522886Y-124844859D01*
X87522979Y-124737843D01*
X88082822Y-124178000D01*
X103886000Y-124178000D01*
X104069688Y-124141462D01*
X104225411Y-124037411D01*
X107640823Y-120622000D01*
X110998000Y-120622000D01*
X111181688Y-120585462D01*
X111337411Y-120481411D01*
X112244411Y-119574411D01*
X112348462Y-119418688D01*
X112385000Y-119235000D01*
X112385000Y-118141954D01*
X113205000Y-118141954D01*
X113336555Y-118117200D01*
X113457380Y-118039451D01*
X113538437Y-117920820D01*
X113566954Y-117780000D01*
X113566954Y-113429716D01*
X115544887Y-113429716D01*
X115644394Y-113670543D01*
X115828488Y-113854958D01*
X116069141Y-113954886D01*
X116329716Y-113955113D01*
X116570543Y-113855606D01*
X116646281Y-113780000D01*
X117448046Y-113780000D01*
X117448046Y-113970000D01*
X117472800Y-114101555D01*
X117550549Y-114222380D01*
X117669180Y-114303437D01*
X117810000Y-114331954D01*
X119310000Y-114331954D01*
X119441555Y-114307200D01*
X119562380Y-114229451D01*
X119643437Y-114110820D01*
X119671954Y-113970000D01*
X119671954Y-112670000D01*
X119647200Y-112538445D01*
X119569451Y-112417620D01*
X119450820Y-112336563D01*
X119310000Y-112308046D01*
X117810000Y-112308046D01*
X117678445Y-112332800D01*
X117557620Y-112410549D01*
X117476563Y-112529180D01*
X117448046Y-112670000D01*
X117448046Y-112820000D01*
X116646340Y-112820000D01*
X116571512Y-112745042D01*
X116330859Y-112645114D01*
X116070284Y-112644887D01*
X115829457Y-112744394D01*
X115645042Y-112928488D01*
X115545114Y-113169141D01*
X115544887Y-113429716D01*
X113566954Y-113429716D01*
X113566954Y-112220000D01*
X113542200Y-112088445D01*
X113541270Y-112087000D01*
X117501000Y-112087000D01*
X117684688Y-112050462D01*
X117840411Y-111946411D01*
X119911801Y-109875021D01*
X120017716Y-109875113D01*
X120258543Y-109775606D01*
X120442958Y-109591512D01*
X120542886Y-109350859D01*
X120543113Y-109090284D01*
X120443606Y-108849457D01*
X120259512Y-108665042D01*
X120018859Y-108565114D01*
X119758284Y-108564887D01*
X119517457Y-108664394D01*
X119333042Y-108848488D01*
X119233114Y-109089141D01*
X119233021Y-109196157D01*
X117302178Y-111127000D01*
X112268000Y-111127000D01*
X112084312Y-111163538D01*
X111928589Y-111267588D01*
X111565589Y-111630589D01*
X111461538Y-111786312D01*
X111447269Y-111858046D01*
X110605000Y-111858046D01*
X110473445Y-111882800D01*
X110352620Y-111960549D01*
X110271563Y-112079180D01*
X110243046Y-112220000D01*
X110243046Y-117780000D01*
X110267800Y-117911555D01*
X110345549Y-118032380D01*
X110464180Y-118113437D01*
X110605000Y-118141954D01*
X111425000Y-118141954D01*
X111425000Y-119036178D01*
X110799178Y-119662000D01*
X107442000Y-119662000D01*
X107258312Y-119698538D01*
X107102588Y-119802589D01*
X103687178Y-123218000D01*
X87884000Y-123218000D01*
X87700312Y-123254538D01*
X87544589Y-123358589D01*
X86844199Y-124058979D01*
X86738284Y-124058887D01*
X86497457Y-124158394D01*
X86313042Y-124342488D01*
X86213114Y-124583141D01*
X86212887Y-124843716D01*
X84979350Y-124843716D01*
X79090852Y-120909148D01*
X74252283Y-113667716D01*
X75036887Y-113667716D01*
X75136394Y-113908543D01*
X75320488Y-114092958D01*
X75561141Y-114192886D01*
X75821716Y-114193113D01*
X76062543Y-114093606D01*
X76138281Y-114018000D01*
X77588046Y-114018000D01*
X77588046Y-114150000D01*
X77612800Y-114281555D01*
X77690549Y-114402380D01*
X77809180Y-114483437D01*
X77950000Y-114511954D01*
X78220000Y-114511954D01*
X78220000Y-116038000D01*
X78256538Y-116221688D01*
X78360589Y-116377411D01*
X81448588Y-119465411D01*
X81604312Y-119569462D01*
X81788000Y-119606000D01*
X106172000Y-119606000D01*
X106355688Y-119569462D01*
X106511411Y-119465411D01*
X108035411Y-117941412D01*
X108139462Y-117785688D01*
X108152818Y-117718543D01*
X108176000Y-117602000D01*
X108176000Y-111958822D01*
X111704822Y-108430000D01*
X121727660Y-108430000D01*
X121802488Y-108504958D01*
X122043141Y-108604886D01*
X122303716Y-108605113D01*
X122544543Y-108505606D01*
X122728958Y-108321512D01*
X122828886Y-108080859D01*
X122829113Y-107820284D01*
X122729606Y-107579457D01*
X122545512Y-107395042D01*
X122304859Y-107295114D01*
X122044284Y-107294887D01*
X121803457Y-107394394D01*
X121727719Y-107470000D01*
X111506000Y-107470000D01*
X111322312Y-107506538D01*
X111166589Y-107610589D01*
X107356589Y-111420589D01*
X107252538Y-111576312D01*
X107216000Y-111760000D01*
X107216000Y-117403177D01*
X105973178Y-118646000D01*
X81986823Y-118646000D01*
X79180000Y-115839178D01*
X79180000Y-114511954D01*
X79450000Y-114511954D01*
X79581555Y-114487200D01*
X79702380Y-114409451D01*
X79783437Y-114290820D01*
X79811954Y-114150000D01*
X79811954Y-112850000D01*
X80288046Y-112850000D01*
X80288046Y-114150000D01*
X80312800Y-114281555D01*
X80390549Y-114402380D01*
X80509180Y-114483437D01*
X80650000Y-114511954D01*
X82150000Y-114511954D01*
X82281555Y-114487200D01*
X82402380Y-114409451D01*
X82483437Y-114290820D01*
X82511954Y-114150000D01*
X82511954Y-112850000D01*
X82487200Y-112718445D01*
X82409451Y-112597620D01*
X82290820Y-112516563D01*
X82150000Y-112488046D01*
X81980000Y-112488046D01*
X81980000Y-111646340D01*
X82054958Y-111571512D01*
X82154886Y-111330859D01*
X82155113Y-111070284D01*
X82055606Y-110829457D01*
X81871512Y-110645042D01*
X81630859Y-110545114D01*
X81370284Y-110544887D01*
X81129457Y-110644394D01*
X80945042Y-110828488D01*
X80845114Y-111069141D01*
X80844887Y-111329716D01*
X80944394Y-111570543D01*
X81020000Y-111646281D01*
X81020000Y-112488046D01*
X80650000Y-112488046D01*
X80518445Y-112512800D01*
X80397620Y-112590549D01*
X80316563Y-112709180D01*
X80288046Y-112850000D01*
X79811954Y-112850000D01*
X79787200Y-112718445D01*
X79709451Y-112597620D01*
X79590820Y-112516563D01*
X79450000Y-112488046D01*
X77950000Y-112488046D01*
X77818445Y-112512800D01*
X77697620Y-112590549D01*
X77616563Y-112709180D01*
X77588046Y-112850000D01*
X77588046Y-113058000D01*
X76138340Y-113058000D01*
X76063512Y-112983042D01*
X75822859Y-112883114D01*
X75562284Y-112882887D01*
X75321457Y-112982394D01*
X75137042Y-113166488D01*
X75037114Y-113407141D01*
X75036887Y-113667716D01*
X74252283Y-113667716D01*
X72680882Y-111315949D01*
X72188727Y-108841716D01*
X72496887Y-108841716D01*
X72596394Y-109082543D01*
X72780488Y-109266958D01*
X73021141Y-109366886D01*
X73281716Y-109367113D01*
X73522543Y-109267606D01*
X73706958Y-109083512D01*
X73806886Y-108842859D01*
X73807113Y-108582284D01*
X73707606Y-108341457D01*
X73632000Y-108265719D01*
X73632000Y-107386822D01*
X74508822Y-106510000D01*
X77588046Y-106510000D01*
X77588046Y-106680000D01*
X77612800Y-106811555D01*
X77690549Y-106932380D01*
X77809180Y-107013437D01*
X77950000Y-107041954D01*
X78220000Y-107041954D01*
X78220000Y-107148000D01*
X78256538Y-107331688D01*
X78360589Y-107487411D01*
X78908589Y-108035411D01*
X79064312Y-108139462D01*
X79248000Y-108176000D01*
X83875178Y-108176000D01*
X84610000Y-108910822D01*
X84610000Y-113545000D01*
X84646538Y-113728688D01*
X84750589Y-113884411D01*
X86205589Y-115339411D01*
X86361312Y-115443462D01*
X86433046Y-115457731D01*
X86433046Y-117780000D01*
X86457800Y-117911555D01*
X86535549Y-118032380D01*
X86654180Y-118113437D01*
X86795000Y-118141954D01*
X89395000Y-118141954D01*
X89526555Y-118117200D01*
X89647380Y-118039451D01*
X89728437Y-117920820D01*
X89756954Y-117780000D01*
X89756954Y-115581776D01*
X89944000Y-115768822D01*
X89944000Y-116901660D01*
X89869042Y-116976488D01*
X89769114Y-117217141D01*
X89768887Y-117477716D01*
X89868394Y-117718543D01*
X90052488Y-117902958D01*
X90293141Y-118002886D01*
X90553716Y-118003113D01*
X90794543Y-117903606D01*
X90978958Y-117719512D01*
X91078886Y-117478859D01*
X91079113Y-117218284D01*
X90979606Y-116977457D01*
X90904000Y-116901719D01*
X90904000Y-115570000D01*
X90867462Y-115386312D01*
X90800269Y-115285750D01*
X94365000Y-115285750D01*
X94365000Y-117906310D01*
X94461673Y-118139699D01*
X94640302Y-118318327D01*
X94873691Y-118415000D01*
X99714250Y-118415000D01*
X99873000Y-118256250D01*
X99873000Y-115127000D01*
X100127000Y-115127000D01*
X100127000Y-118256250D01*
X100285750Y-118415000D01*
X105126309Y-118415000D01*
X105359698Y-118318327D01*
X105538327Y-118139699D01*
X105635000Y-117906310D01*
X105635000Y-115285750D01*
X105476250Y-115127000D01*
X100127000Y-115127000D01*
X99873000Y-115127000D01*
X94523750Y-115127000D01*
X94365000Y-115285750D01*
X90800269Y-115285750D01*
X90763411Y-115230589D01*
X90193411Y-114660589D01*
X90037688Y-114556538D01*
X89854000Y-114520000D01*
X89756954Y-114520000D01*
X89756954Y-112220000D01*
X89733187Y-112093690D01*
X94365000Y-112093690D01*
X94365000Y-114714250D01*
X94523750Y-114873000D01*
X99873000Y-114873000D01*
X99873000Y-111743750D01*
X100127000Y-111743750D01*
X100127000Y-114873000D01*
X105476250Y-114873000D01*
X105635000Y-114714250D01*
X105635000Y-112093690D01*
X105538327Y-111860301D01*
X105359698Y-111681673D01*
X105126309Y-111585000D01*
X100285750Y-111585000D01*
X100127000Y-111743750D01*
X99873000Y-111743750D01*
X99714250Y-111585000D01*
X94873691Y-111585000D01*
X94640302Y-111681673D01*
X94461673Y-111860301D01*
X94365000Y-112093690D01*
X89733187Y-112093690D01*
X89732200Y-112088445D01*
X89654451Y-111967620D01*
X89535820Y-111886563D01*
X89395000Y-111858046D01*
X86795000Y-111858046D01*
X86663445Y-111882800D01*
X86542620Y-111960549D01*
X86461563Y-112079180D01*
X86433046Y-112220000D01*
X86433046Y-114209224D01*
X85570000Y-113346178D01*
X85570000Y-108712000D01*
X85533462Y-108528312D01*
X85429411Y-108372589D01*
X84413411Y-107356589D01*
X84257688Y-107252538D01*
X84074000Y-107216000D01*
X79446822Y-107216000D01*
X79272776Y-107041954D01*
X79450000Y-107041954D01*
X79581555Y-107017200D01*
X79702380Y-106939451D01*
X79783437Y-106820820D01*
X79811954Y-106680000D01*
X79811954Y-105380000D01*
X80288046Y-105380000D01*
X80288046Y-106680000D01*
X80312800Y-106811555D01*
X80390549Y-106932380D01*
X80509180Y-107013437D01*
X80650000Y-107041954D01*
X82150000Y-107041954D01*
X82281555Y-107017200D01*
X82402380Y-106939451D01*
X82483437Y-106820820D01*
X82511954Y-106680000D01*
X82511954Y-106510000D01*
X85583660Y-106510000D01*
X85658488Y-106584958D01*
X85899141Y-106684886D01*
X86159716Y-106685113D01*
X86400543Y-106585606D01*
X86584958Y-106401512D01*
X86684886Y-106160859D01*
X86685113Y-105900284D01*
X86585606Y-105659457D01*
X86401512Y-105475042D01*
X86160859Y-105375114D01*
X85900284Y-105374887D01*
X85659457Y-105474394D01*
X85583719Y-105550000D01*
X82511954Y-105550000D01*
X82511954Y-105380000D01*
X82487200Y-105248445D01*
X82409451Y-105127620D01*
X82290820Y-105046563D01*
X82150000Y-105018046D01*
X80650000Y-105018046D01*
X80518445Y-105042800D01*
X80397620Y-105120549D01*
X80316563Y-105239180D01*
X80288046Y-105380000D01*
X79811954Y-105380000D01*
X79787200Y-105248445D01*
X79709451Y-105127620D01*
X79590820Y-105046563D01*
X79450000Y-105018046D01*
X77950000Y-105018046D01*
X77818445Y-105042800D01*
X77697620Y-105120549D01*
X77616563Y-105239180D01*
X77588046Y-105380000D01*
X77588046Y-105550000D01*
X77142001Y-105550000D01*
X77142001Y-100285750D01*
X79465000Y-100285750D01*
X79465000Y-101026310D01*
X79561673Y-101259699D01*
X79740302Y-101438327D01*
X79973691Y-101535000D01*
X80714250Y-101535000D01*
X80873000Y-101376250D01*
X80873000Y-100127000D01*
X79623750Y-100127000D01*
X79465000Y-100285750D01*
X77142001Y-100285750D01*
X77142001Y-98973690D01*
X79465000Y-98973690D01*
X79465000Y-99714250D01*
X79623750Y-99873000D01*
X80873000Y-99873000D01*
X80873000Y-98623750D01*
X81127000Y-98623750D01*
X81127000Y-99873000D01*
X81147000Y-99873000D01*
X81147000Y-100127000D01*
X81127000Y-100127000D01*
X81127000Y-101376250D01*
X81285750Y-101535000D01*
X82026309Y-101535000D01*
X82259698Y-101438327D01*
X82438327Y-101259699D01*
X82535000Y-101026310D01*
X82535000Y-100769634D01*
X82828171Y-101063317D01*
X83289270Y-101254782D01*
X83788540Y-101255217D01*
X84249972Y-101064558D01*
X84603317Y-100711829D01*
X84794782Y-100250730D01*
X84795217Y-99751460D01*
X84604558Y-99290028D01*
X84251829Y-98936683D01*
X84020000Y-98840419D01*
X84020000Y-97721954D01*
X84260000Y-97721954D01*
X84391555Y-97697200D01*
X84512380Y-97619451D01*
X84593437Y-97500820D01*
X84621954Y-97360000D01*
X84621954Y-95860000D01*
X84597200Y-95728445D01*
X84519451Y-95607620D01*
X84400820Y-95526563D01*
X84260000Y-95498046D01*
X82960000Y-95498046D01*
X82828445Y-95522800D01*
X82707620Y-95600549D01*
X82626563Y-95719180D01*
X82598046Y-95860000D01*
X82598046Y-97360000D01*
X82622800Y-97491555D01*
X82700549Y-97612380D01*
X82819180Y-97693437D01*
X82960000Y-97721954D01*
X83060000Y-97721954D01*
X83060000Y-98840420D01*
X82830028Y-98935442D01*
X82535000Y-99229956D01*
X82535000Y-98973690D01*
X82438327Y-98740301D01*
X82259698Y-98561673D01*
X82026309Y-98465000D01*
X81285750Y-98465000D01*
X81127000Y-98623750D01*
X80873000Y-98623750D01*
X80714250Y-98465000D01*
X79973691Y-98465000D01*
X79740302Y-98561673D01*
X79561673Y-98740301D01*
X79465000Y-98973690D01*
X77142001Y-98973690D01*
X77142001Y-88772336D01*
X77332543Y-88693606D01*
X77516958Y-88509512D01*
X77616886Y-88268859D01*
X77617113Y-88008284D01*
X77517606Y-87767457D01*
X77333512Y-87583042D01*
X77092859Y-87483114D01*
X76832284Y-87482887D01*
X76591457Y-87582394D01*
X76407042Y-87766488D01*
X76307114Y-88007141D01*
X76307014Y-88121899D01*
X76218539Y-88254311D01*
X76182001Y-88437999D01*
X76182001Y-105550000D01*
X74310000Y-105550000D01*
X74126312Y-105586538D01*
X73970589Y-105690589D01*
X72812589Y-106848589D01*
X72708538Y-107004312D01*
X72672000Y-107188000D01*
X72672000Y-108265660D01*
X72597042Y-108340488D01*
X72497114Y-108581141D01*
X72496887Y-108841716D01*
X72188727Y-108841716D01*
X70430000Y-100000000D01*
X72005840Y-92077716D01*
X72496887Y-92077716D01*
X72596394Y-92318543D01*
X72780488Y-92502958D01*
X73021141Y-92602886D01*
X73281716Y-92603113D01*
X73522543Y-92503606D01*
X73706958Y-92319512D01*
X73806886Y-92078859D01*
X73806979Y-91971843D01*
X75269411Y-90509411D01*
X75373462Y-90353688D01*
X75410000Y-90170000D01*
X75410000Y-88082822D01*
X76372822Y-87120000D01*
X77588046Y-87120000D01*
X77588046Y-87290000D01*
X77612800Y-87421555D01*
X77690549Y-87542380D01*
X77809180Y-87623437D01*
X77950000Y-87651954D01*
X79450000Y-87651954D01*
X79581555Y-87627200D01*
X79702380Y-87549451D01*
X79783437Y-87430820D01*
X79811954Y-87290000D01*
X79811954Y-85990000D01*
X80288046Y-85990000D01*
X80288046Y-87290000D01*
X80312800Y-87421555D01*
X80390549Y-87542380D01*
X80509180Y-87623437D01*
X80650000Y-87651954D01*
X82150000Y-87651954D01*
X82281555Y-87627200D01*
X82402380Y-87549451D01*
X82483437Y-87430820D01*
X82489678Y-87400000D01*
X93993974Y-87400000D01*
X94040549Y-87472380D01*
X94159180Y-87553437D01*
X94165474Y-87554712D01*
X94047620Y-87630549D01*
X93993334Y-87710000D01*
X85910000Y-87710000D01*
X85726312Y-87746538D01*
X85570589Y-87850589D01*
X83270589Y-90150589D01*
X83166538Y-90306312D01*
X83130000Y-90490000D01*
X83130000Y-92798046D01*
X82960000Y-92798046D01*
X82828445Y-92822800D01*
X82707620Y-92900549D01*
X82626563Y-93019180D01*
X82598046Y-93160000D01*
X82598046Y-94660000D01*
X82622800Y-94791555D01*
X82700549Y-94912380D01*
X82819180Y-94993437D01*
X82960000Y-95021954D01*
X84260000Y-95021954D01*
X84391555Y-94997200D01*
X84512380Y-94919451D01*
X84593437Y-94800820D01*
X84621954Y-94660000D01*
X84621954Y-93409716D01*
X86924887Y-93409716D01*
X87024394Y-93650543D01*
X87208488Y-93834958D01*
X87449141Y-93934886D01*
X87709716Y-93935113D01*
X87950543Y-93835606D01*
X88036298Y-93750000D01*
X93993974Y-93750000D01*
X94040549Y-93822380D01*
X94159180Y-93903437D01*
X94165474Y-93904712D01*
X94047620Y-93980549D01*
X93966563Y-94099180D01*
X93938046Y-94240000D01*
X93938046Y-94840000D01*
X93962800Y-94971555D01*
X94040549Y-95092380D01*
X94159180Y-95173437D01*
X94165474Y-95174712D01*
X94047620Y-95250549D01*
X93966563Y-95369180D01*
X93938046Y-95510000D01*
X93938046Y-96110000D01*
X93962800Y-96241555D01*
X94040549Y-96362380D01*
X94159180Y-96443437D01*
X94165474Y-96444712D01*
X94047620Y-96520549D01*
X93984421Y-96613045D01*
X93949454Y-96620000D01*
X88900000Y-96620000D01*
X88716312Y-96656538D01*
X88560589Y-96760589D01*
X87460589Y-97860589D01*
X87356538Y-98016312D01*
X87320000Y-98200000D01*
X87320000Y-104388796D01*
X87245114Y-104569141D01*
X87244887Y-104829716D01*
X87344394Y-105070543D01*
X87528488Y-105254958D01*
X87769141Y-105354886D01*
X88029716Y-105355113D01*
X88270543Y-105255606D01*
X88454958Y-105071512D01*
X88554886Y-104830859D01*
X88555113Y-104570284D01*
X88455606Y-104329457D01*
X88280000Y-104153545D01*
X88280000Y-98398822D01*
X89098822Y-97580000D01*
X94006843Y-97580000D01*
X94040549Y-97632380D01*
X94159180Y-97713437D01*
X94300000Y-97741954D01*
X96300000Y-97741954D01*
X96431555Y-97717200D01*
X96552380Y-97639451D01*
X96633437Y-97520820D01*
X96661954Y-97380000D01*
X96661954Y-96780000D01*
X96637200Y-96648445D01*
X96559451Y-96527620D01*
X96440820Y-96446563D01*
X96434526Y-96445288D01*
X96552380Y-96369451D01*
X96608498Y-96287320D01*
X96820000Y-96498822D01*
X96820000Y-98800000D01*
X96856538Y-98983688D01*
X96960589Y-99139411D01*
X98360589Y-100539411D01*
X98516312Y-100643462D01*
X98700000Y-100680000D01*
X109753660Y-100680000D01*
X109828488Y-100754958D01*
X110069141Y-100854886D01*
X110329716Y-100855113D01*
X110570543Y-100755606D01*
X110754958Y-100571512D01*
X110854886Y-100330859D01*
X110855113Y-100070284D01*
X110755606Y-99829457D01*
X110571512Y-99645042D01*
X110330859Y-99545114D01*
X110070284Y-99544887D01*
X109829457Y-99644394D01*
X109753719Y-99720000D01*
X98898822Y-99720000D01*
X97780000Y-98601178D01*
X97780000Y-96300000D01*
X97743462Y-96116312D01*
X97639411Y-95960589D01*
X97139411Y-95460589D01*
X96983688Y-95356538D01*
X96800000Y-95320000D01*
X96599592Y-95320000D01*
X96559451Y-95257620D01*
X96440820Y-95176563D01*
X96434526Y-95175288D01*
X96552380Y-95099451D01*
X96633437Y-94980820D01*
X96661954Y-94840000D01*
X96661954Y-94240000D01*
X96637200Y-94108445D01*
X96559451Y-93987620D01*
X96440820Y-93906563D01*
X96434526Y-93905288D01*
X96552380Y-93829451D01*
X96633437Y-93710820D01*
X96661954Y-93570000D01*
X96661954Y-92970000D01*
X96638806Y-92846981D01*
X96659698Y-92838327D01*
X96838327Y-92659699D01*
X96935000Y-92426310D01*
X96935000Y-92285750D01*
X96776250Y-92127000D01*
X95427000Y-92127000D01*
X95427000Y-92147000D01*
X95173000Y-92147000D01*
X95173000Y-92127000D01*
X93823750Y-92127000D01*
X93665000Y-92285750D01*
X93665000Y-92426310D01*
X93761673Y-92659699D01*
X93891975Y-92790000D01*
X88016357Y-92790000D01*
X87951512Y-92725042D01*
X87710859Y-92625114D01*
X87450284Y-92624887D01*
X87209457Y-92724394D01*
X87025042Y-92908488D01*
X86925114Y-93149141D01*
X86924887Y-93409716D01*
X84621954Y-93409716D01*
X84621954Y-93160000D01*
X84597200Y-93028445D01*
X84519451Y-92907620D01*
X84400820Y-92826563D01*
X84260000Y-92798046D01*
X84090000Y-92798046D01*
X84090000Y-90688822D01*
X86108822Y-88670000D01*
X93993974Y-88670000D01*
X94040549Y-88742380D01*
X94159180Y-88823437D01*
X94165474Y-88824712D01*
X94047620Y-88900549D01*
X93966563Y-89019180D01*
X93938046Y-89160000D01*
X93938046Y-89760000D01*
X93962800Y-89891555D01*
X94040549Y-90012380D01*
X94159180Y-90093437D01*
X94165474Y-90094712D01*
X94047620Y-90170549D01*
X93966563Y-90289180D01*
X93938046Y-90430000D01*
X93938046Y-91030000D01*
X93961194Y-91153019D01*
X93940302Y-91161673D01*
X93761673Y-91340301D01*
X93665000Y-91573690D01*
X93665000Y-91714250D01*
X93823750Y-91873000D01*
X95173000Y-91873000D01*
X95173000Y-91853000D01*
X95427000Y-91853000D01*
X95427000Y-91873000D01*
X96776250Y-91873000D01*
X96935000Y-91714250D01*
X96935000Y-91573690D01*
X96838327Y-91340301D01*
X96708025Y-91210000D01*
X97631178Y-91210000D01*
X98420000Y-91998823D01*
X98420000Y-97200000D01*
X98456538Y-97383688D01*
X98560589Y-97539411D01*
X100160589Y-99139411D01*
X100316312Y-99243462D01*
X100500000Y-99280000D01*
X110601178Y-99280000D01*
X114320000Y-102998822D01*
X114320000Y-103738046D01*
X113900000Y-103738046D01*
X113768445Y-103762800D01*
X113647620Y-103840549D01*
X113566563Y-103959180D01*
X113538046Y-104100000D01*
X113538046Y-105900000D01*
X113562800Y-106031555D01*
X113640549Y-106152380D01*
X113759180Y-106233437D01*
X113900000Y-106261954D01*
X115700000Y-106261954D01*
X115831555Y-106237200D01*
X115952380Y-106159451D01*
X116006557Y-106080159D01*
X116439446Y-106080159D01*
X116525852Y-106336643D01*
X117099336Y-106546458D01*
X117709460Y-106520839D01*
X118154148Y-106336643D01*
X118240554Y-106080159D01*
X117340000Y-105179605D01*
X116439446Y-106080159D01*
X116006557Y-106080159D01*
X116033437Y-106040820D01*
X116061954Y-105900000D01*
X116061954Y-105833889D01*
X116259841Y-105900554D01*
X117160395Y-105000000D01*
X117519605Y-105000000D01*
X118420159Y-105900554D01*
X118676643Y-105814148D01*
X118762041Y-105580731D01*
X118815442Y-105709972D01*
X119168171Y-106063317D01*
X119629270Y-106254782D01*
X120128540Y-106255217D01*
X120589972Y-106064558D01*
X120943317Y-105711829D01*
X121080274Y-105382000D01*
X126039178Y-105382000D01*
X126774000Y-106116822D01*
X126774000Y-107757660D01*
X126699042Y-107832488D01*
X126599114Y-108073141D01*
X126598887Y-108333716D01*
X126698394Y-108574543D01*
X126882488Y-108758958D01*
X127123141Y-108858886D01*
X127383716Y-108859113D01*
X127624543Y-108759606D01*
X127808958Y-108575512D01*
X127908886Y-108334859D01*
X127909113Y-108074284D01*
X127809606Y-107833457D01*
X127734000Y-107757719D01*
X127734000Y-105918000D01*
X127697462Y-105734312D01*
X127593411Y-105578589D01*
X126577411Y-104562589D01*
X126421688Y-104458538D01*
X126238000Y-104422000D01*
X120999087Y-104422000D01*
X120944558Y-104290028D01*
X120591829Y-103936683D01*
X120130730Y-103745218D01*
X119631460Y-103744783D01*
X119170028Y-103935442D01*
X118816683Y-104288171D01*
X118767794Y-104405909D01*
X118676643Y-104185852D01*
X118420159Y-104099446D01*
X117519605Y-105000000D01*
X117160395Y-105000000D01*
X116259841Y-104099446D01*
X116061954Y-104166111D01*
X116061954Y-104100000D01*
X116037200Y-103968445D01*
X116005925Y-103919841D01*
X116439446Y-103919841D01*
X117340000Y-104820395D01*
X118240554Y-103919841D01*
X118154148Y-103663357D01*
X117580664Y-103453542D01*
X116970540Y-103479161D01*
X116525852Y-103663357D01*
X116439446Y-103919841D01*
X116005925Y-103919841D01*
X115959451Y-103847620D01*
X115840820Y-103766563D01*
X115700000Y-103738046D01*
X115280000Y-103738046D01*
X115280000Y-102800000D01*
X115243462Y-102616312D01*
X115139411Y-102460589D01*
X111139411Y-98460589D01*
X110983688Y-98356538D01*
X110800000Y-98320000D01*
X100698822Y-98320000D01*
X99380000Y-97001178D01*
X99380000Y-91800000D01*
X99343462Y-91616312D01*
X99317500Y-91577457D01*
X99239412Y-91460589D01*
X98169411Y-90390589D01*
X98013688Y-90286538D01*
X97830000Y-90250000D01*
X96606026Y-90250000D01*
X96559451Y-90177620D01*
X96440820Y-90096563D01*
X96434526Y-90095288D01*
X96552380Y-90019451D01*
X96633437Y-89900820D01*
X96661954Y-89760000D01*
X96661954Y-89160000D01*
X96637200Y-89028445D01*
X96559451Y-88907620D01*
X96440820Y-88826563D01*
X96434526Y-88825288D01*
X96552380Y-88749451D01*
X96633437Y-88630820D01*
X96661954Y-88490000D01*
X96661954Y-87890000D01*
X96637200Y-87758445D01*
X96559451Y-87637620D01*
X96440820Y-87556563D01*
X96434526Y-87555288D01*
X96552380Y-87479451D01*
X96633437Y-87360820D01*
X96661954Y-87220000D01*
X96661954Y-86620000D01*
X96637200Y-86488445D01*
X96559451Y-86367620D01*
X96440820Y-86286563D01*
X96300000Y-86258046D01*
X94300000Y-86258046D01*
X94168445Y-86282800D01*
X94047620Y-86360549D01*
X93993334Y-86440000D01*
X82511954Y-86440000D01*
X82511954Y-85990000D01*
X82487200Y-85858445D01*
X82409451Y-85737620D01*
X82290820Y-85656563D01*
X82150000Y-85628046D01*
X80650000Y-85628046D01*
X80518445Y-85652800D01*
X80397620Y-85730549D01*
X80316563Y-85849180D01*
X80288046Y-85990000D01*
X79811954Y-85990000D01*
X79787200Y-85858445D01*
X79709451Y-85737620D01*
X79590820Y-85656563D01*
X79483909Y-85634913D01*
X81677106Y-83441716D01*
X87482887Y-83441716D01*
X87582394Y-83682543D01*
X87766488Y-83866958D01*
X88007141Y-83966886D01*
X88267716Y-83967113D01*
X88508543Y-83867606D01*
X88692958Y-83683512D01*
X88792886Y-83442859D01*
X88792979Y-83335843D01*
X89898823Y-82230000D01*
X93774552Y-82230000D01*
X93865442Y-82449972D01*
X94218171Y-82803317D01*
X94679270Y-82994782D01*
X95178540Y-82995217D01*
X95639972Y-82804558D01*
X95993317Y-82451829D01*
X96184782Y-81990730D01*
X96185217Y-81491460D01*
X95994558Y-81030028D01*
X95641829Y-80676683D01*
X95180730Y-80485218D01*
X94681460Y-80484783D01*
X94220028Y-80675442D01*
X93866683Y-81028171D01*
X93766267Y-81270000D01*
X89700000Y-81270000D01*
X89516312Y-81306538D01*
X89360589Y-81410588D01*
X88114199Y-82656979D01*
X88008284Y-82656887D01*
X87767457Y-82756394D01*
X87583042Y-82940488D01*
X87483114Y-83181141D01*
X87482887Y-83441716D01*
X81677106Y-83441716D01*
X87743822Y-77375000D01*
X95138046Y-77375000D01*
X95138046Y-78625000D01*
X95162800Y-78756555D01*
X95240549Y-78877380D01*
X95359180Y-78958437D01*
X95500000Y-78986954D01*
X95606829Y-78986954D01*
X95660589Y-79067411D01*
X97000000Y-80406822D01*
X97000000Y-80576288D01*
X96760028Y-80675442D01*
X96406683Y-81028171D01*
X96215218Y-81489270D01*
X96214783Y-81988540D01*
X96405442Y-82449972D01*
X96758171Y-82803317D01*
X97000000Y-82903733D01*
X97000000Y-83002000D01*
X97036538Y-83185688D01*
X97140589Y-83341411D01*
X99088000Y-85288822D01*
X99088000Y-89408000D01*
X99124538Y-89591688D01*
X99228589Y-89747411D01*
X101820589Y-92339412D01*
X101958492Y-92431555D01*
X101976312Y-92443462D01*
X102160000Y-92480000D01*
X103393974Y-92480000D01*
X103440549Y-92552380D01*
X103559180Y-92633437D01*
X103565474Y-92634712D01*
X103447620Y-92710549D01*
X103366563Y-92829180D01*
X103338046Y-92970000D01*
X103338046Y-93570000D01*
X103362800Y-93701555D01*
X103440549Y-93822380D01*
X103559180Y-93903437D01*
X103565474Y-93904712D01*
X103447620Y-93980549D01*
X103366563Y-94099180D01*
X103338046Y-94240000D01*
X103338046Y-94840000D01*
X103362800Y-94971555D01*
X103440549Y-95092380D01*
X103559180Y-95173437D01*
X103565474Y-95174712D01*
X103447620Y-95250549D01*
X103366563Y-95369180D01*
X103338046Y-95510000D01*
X103338046Y-96110000D01*
X103362800Y-96241555D01*
X103440549Y-96362380D01*
X103559180Y-96443437D01*
X103565474Y-96444712D01*
X103447620Y-96520549D01*
X103366563Y-96639180D01*
X103338046Y-96780000D01*
X103338046Y-97380000D01*
X103362800Y-97511555D01*
X103440549Y-97632380D01*
X103559180Y-97713437D01*
X103700000Y-97741954D01*
X105700000Y-97741954D01*
X105831555Y-97717200D01*
X105952380Y-97639451D01*
X106033437Y-97520820D01*
X106061954Y-97380000D01*
X106061954Y-96780000D01*
X106037200Y-96648445D01*
X105959451Y-96527620D01*
X105840820Y-96446563D01*
X105834526Y-96445288D01*
X105952380Y-96369451D01*
X106006666Y-96290000D01*
X110611178Y-96290000D01*
X114460589Y-100139411D01*
X114616312Y-100243462D01*
X114800000Y-100280000D01*
X116853660Y-100280000D01*
X116928488Y-100354958D01*
X117169141Y-100454886D01*
X117429716Y-100455113D01*
X117670543Y-100355606D01*
X117854958Y-100171512D01*
X117954886Y-99930859D01*
X117955113Y-99670284D01*
X117855606Y-99429457D01*
X117671512Y-99245042D01*
X117430859Y-99145114D01*
X117170284Y-99144887D01*
X116929457Y-99244394D01*
X116853719Y-99320000D01*
X114998822Y-99320000D01*
X111149411Y-95470589D01*
X110993688Y-95366538D01*
X110810000Y-95330000D01*
X106006026Y-95330000D01*
X105959451Y-95257620D01*
X105840820Y-95176563D01*
X105834526Y-95175288D01*
X105952380Y-95099451D01*
X106006666Y-95020000D01*
X115588046Y-95020000D01*
X115588046Y-98550000D01*
X115612800Y-98681555D01*
X115690549Y-98802380D01*
X115809180Y-98883437D01*
X115950000Y-98911954D01*
X118050000Y-98911954D01*
X118181555Y-98887200D01*
X118302380Y-98809451D01*
X118383437Y-98690820D01*
X118411954Y-98550000D01*
X118411954Y-96230000D01*
X120666104Y-96230000D01*
X120725549Y-96322380D01*
X120844180Y-96403437D01*
X120985000Y-96431954D01*
X122235000Y-96431954D01*
X122366555Y-96407200D01*
X122487380Y-96329451D01*
X122568437Y-96210820D01*
X122596954Y-96070000D01*
X122596954Y-95070000D01*
X122572200Y-94938445D01*
X122494451Y-94817620D01*
X122375820Y-94736563D01*
X122235000Y-94708046D01*
X120985000Y-94708046D01*
X120853445Y-94732800D01*
X120732620Y-94810549D01*
X120651563Y-94929180D01*
X120623046Y-95070000D01*
X120623046Y-95270000D01*
X118411954Y-95270000D01*
X118411954Y-93855750D01*
X120350000Y-93855750D01*
X120350000Y-94196309D01*
X120446673Y-94429698D01*
X120625301Y-94608327D01*
X120858690Y-94705000D01*
X121324250Y-94705000D01*
X121483000Y-94546250D01*
X121483000Y-93697000D01*
X121737000Y-93697000D01*
X121737000Y-94546250D01*
X121895750Y-94705000D01*
X122361310Y-94705000D01*
X122594699Y-94608327D01*
X122773327Y-94429698D01*
X122870000Y-94196309D01*
X122870000Y-93855750D01*
X122711250Y-93697000D01*
X121737000Y-93697000D01*
X121483000Y-93697000D01*
X120508750Y-93697000D01*
X120350000Y-93855750D01*
X118411954Y-93855750D01*
X118411954Y-92950000D01*
X118410767Y-92943691D01*
X120350000Y-92943691D01*
X120350000Y-93284250D01*
X120508750Y-93443000D01*
X121483000Y-93443000D01*
X121483000Y-92593750D01*
X121737000Y-92593750D01*
X121737000Y-93443000D01*
X122711250Y-93443000D01*
X122870000Y-93284250D01*
X122870000Y-92943691D01*
X122773327Y-92710302D01*
X122594699Y-92531673D01*
X122361310Y-92435000D01*
X121895750Y-92435000D01*
X121737000Y-92593750D01*
X121483000Y-92593750D01*
X121324250Y-92435000D01*
X120858690Y-92435000D01*
X120625301Y-92531673D01*
X120446673Y-92710302D01*
X120350000Y-92943691D01*
X118410767Y-92943691D01*
X118387200Y-92818445D01*
X118309451Y-92697620D01*
X118190820Y-92616563D01*
X118050000Y-92588046D01*
X115950000Y-92588046D01*
X115818445Y-92612800D01*
X115697620Y-92690549D01*
X115616563Y-92809180D01*
X115588046Y-92950000D01*
X115588046Y-94060000D01*
X106006026Y-94060000D01*
X105959451Y-93987620D01*
X105840820Y-93906563D01*
X105834526Y-93905288D01*
X105952380Y-93829451D01*
X106006666Y-93750000D01*
X113890000Y-93750000D01*
X114073688Y-93713462D01*
X114229411Y-93609411D01*
X117339411Y-90499411D01*
X117443462Y-90343688D01*
X117480000Y-90160000D01*
X117480000Y-89411954D01*
X118050000Y-89411954D01*
X118181555Y-89387200D01*
X118302380Y-89309451D01*
X118383437Y-89190820D01*
X118411954Y-89050000D01*
X118411954Y-86540000D01*
X120623046Y-86540000D01*
X120623046Y-86560000D01*
X120647800Y-86691555D01*
X120725549Y-86812380D01*
X120844180Y-86893437D01*
X120985000Y-86921954D01*
X122235000Y-86921954D01*
X122366555Y-86897200D01*
X122487380Y-86819451D01*
X122568437Y-86700820D01*
X122596954Y-86560000D01*
X122596954Y-85560000D01*
X122572200Y-85428445D01*
X122494451Y-85307620D01*
X122375820Y-85226563D01*
X122235000Y-85198046D01*
X120985000Y-85198046D01*
X120853445Y-85222800D01*
X120732620Y-85300549D01*
X120651563Y-85419180D01*
X120623046Y-85560000D01*
X120623046Y-85580000D01*
X118411954Y-85580000D01*
X118411954Y-84345750D01*
X120350000Y-84345750D01*
X120350000Y-84686309D01*
X120446673Y-84919698D01*
X120625301Y-85098327D01*
X120858690Y-85195000D01*
X121324250Y-85195000D01*
X121483000Y-85036250D01*
X121483000Y-84187000D01*
X121737000Y-84187000D01*
X121737000Y-85036250D01*
X121895750Y-85195000D01*
X122361310Y-85195000D01*
X122594699Y-85098327D01*
X122773327Y-84919698D01*
X122870000Y-84686309D01*
X122870000Y-84345750D01*
X122711250Y-84187000D01*
X121737000Y-84187000D01*
X121483000Y-84187000D01*
X120508750Y-84187000D01*
X120350000Y-84345750D01*
X118411954Y-84345750D01*
X118411954Y-83450000D01*
X118408886Y-83433691D01*
X120350000Y-83433691D01*
X120350000Y-83774250D01*
X120508750Y-83933000D01*
X121483000Y-83933000D01*
X121483000Y-83083750D01*
X121737000Y-83083750D01*
X121737000Y-83933000D01*
X122711250Y-83933000D01*
X122870000Y-83774250D01*
X122870000Y-83433691D01*
X122773327Y-83200302D01*
X122594699Y-83021673D01*
X122361310Y-82925000D01*
X121895750Y-82925000D01*
X121737000Y-83083750D01*
X121483000Y-83083750D01*
X121324250Y-82925000D01*
X120858690Y-82925000D01*
X120625301Y-83021673D01*
X120446673Y-83200302D01*
X120350000Y-83433691D01*
X118408886Y-83433691D01*
X118387200Y-83318445D01*
X118309451Y-83197620D01*
X118190820Y-83116563D01*
X118050000Y-83088046D01*
X115950000Y-83088046D01*
X115818445Y-83112800D01*
X115697620Y-83190549D01*
X115616563Y-83309180D01*
X115588046Y-83450000D01*
X115588046Y-89050000D01*
X115612800Y-89181555D01*
X115690549Y-89302380D01*
X115809180Y-89383437D01*
X115950000Y-89411954D01*
X116520000Y-89411954D01*
X116520000Y-89961178D01*
X113691178Y-92790000D01*
X106006026Y-92790000D01*
X105959451Y-92717620D01*
X105840820Y-92636563D01*
X105834526Y-92635288D01*
X105952380Y-92559451D01*
X106006666Y-92480000D01*
X111873570Y-92480000D01*
X111896488Y-92502958D01*
X112137141Y-92602886D01*
X112397716Y-92603113D01*
X112638543Y-92503606D01*
X112822958Y-92319512D01*
X112922886Y-92078859D01*
X112923113Y-91818284D01*
X112823606Y-91577457D01*
X112639512Y-91393042D01*
X112398859Y-91293114D01*
X112138284Y-91292887D01*
X111897457Y-91392394D01*
X111769628Y-91520000D01*
X106006026Y-91520000D01*
X105959451Y-91447620D01*
X105840820Y-91366563D01*
X105834526Y-91365288D01*
X105952380Y-91289451D01*
X106033437Y-91170820D01*
X106061954Y-91030000D01*
X106061954Y-90430000D01*
X106037200Y-90298445D01*
X105959451Y-90177620D01*
X105840820Y-90096563D01*
X105834526Y-90095288D01*
X105952380Y-90019451D01*
X106033437Y-89900820D01*
X106061954Y-89760000D01*
X106061954Y-89160000D01*
X106037200Y-89028445D01*
X105959451Y-88907620D01*
X105840820Y-88826563D01*
X105834526Y-88825288D01*
X105952380Y-88749451D01*
X106033437Y-88630820D01*
X106061954Y-88490000D01*
X106061954Y-87890000D01*
X106037200Y-87758445D01*
X105959451Y-87637620D01*
X105840820Y-87556563D01*
X105834526Y-87555288D01*
X105952380Y-87479451D01*
X106033437Y-87360820D01*
X106061954Y-87220000D01*
X106061954Y-86620000D01*
X106037200Y-86488445D01*
X105959451Y-86367620D01*
X105840820Y-86286563D01*
X105700000Y-86258046D01*
X103700000Y-86258046D01*
X103568445Y-86282800D01*
X103447620Y-86360549D01*
X103366563Y-86479180D01*
X103338046Y-86620000D01*
X103338046Y-87220000D01*
X103362800Y-87351555D01*
X103440549Y-87472380D01*
X103559180Y-87553437D01*
X103565474Y-87554712D01*
X103447620Y-87630549D01*
X103366563Y-87749180D01*
X103338046Y-87890000D01*
X103338046Y-88490000D01*
X103362800Y-88621555D01*
X103440549Y-88742380D01*
X103559180Y-88823437D01*
X103565474Y-88824712D01*
X103447620Y-88900549D01*
X103393334Y-88980000D01*
X103028822Y-88980000D01*
X102950000Y-88901178D01*
X102950000Y-84578822D01*
X104623596Y-82905226D01*
X104839270Y-82994782D01*
X105338540Y-82995217D01*
X105799972Y-82804558D01*
X106153317Y-82451829D01*
X106344782Y-81990730D01*
X106345217Y-81491460D01*
X106154558Y-81030028D01*
X105801829Y-80676683D01*
X105340730Y-80485218D01*
X104841460Y-80484783D01*
X104380028Y-80675442D01*
X104026683Y-81028171D01*
X103835218Y-81489270D01*
X103834783Y-81988540D01*
X103936489Y-82234689D01*
X102130589Y-84040589D01*
X102026538Y-84196312D01*
X101990000Y-84380000D01*
X101990000Y-89100000D01*
X102026538Y-89283688D01*
X102095060Y-89386238D01*
X101680000Y-88971178D01*
X101680000Y-83308822D01*
X102083596Y-82905226D01*
X102299270Y-82994782D01*
X102798540Y-82995217D01*
X103259972Y-82804558D01*
X103613317Y-82451829D01*
X103804782Y-81990730D01*
X103805217Y-81491460D01*
X103614558Y-81030028D01*
X103261829Y-80676683D01*
X102800730Y-80485218D01*
X102301460Y-80484783D01*
X101840028Y-80675442D01*
X101486683Y-81028171D01*
X101437794Y-81145909D01*
X101346643Y-80925852D01*
X101090159Y-80839446D01*
X100189605Y-81740000D01*
X100203748Y-81754143D01*
X100024143Y-81933748D01*
X100010000Y-81919605D01*
X99109446Y-82820159D01*
X99195852Y-83076643D01*
X99769336Y-83286458D01*
X100379460Y-83260839D01*
X100720000Y-83119783D01*
X100720000Y-89170000D01*
X100756538Y-89353688D01*
X100860589Y-89509411D01*
X102420589Y-91069411D01*
X102576312Y-91173462D01*
X102760000Y-91210000D01*
X103393974Y-91210000D01*
X103440549Y-91282380D01*
X103559180Y-91363437D01*
X103565474Y-91364712D01*
X103447620Y-91440549D01*
X103393334Y-91520000D01*
X102358823Y-91520000D01*
X100048000Y-89209178D01*
X100048000Y-85090000D01*
X100011462Y-84906312D01*
X99907411Y-84750589D01*
X98025292Y-82868470D01*
X98179972Y-82804558D01*
X98533317Y-82451829D01*
X98582206Y-82334091D01*
X98673357Y-82554148D01*
X98929841Y-82640554D01*
X99830395Y-81740000D01*
X98929841Y-80839446D01*
X98673357Y-80925852D01*
X98587959Y-81159269D01*
X98534558Y-81030028D01*
X98181829Y-80676683D01*
X98141269Y-80659841D01*
X99109446Y-80659841D01*
X100010000Y-81560395D01*
X100910554Y-80659841D01*
X100824148Y-80403357D01*
X100250664Y-80193542D01*
X99640540Y-80219161D01*
X99195852Y-80403357D01*
X99109446Y-80659841D01*
X98141269Y-80659841D01*
X97960000Y-80584572D01*
X97960000Y-80208000D01*
X97923462Y-80024312D01*
X97819411Y-79868589D01*
X96786028Y-78835206D01*
X96833437Y-78765820D01*
X96861954Y-78625000D01*
X96861954Y-78285750D01*
X96865000Y-78285750D01*
X96865000Y-78751310D01*
X96961673Y-78984699D01*
X97140302Y-79163327D01*
X97373691Y-79260000D01*
X97714250Y-79260000D01*
X97873000Y-79101250D01*
X97873000Y-78127000D01*
X98127000Y-78127000D01*
X98127000Y-79101250D01*
X98285750Y-79260000D01*
X98626309Y-79260000D01*
X98859698Y-79163327D01*
X99038327Y-78984699D01*
X99135000Y-78751310D01*
X99135000Y-78285750D01*
X98976250Y-78127000D01*
X98127000Y-78127000D01*
X97873000Y-78127000D01*
X97023750Y-78127000D01*
X96865000Y-78285750D01*
X96861954Y-78285750D01*
X96861954Y-77375000D01*
X96837200Y-77243445D01*
X96759451Y-77122620D01*
X96640820Y-77041563D01*
X96554699Y-77024123D01*
X96698822Y-76880000D01*
X97096975Y-76880000D01*
X96961673Y-77015301D01*
X96865000Y-77248690D01*
X96865000Y-77714250D01*
X97023750Y-77873000D01*
X97873000Y-77873000D01*
X97873000Y-77853000D01*
X98127000Y-77853000D01*
X98127000Y-77873000D01*
X98976250Y-77873000D01*
X99135000Y-77714250D01*
X99135000Y-77248690D01*
X99038327Y-77015301D01*
X98903025Y-76880000D01*
X101076178Y-76880000D01*
X101286627Y-77090449D01*
X101247620Y-77115549D01*
X101166563Y-77234180D01*
X101138046Y-77375000D01*
X101138046Y-78625000D01*
X101162800Y-78756555D01*
X101240549Y-78877380D01*
X101359180Y-78958437D01*
X101500000Y-78986954D01*
X102500000Y-78986954D01*
X102631555Y-78962200D01*
X102752380Y-78884451D01*
X102833437Y-78765820D01*
X102861954Y-78625000D01*
X102861954Y-78285750D01*
X102865000Y-78285750D01*
X102865000Y-78751310D01*
X102961673Y-78984699D01*
X103140302Y-79163327D01*
X103373691Y-79260000D01*
X103714250Y-79260000D01*
X103873000Y-79101250D01*
X103873000Y-78127000D01*
X104127000Y-78127000D01*
X104127000Y-79101250D01*
X104285750Y-79260000D01*
X104626309Y-79260000D01*
X104859698Y-79163327D01*
X105038327Y-78984699D01*
X105135000Y-78751310D01*
X105135000Y-78285750D01*
X104976250Y-78127000D01*
X104127000Y-78127000D01*
X103873000Y-78127000D01*
X103023750Y-78127000D01*
X102865000Y-78285750D01*
X102861954Y-78285750D01*
X102861954Y-77375000D01*
X102838187Y-77248690D01*
X102865000Y-77248690D01*
X102865000Y-77714250D01*
X103023750Y-77873000D01*
X103873000Y-77873000D01*
X103873000Y-76898750D01*
X104127000Y-76898750D01*
X104127000Y-77873000D01*
X104976250Y-77873000D01*
X105135000Y-77714250D01*
X105135000Y-77248690D01*
X105038327Y-77015301D01*
X104859698Y-76836673D01*
X104626309Y-76740000D01*
X104285750Y-76740000D01*
X104127000Y-76898750D01*
X103873000Y-76898750D01*
X103714250Y-76740000D01*
X103373691Y-76740000D01*
X103140302Y-76836673D01*
X102961673Y-77015301D01*
X102865000Y-77248690D01*
X102838187Y-77248690D01*
X102837200Y-77243445D01*
X102759451Y-77122620D01*
X102640820Y-77041563D01*
X102500000Y-77013046D01*
X102457731Y-77013046D01*
X102443462Y-76941312D01*
X102339411Y-76785589D01*
X101614411Y-76060589D01*
X101458688Y-75956538D01*
X101275000Y-75920000D01*
X96500000Y-75920000D01*
X96316312Y-75956538D01*
X96160589Y-76060589D01*
X95660589Y-76560589D01*
X95556538Y-76716312D01*
X95520000Y-76900000D01*
X95520000Y-77013046D01*
X95500000Y-77013046D01*
X95368445Y-77037800D01*
X95247620Y-77115549D01*
X95166563Y-77234180D01*
X95138046Y-77375000D01*
X87743822Y-77375000D01*
X89468822Y-75650000D01*
X105338046Y-75650000D01*
X105338046Y-77150000D01*
X105362800Y-77281555D01*
X105440549Y-77402380D01*
X105559180Y-77483437D01*
X105700000Y-77511954D01*
X107000000Y-77511954D01*
X107131555Y-77487200D01*
X107252380Y-77409451D01*
X107333437Y-77290820D01*
X107361954Y-77150000D01*
X107361954Y-76880000D01*
X112701178Y-76880000D01*
X113444979Y-77623801D01*
X113444887Y-77729716D01*
X113544394Y-77970543D01*
X113728488Y-78154958D01*
X113969141Y-78254886D01*
X114229716Y-78255113D01*
X114470543Y-78155606D01*
X114654958Y-77971512D01*
X114754886Y-77730859D01*
X114755113Y-77470284D01*
X114655606Y-77229457D01*
X114471512Y-77045042D01*
X114230859Y-76945114D01*
X114123843Y-76945021D01*
X113239411Y-76060589D01*
X113083688Y-75956538D01*
X112900000Y-75920000D01*
X107361954Y-75920000D01*
X107361954Y-75650000D01*
X107337200Y-75518445D01*
X107259451Y-75397620D01*
X107140820Y-75316563D01*
X107000000Y-75288046D01*
X105700000Y-75288046D01*
X105568445Y-75312800D01*
X105447620Y-75390549D01*
X105366563Y-75509180D01*
X105338046Y-75650000D01*
X89468822Y-75650000D01*
X91486822Y-73632000D01*
X91501660Y-73632000D01*
X91576488Y-73706958D01*
X91817141Y-73806886D01*
X92077716Y-73807113D01*
X92318543Y-73707606D01*
X92502958Y-73523512D01*
X92602886Y-73282859D01*
X92603113Y-73022284D01*
X92503606Y-72781457D01*
X92319512Y-72597042D01*
X92078859Y-72497114D01*
X91818284Y-72496887D01*
X91577457Y-72596394D01*
X91501719Y-72672000D01*
X91288000Y-72672000D01*
X91104312Y-72708538D01*
X90948589Y-72812589D01*
X78360589Y-85400589D01*
X78256538Y-85556312D01*
X78242269Y-85628046D01*
X77950000Y-85628046D01*
X77818445Y-85652800D01*
X77697620Y-85730549D01*
X77616563Y-85849180D01*
X77588046Y-85990000D01*
X77588046Y-86160000D01*
X76174000Y-86160000D01*
X75990312Y-86196538D01*
X75834589Y-86300589D01*
X74590589Y-87544589D01*
X74486538Y-87700312D01*
X74450000Y-87884000D01*
X74450000Y-89971178D01*
X73128199Y-91292979D01*
X73022284Y-91292887D01*
X72781457Y-91392394D01*
X72597042Y-91576488D01*
X72497114Y-91817141D01*
X72496887Y-92077716D01*
X72005840Y-92077716D01*
X72680882Y-88684051D01*
X79090852Y-79090852D01*
X88684051Y-72680882D01*
X98758509Y-70676948D01*
X98343598Y-71091135D01*
X98343598Y-71091135D01*
G37*
X98343598Y-71091135D02*
X98045340Y-71809420D01*
X98044661Y-72587168D01*
X98341665Y-73305972D01*
X98891135Y-73856402D01*
X99609420Y-74154660D01*
X100387168Y-74155339D01*
X101105972Y-73858335D01*
X101656402Y-73308865D01*
X101805415Y-72950000D01*
X105338046Y-72950000D01*
X105338046Y-74450000D01*
X105362800Y-74581555D01*
X105440549Y-74702380D01*
X105559180Y-74783437D01*
X105700000Y-74811954D01*
X107000000Y-74811954D01*
X107131555Y-74787200D01*
X107252380Y-74709451D01*
X107333437Y-74590820D01*
X107361954Y-74450000D01*
X107361954Y-73378000D01*
X108011660Y-73378000D01*
X108086488Y-73452958D01*
X108327141Y-73552886D01*
X108587716Y-73553113D01*
X108828543Y-73453606D01*
X109012958Y-73269512D01*
X109112886Y-73028859D01*
X109113113Y-72768284D01*
X109013606Y-72527457D01*
X108829512Y-72343042D01*
X108588859Y-72243114D01*
X108328284Y-72242887D01*
X108087457Y-72342394D01*
X108011719Y-72418000D01*
X107152000Y-72418000D01*
X106968312Y-72454538D01*
X106812589Y-72558589D01*
X106783132Y-72588046D01*
X105700000Y-72588046D01*
X105568445Y-72612800D01*
X105447620Y-72690549D01*
X105366563Y-72809180D01*
X105338046Y-72950000D01*
X101805415Y-72950000D01*
X101954660Y-72590580D01*
X101955339Y-71812832D01*
X101658335Y-71094028D01*
X101242104Y-70677070D01*
X111315949Y-72680882D01*
X120909148Y-79090852D01*
X127319118Y-88684051D01*
X129570000Y-100000000D01*
X127319118Y-111315949D01*
X120909148Y-120909148D01*
X111315949Y-127319118D01*
X100000000Y-129570000D01*
X91649393Y-127908961D01*
X91823716Y-127909113D01*
X92064543Y-127809606D01*
X92140281Y-127734000D01*
X92710000Y-127734000D01*
X92893688Y-127697462D01*
X93049411Y-127593411D01*
X94686822Y-125956000D01*
X104902000Y-125956000D01*
X105085688Y-125919462D01*
X105241411Y-125815411D01*
X106213106Y-124843716D01*
X112628887Y-124843716D01*
X112728394Y-125084543D01*
X112912488Y-125268958D01*
X113153141Y-125368886D01*
X113413716Y-125369113D01*
X113654543Y-125269606D01*
X113838958Y-125085512D01*
X113938886Y-124844859D01*
X113938979Y-124737843D01*
X121599411Y-117077412D01*
X121703462Y-116921688D01*
X121729180Y-116792394D01*
X121740000Y-116738000D01*
X121740000Y-114331954D01*
X122010000Y-114331954D01*
X122141555Y-114307200D01*
X122262380Y-114229451D01*
X122343437Y-114110820D01*
X122371954Y-113970000D01*
X122371954Y-113800000D01*
X124049598Y-113800000D01*
X124088488Y-113838958D01*
X124329141Y-113938886D01*
X124589716Y-113939113D01*
X124830543Y-113839606D01*
X125014958Y-113655512D01*
X125114886Y-113414859D01*
X125115113Y-113154284D01*
X125015606Y-112913457D01*
X124831512Y-112729042D01*
X124590859Y-112629114D01*
X124330284Y-112628887D01*
X124089457Y-112728394D01*
X123977656Y-112840000D01*
X122371954Y-112840000D01*
X122371954Y-112670000D01*
X122347200Y-112538445D01*
X122269451Y-112417620D01*
X122150820Y-112336563D01*
X122010000Y-112308046D01*
X120510000Y-112308046D01*
X120378445Y-112332800D01*
X120257620Y-112410549D01*
X120176563Y-112529180D01*
X120148046Y-112670000D01*
X120148046Y-113970000D01*
X120172800Y-114101555D01*
X120250549Y-114222380D01*
X120369180Y-114303437D01*
X120510000Y-114331954D01*
X120780000Y-114331954D01*
X120780000Y-116539177D01*
X113260199Y-124058979D01*
X113154284Y-124058887D01*
X112913457Y-124158394D01*
X112729042Y-124342488D01*
X112629114Y-124583141D01*
X112628887Y-124843716D01*
X106213106Y-124843716D01*
X107973801Y-123083021D01*
X108079716Y-123083113D01*
X108320543Y-122983606D01*
X108504958Y-122799512D01*
X108604886Y-122558859D01*
X108605113Y-122298284D01*
X108505606Y-122057457D01*
X108321512Y-121873042D01*
X108080859Y-121773114D01*
X107820284Y-121772887D01*
X107579457Y-121872394D01*
X107395042Y-122056488D01*
X107295114Y-122297141D01*
X107295021Y-122404157D01*
X104703178Y-124996000D01*
X94488000Y-124996000D01*
X94304312Y-125032538D01*
X94148589Y-125136589D01*
X92511178Y-126774000D01*
X92140340Y-126774000D01*
X92065512Y-126699042D01*
X91824859Y-126599114D01*
X91564284Y-126598887D01*
X91323457Y-126698394D01*
X91139042Y-126882488D01*
X91039114Y-127123141D01*
X91038887Y-127383716D01*
X91138394Y-127624543D01*
X91322488Y-127808958D01*
X91484179Y-127876098D01*
X88684051Y-127319118D01*
X84979350Y-124843716D01*
X86212887Y-124843716D01*
X86312394Y-125084543D01*
X86496488Y-125268958D01*
X86737141Y-125368886D01*
X86997716Y-125369113D01*
X87238543Y-125269606D01*
X87422958Y-125085512D01*
X87522886Y-124844859D01*
X87522979Y-124737843D01*
X88082822Y-124178000D01*
X103886000Y-124178000D01*
X104069688Y-124141462D01*
X104225411Y-124037411D01*
X107640823Y-120622000D01*
X110998000Y-120622000D01*
X111181688Y-120585462D01*
X111337411Y-120481411D01*
X112244411Y-119574411D01*
X112348462Y-119418688D01*
X112385000Y-119235000D01*
X112385000Y-118141954D01*
X113205000Y-118141954D01*
X113336555Y-118117200D01*
X113457380Y-118039451D01*
X113538437Y-117920820D01*
X113566954Y-117780000D01*
X113566954Y-113429716D01*
X115544887Y-113429716D01*
X115644394Y-113670543D01*
X115828488Y-113854958D01*
X116069141Y-113954886D01*
X116329716Y-113955113D01*
X116570543Y-113855606D01*
X116646281Y-113780000D01*
X117448046Y-113780000D01*
X117448046Y-113970000D01*
X117472800Y-114101555D01*
X117550549Y-114222380D01*
X117669180Y-114303437D01*
X117810000Y-114331954D01*
X119310000Y-114331954D01*
X119441555Y-114307200D01*
X119562380Y-114229451D01*
X119643437Y-114110820D01*
X119671954Y-113970000D01*
X119671954Y-112670000D01*
X119647200Y-112538445D01*
X119569451Y-112417620D01*
X119450820Y-112336563D01*
X119310000Y-112308046D01*
X117810000Y-112308046D01*
X117678445Y-112332800D01*
X117557620Y-112410549D01*
X117476563Y-112529180D01*
X117448046Y-112670000D01*
X117448046Y-112820000D01*
X116646340Y-112820000D01*
X116571512Y-112745042D01*
X116330859Y-112645114D01*
X116070284Y-112644887D01*
X115829457Y-112744394D01*
X115645042Y-112928488D01*
X115545114Y-113169141D01*
X115544887Y-113429716D01*
X113566954Y-113429716D01*
X113566954Y-112220000D01*
X113542200Y-112088445D01*
X113541270Y-112087000D01*
X117501000Y-112087000D01*
X117684688Y-112050462D01*
X117840411Y-111946411D01*
X119911801Y-109875021D01*
X120017716Y-109875113D01*
X120258543Y-109775606D01*
X120442958Y-109591512D01*
X120542886Y-109350859D01*
X120543113Y-109090284D01*
X120443606Y-108849457D01*
X120259512Y-108665042D01*
X120018859Y-108565114D01*
X119758284Y-108564887D01*
X119517457Y-108664394D01*
X119333042Y-108848488D01*
X119233114Y-109089141D01*
X119233021Y-109196157D01*
X117302178Y-111127000D01*
X112268000Y-111127000D01*
X112084312Y-111163538D01*
X111928589Y-111267588D01*
X111565589Y-111630589D01*
X111461538Y-111786312D01*
X111447269Y-111858046D01*
X110605000Y-111858046D01*
X110473445Y-111882800D01*
X110352620Y-111960549D01*
X110271563Y-112079180D01*
X110243046Y-112220000D01*
X110243046Y-117780000D01*
X110267800Y-117911555D01*
X110345549Y-118032380D01*
X110464180Y-118113437D01*
X110605000Y-118141954D01*
X111425000Y-118141954D01*
X111425000Y-119036178D01*
X110799178Y-119662000D01*
X107442000Y-119662000D01*
X107258312Y-119698538D01*
X107102588Y-119802589D01*
X103687178Y-123218000D01*
X87884000Y-123218000D01*
X87700312Y-123254538D01*
X87544589Y-123358589D01*
X86844199Y-124058979D01*
X86738284Y-124058887D01*
X86497457Y-124158394D01*
X86313042Y-124342488D01*
X86213114Y-124583141D01*
X86212887Y-124843716D01*
X84979350Y-124843716D01*
X79090852Y-120909148D01*
X74252283Y-113667716D01*
X75036887Y-113667716D01*
X75136394Y-113908543D01*
X75320488Y-114092958D01*
X75561141Y-114192886D01*
X75821716Y-114193113D01*
X76062543Y-114093606D01*
X76138281Y-114018000D01*
X77588046Y-114018000D01*
X77588046Y-114150000D01*
X77612800Y-114281555D01*
X77690549Y-114402380D01*
X77809180Y-114483437D01*
X77950000Y-114511954D01*
X78220000Y-114511954D01*
X78220000Y-116038000D01*
X78256538Y-116221688D01*
X78360589Y-116377411D01*
X81448588Y-119465411D01*
X81604312Y-119569462D01*
X81788000Y-119606000D01*
X106172000Y-119606000D01*
X106355688Y-119569462D01*
X106511411Y-119465411D01*
X108035411Y-117941412D01*
X108139462Y-117785688D01*
X108152818Y-117718543D01*
X108176000Y-117602000D01*
X108176000Y-111958822D01*
X111704822Y-108430000D01*
X121727660Y-108430000D01*
X121802488Y-108504958D01*
X122043141Y-108604886D01*
X122303716Y-108605113D01*
X122544543Y-108505606D01*
X122728958Y-108321512D01*
X122828886Y-108080859D01*
X122829113Y-107820284D01*
X122729606Y-107579457D01*
X122545512Y-107395042D01*
X122304859Y-107295114D01*
X122044284Y-107294887D01*
X121803457Y-107394394D01*
X121727719Y-107470000D01*
X111506000Y-107470000D01*
X111322312Y-107506538D01*
X111166589Y-107610589D01*
X107356589Y-111420589D01*
X107252538Y-111576312D01*
X107216000Y-111760000D01*
X107216000Y-117403177D01*
X105973178Y-118646000D01*
X81986823Y-118646000D01*
X79180000Y-115839178D01*
X79180000Y-114511954D01*
X79450000Y-114511954D01*
X79581555Y-114487200D01*
X79702380Y-114409451D01*
X79783437Y-114290820D01*
X79811954Y-114150000D01*
X79811954Y-112850000D01*
X80288046Y-112850000D01*
X80288046Y-114150000D01*
X80312800Y-114281555D01*
X80390549Y-114402380D01*
X80509180Y-114483437D01*
X80650000Y-114511954D01*
X82150000Y-114511954D01*
X82281555Y-114487200D01*
X82402380Y-114409451D01*
X82483437Y-114290820D01*
X82511954Y-114150000D01*
X82511954Y-112850000D01*
X82487200Y-112718445D01*
X82409451Y-112597620D01*
X82290820Y-112516563D01*
X82150000Y-112488046D01*
X81980000Y-112488046D01*
X81980000Y-111646340D01*
X82054958Y-111571512D01*
X82154886Y-111330859D01*
X82155113Y-111070284D01*
X82055606Y-110829457D01*
X81871512Y-110645042D01*
X81630859Y-110545114D01*
X81370284Y-110544887D01*
X81129457Y-110644394D01*
X80945042Y-110828488D01*
X80845114Y-111069141D01*
X80844887Y-111329716D01*
X80944394Y-111570543D01*
X81020000Y-111646281D01*
X81020000Y-112488046D01*
X80650000Y-112488046D01*
X80518445Y-112512800D01*
X80397620Y-112590549D01*
X80316563Y-112709180D01*
X80288046Y-112850000D01*
X79811954Y-112850000D01*
X79787200Y-112718445D01*
X79709451Y-112597620D01*
X79590820Y-112516563D01*
X79450000Y-112488046D01*
X77950000Y-112488046D01*
X77818445Y-112512800D01*
X77697620Y-112590549D01*
X77616563Y-112709180D01*
X77588046Y-112850000D01*
X77588046Y-113058000D01*
X76138340Y-113058000D01*
X76063512Y-112983042D01*
X75822859Y-112883114D01*
X75562284Y-112882887D01*
X75321457Y-112982394D01*
X75137042Y-113166488D01*
X75037114Y-113407141D01*
X75036887Y-113667716D01*
X74252283Y-113667716D01*
X72680882Y-111315949D01*
X72188727Y-108841716D01*
X72496887Y-108841716D01*
X72596394Y-109082543D01*
X72780488Y-109266958D01*
X73021141Y-109366886D01*
X73281716Y-109367113D01*
X73522543Y-109267606D01*
X73706958Y-109083512D01*
X73806886Y-108842859D01*
X73807113Y-108582284D01*
X73707606Y-108341457D01*
X73632000Y-108265719D01*
X73632000Y-107386822D01*
X74508822Y-106510000D01*
X77588046Y-106510000D01*
X77588046Y-106680000D01*
X77612800Y-106811555D01*
X77690549Y-106932380D01*
X77809180Y-107013437D01*
X77950000Y-107041954D01*
X78220000Y-107041954D01*
X78220000Y-107148000D01*
X78256538Y-107331688D01*
X78360589Y-107487411D01*
X78908589Y-108035411D01*
X79064312Y-108139462D01*
X79248000Y-108176000D01*
X83875178Y-108176000D01*
X84610000Y-108910822D01*
X84610000Y-113545000D01*
X84646538Y-113728688D01*
X84750589Y-113884411D01*
X86205589Y-115339411D01*
X86361312Y-115443462D01*
X86433046Y-115457731D01*
X86433046Y-117780000D01*
X86457800Y-117911555D01*
X86535549Y-118032380D01*
X86654180Y-118113437D01*
X86795000Y-118141954D01*
X89395000Y-118141954D01*
X89526555Y-118117200D01*
X89647380Y-118039451D01*
X89728437Y-117920820D01*
X89756954Y-117780000D01*
X89756954Y-115581776D01*
X89944000Y-115768822D01*
X89944000Y-116901660D01*
X89869042Y-116976488D01*
X89769114Y-117217141D01*
X89768887Y-117477716D01*
X89868394Y-117718543D01*
X90052488Y-117902958D01*
X90293141Y-118002886D01*
X90553716Y-118003113D01*
X90794543Y-117903606D01*
X90978958Y-117719512D01*
X91078886Y-117478859D01*
X91079113Y-117218284D01*
X90979606Y-116977457D01*
X90904000Y-116901719D01*
X90904000Y-115570000D01*
X90867462Y-115386312D01*
X90800269Y-115285750D01*
X94365000Y-115285750D01*
X94365000Y-117906310D01*
X94461673Y-118139699D01*
X94640302Y-118318327D01*
X94873691Y-118415000D01*
X99714250Y-118415000D01*
X99873000Y-118256250D01*
X99873000Y-115127000D01*
X100127000Y-115127000D01*
X100127000Y-118256250D01*
X100285750Y-118415000D01*
X105126309Y-118415000D01*
X105359698Y-118318327D01*
X105538327Y-118139699D01*
X105635000Y-117906310D01*
X105635000Y-115285750D01*
X105476250Y-115127000D01*
X100127000Y-115127000D01*
X99873000Y-115127000D01*
X94523750Y-115127000D01*
X94365000Y-115285750D01*
X90800269Y-115285750D01*
X90763411Y-115230589D01*
X90193411Y-114660589D01*
X90037688Y-114556538D01*
X89854000Y-114520000D01*
X89756954Y-114520000D01*
X89756954Y-112220000D01*
X89733187Y-112093690D01*
X94365000Y-112093690D01*
X94365000Y-114714250D01*
X94523750Y-114873000D01*
X99873000Y-114873000D01*
X99873000Y-111743750D01*
X100127000Y-111743750D01*
X100127000Y-114873000D01*
X105476250Y-114873000D01*
X105635000Y-114714250D01*
X105635000Y-112093690D01*
X105538327Y-111860301D01*
X105359698Y-111681673D01*
X105126309Y-111585000D01*
X100285750Y-111585000D01*
X100127000Y-111743750D01*
X99873000Y-111743750D01*
X99714250Y-111585000D01*
X94873691Y-111585000D01*
X94640302Y-111681673D01*
X94461673Y-111860301D01*
X94365000Y-112093690D01*
X89733187Y-112093690D01*
X89732200Y-112088445D01*
X89654451Y-111967620D01*
X89535820Y-111886563D01*
X89395000Y-111858046D01*
X86795000Y-111858046D01*
X86663445Y-111882800D01*
X86542620Y-111960549D01*
X86461563Y-112079180D01*
X86433046Y-112220000D01*
X86433046Y-114209224D01*
X85570000Y-113346178D01*
X85570000Y-108712000D01*
X85533462Y-108528312D01*
X85429411Y-108372589D01*
X84413411Y-107356589D01*
X84257688Y-107252538D01*
X84074000Y-107216000D01*
X79446822Y-107216000D01*
X79272776Y-107041954D01*
X79450000Y-107041954D01*
X79581555Y-107017200D01*
X79702380Y-106939451D01*
X79783437Y-106820820D01*
X79811954Y-106680000D01*
X79811954Y-105380000D01*
X80288046Y-105380000D01*
X80288046Y-106680000D01*
X80312800Y-106811555D01*
X80390549Y-106932380D01*
X80509180Y-107013437D01*
X80650000Y-107041954D01*
X82150000Y-107041954D01*
X82281555Y-107017200D01*
X82402380Y-106939451D01*
X82483437Y-106820820D01*
X82511954Y-106680000D01*
X82511954Y-106510000D01*
X85583660Y-106510000D01*
X85658488Y-106584958D01*
X85899141Y-106684886D01*
X86159716Y-106685113D01*
X86400543Y-106585606D01*
X86584958Y-106401512D01*
X86684886Y-106160859D01*
X86685113Y-105900284D01*
X86585606Y-105659457D01*
X86401512Y-105475042D01*
X86160859Y-105375114D01*
X85900284Y-105374887D01*
X85659457Y-105474394D01*
X85583719Y-105550000D01*
X82511954Y-105550000D01*
X82511954Y-105380000D01*
X82487200Y-105248445D01*
X82409451Y-105127620D01*
X82290820Y-105046563D01*
X82150000Y-105018046D01*
X80650000Y-105018046D01*
X80518445Y-105042800D01*
X80397620Y-105120549D01*
X80316563Y-105239180D01*
X80288046Y-105380000D01*
X79811954Y-105380000D01*
X79787200Y-105248445D01*
X79709451Y-105127620D01*
X79590820Y-105046563D01*
X79450000Y-105018046D01*
X77950000Y-105018046D01*
X77818445Y-105042800D01*
X77697620Y-105120549D01*
X77616563Y-105239180D01*
X77588046Y-105380000D01*
X77588046Y-105550000D01*
X77142001Y-105550000D01*
X77142001Y-100285750D01*
X79465000Y-100285750D01*
X79465000Y-101026310D01*
X79561673Y-101259699D01*
X79740302Y-101438327D01*
X79973691Y-101535000D01*
X80714250Y-101535000D01*
X80873000Y-101376250D01*
X80873000Y-100127000D01*
X79623750Y-100127000D01*
X79465000Y-100285750D01*
X77142001Y-100285750D01*
X77142001Y-98973690D01*
X79465000Y-98973690D01*
X79465000Y-99714250D01*
X79623750Y-99873000D01*
X80873000Y-99873000D01*
X80873000Y-98623750D01*
X81127000Y-98623750D01*
X81127000Y-99873000D01*
X81147000Y-99873000D01*
X81147000Y-100127000D01*
X81127000Y-100127000D01*
X81127000Y-101376250D01*
X81285750Y-101535000D01*
X82026309Y-101535000D01*
X82259698Y-101438327D01*
X82438327Y-101259699D01*
X82535000Y-101026310D01*
X82535000Y-100769634D01*
X82828171Y-101063317D01*
X83289270Y-101254782D01*
X83788540Y-101255217D01*
X84249972Y-101064558D01*
X84603317Y-100711829D01*
X84794782Y-100250730D01*
X84795217Y-99751460D01*
X84604558Y-99290028D01*
X84251829Y-98936683D01*
X84020000Y-98840419D01*
X84020000Y-97721954D01*
X84260000Y-97721954D01*
X84391555Y-97697200D01*
X84512380Y-97619451D01*
X84593437Y-97500820D01*
X84621954Y-97360000D01*
X84621954Y-95860000D01*
X84597200Y-95728445D01*
X84519451Y-95607620D01*
X84400820Y-95526563D01*
X84260000Y-95498046D01*
X82960000Y-95498046D01*
X82828445Y-95522800D01*
X82707620Y-95600549D01*
X82626563Y-95719180D01*
X82598046Y-95860000D01*
X82598046Y-97360000D01*
X82622800Y-97491555D01*
X82700549Y-97612380D01*
X82819180Y-97693437D01*
X82960000Y-97721954D01*
X83060000Y-97721954D01*
X83060000Y-98840420D01*
X82830028Y-98935442D01*
X82535000Y-99229956D01*
X82535000Y-98973690D01*
X82438327Y-98740301D01*
X82259698Y-98561673D01*
X82026309Y-98465000D01*
X81285750Y-98465000D01*
X81127000Y-98623750D01*
X80873000Y-98623750D01*
X80714250Y-98465000D01*
X79973691Y-98465000D01*
X79740302Y-98561673D01*
X79561673Y-98740301D01*
X79465000Y-98973690D01*
X77142001Y-98973690D01*
X77142001Y-88772336D01*
X77332543Y-88693606D01*
X77516958Y-88509512D01*
X77616886Y-88268859D01*
X77617113Y-88008284D01*
X77517606Y-87767457D01*
X77333512Y-87583042D01*
X77092859Y-87483114D01*
X76832284Y-87482887D01*
X76591457Y-87582394D01*
X76407042Y-87766488D01*
X76307114Y-88007141D01*
X76307014Y-88121899D01*
X76218539Y-88254311D01*
X76182001Y-88437999D01*
X76182001Y-105550000D01*
X74310000Y-105550000D01*
X74126312Y-105586538D01*
X73970589Y-105690589D01*
X72812589Y-106848589D01*
X72708538Y-107004312D01*
X72672000Y-107188000D01*
X72672000Y-108265660D01*
X72597042Y-108340488D01*
X72497114Y-108581141D01*
X72496887Y-108841716D01*
X72188727Y-108841716D01*
X70430000Y-100000000D01*
X72005840Y-92077716D01*
X72496887Y-92077716D01*
X72596394Y-92318543D01*
X72780488Y-92502958D01*
X73021141Y-92602886D01*
X73281716Y-92603113D01*
X73522543Y-92503606D01*
X73706958Y-92319512D01*
X73806886Y-92078859D01*
X73806979Y-91971843D01*
X75269411Y-90509411D01*
X75373462Y-90353688D01*
X75410000Y-90170000D01*
X75410000Y-88082822D01*
X76372822Y-87120000D01*
X77588046Y-87120000D01*
X77588046Y-87290000D01*
X77612800Y-87421555D01*
X77690549Y-87542380D01*
X77809180Y-87623437D01*
X77950000Y-87651954D01*
X79450000Y-87651954D01*
X79581555Y-87627200D01*
X79702380Y-87549451D01*
X79783437Y-87430820D01*
X79811954Y-87290000D01*
X79811954Y-85990000D01*
X80288046Y-85990000D01*
X80288046Y-87290000D01*
X80312800Y-87421555D01*
X80390549Y-87542380D01*
X80509180Y-87623437D01*
X80650000Y-87651954D01*
X82150000Y-87651954D01*
X82281555Y-87627200D01*
X82402380Y-87549451D01*
X82483437Y-87430820D01*
X82489678Y-87400000D01*
X93993974Y-87400000D01*
X94040549Y-87472380D01*
X94159180Y-87553437D01*
X94165474Y-87554712D01*
X94047620Y-87630549D01*
X93993334Y-87710000D01*
X85910000Y-87710000D01*
X85726312Y-87746538D01*
X85570589Y-87850589D01*
X83270589Y-90150589D01*
X83166538Y-90306312D01*
X83130000Y-90490000D01*
X83130000Y-92798046D01*
X82960000Y-92798046D01*
X82828445Y-92822800D01*
X82707620Y-92900549D01*
X82626563Y-93019180D01*
X82598046Y-93160000D01*
X82598046Y-94660000D01*
X82622800Y-94791555D01*
X82700549Y-94912380D01*
X82819180Y-94993437D01*
X82960000Y-95021954D01*
X84260000Y-95021954D01*
X84391555Y-94997200D01*
X84512380Y-94919451D01*
X84593437Y-94800820D01*
X84621954Y-94660000D01*
X84621954Y-93409716D01*
X86924887Y-93409716D01*
X87024394Y-93650543D01*
X87208488Y-93834958D01*
X87449141Y-93934886D01*
X87709716Y-93935113D01*
X87950543Y-93835606D01*
X88036298Y-93750000D01*
X93993974Y-93750000D01*
X94040549Y-93822380D01*
X94159180Y-93903437D01*
X94165474Y-93904712D01*
X94047620Y-93980549D01*
X93966563Y-94099180D01*
X93938046Y-94240000D01*
X93938046Y-94840000D01*
X93962800Y-94971555D01*
X94040549Y-95092380D01*
X94159180Y-95173437D01*
X94165474Y-95174712D01*
X94047620Y-95250549D01*
X93966563Y-95369180D01*
X93938046Y-95510000D01*
X93938046Y-96110000D01*
X93962800Y-96241555D01*
X94040549Y-96362380D01*
X94159180Y-96443437D01*
X94165474Y-96444712D01*
X94047620Y-96520549D01*
X93984421Y-96613045D01*
X93949454Y-96620000D01*
X88900000Y-96620000D01*
X88716312Y-96656538D01*
X88560589Y-96760589D01*
X87460589Y-97860589D01*
X87356538Y-98016312D01*
X87320000Y-98200000D01*
X87320000Y-104388796D01*
X87245114Y-104569141D01*
X87244887Y-104829716D01*
X87344394Y-105070543D01*
X87528488Y-105254958D01*
X87769141Y-105354886D01*
X88029716Y-105355113D01*
X88270543Y-105255606D01*
X88454958Y-105071512D01*
X88554886Y-104830859D01*
X88555113Y-104570284D01*
X88455606Y-104329457D01*
X88280000Y-104153545D01*
X88280000Y-98398822D01*
X89098822Y-97580000D01*
X94006843Y-97580000D01*
X94040549Y-97632380D01*
X94159180Y-97713437D01*
X94300000Y-97741954D01*
X96300000Y-97741954D01*
X96431555Y-97717200D01*
X96552380Y-97639451D01*
X96633437Y-97520820D01*
X96661954Y-97380000D01*
X96661954Y-96780000D01*
X96637200Y-96648445D01*
X96559451Y-96527620D01*
X96440820Y-96446563D01*
X96434526Y-96445288D01*
X96552380Y-96369451D01*
X96608498Y-96287320D01*
X96820000Y-96498822D01*
X96820000Y-98800000D01*
X96856538Y-98983688D01*
X96960589Y-99139411D01*
X98360589Y-100539411D01*
X98516312Y-100643462D01*
X98700000Y-100680000D01*
X109753660Y-100680000D01*
X109828488Y-100754958D01*
X110069141Y-100854886D01*
X110329716Y-100855113D01*
X110570543Y-100755606D01*
X110754958Y-100571512D01*
X110854886Y-100330859D01*
X110855113Y-100070284D01*
X110755606Y-99829457D01*
X110571512Y-99645042D01*
X110330859Y-99545114D01*
X110070284Y-99544887D01*
X109829457Y-99644394D01*
X109753719Y-99720000D01*
X98898822Y-99720000D01*
X97780000Y-98601178D01*
X97780000Y-96300000D01*
X97743462Y-96116312D01*
X97639411Y-95960589D01*
X97139411Y-95460589D01*
X96983688Y-95356538D01*
X96800000Y-95320000D01*
X96599592Y-95320000D01*
X96559451Y-95257620D01*
X96440820Y-95176563D01*
X96434526Y-95175288D01*
X96552380Y-95099451D01*
X96633437Y-94980820D01*
X96661954Y-94840000D01*
X96661954Y-94240000D01*
X96637200Y-94108445D01*
X96559451Y-93987620D01*
X96440820Y-93906563D01*
X96434526Y-93905288D01*
X96552380Y-93829451D01*
X96633437Y-93710820D01*
X96661954Y-93570000D01*
X96661954Y-92970000D01*
X96638806Y-92846981D01*
X96659698Y-92838327D01*
X96838327Y-92659699D01*
X96935000Y-92426310D01*
X96935000Y-92285750D01*
X96776250Y-92127000D01*
X95427000Y-92127000D01*
X95427000Y-92147000D01*
X95173000Y-92147000D01*
X95173000Y-92127000D01*
X93823750Y-92127000D01*
X93665000Y-92285750D01*
X93665000Y-92426310D01*
X93761673Y-92659699D01*
X93891975Y-92790000D01*
X88016357Y-92790000D01*
X87951512Y-92725042D01*
X87710859Y-92625114D01*
X87450284Y-92624887D01*
X87209457Y-92724394D01*
X87025042Y-92908488D01*
X86925114Y-93149141D01*
X86924887Y-93409716D01*
X84621954Y-93409716D01*
X84621954Y-93160000D01*
X84597200Y-93028445D01*
X84519451Y-92907620D01*
X84400820Y-92826563D01*
X84260000Y-92798046D01*
X84090000Y-92798046D01*
X84090000Y-90688822D01*
X86108822Y-88670000D01*
X93993974Y-88670000D01*
X94040549Y-88742380D01*
X94159180Y-88823437D01*
X94165474Y-88824712D01*
X94047620Y-88900549D01*
X93966563Y-89019180D01*
X93938046Y-89160000D01*
X93938046Y-89760000D01*
X93962800Y-89891555D01*
X94040549Y-90012380D01*
X94159180Y-90093437D01*
X94165474Y-90094712D01*
X94047620Y-90170549D01*
X93966563Y-90289180D01*
X93938046Y-90430000D01*
X93938046Y-91030000D01*
X93961194Y-91153019D01*
X93940302Y-91161673D01*
X93761673Y-91340301D01*
X93665000Y-91573690D01*
X93665000Y-91714250D01*
X93823750Y-91873000D01*
X95173000Y-91873000D01*
X95173000Y-91853000D01*
X95427000Y-91853000D01*
X95427000Y-91873000D01*
X96776250Y-91873000D01*
X96935000Y-91714250D01*
X96935000Y-91573690D01*
X96838327Y-91340301D01*
X96708025Y-91210000D01*
X97631178Y-91210000D01*
X98420000Y-91998823D01*
X98420000Y-97200000D01*
X98456538Y-97383688D01*
X98560589Y-97539411D01*
X100160589Y-99139411D01*
X100316312Y-99243462D01*
X100500000Y-99280000D01*
X110601178Y-99280000D01*
X114320000Y-102998822D01*
X114320000Y-103738046D01*
X113900000Y-103738046D01*
X113768445Y-103762800D01*
X113647620Y-103840549D01*
X113566563Y-103959180D01*
X113538046Y-104100000D01*
X113538046Y-105900000D01*
X113562800Y-106031555D01*
X113640549Y-106152380D01*
X113759180Y-106233437D01*
X113900000Y-106261954D01*
X115700000Y-106261954D01*
X115831555Y-106237200D01*
X115952380Y-106159451D01*
X116006557Y-106080159D01*
X116439446Y-106080159D01*
X116525852Y-106336643D01*
X117099336Y-106546458D01*
X117709460Y-106520839D01*
X118154148Y-106336643D01*
X118240554Y-106080159D01*
X117340000Y-105179605D01*
X116439446Y-106080159D01*
X116006557Y-106080159D01*
X116033437Y-106040820D01*
X116061954Y-105900000D01*
X116061954Y-105833889D01*
X116259841Y-105900554D01*
X117160395Y-105000000D01*
X117519605Y-105000000D01*
X118420159Y-105900554D01*
X118676643Y-105814148D01*
X118762041Y-105580731D01*
X118815442Y-105709972D01*
X119168171Y-106063317D01*
X119629270Y-106254782D01*
X120128540Y-106255217D01*
X120589972Y-106064558D01*
X120943317Y-105711829D01*
X121080274Y-105382000D01*
X126039178Y-105382000D01*
X126774000Y-106116822D01*
X126774000Y-107757660D01*
X126699042Y-107832488D01*
X126599114Y-108073141D01*
X126598887Y-108333716D01*
X126698394Y-108574543D01*
X126882488Y-108758958D01*
X127123141Y-108858886D01*
X127383716Y-108859113D01*
X127624543Y-108759606D01*
X127808958Y-108575512D01*
X127908886Y-108334859D01*
X127909113Y-108074284D01*
X127809606Y-107833457D01*
X127734000Y-107757719D01*
X127734000Y-105918000D01*
X127697462Y-105734312D01*
X127593411Y-105578589D01*
X126577411Y-104562589D01*
X126421688Y-104458538D01*
X126238000Y-104422000D01*
X120999087Y-104422000D01*
X120944558Y-104290028D01*
X120591829Y-103936683D01*
X120130730Y-103745218D01*
X119631460Y-103744783D01*
X119170028Y-103935442D01*
X118816683Y-104288171D01*
X118767794Y-104405909D01*
X118676643Y-104185852D01*
X118420159Y-104099446D01*
X117519605Y-105000000D01*
X117160395Y-105000000D01*
X116259841Y-104099446D01*
X116061954Y-104166111D01*
X116061954Y-104100000D01*
X116037200Y-103968445D01*
X116005925Y-103919841D01*
X116439446Y-103919841D01*
X117340000Y-104820395D01*
X118240554Y-103919841D01*
X118154148Y-103663357D01*
X117580664Y-103453542D01*
X116970540Y-103479161D01*
X116525852Y-103663357D01*
X116439446Y-103919841D01*
X116005925Y-103919841D01*
X115959451Y-103847620D01*
X115840820Y-103766563D01*
X115700000Y-103738046D01*
X115280000Y-103738046D01*
X115280000Y-102800000D01*
X115243462Y-102616312D01*
X115139411Y-102460589D01*
X111139411Y-98460589D01*
X110983688Y-98356538D01*
X110800000Y-98320000D01*
X100698822Y-98320000D01*
X99380000Y-97001178D01*
X99380000Y-91800000D01*
X99343462Y-91616312D01*
X99317500Y-91577457D01*
X99239412Y-91460589D01*
X98169411Y-90390589D01*
X98013688Y-90286538D01*
X97830000Y-90250000D01*
X96606026Y-90250000D01*
X96559451Y-90177620D01*
X96440820Y-90096563D01*
X96434526Y-90095288D01*
X96552380Y-90019451D01*
X96633437Y-89900820D01*
X96661954Y-89760000D01*
X96661954Y-89160000D01*
X96637200Y-89028445D01*
X96559451Y-88907620D01*
X96440820Y-88826563D01*
X96434526Y-88825288D01*
X96552380Y-88749451D01*
X96633437Y-88630820D01*
X96661954Y-88490000D01*
X96661954Y-87890000D01*
X96637200Y-87758445D01*
X96559451Y-87637620D01*
X96440820Y-87556563D01*
X96434526Y-87555288D01*
X96552380Y-87479451D01*
X96633437Y-87360820D01*
X96661954Y-87220000D01*
X96661954Y-86620000D01*
X96637200Y-86488445D01*
X96559451Y-86367620D01*
X96440820Y-86286563D01*
X96300000Y-86258046D01*
X94300000Y-86258046D01*
X94168445Y-86282800D01*
X94047620Y-86360549D01*
X93993334Y-86440000D01*
X82511954Y-86440000D01*
X82511954Y-85990000D01*
X82487200Y-85858445D01*
X82409451Y-85737620D01*
X82290820Y-85656563D01*
X82150000Y-85628046D01*
X80650000Y-85628046D01*
X80518445Y-85652800D01*
X80397620Y-85730549D01*
X80316563Y-85849180D01*
X80288046Y-85990000D01*
X79811954Y-85990000D01*
X79787200Y-85858445D01*
X79709451Y-85737620D01*
X79590820Y-85656563D01*
X79483909Y-85634913D01*
X81677106Y-83441716D01*
X87482887Y-83441716D01*
X87582394Y-83682543D01*
X87766488Y-83866958D01*
X88007141Y-83966886D01*
X88267716Y-83967113D01*
X88508543Y-83867606D01*
X88692958Y-83683512D01*
X88792886Y-83442859D01*
X88792979Y-83335843D01*
X89898823Y-82230000D01*
X93774552Y-82230000D01*
X93865442Y-82449972D01*
X94218171Y-82803317D01*
X94679270Y-82994782D01*
X95178540Y-82995217D01*
X95639972Y-82804558D01*
X95993317Y-82451829D01*
X96184782Y-81990730D01*
X96185217Y-81491460D01*
X95994558Y-81030028D01*
X95641829Y-80676683D01*
X95180730Y-80485218D01*
X94681460Y-80484783D01*
X94220028Y-80675442D01*
X93866683Y-81028171D01*
X93766267Y-81270000D01*
X89700000Y-81270000D01*
X89516312Y-81306538D01*
X89360589Y-81410588D01*
X88114199Y-82656979D01*
X88008284Y-82656887D01*
X87767457Y-82756394D01*
X87583042Y-82940488D01*
X87483114Y-83181141D01*
X87482887Y-83441716D01*
X81677106Y-83441716D01*
X87743822Y-77375000D01*
X95138046Y-77375000D01*
X95138046Y-78625000D01*
X95162800Y-78756555D01*
X95240549Y-78877380D01*
X95359180Y-78958437D01*
X95500000Y-78986954D01*
X95606829Y-78986954D01*
X95660589Y-79067411D01*
X97000000Y-80406822D01*
X97000000Y-80576288D01*
X96760028Y-80675442D01*
X96406683Y-81028171D01*
X96215218Y-81489270D01*
X96214783Y-81988540D01*
X96405442Y-82449972D01*
X96758171Y-82803317D01*
X97000000Y-82903733D01*
X97000000Y-83002000D01*
X97036538Y-83185688D01*
X97140589Y-83341411D01*
X99088000Y-85288822D01*
X99088000Y-89408000D01*
X99124538Y-89591688D01*
X99228589Y-89747411D01*
X101820589Y-92339412D01*
X101958492Y-92431555D01*
X101976312Y-92443462D01*
X102160000Y-92480000D01*
X103393974Y-92480000D01*
X103440549Y-92552380D01*
X103559180Y-92633437D01*
X103565474Y-92634712D01*
X103447620Y-92710549D01*
X103366563Y-92829180D01*
X103338046Y-92970000D01*
X103338046Y-93570000D01*
X103362800Y-93701555D01*
X103440549Y-93822380D01*
X103559180Y-93903437D01*
X103565474Y-93904712D01*
X103447620Y-93980549D01*
X103366563Y-94099180D01*
X103338046Y-94240000D01*
X103338046Y-94840000D01*
X103362800Y-94971555D01*
X103440549Y-95092380D01*
X103559180Y-95173437D01*
X103565474Y-95174712D01*
X103447620Y-95250549D01*
X103366563Y-95369180D01*
X103338046Y-95510000D01*
X103338046Y-96110000D01*
X103362800Y-96241555D01*
X103440549Y-96362380D01*
X103559180Y-96443437D01*
X103565474Y-96444712D01*
X103447620Y-96520549D01*
X103366563Y-96639180D01*
X103338046Y-96780000D01*
X103338046Y-97380000D01*
X103362800Y-97511555D01*
X103440549Y-97632380D01*
X103559180Y-97713437D01*
X103700000Y-97741954D01*
X105700000Y-97741954D01*
X105831555Y-97717200D01*
X105952380Y-97639451D01*
X106033437Y-97520820D01*
X106061954Y-97380000D01*
X106061954Y-96780000D01*
X106037200Y-96648445D01*
X105959451Y-96527620D01*
X105840820Y-96446563D01*
X105834526Y-96445288D01*
X105952380Y-96369451D01*
X106006666Y-96290000D01*
X110611178Y-96290000D01*
X114460589Y-100139411D01*
X114616312Y-100243462D01*
X114800000Y-100280000D01*
X116853660Y-100280000D01*
X116928488Y-100354958D01*
X117169141Y-100454886D01*
X117429716Y-100455113D01*
X117670543Y-100355606D01*
X117854958Y-100171512D01*
X117954886Y-99930859D01*
X117955113Y-99670284D01*
X117855606Y-99429457D01*
X117671512Y-99245042D01*
X117430859Y-99145114D01*
X117170284Y-99144887D01*
X116929457Y-99244394D01*
X116853719Y-99320000D01*
X114998822Y-99320000D01*
X111149411Y-95470589D01*
X110993688Y-95366538D01*
X110810000Y-95330000D01*
X106006026Y-95330000D01*
X105959451Y-95257620D01*
X105840820Y-95176563D01*
X105834526Y-95175288D01*
X105952380Y-95099451D01*
X106006666Y-95020000D01*
X115588046Y-95020000D01*
X115588046Y-98550000D01*
X115612800Y-98681555D01*
X115690549Y-98802380D01*
X115809180Y-98883437D01*
X115950000Y-98911954D01*
X118050000Y-98911954D01*
X118181555Y-98887200D01*
X118302380Y-98809451D01*
X118383437Y-98690820D01*
X118411954Y-98550000D01*
X118411954Y-96230000D01*
X120666104Y-96230000D01*
X120725549Y-96322380D01*
X120844180Y-96403437D01*
X120985000Y-96431954D01*
X122235000Y-96431954D01*
X122366555Y-96407200D01*
X122487380Y-96329451D01*
X122568437Y-96210820D01*
X122596954Y-96070000D01*
X122596954Y-95070000D01*
X122572200Y-94938445D01*
X122494451Y-94817620D01*
X122375820Y-94736563D01*
X122235000Y-94708046D01*
X120985000Y-94708046D01*
X120853445Y-94732800D01*
X120732620Y-94810549D01*
X120651563Y-94929180D01*
X120623046Y-95070000D01*
X120623046Y-95270000D01*
X118411954Y-95270000D01*
X118411954Y-93855750D01*
X120350000Y-93855750D01*
X120350000Y-94196309D01*
X120446673Y-94429698D01*
X120625301Y-94608327D01*
X120858690Y-94705000D01*
X121324250Y-94705000D01*
X121483000Y-94546250D01*
X121483000Y-93697000D01*
X121737000Y-93697000D01*
X121737000Y-94546250D01*
X121895750Y-94705000D01*
X122361310Y-94705000D01*
X122594699Y-94608327D01*
X122773327Y-94429698D01*
X122870000Y-94196309D01*
X122870000Y-93855750D01*
X122711250Y-93697000D01*
X121737000Y-93697000D01*
X121483000Y-93697000D01*
X120508750Y-93697000D01*
X120350000Y-93855750D01*
X118411954Y-93855750D01*
X118411954Y-92950000D01*
X118410767Y-92943691D01*
X120350000Y-92943691D01*
X120350000Y-93284250D01*
X120508750Y-93443000D01*
X121483000Y-93443000D01*
X121483000Y-92593750D01*
X121737000Y-92593750D01*
X121737000Y-93443000D01*
X122711250Y-93443000D01*
X122870000Y-93284250D01*
X122870000Y-92943691D01*
X122773327Y-92710302D01*
X122594699Y-92531673D01*
X122361310Y-92435000D01*
X121895750Y-92435000D01*
X121737000Y-92593750D01*
X121483000Y-92593750D01*
X121324250Y-92435000D01*
X120858690Y-92435000D01*
X120625301Y-92531673D01*
X120446673Y-92710302D01*
X120350000Y-92943691D01*
X118410767Y-92943691D01*
X118387200Y-92818445D01*
X118309451Y-92697620D01*
X118190820Y-92616563D01*
X118050000Y-92588046D01*
X115950000Y-92588046D01*
X115818445Y-92612800D01*
X115697620Y-92690549D01*
X115616563Y-92809180D01*
X115588046Y-92950000D01*
X115588046Y-94060000D01*
X106006026Y-94060000D01*
X105959451Y-93987620D01*
X105840820Y-93906563D01*
X105834526Y-93905288D01*
X105952380Y-93829451D01*
X106006666Y-93750000D01*
X113890000Y-93750000D01*
X114073688Y-93713462D01*
X114229411Y-93609411D01*
X117339411Y-90499411D01*
X117443462Y-90343688D01*
X117480000Y-90160000D01*
X117480000Y-89411954D01*
X118050000Y-89411954D01*
X118181555Y-89387200D01*
X118302380Y-89309451D01*
X118383437Y-89190820D01*
X118411954Y-89050000D01*
X118411954Y-86540000D01*
X120623046Y-86540000D01*
X120623046Y-86560000D01*
X120647800Y-86691555D01*
X120725549Y-86812380D01*
X120844180Y-86893437D01*
X120985000Y-86921954D01*
X122235000Y-86921954D01*
X122366555Y-86897200D01*
X122487380Y-86819451D01*
X122568437Y-86700820D01*
X122596954Y-86560000D01*
X122596954Y-85560000D01*
X122572200Y-85428445D01*
X122494451Y-85307620D01*
X122375820Y-85226563D01*
X122235000Y-85198046D01*
X120985000Y-85198046D01*
X120853445Y-85222800D01*
X120732620Y-85300549D01*
X120651563Y-85419180D01*
X120623046Y-85560000D01*
X120623046Y-85580000D01*
X118411954Y-85580000D01*
X118411954Y-84345750D01*
X120350000Y-84345750D01*
X120350000Y-84686309D01*
X120446673Y-84919698D01*
X120625301Y-85098327D01*
X120858690Y-85195000D01*
X121324250Y-85195000D01*
X121483000Y-85036250D01*
X121483000Y-84187000D01*
X121737000Y-84187000D01*
X121737000Y-85036250D01*
X121895750Y-85195000D01*
X122361310Y-85195000D01*
X122594699Y-85098327D01*
X122773327Y-84919698D01*
X122870000Y-84686309D01*
X122870000Y-84345750D01*
X122711250Y-84187000D01*
X121737000Y-84187000D01*
X121483000Y-84187000D01*
X120508750Y-84187000D01*
X120350000Y-84345750D01*
X118411954Y-84345750D01*
X118411954Y-83450000D01*
X118408886Y-83433691D01*
X120350000Y-83433691D01*
X120350000Y-83774250D01*
X120508750Y-83933000D01*
X121483000Y-83933000D01*
X121483000Y-83083750D01*
X121737000Y-83083750D01*
X121737000Y-83933000D01*
X122711250Y-83933000D01*
X122870000Y-83774250D01*
X122870000Y-83433691D01*
X122773327Y-83200302D01*
X122594699Y-83021673D01*
X122361310Y-82925000D01*
X121895750Y-82925000D01*
X121737000Y-83083750D01*
X121483000Y-83083750D01*
X121324250Y-82925000D01*
X120858690Y-82925000D01*
X120625301Y-83021673D01*
X120446673Y-83200302D01*
X120350000Y-83433691D01*
X118408886Y-83433691D01*
X118387200Y-83318445D01*
X118309451Y-83197620D01*
X118190820Y-83116563D01*
X118050000Y-83088046D01*
X115950000Y-83088046D01*
X115818445Y-83112800D01*
X115697620Y-83190549D01*
X115616563Y-83309180D01*
X115588046Y-83450000D01*
X115588046Y-89050000D01*
X115612800Y-89181555D01*
X115690549Y-89302380D01*
X115809180Y-89383437D01*
X115950000Y-89411954D01*
X116520000Y-89411954D01*
X116520000Y-89961178D01*
X113691178Y-92790000D01*
X106006026Y-92790000D01*
X105959451Y-92717620D01*
X105840820Y-92636563D01*
X105834526Y-92635288D01*
X105952380Y-92559451D01*
X106006666Y-92480000D01*
X111873570Y-92480000D01*
X111896488Y-92502958D01*
X112137141Y-92602886D01*
X112397716Y-92603113D01*
X112638543Y-92503606D01*
X112822958Y-92319512D01*
X112922886Y-92078859D01*
X112923113Y-91818284D01*
X112823606Y-91577457D01*
X112639512Y-91393042D01*
X112398859Y-91293114D01*
X112138284Y-91292887D01*
X111897457Y-91392394D01*
X111769628Y-91520000D01*
X106006026Y-91520000D01*
X105959451Y-91447620D01*
X105840820Y-91366563D01*
X105834526Y-91365288D01*
X105952380Y-91289451D01*
X106033437Y-91170820D01*
X106061954Y-91030000D01*
X106061954Y-90430000D01*
X106037200Y-90298445D01*
X105959451Y-90177620D01*
X105840820Y-90096563D01*
X105834526Y-90095288D01*
X105952380Y-90019451D01*
X106033437Y-89900820D01*
X106061954Y-89760000D01*
X106061954Y-89160000D01*
X106037200Y-89028445D01*
X105959451Y-88907620D01*
X105840820Y-88826563D01*
X105834526Y-88825288D01*
X105952380Y-88749451D01*
X106033437Y-88630820D01*
X106061954Y-88490000D01*
X106061954Y-87890000D01*
X106037200Y-87758445D01*
X105959451Y-87637620D01*
X105840820Y-87556563D01*
X105834526Y-87555288D01*
X105952380Y-87479451D01*
X106033437Y-87360820D01*
X106061954Y-87220000D01*
X106061954Y-86620000D01*
X106037200Y-86488445D01*
X105959451Y-86367620D01*
X105840820Y-86286563D01*
X105700000Y-86258046D01*
X103700000Y-86258046D01*
X103568445Y-86282800D01*
X103447620Y-86360549D01*
X103366563Y-86479180D01*
X103338046Y-86620000D01*
X103338046Y-87220000D01*
X103362800Y-87351555D01*
X103440549Y-87472380D01*
X103559180Y-87553437D01*
X103565474Y-87554712D01*
X103447620Y-87630549D01*
X103366563Y-87749180D01*
X103338046Y-87890000D01*
X103338046Y-88490000D01*
X103362800Y-88621555D01*
X103440549Y-88742380D01*
X103559180Y-88823437D01*
X103565474Y-88824712D01*
X103447620Y-88900549D01*
X103393334Y-88980000D01*
X103028822Y-88980000D01*
X102950000Y-88901178D01*
X102950000Y-84578822D01*
X104623596Y-82905226D01*
X104839270Y-82994782D01*
X105338540Y-82995217D01*
X105799972Y-82804558D01*
X106153317Y-82451829D01*
X106344782Y-81990730D01*
X106345217Y-81491460D01*
X106154558Y-81030028D01*
X105801829Y-80676683D01*
X105340730Y-80485218D01*
X104841460Y-80484783D01*
X104380028Y-80675442D01*
X104026683Y-81028171D01*
X103835218Y-81489270D01*
X103834783Y-81988540D01*
X103936489Y-82234689D01*
X102130589Y-84040589D01*
X102026538Y-84196312D01*
X101990000Y-84380000D01*
X101990000Y-89100000D01*
X102026538Y-89283688D01*
X102095060Y-89386238D01*
X101680000Y-88971178D01*
X101680000Y-83308822D01*
X102083596Y-82905226D01*
X102299270Y-82994782D01*
X102798540Y-82995217D01*
X103259972Y-82804558D01*
X103613317Y-82451829D01*
X103804782Y-81990730D01*
X103805217Y-81491460D01*
X103614558Y-81030028D01*
X103261829Y-80676683D01*
X102800730Y-80485218D01*
X102301460Y-80484783D01*
X101840028Y-80675442D01*
X101486683Y-81028171D01*
X101437794Y-81145909D01*
X101346643Y-80925852D01*
X101090159Y-80839446D01*
X100189605Y-81740000D01*
X100203748Y-81754143D01*
X100024143Y-81933748D01*
X100010000Y-81919605D01*
X99109446Y-82820159D01*
X99195852Y-83076643D01*
X99769336Y-83286458D01*
X100379460Y-83260839D01*
X100720000Y-83119783D01*
X100720000Y-89170000D01*
X100756538Y-89353688D01*
X100860589Y-89509411D01*
X102420589Y-91069411D01*
X102576312Y-91173462D01*
X102760000Y-91210000D01*
X103393974Y-91210000D01*
X103440549Y-91282380D01*
X103559180Y-91363437D01*
X103565474Y-91364712D01*
X103447620Y-91440549D01*
X103393334Y-91520000D01*
X102358823Y-91520000D01*
X100048000Y-89209178D01*
X100048000Y-85090000D01*
X100011462Y-84906312D01*
X99907411Y-84750589D01*
X98025292Y-82868470D01*
X98179972Y-82804558D01*
X98533317Y-82451829D01*
X98582206Y-82334091D01*
X98673357Y-82554148D01*
X98929841Y-82640554D01*
X99830395Y-81740000D01*
X98929841Y-80839446D01*
X98673357Y-80925852D01*
X98587959Y-81159269D01*
X98534558Y-81030028D01*
X98181829Y-80676683D01*
X98141269Y-80659841D01*
X99109446Y-80659841D01*
X100010000Y-81560395D01*
X100910554Y-80659841D01*
X100824148Y-80403357D01*
X100250664Y-80193542D01*
X99640540Y-80219161D01*
X99195852Y-80403357D01*
X99109446Y-80659841D01*
X98141269Y-80659841D01*
X97960000Y-80584572D01*
X97960000Y-80208000D01*
X97923462Y-80024312D01*
X97819411Y-79868589D01*
X96786028Y-78835206D01*
X96833437Y-78765820D01*
X96861954Y-78625000D01*
X96861954Y-78285750D01*
X96865000Y-78285750D01*
X96865000Y-78751310D01*
X96961673Y-78984699D01*
X97140302Y-79163327D01*
X97373691Y-79260000D01*
X97714250Y-79260000D01*
X97873000Y-79101250D01*
X97873000Y-78127000D01*
X98127000Y-78127000D01*
X98127000Y-79101250D01*
X98285750Y-79260000D01*
X98626309Y-79260000D01*
X98859698Y-79163327D01*
X99038327Y-78984699D01*
X99135000Y-78751310D01*
X99135000Y-78285750D01*
X98976250Y-78127000D01*
X98127000Y-78127000D01*
X97873000Y-78127000D01*
X97023750Y-78127000D01*
X96865000Y-78285750D01*
X96861954Y-78285750D01*
X96861954Y-77375000D01*
X96837200Y-77243445D01*
X96759451Y-77122620D01*
X96640820Y-77041563D01*
X96554699Y-77024123D01*
X96698822Y-76880000D01*
X97096975Y-76880000D01*
X96961673Y-77015301D01*
X96865000Y-77248690D01*
X96865000Y-77714250D01*
X97023750Y-77873000D01*
X97873000Y-77873000D01*
X97873000Y-77853000D01*
X98127000Y-77853000D01*
X98127000Y-77873000D01*
X98976250Y-77873000D01*
X99135000Y-77714250D01*
X99135000Y-77248690D01*
X99038327Y-77015301D01*
X98903025Y-76880000D01*
X101076178Y-76880000D01*
X101286627Y-77090449D01*
X101247620Y-77115549D01*
X101166563Y-77234180D01*
X101138046Y-77375000D01*
X101138046Y-78625000D01*
X101162800Y-78756555D01*
X101240549Y-78877380D01*
X101359180Y-78958437D01*
X101500000Y-78986954D01*
X102500000Y-78986954D01*
X102631555Y-78962200D01*
X102752380Y-78884451D01*
X102833437Y-78765820D01*
X102861954Y-78625000D01*
X102861954Y-78285750D01*
X102865000Y-78285750D01*
X102865000Y-78751310D01*
X102961673Y-78984699D01*
X103140302Y-79163327D01*
X103373691Y-79260000D01*
X103714250Y-79260000D01*
X103873000Y-79101250D01*
X103873000Y-78127000D01*
X104127000Y-78127000D01*
X104127000Y-79101250D01*
X104285750Y-79260000D01*
X104626309Y-79260000D01*
X104859698Y-79163327D01*
X105038327Y-78984699D01*
X105135000Y-78751310D01*
X105135000Y-78285750D01*
X104976250Y-78127000D01*
X104127000Y-78127000D01*
X103873000Y-78127000D01*
X103023750Y-78127000D01*
X102865000Y-78285750D01*
X102861954Y-78285750D01*
X102861954Y-77375000D01*
X102838187Y-77248690D01*
X102865000Y-77248690D01*
X102865000Y-77714250D01*
X103023750Y-77873000D01*
X103873000Y-77873000D01*
X103873000Y-76898750D01*
X104127000Y-76898750D01*
X104127000Y-77873000D01*
X104976250Y-77873000D01*
X105135000Y-77714250D01*
X105135000Y-77248690D01*
X105038327Y-77015301D01*
X104859698Y-76836673D01*
X104626309Y-76740000D01*
X104285750Y-76740000D01*
X104127000Y-76898750D01*
X103873000Y-76898750D01*
X103714250Y-76740000D01*
X103373691Y-76740000D01*
X103140302Y-76836673D01*
X102961673Y-77015301D01*
X102865000Y-77248690D01*
X102838187Y-77248690D01*
X102837200Y-77243445D01*
X102759451Y-77122620D01*
X102640820Y-77041563D01*
X102500000Y-77013046D01*
X102457731Y-77013046D01*
X102443462Y-76941312D01*
X102339411Y-76785589D01*
X101614411Y-76060589D01*
X101458688Y-75956538D01*
X101275000Y-75920000D01*
X96500000Y-75920000D01*
X96316312Y-75956538D01*
X96160589Y-76060589D01*
X95660589Y-76560589D01*
X95556538Y-76716312D01*
X95520000Y-76900000D01*
X95520000Y-77013046D01*
X95500000Y-77013046D01*
X95368445Y-77037800D01*
X95247620Y-77115549D01*
X95166563Y-77234180D01*
X95138046Y-77375000D01*
X87743822Y-77375000D01*
X89468822Y-75650000D01*
X105338046Y-75650000D01*
X105338046Y-77150000D01*
X105362800Y-77281555D01*
X105440549Y-77402380D01*
X105559180Y-77483437D01*
X105700000Y-77511954D01*
X107000000Y-77511954D01*
X107131555Y-77487200D01*
X107252380Y-77409451D01*
X107333437Y-77290820D01*
X107361954Y-77150000D01*
X107361954Y-76880000D01*
X112701178Y-76880000D01*
X113444979Y-77623801D01*
X113444887Y-77729716D01*
X113544394Y-77970543D01*
X113728488Y-78154958D01*
X113969141Y-78254886D01*
X114229716Y-78255113D01*
X114470543Y-78155606D01*
X114654958Y-77971512D01*
X114754886Y-77730859D01*
X114755113Y-77470284D01*
X114655606Y-77229457D01*
X114471512Y-77045042D01*
X114230859Y-76945114D01*
X114123843Y-76945021D01*
X113239411Y-76060589D01*
X113083688Y-75956538D01*
X112900000Y-75920000D01*
X107361954Y-75920000D01*
X107361954Y-75650000D01*
X107337200Y-75518445D01*
X107259451Y-75397620D01*
X107140820Y-75316563D01*
X107000000Y-75288046D01*
X105700000Y-75288046D01*
X105568445Y-75312800D01*
X105447620Y-75390549D01*
X105366563Y-75509180D01*
X105338046Y-75650000D01*
X89468822Y-75650000D01*
X91486822Y-73632000D01*
X91501660Y-73632000D01*
X91576488Y-73706958D01*
X91817141Y-73806886D01*
X92077716Y-73807113D01*
X92318543Y-73707606D01*
X92502958Y-73523512D01*
X92602886Y-73282859D01*
X92603113Y-73022284D01*
X92503606Y-72781457D01*
X92319512Y-72597042D01*
X92078859Y-72497114D01*
X91818284Y-72496887D01*
X91577457Y-72596394D01*
X91501719Y-72672000D01*
X91288000Y-72672000D01*
X91104312Y-72708538D01*
X90948589Y-72812589D01*
X78360589Y-85400589D01*
X78256538Y-85556312D01*
X78242269Y-85628046D01*
X77950000Y-85628046D01*
X77818445Y-85652800D01*
X77697620Y-85730549D01*
X77616563Y-85849180D01*
X77588046Y-85990000D01*
X77588046Y-86160000D01*
X76174000Y-86160000D01*
X75990312Y-86196538D01*
X75834589Y-86300589D01*
X74590589Y-87544589D01*
X74486538Y-87700312D01*
X74450000Y-87884000D01*
X74450000Y-89971178D01*
X73128199Y-91292979D01*
X73022284Y-91292887D01*
X72781457Y-91392394D01*
X72597042Y-91576488D01*
X72497114Y-91817141D01*
X72496887Y-92077716D01*
X72005840Y-92077716D01*
X72680882Y-88684051D01*
X79090852Y-79090852D01*
X88684051Y-72680882D01*
X98758509Y-70676948D01*
X98343598Y-71091135D01*
M02*
